<svg width="373" height="373" viewBox="0 0 373 373" fill="none" xmlns="http://www.w3.org/2000/svg">
<path d="M0 275C0 258.431 13.4315 245 30 245H343C359.569 245 373 258.431 373 275V373H0V275Z" fill="#6B8EDE"/>
<path d="M150.327 265.657H160.815H205.145H285.413L326.386 307.688L201.362 313.822C187.285 302.465 150.803 277.861 148.789 275.851C146.272 273.337 145.573 271.522 146.132 268.59C146.579 266.244 149.115 265.657 150.327 265.657Z" fill="#D9D9D9" stroke="#232E53" stroke-width="2.23744" stroke-linejoin="round"/>
<path d="M155.247 258.913C138.575 258.165 101.522 257.117 86.6853 258.913C68.14 261.158 40.041 265.086 33.8592 261.158C30.4812 259.011 29.533 257.964 29.51 257.516C28.3864 258.194 26.2743 258.802 24.3057 257.23C22.0578 255.434 21.1212 253.863 20.9339 253.302C19.6226 252.74 17 251.057 17 248.812C17 246.006 17 242.639 24.3057 240.956C31.6115 239.272 43.413 233.1 46.7849 228.049C50.1568 222.999 54.6526 215.704 59.1485 214.02C63.6443 212.337 75.4459 208.97 82.1897 197.185C88.9334 185.401 93.4292 149.486 117.032 139.386C140.636 129.285 165.363 138.263 172.106 142.191C178.85 146.119 190.09 155.098 190.652 155.098H200.205C198.707 152.105 196.272 143.875 198.519 134.896C201.329 123.673 212.569 116.939 213.693 113.011C214.817 109.083 217.627 103.471 220.999 101.226C223.696 99.4307 227.368 97.1113 228.866 96.176C232.238 84.3916 242.017 60.7105 254.155 60.2616C266.294 59.8127 270.453 79.1541 271.015 88.8809C274.387 88.6938 283.266 88.9931 291.808 91.6867C300.35 94.3803 307.356 98.4206 309.791 100.104C318.596 95.6148 338.452 88.2075 347.444 94.4925C356.436 100.778 345.571 122.551 339.014 132.652C339.576 138.076 340.7 149.711 340.7 152.853C340.7 156.782 344.072 160.149 342.386 165.76C341.038 170.249 340.7 172.868 340.7 173.616C342.012 173.803 344.522 175.412 344.072 180.35C343.623 185.289 337.141 192.509 333.957 195.502C334.893 198.308 336.766 205.042 336.766 209.531V225.243L225.494 230.294L212.007 258.913H205.263C205.638 262.28 206.612 269.8 207.511 272.942C208.635 276.87 206.949 284.727 203.577 286.41C200.205 288.094 195.148 287.532 192.9 285.288C191.101 283.492 189.528 282.295 188.966 281.921C188.591 282.482 187.055 283.604 183.908 283.604C180.761 283.604 177.352 282.108 176.04 281.36C174.729 281.734 171.32 282.258 168.173 281.36C164.239 280.237 162.553 276.309 162.553 274.626C162.553 273.279 163.302 270.698 163.677 269.575C162.365 267.144 159.406 261.944 158.057 260.597C156.708 259.25 155.622 258.913 155.247 258.913Z" fill="white"/>
<path d="M254.716 199.99C253.368 199.99 251.906 198.868 251.344 198.307C251.344 197.746 251.285 196.737 250.836 195.839C250.386 194.941 249.436 193.63 249.061 193.256C249.621 193.017 250.496 192.634 251.344 192.204C252.484 191.627 253.639 190.965 254.154 190.451C255.278 189.328 256.402 188.767 255.278 185.4C254.379 182.706 248.535 180.911 245.725 180.35C248.347 179.788 253.705 178.442 254.154 177.544C254.604 176.646 254.342 174.177 254.154 173.054C255.278 171.932 261.01 169.688 274.948 169.688C288.885 169.688 294.242 171.932 295.179 173.054C294.992 177.17 294.504 186.971 294.055 193.256C293.493 201.113 294.055 206.163 276.072 207.285C258.088 208.408 258.65 202.235 258.088 200.551C257.526 198.868 256.402 199.99 254.716 199.99Z" fill="#6B8EDE"/>
<path d="M253.808 181.596C254.137 181.815 254.507 183.83 254.787 184.668C254.647 184.575 253.948 183.718 253.388 183.272C252.829 182.825 251.943 182.341 251.57 182.154C252.176 181.968 253.388 181.317 253.808 181.596Z" fill="#FEFEFE"/>
<path d="M257.864 196.817C257.864 196.817 255.487 197.655 253.669 196.119C252.236 194.908 251.591 192.875 251.438 191.969C251.762 191.816 252.466 191.483 252.69 191.371C252.97 191.231 254.368 190.254 254.648 189.974C254.872 189.751 255.58 188.671 255.767 188.438C256.046 189.276 256.606 191.231 256.885 192.348C257.175 193.506 257.864 196.817 257.864 196.817Z" fill="#FEFEFE"/>
<path d="M90.619 242.638C82.0769 245.332 72.0736 255.732 68.1398 260.595C72.8229 260.034 84.662 258.687 94.5528 257.789C104.444 256.892 139.511 258.164 155.809 258.912C153.373 255.919 145.918 248.923 135.577 244.883C125.237 240.842 114.409 230.48 110.288 225.803C107.291 230.292 99.161 239.944 90.619 242.638Z" fill="#D9D9D9"/>
<path d="M163.114 238.71C174.354 243.199 193.274 238.71 201.329 235.904L198.519 217.386C202.453 217.947 211.332 218.733 215.378 217.386C220.436 215.702 228.866 208.968 231.114 204.479C233.362 199.99 235.048 183.716 231.114 183.155C227.967 182.706 211.445 185.587 203.577 187.083C205.637 184.838 210.096 179.227 211.445 174.738C212.793 170.248 212.007 168.004 211.445 167.442L200.205 155.658H191.213C189.34 154.162 184.02 149.934 177.726 144.996C169.858 138.823 157.495 133.211 131.643 134.334C110.963 135.232 99.9853 151.917 97.3627 159.586C97.1754 162.018 96.9131 168.116 97.3627 173.054C97.9247 179.227 99.6106 183.155 106.916 195.5C114.222 207.846 149.065 233.098 163.114 238.71Z" fill="#D9D9D9"/>
<path d="M211.445 149.485C208.298 154.423 204.139 156.406 202.453 156.78C200.58 153.039 197.058 143.761 197.957 136.578C198.856 129.395 207.323 120.118 211.445 116.377C211.819 115.441 213.355 112.224 216.502 106.837C219.65 101.45 225.681 97.8581 228.304 96.7358C232.425 84.5772 243.477 60.1479 254.717 59.6989C265.957 59.25 270.265 78.9655 271.014 88.8794C275.323 89.2535 285.401 90.2262 291.246 91.1241C297.09 92.0219 305.67 97.1099 309.229 99.5416C319.907 95.4264 342.835 88.8795 349.13 95.6134C355.424 102.347 345.008 123.11 339.014 132.65L341.262 152.852C341.262 154.536 341.599 158.576 342.948 161.269C344.297 163.963 342.386 169.874 341.262 172.493C339.951 173.241 336.878 174.738 335.08 174.738C332.832 174.738 330.584 176.421 328.898 176.421C327.55 176.421 320.469 178.666 317.097 179.788C316.16 179.414 314.287 178.217 314.287 176.421V152.852C314.287 139.945 292.37 124.794 273.824 118.621C255.279 112.448 236.734 118.621 231.114 118.621C225.494 118.621 215.378 143.312 211.445 149.485Z" fill="#D9D9D9"/>
<path d="M100.735 151.169C99.8354 152.066 96.9881 157.903 95.6768 160.708L95.1145 161.831C94.5525 161.644 93.0914 161.045 91.7426 160.147C90.0567 159.025 83.3129 152.852 81.627 151.169C79.9411 149.485 77.6931 136.017 77.1312 132.089C76.5692 128.161 72.0733 119.743 70.3874 117.499C68.7015 115.254 61.3957 110.765 52.966 116.377C44.5363 121.988 47.9082 128.161 50.7181 131.528C53.528 134.895 52.966 138.823 49.5941 141.068C46.2223 143.312 41.7267 141.629 37.2309 138.823C32.735 136.017 31.0491 127.039 32.735 119.182C34.421 111.326 37.2309 105.714 53.5283 99.5416C69.8257 93.3688 88.371 108.52 91.7429 112.448C95.1148 116.377 96.2388 133.773 97.9247 137.14C99.2734 139.833 104.481 143.125 106.916 144.435C105.23 146.305 101.634 150.271 100.735 151.169Z" fill="#D9D9D9"/>
<path d="M200.205 153.975C197.208 153.975 191.101 153.975 190.652 153.975C190.09 153.975 178.85 144.996 172.106 141.068C165.363 137.14 140.636 128.162 117.032 138.262C113.428 139.805 110.268 141.95 107.479 144.519M200.205 153.975C202.453 156.781 207.736 163.066 210.883 165.759C214.03 168.453 215.566 169.126 215.941 169.126M200.205 153.975C198.707 150.982 196.272 142.752 198.519 133.773C201.329 122.55 212.569 115.816 213.693 111.888C214.817 107.96 217.627 102.348 220.999 100.103C223.696 98.3077 227.368 95.9882 228.866 95.053C232.238 83.2685 242.017 59.5875 254.155 59.1385C266.294 58.6896 270.453 78.031 271.015 87.7578C274.387 87.5708 283.266 87.8701 291.808 90.5636C300.35 93.2572 307.356 97.2976 309.791 98.9811C318.596 94.4918 338.452 87.0844 347.444 93.3695C356.436 99.6545 345.571 121.428 339.014 131.529C339.576 136.953 340.7 148.588 340.7 151.73C340.7 155.659 344.072 159.026 342.386 164.637C341.038 169.126 340.7 171.745 340.7 172.493M340.7 172.493C342.012 172.68 344.522 174.289 344.072 179.227C343.623 184.166 337.141 191.386 333.957 194.379C334.893 197.185 336.766 203.919 336.766 208.408C336.766 212.897 336.766 220.753 336.766 224.12L297.99 225.88M340.7 172.493C340.326 172.493 339.352 172.493 338.452 172.493C337.553 172.493 336.954 174.14 336.766 174.963M205.263 257.79H212.007L225.494 229.171L297.99 225.88M205.263 257.79C205.638 261.157 206.612 268.677 207.511 271.819C208.635 275.747 206.949 283.604 203.577 285.287C200.205 286.971 195.148 286.409 192.9 284.165C191.101 282.369 189.528 281.172 188.966 280.798C188.591 281.359 187.055 282.481 183.908 282.481C180.761 282.481 177.352 280.985 176.04 280.237C174.729 280.611 171.32 281.135 168.173 280.237C164.239 279.114 162.553 275.186 162.553 273.503C162.553 272.156 163.302 269.575 163.677 268.452C162.365 266.021 159.406 260.821 158.057 259.474M205.263 257.79C205.076 247.876 202.903 224.12 195.71 208.408C188.516 192.695 175.478 175.673 169.859 169.126M158.057 259.474C156.708 258.127 155.622 257.79 155.247 257.79C138.575 257.042 101.522 255.994 86.6853 257.79C68.14 260.035 40.041 263.963 33.8592 260.035C28.9138 256.892 29.1761 256.107 29.9254 256.107C28.9888 256.855 26.5537 257.902 24.3057 256.107C22.0578 254.311 21.1212 252.74 20.9339 252.179C19.6226 251.617 17 249.934 17 247.689C17 244.883 17 241.516 24.3057 239.833C31.6115 238.149 43.413 231.977 46.7849 226.926C50.1568 221.876 54.6526 214.581 59.1485 212.897C63.6443 211.214 75.4459 207.847 82.1897 196.062C85.9605 189.473 89.0284 175.339 95.127 162.392M158.057 259.474C149.44 252.366 132.493 242.793 120.14 233.228C109.018 224.616 98.8617 207.473 97.9251 199.99M95.127 162.392C92.3131 160.335 84.8872 156.107 82.1897 151.169C78.8178 144.996 75.8623 126.368 73.198 121.428C69.2641 114.132 61.4475 111.888 54.6526 115.816C43.975 121.989 47.3469 127.039 49.5948 130.406C51.8427 133.773 54.0907 138.824 49.5948 141.068C45.099 143.313 37.2313 141.068 33.8594 133.773C30.9944 127.575 30.4875 106.837 50.7188 100.103C70.9501 93.3695 88.3596 107.399 91.7433 113.571C95.127 119.744 95.6772 135.457 98.4871 138.262C100.735 140.507 105.418 143.369 107.479 144.519M95.127 162.392C98.2694 155.721 102.216 149.365 107.479 144.519M181.098 182.594C180.911 180.724 181.323 176.197 184.47 173.055M212.569 224.12C219.875 222.811 232.347 219.076 236.098 217.925C240.72 216.507 250.784 218.202 252.445 213.844C254.106 209.486 249.098 209.904 247.412 208.408C249.098 206.911 251.934 204.663 250.784 202.235C249.968 200.513 247.974 200.552 247.412 200.552C248.536 200.177 250.402 199.562 250.402 197.011C250.402 194.461 247.786 193.443 246.85 192.695C249.66 192.134 255.167 190.226 254.717 187.084C254.155 183.155 247.974 180.911 237.296 180.911C226.618 180.911 204.701 183.717 200.205 187.084M297.99 225.88C297.053 219.121 296.192 203.357 300.238 194.379C305.296 183.155 315.411 177.544 320.469 176.983C324.42 176.544 327.685 175.421 329.461 176.02M328.337 182.594C329.461 181.472 331.484 178.778 330.585 176.983C330.339 176.491 329.958 176.188 329.461 176.02M329.461 176.02C330.21 175.219 332.383 173.728 335.081 174.177C335.766 174.291 336.32 174.576 336.766 174.963M338.452 179.227C338.452 178.111 338.077 176.099 336.766 174.963" stroke="#232E53" stroke-width="3.26932" stroke-linecap="round" stroke-linejoin="round"/>
<path d="M321.919 313.821H203.917C203.236 313.991 201.261 313.821 198.809 311.78C195.744 309.23 195.744 305.149 195.744 303.619C195.744 302.089 217.199 238.328 220.264 231.186C222.716 225.474 230.14 224.896 233.546 225.066C272.028 224.896 344.396 225.168 350.526 225.576C356.656 225.984 357.677 231.188 356.656 235.778C347.631 256.862 333.771 300.762 332.136 305.659C329.241 314.331 324.473 313.311 321.919 313.821Z" fill="#D9D9D9" stroke="#232E53" stroke-width="3.06498" stroke-linejoin="round"/>
<path d="M288.896 279.878L273.59 279.122C273.08 279.097 271.778 278.736 271.09 277.977C270.12 276.908 270.68 275.914 270.706 275.405C270.731 274.895 275.651 268.499 282.284 268.827C288.916 269.154 291.725 274.4 292.644 276.488C293.564 278.577 290.937 279.979 288.896 279.878Z" fill="#FEFEFE"/>
<path d="M290.286 264.193C289.691 265.776 288.352 266.737 287.295 266.341C286.239 265.945 285.865 264.341 286.46 262.758C287.056 261.176 288.394 260.215 289.451 260.611C290.507 261.007 290.881 262.611 290.286 264.193Z" fill="#FEFEFE"/>
<path d="M280.897 261.571C281.078 263.251 280.315 264.711 279.193 264.832C278.071 264.952 277.015 263.687 276.834 262.006C276.653 260.326 277.417 258.866 278.539 258.746C279.661 258.625 280.717 259.89 280.897 261.571Z" fill="#FEFEFE"/>
<path d="M272.114 263.874C272.841 265.4 272.603 267.03 271.584 267.514C270.565 267.997 269.149 267.152 268.423 265.625C267.697 264.098 267.934 262.468 268.953 261.985C269.972 261.501 271.388 262.347 272.114 263.874Z" fill="#FEFEFE"/>
<path d="M296.501 268.233C295.48 269.581 293.922 270.123 293.022 269.443C292.122 268.764 292.22 267.12 293.242 265.772C294.263 264.424 295.82 263.882 296.72 264.562C297.62 265.241 297.522 266.885 296.501 268.233Z" fill="#FEFEFE"/>
<path d="M205.826 114.694C204.477 112.449 199.269 111.14 196.834 110.766C197.958 110.204 200.88 108.409 203.578 105.715C206.275 103.022 205.826 93.7437 205.264 89.4414C206.95 91.6861 210.996 97.2977 213.693 101.787C216.116 105.819 220.836 106.833 223.537 106.862C223.879 106.804 224.16 106.802 224.371 106.837C224.123 106.856 223.843 106.866 223.537 106.862C222.052 107.116 219.426 108.436 216.503 112.449C212.907 117.387 211.633 125.356 211.445 128.723C210.134 124.982 207.174 116.938 205.826 114.694Z" fill="#FCED90" stroke="#232E53" stroke-width="2.24792" stroke-linejoin="round"/>
<path d="M251.464 90.3235C248.865 90.8433 243.146 91.4672 241.066 89.8036C238.987 88.14 239.16 87.0309 239.507 86.6843C241.759 80.4458 247.305 67.9688 251.464 67.9688C256.663 67.9688 259.262 75.7669 259.782 78.3663C260.148 80.1944 261.612 84.5669 262.549 87.2457C262.695 87.6078 262.813 87.9494 262.902 88.244C262.797 87.9506 262.678 87.6142 262.549 87.2457C261.837 85.4774 260.469 83.2198 258.743 83.5651C256.663 83.981 256.143 87.2042 256.143 88.7638C255.277 87.3775 253.336 84.8128 252.504 85.6446C251.672 86.4764 251.464 89.1104 251.464 90.3235Z" fill="#F9B3AC"/>
<path d="M341.403 100.201C337.66 95.2103 323.901 100.548 317.489 103.84H319.048C320.955 103.84 324.975 104.048 325.807 104.88C326.846 105.92 324.247 109.559 325.807 108.519C327.366 107.479 328.926 109.039 327.886 112.158C326.846 115.278 326.846 114.758 328.926 119.956C330.59 124.115 333.778 125.155 335.165 125.155C338.804 118.917 345.146 105.192 341.403 100.201Z" fill="#F9B3AC"/>
<path d="M238.42 88.8799C240.855 81.7719 247.074 67.668 252.469 68.1169C257.864 68.5658 261.461 82.146 262.585 88.8799C262.21 86.8223 260.899 82.8193 258.651 83.2683C256.403 83.7172 255.841 87.1964 255.841 88.8799C255.467 87.5705 254.268 85.1762 252.469 86.0741C250.671 86.9719 250.971 89.441 251.345 90.5634M334.518 125.917C338.452 119.37 345.421 105.041 341.824 100.103C338.228 95.1649 323.466 101.038 316.535 104.592C318.97 104.031 324.178 103.246 325.527 104.592C326.876 105.939 324.59 108.895 323.279 110.204C324.59 109.456 327.438 108.184 328.337 109.082C329.236 109.98 327.962 113.197 327.213 114.693" stroke="#232E53" stroke-width="2.24792" stroke-linecap="round" stroke-linejoin="round"/>
<path d="M235.048 147.803C214.367 142.865 215.941 127.414 219.313 120.306C218.938 118.997 218.301 115.817 218.75 113.572C219.312 110.766 225.494 110.766 239.543 112.45C250.783 113.796 258.838 118.248 261.461 120.306C262.585 119.932 265.956 119.408 270.452 120.306C274.948 121.204 277.945 123.673 278.882 124.795C281.879 124.234 290.122 123.449 299.113 124.795C310.353 126.479 321.03 132.652 321.03 135.457C321.03 138.263 318.221 140.508 317.097 142.191C315.973 143.875 311.477 160.71 289.56 157.904C267.642 155.098 273.262 132.09 273.824 130.407C274.386 128.723 271.576 127.04 268.766 125.918C265.956 124.795 262.023 125.357 261.461 127.04C260.899 128.723 260.899 153.976 235.048 147.803Z" fill="#232E53"/>
<path d="M262.024 138.823C260.775 139.501 262.962 141.629 263.712 142.19C263.899 142.377 264.444 142.507 265.397 142.19C267.083 141.629 269.126 141.216 268.769 140.506C268.206 139.384 263.711 137.906 262.024 138.823Z" fill="#F9B3AC"/>
<path d="M262.024 138.262C261.837 139.197 261.912 141.292 263.71 142.19C265.509 143.088 267.832 141.442 268.768 140.506M263.847 142.253L262.587 149.485M262.587 149.485C262.025 150.42 260.564 152.291 259.215 152.291M262.587 149.485C262.774 150.42 263.261 152.403 263.71 152.852" stroke="#232E53" stroke-width="1.12396" stroke-linecap="round" stroke-linejoin="round"/>
</svg>
