<svg width="373" height="373" viewBox="0 0 373 373" fill="none" xmlns="http://www.w3.org/2000/svg">
<path d="M0 275C0 258.431 13.4315 245 30 245H343C359.569 245 373 258.431 373 275V373H0V275Z" fill="#6B8EDE"/>
<rect x="168.367" y="36.916" width="135.35" height="79.6175" rx="1.90062" fill="#FF5391"/>
<path d="M210.104 92.8232L200.601 66.2146H204.402L212.119 88.4138L219.797 66.2146H223.636L214.095 92.8232H210.104ZM240.242 73.8171H243.549V92.8232H240.242V90.0864C238.899 92.2404 236.846 93.3174 234.084 93.3174C231.854 93.3174 230.067 92.6205 228.724 91.2267C227.381 89.8076 226.71 87.8943 226.71 85.4869V73.8171H230.017V85.2968C230.017 86.8426 230.435 88.0464 231.271 88.908C232.107 89.7442 233.26 90.1624 234.73 90.1624C236.377 90.1624 237.708 89.6555 238.721 88.6419C239.735 87.6029 240.242 86.019 240.242 83.8903V73.8171ZM252.803 84.8407C253.133 86.5385 253.906 87.8563 255.122 88.7939C256.364 89.7316 257.884 90.2004 259.683 90.2004C262.192 90.2004 264.017 89.2754 265.157 87.4255L267.97 89.022C266.12 91.8856 263.333 93.3174 259.607 93.3174C256.592 93.3174 254.134 92.3798 252.233 90.5045C250.358 88.6039 249.42 86.2091 249.42 83.3202C249.42 80.4566 250.345 78.0745 252.195 76.1738C254.045 74.2732 256.44 73.3229 259.379 73.3229C262.167 73.3229 264.435 74.3112 266.184 76.2879C267.957 78.2392 268.844 80.5959 268.844 83.3582C268.844 83.8397 268.806 84.3338 268.73 84.8407H252.803ZM259.379 76.4399C257.605 76.4399 256.136 76.9468 254.97 77.9604C253.804 78.9487 253.082 80.2792 252.803 81.9517H265.499C265.221 80.1525 264.511 78.784 263.371 77.8464C262.23 76.9087 260.9 76.4399 259.379 76.4399Z" fill="white"/>
<path d="M168.367 38.8166C168.367 37.767 169.218 36.916 170.268 36.916H301.816C302.866 36.916 303.717 37.767 303.717 38.8166V48.8586H168.367V38.8166Z" fill="#9E3058"/>
<circle cx="179.065" cy="42.4048" r="2.55913" fill="#FEFEFE"/>
<circle cx="190.288" cy="42.4048" r="2.55913" fill="#FEFEFE"/>
<circle cx="201.51" cy="42.4048" r="2.55913" fill="#FEFEFE"/>
<path d="M48.6131 272.896C39.1974 270.542 39.1974 259.557 40.3744 254.359C43.1206 251.024 50.7316 243.472 59.2056 239.941C69.7982 235.528 95.6912 236.411 98.3394 239.941C100.988 243.472 103.047 246.12 103.047 252.299C103.047 258.478 100.105 264.363 89.5122 269.954C78.9196 275.544 60.3826 275.839 48.6131 272.896Z" fill="#6B8EDE"/>
<path d="M48.6131 272.896C39.1974 270.542 39.1974 259.557 40.3744 254.359C43.1206 251.024 50.7316 243.472 59.2056 239.941C69.7982 235.528 95.6912 236.411 98.3394 239.941C100.988 243.472 103.047 246.12 103.047 252.299C103.047 258.478 100.105 264.363 89.5122 269.954C78.9196 275.544 60.3826 275.839 48.6131 272.896ZM48.6131 272.896C48.4169 271.131 48.4954 266.776 50.3785 263.481C52.2616 260.185 54.694 257.596 55.6748 256.713" stroke="#232E53" stroke-width="1.76543"/>
<rect x="50.8301" y="258.697" width="3.22142" height="6.94854" rx="0.588477" transform="rotate(24.2091 50.8301 258.697)" fill="#232E53"/>
<path d="M254.579 254.947C239.573 258.478 201.675 265.069 170.133 263.186C130.705 260.832 113.933 257.595 103.341 246.709C100.769 244.065 99.0466 241.404 97.9851 238.764C97.7106 245.139 95.6315 258.066 89.5114 258.772C83.3912 259.479 81.0765 255.34 80.6842 253.182C78.0361 256.32 71.4451 262.539 66.2665 262.303C61.0879 262.068 59.5971 258.086 59.499 256.124C57.1451 257.89 51.4369 261.126 47.4352 259.949C43.4336 258.772 43.0217 254.947 43.3159 253.182C41.9428 254.261 38.4904 255.183 35.6657 250.239C32.1349 244.06 43.0217 229.054 59.499 215.814C72.6809 205.221 95.7015 205.515 105.564 206.986C108.049 200.073 109.499 192.594 110.108 186.095C110.814 178.563 115.11 170.795 117.17 167.853C114.129 158.731 109.578 136.958 115.699 122.834C123.349 105.18 125.703 105.474 131.587 106.651C136.295 107.593 157.873 126.071 168.073 135.192C174.742 133.525 190.435 130.367 199.851 131.073C211.62 131.956 223.684 137.546 229.569 131.073C235.454 124.6 257.227 102.826 268.997 103.12C280.766 103.414 289.888 150.198 289.594 162.851C289.299 175.503 287.24 182.27 289.594 186.39C291.948 190.509 295.773 197.276 297.832 206.104C299.425 212.929 297.847 219.387 296.766 222.026C297.369 221.513 300.372 220.816 309.308 220.816C322.548 220.816 331.081 233.762 334.318 239.353C337.554 244.943 337.554 252.593 334.318 257.89C331.081 263.186 322.843 261.126 314.898 267.305C306.954 273.484 294.007 273.779 290.476 271.719C286.945 269.659 285.18 269.953 277.236 267.305C270.88 265.187 272.037 259.753 273.41 257.301C270.664 259.753 263.936 264.245 258.993 262.597C254.05 260.95 253.991 256.811 254.579 254.947Z" fill="#D9D9D9"/>
<path d="M298.716 289.667L298.127 283.193L127.469 322.327V327.329C142.083 326.741 172.781 327.153 179.843 327.623C188.67 328.212 196.321 332.625 197.498 332.625C198.674 332.625 200.734 332.625 207.502 330.566C214.269 328.506 226.039 329.389 235.16 329.683C244.281 329.977 273.117 335.568 275.765 335.862C278.413 336.156 280.473 335.274 281.061 333.214C281.532 331.566 293.027 303.496 298.716 289.667Z" fill="#D9D9D9" stroke="#232E53" stroke-width="1.76543" stroke-linejoin="round"/>
<path d="M173.958 322.033C159.599 320.385 136.197 321.347 126.291 322.033C127.174 320.758 129.116 318.032 129.822 317.325C130.705 316.443 140.709 303.496 146.888 297.317C151.831 292.374 159.932 280.938 163.365 275.838C164.738 275.445 168.132 274.661 170.721 274.661C173.958 274.661 182.196 274.366 199.556 275.838C213.444 277.015 221.82 280.644 224.272 282.311C225.253 281.722 228.156 280.31 231.923 279.369C236.63 278.192 245.163 277.309 260.17 277.603C272.175 277.839 290.868 280.84 298.715 282.311C297.342 285.253 293.889 292.786 291.065 299.377C288.24 305.968 281.061 322.524 277.824 329.978C273.901 329.389 261.052 327.565 241.044 324.976C221.036 322.386 205.049 326.054 199.556 328.212C197.006 326.839 188.317 323.681 173.958 322.033Z" fill="#FEFEFE"/>
<path d="M199.556 328.212C197.006 326.839 188.317 323.681 173.958 322.033C159.599 320.385 136.197 321.347 126.291 322.033C127.174 320.758 129.116 318.032 129.822 317.325C130.705 316.443 140.709 303.496 146.888 297.317C151.831 292.374 159.932 280.938 163.365 275.838C164.738 275.445 168.132 274.661 170.721 274.661C173.958 274.661 182.196 274.366 199.556 275.838C213.444 277.015 221.82 280.644 224.272 282.311M199.556 328.212C205.049 326.054 221.036 322.386 241.044 324.976C261.052 327.565 273.901 329.389 277.824 329.978C281.061 322.524 288.24 305.968 291.065 299.377C293.889 292.786 297.342 285.253 298.715 282.311C290.868 280.84 272.175 277.839 260.17 277.603C245.163 277.309 236.63 278.192 231.923 279.369C228.156 280.31 225.253 281.722 224.272 282.311M199.556 328.212C203.872 319.287 213.327 300.201 216.622 295.257C219.918 290.314 223.096 284.567 224.272 282.311" stroke="#232E53" stroke-width="1.76543" stroke-linejoin="round"/>
<path d="M257.816 270.542L259.876 263.48C260.661 263.284 262.877 262.774 265.467 262.303C268.703 261.715 272.823 256.713 272.823 257.596V262.892L269.292 272.896L259.876 287.902L257.816 270.542Z" fill="#6B8EDE"/>
<path d="M271.94 215.814L265.467 237.587C266.447 236.901 268.939 235.175 271.057 233.762C273.176 232.35 276.844 231.212 278.413 230.82L281.944 219.05C282.336 217.677 282.179 214.696 278.413 213.754C274.647 212.812 272.528 214.735 271.94 215.814Z" fill="#6B8EDE"/>
<path d="M259.876 287.608L257.816 271.131C258.111 270.738 258.935 269.895 259.876 269.659C260.818 269.424 261.053 269.758 261.053 269.954C261.249 269.758 261.818 269.365 262.524 269.365C263.23 269.365 263.603 270.15 263.701 270.542C264.093 270.346 265.055 270.013 265.761 270.248C266.467 270.483 266.644 270.934 266.644 271.131C266.644 271.033 266.879 270.895 267.821 271.131C268.762 271.366 269.194 272.602 269.292 273.19L259.876 287.608Z" fill="#F9B3AC"/>
<path d="M263.994 281.134L259.875 287.608L258.992 279.663C259.286 279.565 260.228 279.428 261.64 279.663C263.053 279.899 263.798 280.742 263.994 281.134Z" fill="#232E53"/>
<path d="M257.816 270.542L259.876 263.48C260.661 263.284 262.877 262.774 265.467 262.303C268.703 261.715 272.823 256.713 272.823 257.596V262.892L269.292 272.896L259.876 287.902L257.816 270.542Z" stroke="#232E53" stroke-width="1.17695"/>
<path d="M271.94 215.814L265.467 237.587C266.447 236.901 268.939 235.175 271.057 233.762C273.176 232.35 276.844 231.212 278.413 230.82L281.944 219.05C282.336 217.677 282.179 214.696 278.413 213.754C274.647 212.812 272.528 214.735 271.94 215.814Z" stroke="#232E53" stroke-width="1.17695"/>
<path d="M113.05 237.293C105.988 239.647 106.185 246.708 107.165 249.945C107.95 250.73 110.225 252.652 113.05 254.064C116.581 255.83 123.349 257.595 130.999 259.361C138.649 261.126 166.013 262.597 178.96 263.48C191.906 264.363 218.093 260.832 225.155 259.949C230.804 259.243 246.929 256.516 254.285 255.241C254.481 255.928 254.873 257.654 254.873 259.067C254.873 260.832 256.933 262.892 262.229 262.892C266.466 262.892 271.252 259.165 273.116 257.301C272.724 258.674 271.939 261.715 271.939 262.892C271.939 264.363 276.647 267.305 279.001 268.188C281.355 269.071 293.124 273.484 296.655 273.484C300.186 273.484 314.309 267.599 317.252 265.834C319.606 264.422 326.079 262.303 329.021 261.42C326.667 260.636 321.665 258.537 320.488 256.418C319.017 253.77 316.663 245.237 308.425 236.999C300.186 228.76 281.06 230.82 273.999 231.997C268.349 232.938 261.837 241.216 259.287 245.237C256.344 244.943 247.87 243.354 237.513 239.353C224.567 234.35 222.213 213.46 219.565 206.398C216.916 199.336 203.381 178.739 179.548 176.385C155.715 174.032 142.474 185.213 139.237 196.982C136.001 208.752 121.877 234.35 113.05 237.293Z" fill="#FEFEFE"/>
<path d="M91.5707 257.89C96.5139 255.3 97.9459 244.06 98.044 238.764C97.7498 238.077 97.1613 236.351 97.1613 234.939C97.1613 233.174 96.8671 229.054 97.1613 227.583C97.3967 226.406 97.8478 223.169 98.044 221.698C93.9247 222.385 84.9798 223.464 82.1551 222.287C78.6243 220.815 68.6202 220.227 62.1469 220.815C55.6737 221.404 47.7292 226.7 40.3732 234.939C33.0173 243.178 34.7827 249.357 36.8424 252.299C38.4901 254.653 41.6483 253.868 43.0214 253.182C43.0214 255.536 44.1395 260.302 48.6119 260.538C53.0843 260.773 57.5371 258.282 59.2045 257.007C60.3814 258.674 63.5592 262.185 66.8547 262.892C70.1502 263.598 77.4473 257.301 80.6839 254.064C82.2532 256.418 86.6275 260.479 91.5707 257.89Z" fill="#FEFEFE"/>
<path d="M131.587 155.789C128.998 157.201 124.82 159.908 123.054 161.085C121.877 157.358 119.465 147.609 119.229 138.429C118.935 126.953 128.645 118.126 130.41 118.42C131.823 118.656 147.868 133.034 155.715 140.194C152.478 137.938 145.593 133.662 143.945 134.603C142.298 135.545 146.005 141.861 148.065 144.902C145.809 143.333 140.944 140.429 139.532 141.371C138.119 142.313 140.512 147.452 141.886 149.904C140.611 148.825 137.649 146.844 136.001 147.55C134.353 148.256 136.295 150.787 137.472 151.964C136.589 152.65 134.177 154.376 131.587 155.789Z" fill="#F9B3AC"/>
<path d="M276.058 137.546C278.177 147.668 278.314 167.068 278.118 175.503C276.451 173.835 272.351 169.5 269.291 165.499C266.231 161.497 260.954 157.75 258.698 156.377C259.483 153.925 260.817 149.021 259.875 149.021C258.934 149.021 255.756 151.767 254.285 153.14C256.344 150.787 259.875 145.667 257.521 144.019C254.579 141.959 247.811 147.55 248.988 146.079C250.165 144.608 254.579 136.075 251.931 134.015C249.812 132.367 241.24 137.644 237.219 140.488C244.477 132.446 260.228 116.42 265.172 116.655C271.351 116.949 273.41 124.894 276.058 137.546Z" fill="#F9B3AC"/>
<path d="M254.579 254.947C239.573 258.478 201.675 265.069 170.133 263.186C130.705 260.832 113.933 257.595 103.341 246.709C100.769 244.065 99.0466 241.404 97.9851 238.764M254.579 254.947C255.462 250.828 259.699 241 269.585 234.645C281.943 226.7 290.771 228.172 291.653 227.289C292.359 226.583 295.282 223.66 296.655 222.287M254.579 254.947C253.991 256.811 254.05 260.95 258.993 262.597C263.936 264.245 270.664 259.753 273.41 257.301C272.037 259.753 270.88 265.187 277.236 267.305C285.18 269.953 286.945 269.659 290.476 271.719C294.007 273.779 306.954 273.484 314.898 267.305C322.843 261.126 331.081 263.186 334.318 257.89C337.554 252.593 337.554 244.943 334.318 239.353C331.081 233.762 322.548 220.816 309.308 220.816C298.715 220.816 296.459 221.796 296.655 222.287M117.17 167.853C115.11 170.795 110.814 178.563 110.108 186.095C109.499 192.594 108.049 200.073 105.564 206.986M117.17 167.853C114.129 158.731 109.578 136.958 115.699 122.834C123.349 105.18 125.703 105.474 131.587 106.651C136.295 107.593 157.873 126.071 168.073 135.192C174.742 133.525 190.435 130.367 199.851 131.073C211.62 131.956 223.684 137.546 229.569 131.073C235.454 124.6 257.227 102.826 268.997 103.12C280.766 103.414 289.888 150.198 289.594 162.851C289.299 175.503 287.24 182.27 289.594 186.39C291.948 190.509 295.773 197.276 297.832 206.104C299.48 213.165 297.734 219.835 296.655 222.287M117.17 167.853C118.102 166.419 120.218 163.685 122.76 161.583M105.564 206.986C104.449 210.09 103.125 213.079 101.575 215.814C97.7876 222.497 94.6749 230.531 97.9851 238.764M105.564 206.986C95.7015 205.515 72.6809 205.221 59.499 215.814C43.0217 229.054 32.1349 244.06 35.6657 250.239C38.4904 255.183 41.9428 254.261 43.3159 253.182C43.0217 254.947 43.4336 258.772 47.4352 259.949C51.4369 261.126 57.1451 257.89 59.499 256.124C59.5971 258.086 61.0879 262.068 66.2665 262.303C71.4451 262.539 78.0361 256.32 80.6842 253.182C81.0765 255.34 83.3912 259.479 89.5114 258.772C95.6315 258.066 97.7106 245.139 97.9851 238.764M125.703 159.614C124.689 160.121 123.696 160.809 122.76 161.583M122.76 161.583C120.897 154.944 117.817 139.782 120.406 132.25C123.643 122.834 126.585 117.832 129.822 118.126C132.411 118.362 148.359 133.329 156.009 140.783C152.969 138.331 146.417 133.603 144.534 134.309C142.651 135.016 146.103 141.862 148.065 145.196C146.397 143.431 142.474 140.194 140.12 141.371C137.766 142.548 140.709 147.746 142.474 150.198C140.905 149.021 137.413 146.844 136.001 147.55C134.589 148.256 136.786 151.179 138.061 152.552M277.824 175.503C277.922 167.951 277.765 150.434 276.353 140.783C274.587 128.719 272.234 116.067 264.878 116.949C258.993 117.656 243.987 133.132 237.219 140.783C240.848 137.546 248.93 131.779 252.225 134.604C255.521 137.428 250.656 144.215 247.812 147.256C250.068 145.392 255.168 142.136 257.522 144.019C259.875 145.902 256.345 150.885 254.285 153.141C255.658 151.67 258.757 148.845 260.17 149.316C261.582 149.786 259.777 154.22 258.699 156.377M112.462 222.581C110.618 221.993 106.036 220.639 102.458 219.933C98.8797 219.227 93.7091 219.05 91.571 219.05M112.462 226.7C108.343 226.21 98.8093 225.229 93.6307 225.229C88.4521 225.229 86.1767 225.229 85.6863 225.229M112.462 230.525C106.97 230.82 95.3373 231.408 92.748 231.408C90.1587 231.408 88.9229 231.997 88.6286 232.291M240.456 228.466C243.692 228.073 251.048 227.289 254.579 227.289C258.11 227.289 261.543 227.289 262.818 227.289M240.456 232.291C244.575 232.193 253.638 232.114 256.933 232.585C260.229 233.056 263.21 233.762 264.289 234.056M240.456 235.822C244.183 236.116 252.461 237.058 255.756 238.47C259.052 239.882 260.856 241.02 261.347 241.412" stroke="#232E53" stroke-width="2.35391" stroke-linecap="round" stroke-linejoin="round"/>
<path d="M166.308 216.99C156.893 216.755 162.385 224.739 166.308 228.76C166.701 228.564 167.662 227.995 168.368 227.289C169.251 226.406 175.135 222.287 176.607 221.404C178.078 220.521 178.078 217.285 166.308 216.99Z" fill="#F9B3AC"/>
<path d="M166.602 228.76V238.764M166.602 228.76C164.739 226.7 161.012 222.051 161.012 219.933M166.602 228.76C168.368 227.191 172.781 223.581 176.312 221.698M166.602 238.764C166.602 238.764 164.837 243.472 162.483 244.354M166.602 238.764C166.602 238.764 168.368 243.472 170.427 244.354" stroke="#232E53" stroke-width="1.76543" stroke-linecap="round" stroke-linejoin="round"/>
<path d="M145.711 224.935C140.297 227.524 131.294 222.483 127.469 219.638C126.782 219.05 126.468 218.285 124.821 216.402C122.761 214.048 123.349 210.287 123.349 207.575C123.349 202.867 126.88 197.276 127.469 196.394C128.057 195.511 133.059 186.389 143.652 186.684C154.244 186.978 158.364 202.867 158.069 210.223C157.775 217.579 152.479 221.698 145.711 224.935Z" fill="#FEFEFE"/>
<path d="M213.975 226.406C220.566 228.995 232.806 220.423 238.102 215.813C238.397 214.931 239.044 212.93 239.279 211.988C239.574 210.811 238.691 204.927 238.102 202.573C237.514 200.219 230.746 188.155 218.388 188.449C206.03 188.743 202.205 195.805 199.557 207.28C196.909 218.756 205.736 223.169 213.975 226.406Z" fill="#FEFEFE"/>
<path d="M157.776 208.163C157.776 216.288 152.282 224.934 146.595 224.934C134.237 224.934 131 216.288 131 208.163C131 200.038 135.119 190.803 145.418 190.803C155.716 190.803 157.776 200.038 157.776 208.163Z" fill="#232E53"/>
<path d="M236.925 199.336C234.277 195.217 226.332 187.331 215.74 188.743C202.499 190.509 197.909 203.75 198.674 211.4C199.351 218.167 203.382 227.583 218.388 226.112C230.393 224.935 236.533 218.167 238.102 214.931M127.174 219.639C132.862 223.856 146.24 229.76 154.244 219.639C159.203 213.367 159.101 204.926 156.303 198.187C153.457 191.331 147.821 186.236 141.886 186.978C132.47 188.155 128.155 194.138 127.174 196.982" stroke="#232E53" stroke-width="1.76543" stroke-linecap="round" stroke-linejoin="round"/>
<path d="M229.864 209.645C229.864 217.77 224.371 226.417 218.683 226.417C206.325 226.417 198.381 219.536 198.381 211.411C198.381 203.285 204.854 191.402 215.152 191.402C225.451 191.402 229.864 201.52 229.864 209.645Z" fill="#232E53"/>
<ellipse cx="144.916" cy="200.65" rx="4.91745" ry="3.56696" transform="rotate(-46.4794 144.916 200.65)" fill="#FEFEFE"/>
<ellipse cx="219.609" cy="201.196" rx="5.32714" ry="3.92864" transform="rotate(-46.4794 219.609 201.196)" fill="#FEFEFE"/>
<ellipse cx="140.129" cy="208.76" rx="1.69615" ry="1.64532" transform="rotate(-46.4794 140.129 208.76)" fill="#FEFEFE"/>
<ellipse cx="211.922" cy="209.937" rx="1.69615" ry="1.64532" transform="rotate(-46.4794 211.922 209.937)" fill="#FEFEFE"/>
</svg>
