<svg width="390" height="330" viewBox="0 0 390 330" fill="none" xmlns="http://www.w3.org/2000/svg">
<rect x="16.5703" y="3.25" width="353.568" height="206.952" rx="4.10318" stroke="#6B8EDE" stroke-width="2.5"/>
<path d="M16.5703 7.35317C16.5703 5.08705 18.4074 3.25 20.6735 3.25H366.035C368.301 3.25 370.138 5.08705 370.138 7.35317V32.1678H16.5703V7.35317Z" stroke="#6B8EDE" stroke-width="2.5"/>
<circle cx="43.4638" cy="19.4391" r="6.73238" fill="#6B8EDE"/>
<circle cx="72.9882" cy="19.4391" r="6.73238" fill="#6B8EDE"/>
<circle cx="102.513" cy="19.4391" r="6.73238" fill="#6B8EDE"/>
<rect x="51.0801" y="58.5268" width="149.608" height="8.9765" rx="1.49608" fill="#6B8EDE"/>
<rect x="204.796" y="58.5268" width="104.726" height="8.9765" rx="1.49608" fill="#6B8EDE"/>
<rect x="45.2861" y="72.5033" width="136.144" height="8.9765" rx="1.49608" fill="#6B8EDE"/>
<rect x="185.537" y="72.5033" width="62.8355" height="8.9765" rx="1.49608" fill="#6B8EDE"/>
<rect x="252.479" y="72.5033" width="62.8355" height="8.9765" rx="1.49608" fill="#6B8EDE"/>
<rect x="38.9209" y="86.4798" width="282.76" height="8.9765" rx="1.49608" fill="#6B8EDE"/>
<rect x="40.0498" y="100.456" width="73.3081" height="8.9765" rx="1.49608" fill="#6B8EDE"/>
<rect x="117.465" y="100.456" width="62.8355" height="8.9765" rx="1.49608" fill="#6B8EDE"/>
<rect x="184.408" y="100.456" width="136.144" height="8.9765" rx="1.49608" fill="#6B8EDE"/>
<rect x="40.6074" y="114.433" width="26.9295" height="8.9765" rx="1.49608" fill="#6B8EDE"/>
<rect x="71.6445" y="114.433" width="248.35" height="8.9765" rx="1.49608" fill="#6B8EDE"/>
<rect x="42.2939" y="128.409" width="26.9295" height="8.9765" rx="1.49608" fill="#6B8EDE"/>
<rect x="73.3311" y="128.409" width="178.034" height="8.9765" rx="1.49608" fill="#6B8EDE"/>
<rect x="255.472" y="128.409" width="62.8355" height="8.9765" rx="1.49608" fill="#6B8EDE"/>
<rect x="57.2549" y="142.386" width="124.175" height="8.9765" rx="1.49608" fill="#6B8EDE"/>
<rect x="185.537" y="142.386" width="56.8512" height="8.9765" rx="1.49608" fill="#6B8EDE"/>
<rect x="246.495" y="142.386" width="56.8512" height="8.9765" rx="1.49608" fill="#6B8EDE"/>
<rect x="53.3242" y="156.362" width="124.175" height="8.9765" rx="1.49608" fill="#6B8EDE"/>
<rect x="181.606" y="156.362" width="125.671" height="8.9765" rx="1.49608" fill="#6B8EDE"/>
<rect x="46.5332" y="41.4262" width="53.8951" height="32.8423" rx="0.842111" fill="#FF5391"/>
<path d="M67.4597 64.7717L64.5123 56.519H65.6912L68.0845 63.4041L70.466 56.519H71.6568L68.6976 64.7717H67.4597ZM77.1606 58.8769H78.1863V64.7717H77.1606V63.9229C76.7441 64.5909 76.1074 64.925 75.2507 64.925C74.5591 64.925 74.005 64.7088 73.5884 64.2765C73.1718 63.8364 72.9636 63.243 72.9636 62.4963V58.8769H73.9892V62.4374C73.9892 62.9168 74.1189 63.2902 74.3783 63.5574C74.6377 63.8168 74.9953 63.9464 75.4512 63.9464C75.962 63.9464 76.3747 63.7892 76.6891 63.4749C77.0034 63.1526 77.1606 62.6614 77.1606 62.0012V58.8769ZM81.4102 62.2959C81.5124 62.8225 81.7521 63.2312 82.1294 63.522C82.5145 63.8128 82.9861 63.9582 83.5441 63.9582C84.3222 63.9582 84.8881 63.6714 85.2418 63.0976L86.1143 63.5928C85.5405 64.4809 84.6759 64.925 83.5206 64.925C82.5852 64.925 81.8229 64.6342 81.2334 64.0525C80.6518 63.4631 80.361 62.7203 80.361 61.8243C80.361 60.9362 80.6478 60.1974 81.2216 59.6079C81.7953 59.0184 82.5381 58.7237 83.4498 58.7237C84.3144 58.7237 85.0178 59.0302 85.5601 59.6433C86.1103 60.2484 86.3854 60.9794 86.3854 61.8361C86.3854 61.9854 86.3736 62.1387 86.35 62.2959H81.4102ZM83.4498 59.6904C82.8996 59.6904 82.4438 59.8476 82.0822 60.162C81.7207 60.4685 81.4967 60.8812 81.4102 61.3999H85.3479C85.2615 60.8419 85.0414 60.4174 84.6877 60.1266C84.334 59.8358 83.9214 59.6904 83.4498 59.6904Z" fill="white"/>
<path d="M46.5332 42.2684C46.5332 41.8033 46.9102 41.4262 47.3753 41.4262H99.5862C100.051 41.4262 100.428 41.8033 100.428 42.2684V47.321H46.5332V42.2684Z" fill="#9E3058"/>
<circle cx="51.1645" cy="44.3736" r="1.26317" fill="#FEFEFE"/>
<circle cx="56.2173" cy="44.3736" r="1.26317" fill="#FEFEFE"/>
<circle cx="61.27" cy="44.3736" r="1.26317" fill="#FEFEFE"/>
<rect x="3" y="139.992" width="70.091" height="42.7117" rx="1.09517" fill="#FF5391"/>
<path d="M27.8125 169.619C26.1872 169.619 24.8431 169.082 23.78 168.009C22.7272 166.935 22.2008 165.617 22.2008 164.053C22.2008 162.489 22.7272 161.17 23.78 160.097C24.8431 159.024 26.1872 158.487 27.8125 158.487C28.7937 158.487 29.6932 158.722 30.511 159.193C31.3389 159.663 31.9829 160.297 32.4429 161.094L31.2009 161.814C30.8943 161.222 30.4343 160.751 29.821 160.404C29.2179 160.046 28.5484 159.867 27.8125 159.867C26.5756 159.867 25.5637 160.266 24.7766 161.063C23.9998 161.86 23.6114 162.857 23.6114 164.053C23.6114 165.239 23.9998 166.23 24.7766 167.027C25.5637 167.825 26.5756 168.223 27.8125 168.223C28.5484 168.223 29.2179 168.05 29.821 167.702C30.4343 167.344 30.8943 166.874 31.2009 166.291L32.4429 166.997C31.9931 167.794 31.3542 168.433 30.5263 168.913C29.6983 169.384 28.7937 169.619 27.8125 169.619ZM38.7495 169.619C37.7478 169.619 36.8892 169.384 36.1737 168.913C35.4684 168.443 34.9726 167.799 34.6864 166.981L35.913 166.276C36.3321 167.574 37.2878 168.223 38.7802 168.223C39.5161 168.223 40.0783 168.075 40.4667 167.779C40.8552 167.472 41.0494 167.068 41.0494 166.567C41.0494 166.056 40.8552 165.673 40.4667 165.418C40.0783 165.162 39.4292 164.891 38.5195 164.605C38.0698 164.462 37.7273 164.349 37.4922 164.268C37.2571 164.176 36.9607 164.043 36.603 163.869C36.2554 163.685 35.9948 163.501 35.821 163.317C35.6472 163.123 35.4888 162.872 35.3457 162.566C35.2128 162.259 35.1464 161.912 35.1464 161.523C35.1464 160.593 35.4735 159.857 36.1277 159.315C36.7818 158.763 37.5791 158.487 38.5195 158.487C39.3679 158.487 40.1039 158.702 40.7274 159.131C41.3611 159.561 41.8364 160.128 42.1533 160.833L40.9574 161.523C40.4974 160.419 39.6848 159.867 38.5195 159.867C37.9369 159.867 37.4667 160.01 37.1089 160.297C36.7512 160.583 36.5723 160.971 36.5723 161.462C36.5723 161.932 36.741 162.29 37.0783 162.535C37.4156 162.78 37.9982 163.036 38.8262 163.302C39.1226 163.394 39.3321 163.46 39.4548 163.501C39.5775 163.542 39.7666 163.613 40.0221 163.716C40.2879 163.818 40.4821 163.9 40.6047 163.961C40.7274 164.022 40.8909 164.109 41.0954 164.222C41.31 164.334 41.4685 164.441 41.5707 164.544C41.6729 164.646 41.7904 164.774 41.9233 164.927C42.0664 165.07 42.1686 165.218 42.23 165.372C42.2913 165.525 42.3424 165.704 42.3833 165.908C42.4344 166.102 42.4599 166.312 42.4599 166.537C42.4599 167.477 42.1175 168.228 41.4327 168.791C40.7478 169.343 39.8534 169.619 38.7495 169.619ZM48.4658 169.619C47.4641 169.619 46.6055 169.384 45.89 168.913C45.1847 168.443 44.6889 167.799 44.4027 166.981L45.6293 166.276C46.0484 167.574 47.0041 168.223 48.4965 168.223C49.2324 168.223 49.7946 168.075 50.1831 167.779C50.5715 167.472 50.7657 167.068 50.7657 166.567C50.7657 166.056 50.5715 165.673 50.1831 165.418C49.7946 165.162 49.1456 164.891 48.2358 164.605C47.7861 164.462 47.4437 164.349 47.2086 164.268C46.9735 164.176 46.677 164.043 46.3193 163.869C45.9718 163.685 45.7111 163.501 45.5373 163.317C45.3636 163.123 45.2051 162.872 45.062 162.566C44.9291 162.259 44.8627 161.912 44.8627 161.523C44.8627 160.593 45.1898 159.857 45.844 159.315C46.4982 158.763 47.2955 158.487 48.2358 158.487C49.0842 158.487 49.8202 158.702 50.4437 159.131C51.0774 159.561 51.5528 160.128 51.8696 160.833L50.6737 161.523C50.2137 160.419 49.4011 159.867 48.2358 159.867C47.6532 159.867 47.183 160.01 46.8253 160.297C46.4675 160.583 46.2886 160.971 46.2886 161.462C46.2886 161.932 46.4573 162.29 46.7946 162.535C47.1319 162.78 47.7145 163.036 48.5425 163.302C48.8389 163.394 49.0485 163.46 49.1711 163.501C49.2938 163.542 49.4829 163.613 49.7384 163.716C50.0042 163.818 50.1984 163.9 50.321 163.961C50.4437 164.022 50.6073 164.109 50.8117 164.222C51.0263 164.334 51.1848 164.441 51.287 164.544C51.3892 164.646 51.5068 164.774 51.6396 164.927C51.7827 165.07 51.885 165.218 51.9463 165.372C52.0076 165.525 52.0587 165.704 52.0996 165.908C52.1507 166.102 52.1763 166.312 52.1763 166.537C52.1763 167.477 51.8338 168.228 51.149 168.791C50.4641 169.343 49.5698 169.619 48.4658 169.619Z" fill="white"/>
<path d="M3 141.087C3 140.482 3.49033 139.992 4.09517 139.992H71.9959C72.6007 139.992 73.091 140.482 73.091 141.087V147.658H3V141.087Z" fill="#9E3058"/>
<circle cx="9.02362" cy="143.825" r="1.64276" fill="#FEFEFE"/>
<circle cx="15.5949" cy="143.825" r="1.64276" fill="#FEFEFE"/>
<circle cx="22.1652" cy="143.825" r="1.64276" fill="#FEFEFE"/>
<rect x="297.054" y="202.417" width="63.2462" height="38.5407" rx="0.988222" fill="#FF5391"/>
<path d="M319.695 219.555H320.968V229.24H319.695V224.882H314.991V229.24H313.705V219.555H314.991V223.664H319.695V219.555ZM330.346 219.555V220.773H327.482V229.24H326.209V220.773H323.359V219.555H330.346ZM341.788 219.555V229.24H340.515V221.672L337.347 226.943H337.181L334.012 221.686V229.24H332.726V219.555H334.178L337.264 224.674L340.335 219.555H341.788ZM346.252 228.022H350.43V229.24H344.965V219.555H346.252V228.022Z" fill="white"/>
<path d="M297.054 203.405C297.054 202.859 297.496 202.417 298.042 202.417H359.312C359.857 202.417 360.3 202.859 360.3 203.405V209.334H297.054V203.405Z" fill="#9E3058"/>
<circle cx="302.489" cy="205.875" r="1.48233" fill="#FEFEFE"/>
<circle cx="308.419" cy="205.875" r="1.48233" fill="#FEFEFE"/>
<circle cx="314.348" cy="205.875" r="1.48233" fill="#FEFEFE"/>
<path d="M103.619 259.495C94.4198 267.051 86.0964 285.094 83.0847 293.171C82.5371 295.498 81.0313 301.303 79.3885 305.902C77.8203 310.293 74.135 322.771 72.2555 329.135L72 330H307C306.179 315.489 303.214 282.904 298.286 269.762C293.358 256.62 283.912 249.227 279.805 247.174C285.281 242.793 297.875 229.596 304.446 211.855C312.66 189.677 297.465 156.001 296.233 153.537C295.001 151.072 294.179 145.323 290.072 127.663C285.965 110.003 277.341 103.432 272.002 101.79C267.731 100.475 255.711 103.98 250.235 105.897C246.265 103.706 236.026 98.7506 226.826 96.4507C215.327 93.5759 198.489 94.808 196.435 94.808C194.382 94.808 182.882 84.9514 173.436 77.9697C163.991 70.988 148.384 67.7025 141.403 70.1666C134.421 72.6307 133.6 83.3087 133.6 94.808C133.6 106.307 137.706 118.217 136.064 119.86C134.421 121.503 121.279 135.056 118.815 150.662C116.351 166.268 113.065 167.5 107.315 175.303C101.566 183.106 97.0482 188.035 99.5123 208.98C101.484 225.736 115.94 238.139 122.922 242.246C120.321 244.847 112.819 251.938 103.619 259.495Z" fill="#FEFEFE"/>
<path d="M103.618 259.495C112.818 251.938 120.32 244.847 122.921 242.246C115.939 238.139 101.483 225.736 99.5115 208.98C98.2082 197.901 98.8581 191.304 100.61 186.392C102.171 182.017 104.606 178.979 107.315 175.303C113.064 167.5 116.35 166.268 118.814 150.662C121.278 135.056 134.42 121.503 136.063 119.86C137.706 118.217 133.599 106.307 133.599 94.808C133.599 83.3087 134.42 72.6307 141.402 70.1666C148.384 67.7025 163.99 70.988 173.436 77.9697C182.882 84.9514 194.381 94.808 196.434 94.808C198.488 94.808 215.326 93.5759 226.825 96.4507C236.025 98.7506 246.265 103.706 250.235 105.897C255.711 103.98 267.73 100.475 272.001 101.79C277.34 103.432 285.965 110.003 290.072 127.663C294.178 145.323 295 151.072 296.232 153.537C297.464 156.001 312.66 189.677 304.446 211.854C297.875 229.596 285.28 242.793 279.804 247.174C283.911 249.227 293.357 256.62 298.285 269.762C299.381 274.416 301.653 284.629 301.982 288.243C302.393 292.76 302.393 298.921 298.285 301.385C294.178 303.849 284.322 313.295 282.269 313.706C280.215 314.116 274.876 307.135 265.43 296.046C255.985 284.957 260.502 268.119 263.377 259.495C265.158 254.151 271.324 250.433 276.113 248.456C263.859 252.106 241.259 253.524 225.594 236.085C208.18 216.701 207.66 211.854 209.577 211.854C211.904 211.854 217.133 210.705 219.433 206.105C222.308 200.355 221.076 188.445 219.433 181.874C217.79 175.303 212.04 162.572 196.434 165.447C188.975 166.821 185.934 167.97 185.015 168.789C185.156 169.216 185.266 169.609 185.346 169.964C184.74 169.744 184.395 169.341 185.015 168.789C183.463 164.113 178.087 155.479 166.044 150.662C152.901 145.405 145.235 153.673 143.045 158.465C142.497 155.316 140.334 148.444 136.063 146.144C131.792 143.844 125.522 151.757 122.921 156.001C121.826 158.739 119.471 165.364 118.814 169.964C118.157 174.564 119.636 180.916 120.457 183.517C120.046 185.433 117.829 189.431 112.243 190.088C106.658 190.745 102.161 187.898 100.61 186.392C98.8581 191.304 98.2082 197.901 99.5115 208.98C101.483 225.736 115.939 238.139 122.921 242.246L136.885 252.513C135.516 257.03 132.367 266.476 130.724 268.119C128.671 270.172 122.921 266.066 118.814 266.066C114.707 266.066 109.779 274.69 103.618 280.029C97.4578 285.368 91.7087 277.976 94.9943 272.637C97.6227 268.365 101.839 262.096 103.618 259.495Z" fill="#D9D9D9"/>
<path d="M257.217 160.108C264.445 168.65 269.811 174.071 271.591 175.714C272.686 171.744 274.958 162.49 275.287 157.233C275.698 150.662 276.519 116.574 265.02 113.289C255.82 110.661 233.807 123.967 223.951 130.949C230.385 129.032 243.91 126.02 246.539 129.306C249.167 132.591 241.337 137.246 237.093 139.162C240.105 139.162 246.457 139.655 247.771 141.627C249.085 143.598 245.307 146.007 243.253 146.965C244.896 147.787 249.988 151.565 257.217 160.108Z" fill="#F9B3AC"/>
<path d="M141.402 94.3972C141.402 101.954 143.319 109.045 144.277 111.646L145.509 110.414L152.491 111.646C151.122 108.908 148.63 103.268 149.616 102.611C150.602 101.954 155.503 105.623 157.83 107.539C156.187 102.611 152.573 91.5224 151.259 86.5941C149.616 80.4338 144.277 79.2017 142.634 79.2017C140.991 79.2017 141.402 84.9514 141.402 94.3972Z" fill="#F9B3AC"/>
<path d="M143.866 203.641C142.881 202.327 142.634 199.26 142.634 197.891V197.07C143.045 196.659 145.016 196.248 149.616 197.891C154.216 199.534 155.092 201.861 154.955 202.819C154.681 203.093 153.969 203.887 153.312 204.873C152.655 205.858 148.384 206.379 146.33 206.516C145.92 206.105 144.852 204.955 143.866 203.641Z" fill="#F9B3AC"/>
<path d="M85.548 247.174C84.3159 243.478 80.8661 234.771 76.9235 229.514C72.9809 224.257 68.4359 219.11 66.6562 217.193" stroke="#232E53" stroke-width="3.28552" stroke-linecap="round" stroke-linejoin="round"/>
<path d="M72.8167 239.781C71.5846 238.412 68.217 235.1 64.6029 232.8C60.9888 230.5 57.895 228.556 56.7998 227.871" stroke="#232E53" stroke-width="3.28552" stroke-linecap="round" stroke-linejoin="round"/>
<path d="M285.966 316.58C287.061 314.938 290.319 310.913 294.59 307.956C298.861 304.999 304.31 303.986 306.5 303.849" stroke="#232E53" stroke-width="3.28552" stroke-linecap="round" stroke-linejoin="round"/>
<path d="M82.2623 294.403C82.2623 296.374 81.1671 296.867 80.6196 296.867L73.6378 300.153C73.5009 298.236 73.145 294.157 72.8165 293.171C72.4879 292.185 60.0851 290.296 53.9247 289.475C56.9364 287.969 63.042 284.711 63.3706 283.725C63.6991 282.74 57.2102 273.458 53.9247 268.94L50.2285 261.137L52.6927 260.316L80.6196 275.922L82.2623 265.244C83.3575 266.887 85.7942 270.501 86.7799 271.815C88.012 273.458 88.4227 278.797 88.012 279.618C87.6013 280.44 85.1371 281.261 82.2623 284.547C79.3875 287.832 82.2623 291.939 82.2623 294.403Z" fill="#FCED90"/>
<path d="M136.473 273.458C135.159 271.158 134.009 269.762 133.599 269.351L130.313 256.62L144.687 266.476L152.08 257.852L152.49 266.887L155.776 269.762L163.99 269.351L155.776 276.743C153.585 275.648 148.055 274.115 143.455 276.743C137.705 280.029 138.116 276.333 136.473 273.458Z" fill="#FCED90"/>
<path d="M178.364 293.582C178.364 294.896 176.447 294.951 175.489 294.814L173.846 295.225L168.918 293.992L173.846 287.421L167.275 281.261L166.043 278.386L174.667 276.333L175.078 266.476C178.09 269.488 184.442 275.758 185.756 276.743C187.399 277.976 183.292 279.618 180.006 282.904C176.721 286.189 178.364 291.939 178.364 293.582Z" fill="#FCED90"/>
<path d="M221.486 269.351C215.244 267.708 210.398 272.774 208.755 275.511L196.434 268.94L204.648 266.476L209.165 264.012L210.808 244.299L225.593 258.673L235.86 253.745V266.066L241.199 265.655L242.021 267.298C239.42 270.72 234.053 277.565 233.396 277.565C232.575 277.565 229.289 271.405 221.486 269.351Z" fill="#FCED90"/>
<path d="M262.555 296.046C262.555 292.76 257.627 288.38 255.163 286.6L268.715 269.762L267.483 281.261H273.644L292.946 268.94L279.804 290.296L289.25 293.171L281.858 299.331L279.393 302.617L283.5 306.724L281.036 307.135C278.572 306.998 273.315 306.724 272.001 306.724C270.358 306.724 269.126 304.26 267.483 303.028C265.841 301.796 262.555 300.153 262.555 296.046Z" fill="#FCED90"/>
<path d="M274.465 306.724H284.322C282.542 305.355 278.983 302.453 278.983 301.795C278.983 300.974 290.071 294.814 289.66 293.582C289.25 292.35 282.268 293.171 280.625 291.118C278.983 289.064 286.786 277.565 294.589 270.172C302.392 262.78 319.641 247.174 294.589 266.887C269.537 286.6 266.662 283.314 267.894 277.976C269.126 272.637 271.59 264.012 263.787 274.279C257.545 282.493 255.436 285.642 255.163 286.189M236.271 275.922C238.735 273.184 243.335 267.38 242.021 266.066C240.378 264.423 238.735 268.119 236.271 266.066C233.807 264.012 237.914 255.798 236.271 254.156C234.628 252.513 230.111 258.673 225.183 258.262C220.254 257.852 212.451 243.478 210.808 243.478C209.166 243.478 212.04 262.369 208.344 265.244C204.648 268.119 191.095 267.708 198.898 270.994C205.141 273.622 207.797 275.374 208.344 275.922M184.935 275.922C182.197 273.458 176.228 267.873 174.257 265.244C171.793 261.959 177.131 275.511 174.257 276.743C171.382 277.976 161.936 276.333 167.275 281.261C172.614 286.189 173.846 284.547 173.436 287.421C173.025 290.296 168.097 293.582 168.918 294.403C169.575 295.06 173.299 295.225 175.078 295.225M156.597 277.154C159.335 274.827 164.729 269.926 164.401 268.94C163.99 267.708 158.651 270.583 154.544 269.762C150.437 268.94 154.133 259.495 152.901 257.441C151.669 255.388 149.616 266.066 144.277 266.066C138.938 266.066 131.956 255.798 129.903 255.798C127.849 255.798 133.599 266.887 133.599 268.94M86.7802 271.815L81.4412 262.369C81.715 266.887 81.934 275.922 80.6198 275.922C78.9771 275.922 41.1936 249.227 52.2822 266.066C63.3708 282.904 63.7816 282.493 62.9602 284.957C62.1388 287.421 44.8898 289.475 58.0319 290.707C71.174 291.939 73.6381 293.171 73.6381 295.225C73.6381 297.278 72.406 302.617 75.6916 299.742C78.32 297.442 79.5247 296.867 79.7985 296.867" stroke="#232E53" stroke-width="3.28552" stroke-linecap="round" stroke-linejoin="round"/>
<path d="M81.442 314.527L68.7106 319.455L67.4785 311.241L77.7458 308.367L81.442 314.527Z" fill="#D9D9D9"/>
<path d="M90.4771 317.402L87.6023 323.973L103.209 324.794L100.334 316.58L90.4771 317.402Z" fill="#D9D9D9"/>
<path d="M110.19 319.455L107.726 323.973L106.905 325.616H122.511L120.457 321.098L110.19 319.455Z" fill="#D9D9D9"/>
<path d="M143.045 320.277L127.85 324.794L129.082 316.58L138.939 313.706L143.045 320.277Z" fill="#D9D9D9"/>
<path d="M162.348 320.277L147.974 315.759L153.313 308.367L162.348 312.474V320.277Z" fill="#D9D9D9"/>
<path d="M169.74 318.223L166.044 325.616H183.293L178.775 318.223H169.74Z" fill="#D9D9D9"/>
<path d="M200.542 316.58L187.811 321.919L186.579 314.116L194.382 310.831L200.542 316.58Z" fill="#D9D9D9"/>
<path d="M204.649 317.812L201.363 324.384H214.916V320.687L204.649 317.812Z" fill="#D9D9D9"/>
<path d="M221.898 316.58L218.202 324.384H232.165L229.29 316.58H221.898Z" fill="#D9D9D9"/>
<path d="M236.683 319.866L235.04 324.384L234.219 325.205H249.414L247.361 319.866H236.683Z" fill="#D9D9D9"/>
<path d="M254.753 311.241L253.932 318.223L269.949 314.938L264.61 309.599L254.753 311.241Z" fill="#D9D9D9"/>
<path d="M81.442 314.527L68.7106 319.455L67.4785 311.241L77.7458 308.367L81.442 314.527Z" stroke="#232E53" stroke-width="2.46414" stroke-linecap="round" stroke-linejoin="round"/>
<path d="M90.4771 317.402L87.6023 323.973L103.209 324.794L100.334 316.58L90.4771 317.402Z" stroke="#232E53" stroke-width="2.46414" stroke-linecap="round" stroke-linejoin="round"/>
<path d="M110.19 319.455L107.726 323.973L106.905 325.616H122.511L120.457 321.098L110.19 319.455Z" stroke="#232E53" stroke-width="2.46414" stroke-linecap="round" stroke-linejoin="round"/>
<path d="M143.045 320.277L127.85 324.794L129.082 316.58L138.939 313.706L143.045 320.277Z" stroke="#232E53" stroke-width="2.46414" stroke-linecap="round" stroke-linejoin="round"/>
<path d="M162.348 320.277L147.974 315.759L153.313 308.367L162.348 312.474V320.277Z" stroke="#232E53" stroke-width="2.46414" stroke-linecap="round" stroke-linejoin="round"/>
<path d="M169.74 318.223L166.044 325.616H183.293L178.775 318.223H169.74Z" stroke="#232E53" stroke-width="2.46414" stroke-linecap="round" stroke-linejoin="round"/>
<path d="M200.542 316.58L187.811 321.919L186.579 314.116L194.382 310.831L200.542 316.58Z" stroke="#232E53" stroke-width="2.46414" stroke-linecap="round" stroke-linejoin="round"/>
<path d="M204.649 317.812L201.363 324.384H214.916V320.687L204.649 317.812Z" stroke="#232E53" stroke-width="2.46414" stroke-linecap="round" stroke-linejoin="round"/>
<path d="M221.898 316.58L218.202 324.384H232.165L229.29 316.58H221.898Z" stroke="#232E53" stroke-width="2.46414" stroke-linecap="round" stroke-linejoin="round"/>
<path d="M236.683 319.866L235.04 324.384L234.219 325.205H249.414L247.361 319.866H236.683Z" stroke="#232E53" stroke-width="2.46414" stroke-linecap="round" stroke-linejoin="round"/>
<path d="M254.753 311.241L253.932 318.223L269.949 314.938L264.61 309.599L254.753 311.241Z" stroke="#232E53" stroke-width="2.46414" stroke-linecap="round" stroke-linejoin="round"/>
<path d="M56.3895 176.125L72.4064 202.819L58.8537 217.193L41.194 227.461L23.5344 211.855L21.8916 196.248L41.194 177.357L56.3895 176.125Z" fill="#D9D9D9"/>
<path d="M311.839 293.582L315.535 311.652L328.677 310.42L333.605 304.67L331.552 293.582L324.57 288.654L311.839 293.582Z" fill="#D9D9D9"/>
<path d="M311.839 294.403L315.124 312.063M311.839 294.403L324.981 289.064L331.552 293.582M311.839 294.403L320.463 296.867M315.124 312.063L328.266 310.42L333.605 304.67M315.124 312.063L322.517 304.67M333.605 304.67L331.552 293.582M333.605 304.67H322.517M331.552 293.582L320.463 296.867M320.463 296.867L322.517 304.67" stroke="#232E53" stroke-width="1.5" stroke-linejoin="round"/>
<path d="M40.3727 228.693C45.0272 225.818 55.404 219.329 59.6751 216.372C63.9463 213.415 70.7638 206.105 73.6386 202.819M40.3727 228.693L37.4979 212.676M40.3727 228.693L24.3558 213.908L21.0703 195.427M73.6386 202.819L57.211 196.659M73.6386 202.819L56.3896 176.125L42.4262 176.946M57.211 196.659L37.4979 212.676M57.211 196.659L42.4262 176.946M37.4979 212.676L21.0703 195.427M21.0703 195.427L42.4262 176.946" stroke="#232E53" stroke-width="2.29" stroke-linejoin="round"/>
<path d="M145.509 195.838C144.14 196.248 141.731 197.891 143.045 201.177C144.359 204.462 145.783 206.105 146.331 206.516M146.331 206.516C145.783 207.885 144.688 211.033 144.688 212.676C144.688 213.226 144.811 214.281 144.995 215.551M146.331 206.516C146.468 206.789 148.713 206.926 151.67 205.283C154.627 203.641 154.682 202.682 154.956 202.409M144.995 215.551C145.36 218.074 146.788 220.62 147.152 222.532L144.995 215.551ZM144.995 215.551L137.296 219.247" stroke="#232E53" stroke-width="2.46414" stroke-linecap="round" stroke-linejoin="round"/>
<path d="M173.847 189.267C175.49 180.095 183.539 162.49 202.595 165.447C221.651 168.404 222.308 188.856 220.255 198.712C220.255 198.712 204.238 195.024 192.328 195.024C180.418 195.024 172.615 198.712 172.615 198.712C173.71 204.325 180.172 215.304 197.256 214.319C214.341 213.333 219.707 206.789 220.255 203.641M117.993 172.839C118.13 177.083 119.964 186.31 126.207 189.267C132.449 192.224 138.391 186.939 140.581 183.928C138.938 179.418 132.696 173.011 129.082 168.74C125.468 164.469 121.142 162.161 120.868 160.518C123.058 153.126 129.575 140.23 138.117 147.787C146.659 155.344 144.14 171.744 141.813 178.999" stroke="#232E53" stroke-width="3" stroke-linecap="round" stroke-linejoin="round"/>
<path d="M203.416 206.926C203.745 203.312 201.774 197.762 200.952 196.667H187.81L173.846 199.123C174.942 201.724 178.282 207.748 182.882 211.033C187.481 214.319 196.298 214.045 200.131 213.497C201.089 212.813 203.088 210.54 203.416 206.926Z" fill="#232E53"/>
<path d="M122.921 176.946C121.607 179.574 122.373 184.065 122.921 185.981C124.564 187.35 128.753 190.088 132.367 190.088C135.981 190.088 139.349 185.981 140.581 183.928L130.724 171.615C129.629 171.752 124.235 174.317 122.921 176.946Z" fill="#232E53"/>
<path d="M203.416 206.926C203.745 203.312 201.774 197.762 200.952 196.667H187.81L173.846 199.123C174.942 201.724 178.282 207.748 182.882 211.033C187.481 214.319 196.298 214.045 200.131 213.497C201.089 212.813 203.088 210.54 203.416 206.926Z" stroke="#232E53" stroke-width="3.28552" stroke-linecap="round" stroke-linejoin="round"/>
<path d="M122.921 176.946C121.607 179.574 122.373 184.065 122.921 185.981C124.564 187.35 128.753 190.088 132.367 190.088C135.981 190.088 139.349 185.981 140.581 183.928L130.724 171.615C129.629 171.752 124.235 174.317 122.921 176.946Z" stroke="#232E53" stroke-width="3.28552" stroke-linecap="round" stroke-linejoin="round"/>
<path d="M105.672 311.241C103.756 310.831 99.5941 309.352 98.2799 306.724C96.9657 304.095 96.0896 302.343 95.8158 301.796C91.2982 300.153 83.0023 294.978 85.9593 287.421C88.9162 279.865 96.7742 284.82 100.334 288.243M117.172 297.278C116.761 298.784 115.2 301.796 112.244 301.796C108.547 301.796 103.208 300.974 101.976 294.814C100.744 288.654 103.208 284.957 106.905 283.315C109.862 282 111.696 282.219 112.244 282.493M122.511 294.814C117.856 292.897 109.779 286.272 114.708 275.101C120.868 261.137 134.831 280.85 134.831 281.261M139.349 285.779C140.581 282.767 144.606 277.565 150.848 280.85C158.651 284.957 156.021 293.286 154.134 297.689C153.364 299.486 151.149 300.384 148.795 300.564M140.581 291.939C139.76 293.992 139.604 298.628 144.688 300.153C145.92 300.522 147.383 300.673 148.795 300.564M148.795 300.564C149.069 301.659 149.123 304.26 147.152 305.902C145.181 307.545 142.498 309.051 141.402 309.599" stroke="#232E53" stroke-width="3.28552" stroke-linecap="round" stroke-linejoin="round"/>
<path d="M193.149 305.492C192.465 304.123 190.932 301.303 190.274 300.974C189.453 300.563 179.596 296.867 182.882 287.421C185.51 279.865 194.381 284.273 198.488 287.421M213.273 299.331C210.124 301.932 202.677 305.656 198.078 299.742C192.328 292.35 204.649 283.725 206.702 282.904C208.345 282.247 210.946 281.535 212.041 281.261M218.612 294.403C215.19 290.981 209.659 282.493 214.916 275.922C220.173 269.351 229.701 279.481 233.808 285.368M246.128 300.974C243.938 304.397 238.079 310.174 232.165 305.902C224.772 300.563 232.576 290.707 237.504 288.653C242.432 286.6 248.592 287.832 251.878 292.76C254.506 296.703 255.711 302.891 255.985 305.492" stroke="#232E53" stroke-width="3.28552" stroke-linecap="round"/>
<ellipse cx="122.885" cy="285.289" rx="3.69621" ry="5.33897" transform="rotate(-35.8949 122.885 285.289)" fill="#F9B3AC"/>
<ellipse cx="221.451" cy="286.932" rx="3.69621" ry="5.33897" transform="rotate(-35.8949 221.451 286.932)" fill="#F9B3AC"/>
<ellipse cx="189.509" cy="294.643" rx="2.73479" ry="3.27018" transform="rotate(-46.6542 189.509 294.643)" fill="#F9B3AC"/>
<ellipse cx="94.4701" cy="294.19" rx="2.76137" ry="3.98864" transform="rotate(-48.2861 94.4701 294.19)" fill="#F9B3AC"/>
<path d="M130.724 308.777C128.424 310.749 121.278 310.42 117.993 310.009C115.94 309.599 116.022 308.12 116.35 307.135C116.761 305.902 118.814 300.974 122.51 300.563C126.207 300.153 127.849 302.206 129.492 303.028C131.135 303.849 133.599 306.313 130.724 308.777Z" fill="#F9B3AC"/>
<path d="M228.737 311.679C225.699 313.96 216.78 312.971 212.701 312.191C210.165 311.511 210.387 309.667 210.878 308.46C211.491 306.951 214.461 300.948 219.12 300.733C223.78 300.518 225.852 302.828 227.235 304.67C228.468 306.313 232.535 308.827 228.737 311.679Z" fill="#F9B3AC"/>
<path d="M90.5 278.5C92.1428 274.667 98.0336 266.148 103.619 259.905C109.204 253.663 117.719 246.626 121.279 243.888M142.635 254.156C133.736 252.376 113.476 242.985 103.619 219.658C91.2983 190.499 100.744 182.696 105.672 178.178C110.601 173.66 113.857 169.803 115.5 162C117.143 154.197 119.34 139.892 125.5 132.5C130.428 126.586 134.968 120.955 136.885 119.449C135.516 113.289 133.189 98.3399 134.831 87.8262C136.885 74.6841 137.405 62.2689 163.99 73.4521C185.5 82.5 189.5 91.5 194 95C200.297 94.7262 218.612 94.4794 230.111 98.0935C241.611 101.708 248.045 105.349 249.825 106.718M218.612 123.556C225.046 119.723 240.05 111.318 248.592 108.361C259.27 104.664 273.054 96.2587 282 110C290.5 123.056 292.679 138.608 293.5 146C294.157 151.914 292.81 163.941 292.536 169.143" stroke="#232E53" stroke-width="3" stroke-linecap="round" stroke-linejoin="round"/>
<path d="M271.18 178.589C272.959 172.291 276.19 156.083 274.876 141.627C273.233 123.556 274.054 109.182 256.806 114.11C243.006 118.053 229.152 127.252 223.95 131.359C230.111 128.758 243.253 124.624 246.538 128.895C249.824 133.166 241.61 137.793 237.092 139.573C239.83 139.026 245.717 138.587 247.36 141.216C249.002 143.844 244.211 146.966 241.61 148.198M142.634 79.2017C144.413 78.3804 148.712 79.1196 151.669 88.6476C155.365 100.558 156.597 105.075 159.883 109.593C162.511 113.207 164.811 116.301 165.632 117.396C161.936 112.194 153.722 102.036 150.437 103.022C147.151 104.007 151.806 110.825 154.544 114.11C152.353 112.331 147.316 109.182 144.687 110.825C142.059 112.468 145.235 115.89 147.151 117.396" stroke="#232E53" stroke-width="3" stroke-linecap="round" stroke-linejoin="round"/>
<path d="M293.768 149.43C298.97 155.864 308.799 174.482 306.499 197.48C303.932 223.156 290.45 240.068 281.5 246.826M265.02 254.156C266.115 253.608 270 250 276.108 248.5C277.089 248.259 280.429 247.635 281.5 246.826M281.5 246.826C285.881 249.158 293.111 254.895 297.053 266.066C300.996 277.236 302.255 287.695 302.392 291.528" stroke="#232E53" stroke-width="3" stroke-linecap="round" stroke-linejoin="round"/>
<path d="M215.326 203.23C215.326 220.186 203.028 233.621 188.221 233.621C173.414 233.621 161.115 220.186 161.115 203.23C161.115 186.274 173.414 172.839 188.221 172.839C203.028 172.839 215.326 186.274 215.326 203.23Z" stroke="#232E53" stroke-width="3.28552"/>
<path d="M139.759 176.946C139.759 185.506 137.399 193.183 133.668 198.674C129.931 204.173 124.941 207.337 119.636 207.337C114.331 207.337 109.34 204.173 105.603 198.674C101.872 193.183 99.5119 185.506 99.5119 176.946C99.5119 168.385 101.872 160.708 105.603 155.218C109.34 149.719 114.331 146.555 119.636 146.555C124.941 146.555 129.931 149.719 133.668 155.218C137.399 160.708 139.759 168.385 139.759 176.946Z" stroke="#232E53" stroke-width="3.28552"/>
<path d="M159.489 198.123C159.617 199.022 160.45 199.646 161.348 199.517C162.246 199.389 162.87 198.557 162.742 197.659L159.489 198.123ZM138.983 190.3C140.036 188.999 141.988 187.144 144.32 185.901C146.654 184.658 149.143 184.137 151.485 185.048L152.676 181.986C149.103 180.597 145.569 181.513 142.776 183.001C139.982 184.49 137.703 186.659 136.429 188.233L138.983 190.3ZM151.485 185.048C153.903 185.988 155.78 188.213 157.149 190.879C158.505 193.521 159.237 196.359 159.489 198.123L162.742 197.659C162.446 195.59 161.618 192.391 160.072 189.379C158.538 186.391 156.172 183.345 152.676 181.986L151.485 185.048Z" fill="#232E53"/>
<rect x="214.835" y="209.962" width="10.7025" height="8.24575" rx="3.28552" transform="rotate(21.5202 214.835 209.962)" fill="#232E53"/>
<rect x="93.9629" y="157.739" width="10.0927" height="8.24575" rx="3.28552" transform="rotate(21.5202 93.9629 157.739)" fill="#232E53"/>
<path d="M258.039 211.033C267.238 207.748 285.692 197.891 293.769 193.373H303.215C307.321 193.373 315.125 190.909 314.714 188.035C314.303 185.16 306.089 184.749 301.161 184.749C296.233 184.749 272.413 199.123 264.199 202.819C255.985 206.516 224.773 212.265 225.594 217.193C226.415 222.122 246.539 215.14 258.039 211.033Z" fill="#232E53"/>
<path d="M220.255 234.032L233.807 242.656M221.076 229.103C225.183 229.925 234.136 231.814 237.093 232.8C240.05 233.785 243.253 235.127 244.485 235.675M221.076 224.997C227.236 225.133 240.05 225.489 242.021 225.818M97.4585 190.088L84.3164 186.392M99.1012 185.16C96.6371 183.517 90.9696 179.985 88.0126 178.999M102.387 179.821L90.8874 172.839" stroke="#232E53" stroke-width="2.46414" stroke-linecap="round"/>
<rect x="311.839" y="74.2301" width="75.5669" height="46.0486" rx="1.18073" fill="#FF5391"/>
<path d="M345.879 106.864C345.042 106.864 344.303 106.688 343.664 106.335C343.025 105.983 342.557 105.47 342.259 104.798L343.565 104.038C343.907 104.919 344.678 105.36 345.879 105.36C346.617 105.36 347.196 105.184 347.615 104.831C348.034 104.478 348.243 103.955 348.243 103.261V95.0782H349.764V103.261C349.764 104.418 349.395 105.31 348.656 105.939C347.929 106.556 347.003 106.864 345.879 106.864ZM357.146 106.864C356.066 106.864 355.141 106.611 354.369 106.104C353.609 105.597 353.074 104.903 352.766 104.021L354.088 103.261C354.54 104.66 355.571 105.36 357.18 105.36C357.973 105.36 358.579 105.2 358.998 104.881C359.417 104.55 359.626 104.115 359.626 103.575C359.626 103.024 359.417 102.611 358.998 102.335C358.579 102.06 357.879 101.767 356.898 101.459C356.414 101.305 356.044 101.183 355.791 101.095C355.538 100.996 355.218 100.853 354.832 100.665C354.458 100.467 354.177 100.269 353.989 100.07C353.802 99.861 353.631 99.591 353.477 99.2604C353.333 98.9298 353.262 98.5551 353.262 98.1363C353.262 97.1335 353.614 96.3401 354.32 95.756C355.025 95.1609 355.885 94.8634 356.898 94.8634C357.813 94.8634 358.607 95.0948 359.279 95.5576C359.962 96.0205 360.475 96.6321 360.816 97.3925L359.527 98.1363C359.031 96.9462 358.155 96.3511 356.898 96.3511C356.27 96.3511 355.763 96.5054 355.378 96.8139C354.992 97.1225 354.799 97.5413 354.799 98.0702C354.799 98.5772 354.981 98.9629 355.345 99.2273C355.708 99.4918 356.336 99.7673 357.229 100.054C357.549 100.153 357.775 100.225 357.907 100.269C358.039 100.313 358.243 100.39 358.518 100.5C358.805 100.61 359.014 100.699 359.147 100.765C359.279 100.831 359.455 100.924 359.676 101.046C359.907 101.167 360.078 101.283 360.188 101.393C360.298 101.503 360.425 101.641 360.568 101.806C360.722 101.96 360.833 102.12 360.899 102.285C360.965 102.451 361.02 102.644 361.064 102.864C361.119 103.073 361.147 103.299 361.147 103.542C361.147 104.556 360.778 105.366 360.039 105.972C359.301 106.567 358.337 106.864 357.146 106.864Z" fill="white"/>
<path d="M311.839 75.4108C311.839 74.7587 312.367 74.2301 313.02 74.2301H386.225C386.877 74.2301 387.406 74.7587 387.406 75.4108V82.4952H311.839V75.4108Z" fill="#9E3058"/>
<circle cx="318.333" cy="78.3626" r="1.7711" fill="#FEFEFE"/>
<circle cx="325.417" cy="78.3626" r="1.7711" fill="#FEFEFE"/>
<circle cx="332.502" cy="78.3626" r="1.7711" fill="#FEFEFE"/>
</svg>
