<svg width="331" height="249" viewBox="0 0 331 249" fill="none" xmlns="http://www.w3.org/2000/svg">
<path d="M130.729 200.63H140.816H183.451H260.65L300.057 241.054L179.813 246.953C166.274 236.03 131.186 212.368 129.25 210.434C126.829 208.016 126.156 206.27 126.694 203.45C127.125 201.194 129.564 200.63 130.729 200.63Z" fill="#D9D9D9" stroke="#232E53" stroke-width="2.1519" stroke-linejoin="round"/>
<path d="M135.461 194.143C119.426 193.424 83.79 192.416 69.521 194.143C51.6847 196.302 24.66 200.08 18.7146 196.302C15.4658 194.238 14.5538 193.231 14.5317 192.8C13.4511 193.452 11.4197 194.037 9.52641 192.524C7.36444 190.797 6.46362 189.286 6.28345 188.746C5.0223 188.207 2.5 186.587 2.5 184.429C2.5 181.73 2.5 178.492 9.52641 176.873C16.5528 175.254 27.9032 169.317 31.1461 164.459C34.3891 159.602 38.713 152.586 43.037 150.967C47.3609 149.348 58.7113 146.109 65.1972 134.776C71.6831 123.442 76.007 88.9004 98.7078 79.1857C121.408 69.4709 145.19 78.1063 151.676 81.8842C158.162 85.6622 168.972 94.2975 169.512 94.2975H178.701C177.259 91.4191 174.917 83.5033 177.079 74.868C179.782 64.0739 190.592 57.5974 191.673 53.8195C192.754 50.0415 195.456 44.6444 198.699 42.4856C201.293 40.7585 204.825 38.5277 206.266 37.6282C209.509 26.2944 218.913 3.51874 230.588 3.08698C242.263 2.65521 246.262 21.2571 246.803 30.612C250.046 30.4321 258.586 30.72 266.801 33.3106C275.017 35.9012 281.755 39.7871 284.097 41.4062C292.565 37.0885 311.662 29.9644 320.31 36.0091C328.958 42.0538 318.508 62.9945 312.202 72.7092C312.743 77.9264 313.824 89.1163 313.824 92.1387C313.824 95.9166 317.067 99.1548 315.445 104.552C314.148 108.87 313.824 111.388 313.824 112.108C315.085 112.288 317.499 113.835 317.067 118.584C316.635 123.334 310.401 130.278 307.338 133.156C308.239 135.855 310.041 142.331 310.041 146.649V161.761L203.023 166.618L190.051 194.143H183.565C183.925 197.381 184.862 204.614 185.727 207.636C186.808 211.414 185.187 218.97 181.944 220.589C178.701 222.208 173.836 221.668 171.674 219.51C169.945 217.782 168.431 216.631 167.891 216.271C167.531 216.811 166.053 217.89 163.026 217.89C160 217.89 156.721 216.451 155.46 215.732C154.198 216.091 150.919 216.595 147.893 215.732C144.109 214.652 142.488 210.874 142.488 209.255C142.488 207.96 143.208 205.477 143.569 204.398C142.308 202.059 139.461 197.058 138.164 195.762C136.867 194.467 135.822 194.143 135.461 194.143Z" fill="white"/>
<path d="M231.128 137.474C229.831 137.474 228.426 136.394 227.885 135.855C227.885 135.315 227.829 134.345 227.396 133.481C226.964 132.617 226.05 131.357 225.69 130.997C226.228 130.767 227.069 130.399 227.885 129.985C228.981 129.43 230.092 128.794 230.588 128.299C231.669 127.219 232.75 126.68 231.669 123.441C230.804 120.851 225.183 119.124 222.48 118.584C225.003 118.044 230.155 116.749 230.588 115.885C231.02 115.022 230.768 112.647 230.588 111.568C231.669 110.488 237.182 108.33 250.586 108.33C263.99 108.33 269.143 110.488 270.044 111.568C269.864 115.526 269.395 124.953 268.963 130.997C268.422 138.553 268.963 143.411 251.667 144.49C234.371 145.569 234.912 139.633 234.371 138.013C233.831 136.394 232.75 137.474 231.128 137.474Z" fill="#6B8EDE"/>
<path d="M230.254 119.783C230.571 119.993 230.927 121.932 231.196 122.737C231.061 122.648 230.389 121.824 229.851 121.394C229.313 120.965 228.461 120.499 228.103 120.32C228.685 120.141 229.851 119.514 230.254 119.783Z" fill="#FEFEFE"/>
<path d="M234.154 134.421C234.154 134.421 231.868 135.227 230.12 133.75C228.742 132.585 228.121 130.63 227.974 129.759C228.286 129.612 228.963 129.291 229.178 129.184C229.447 129.049 230.792 128.109 231.061 127.841C231.276 127.626 231.958 126.587 232.137 126.363C232.406 127.169 232.944 129.049 233.213 130.124C233.492 131.237 234.154 134.421 234.154 134.421Z" fill="#FEFEFE"/>
<path d="M73.3051 178.491C65.0896 181.082 55.4689 191.085 51.6854 195.762C56.1895 195.222 67.5759 193.927 77.0886 193.064C86.6013 192.2 120.328 193.423 136.002 194.143C133.66 191.264 126.49 184.536 116.545 180.65C106.599 176.764 96.186 166.798 92.2224 162.3C89.3397 166.618 81.5206 175.901 73.3051 178.491Z" fill="#D9D9D9"/>
<path d="M143.029 174.713C153.839 179.031 172.035 174.713 179.782 172.015L177.08 154.205C180.863 154.744 189.403 155.5 193.295 154.205C198.159 152.586 206.266 146.109 208.428 141.791C210.59 137.474 212.212 121.822 208.428 121.283C205.402 120.851 189.511 123.621 181.944 125.061C183.926 122.902 188.214 117.505 189.511 113.187C190.808 108.869 190.052 106.71 189.511 106.171L178.701 94.8369H170.053C168.252 93.3977 163.135 89.3318 157.082 84.5824C149.515 78.6456 137.624 73.2486 112.761 74.328C92.871 75.1915 82.3133 91.2388 79.791 98.6148C79.6109 100.953 79.3587 106.818 79.791 111.568C80.3315 117.505 81.953 121.282 88.9794 133.156C96.0058 145.03 129.516 169.316 143.029 174.713Z" fill="#D9D9D9"/>
<path d="M189.511 88.9002C186.484 93.6496 182.485 95.5565 180.863 95.9163C179.062 92.3183 175.674 83.3951 176.539 76.4868C177.404 69.5786 185.548 60.6554 189.511 57.0574C189.871 56.1578 191.349 53.0635 194.376 47.8823C197.402 42.7011 203.204 39.247 205.726 38.1676C209.69 26.4739 220.319 2.97857 231.129 2.5468C241.939 2.11503 246.083 21.0767 246.803 30.6116C250.947 30.9714 260.64 31.9069 266.261 32.7704C271.882 33.6339 280.134 38.5273 283.557 40.8661C293.826 36.9082 315.878 30.6117 321.932 37.0882C327.985 43.5646 317.968 63.5338 312.203 72.7088L314.365 92.1383C314.365 93.7574 314.689 97.6433 315.986 100.234C317.284 102.824 315.446 108.509 314.365 111.028C313.104 111.748 310.149 113.187 308.42 113.187C306.258 113.187 304.096 114.806 302.474 114.806C301.177 114.806 294.367 116.965 291.124 118.044C290.223 117.684 288.421 116.533 288.421 114.806V92.1383C288.421 79.725 267.342 65.153 249.506 59.2163C231.67 53.2795 213.833 59.2163 208.428 59.2163C203.023 59.2163 193.295 82.9634 189.511 88.9002Z" fill="#D9D9D9"/>
<path d="M83.034 90.5192C82.1692 91.3827 79.4307 96.9957 78.1696 99.6942L77.6288 100.774C77.0883 100.594 75.683 100.018 74.3858 99.1545C72.7644 98.0751 66.2784 92.1383 64.657 90.5192C63.0355 88.9001 60.8735 75.9471 60.333 72.1692C59.7925 68.3912 55.4686 60.2956 53.8471 58.1368C52.2256 55.9779 45.1992 51.6603 37.0918 57.0574C28.9844 62.4544 32.2274 68.3912 34.9299 71.6294C37.6323 74.8677 37.0918 78.6456 33.8489 80.8045C30.6059 82.9633 26.2822 81.3442 21.9583 78.6456C17.6344 75.9471 16.0129 67.3118 17.6344 59.7559C19.2558 52.2 21.9583 46.8029 37.6326 40.8661C53.3069 34.9294 71.1432 49.5015 74.3861 53.2794C77.6291 57.0574 78.7101 73.7883 80.3315 77.0265C81.6287 79.6171 86.6373 82.7834 88.9794 84.0427C87.3579 85.8417 83.8988 89.6557 83.034 90.5192Z" fill="#D9D9D9"/>
<path d="M178.701 93.2179C175.818 93.2179 169.945 93.2179 169.512 93.2179C168.972 93.2179 158.162 84.5826 151.676 80.8046C145.19 77.0267 121.408 68.3914 98.7078 78.1061C95.2407 79.5898 92.2023 81.6526 89.5194 84.1235M178.701 93.2179C180.863 95.9164 185.943 101.961 188.97 104.552C191.997 107.142 193.474 107.79 193.835 107.79M178.701 93.2179C177.259 90.3395 174.917 82.4238 177.079 73.7884C179.782 62.9943 190.592 56.5178 191.673 52.7399C192.754 48.9619 195.456 43.5648 198.699 41.406C201.293 39.6789 204.825 37.4482 206.266 36.5486C209.509 25.2148 218.913 2.43915 230.588 2.00739C242.263 1.57562 246.262 20.1775 246.803 29.5325C250.046 29.3525 258.586 29.6404 266.801 32.231C275.017 34.8216 281.755 38.7075 284.097 40.3266C292.565 36.0089 311.662 28.8848 320.31 34.9295C328.958 40.9742 318.508 61.9149 312.202 71.6296C312.743 76.8468 313.824 88.0367 313.824 91.0591C313.824 94.837 317.067 98.0753 315.445 103.472C314.148 107.79 313.824 110.309 313.824 111.028M313.824 111.028C315.085 111.208 317.499 112.755 317.067 117.505C316.635 122.254 310.401 129.198 307.338 132.077C308.239 134.775 310.041 141.252 310.041 145.569C310.041 149.887 310.041 157.443 310.041 160.681L272.747 162.374M313.824 111.028C313.464 111.028 312.527 111.028 311.662 111.028C310.797 111.028 310.221 112.612 310.041 113.404M183.565 193.064H190.051L203.023 165.539L272.747 162.374M183.565 193.064C183.925 196.302 184.862 203.534 185.727 206.556C186.808 210.334 185.187 217.89 181.944 219.509C178.701 221.128 173.836 220.589 171.674 218.43C169.945 216.703 168.431 215.552 167.891 215.192C167.531 215.731 166.053 216.811 163.026 216.811C160 216.811 156.721 215.372 155.46 214.652C154.198 215.012 150.919 215.516 147.893 214.652C144.109 213.573 142.488 209.795 142.488 208.176C142.488 206.88 143.208 204.398 143.569 203.318C142.308 200.979 139.461 195.978 138.164 194.683M183.565 193.064C183.385 183.529 181.295 160.681 174.377 145.569C167.458 130.458 154.919 114.087 149.514 107.79M138.164 194.683C136.867 193.387 135.822 193.064 135.461 193.064C119.426 192.344 83.79 191.337 69.521 193.064C51.6847 195.222 24.66 199 18.7146 195.223C13.9583 192.2 14.2105 191.445 14.9312 191.445C14.0304 192.164 11.6884 193.172 9.52641 191.445C7.36444 189.718 6.46362 188.206 6.28345 187.667C5.0223 187.127 2.5 185.508 2.5 183.349C2.5 180.65 2.5 177.412 9.52641 175.793C16.5528 174.174 27.9032 168.237 31.1461 163.38C34.3891 158.522 38.713 151.506 43.037 149.887C47.3609 148.268 58.7113 145.03 65.1972 133.696C68.8238 127.359 71.7745 113.765 77.6399 101.313M138.164 194.683C129.876 187.847 113.578 178.64 101.696 169.44C90.9996 161.158 81.2318 144.67 80.331 137.474M77.6399 101.313C74.9336 99.3346 67.7916 95.2688 65.1972 90.5194C61.9542 84.5826 59.1118 66.6668 56.5493 61.9149C52.7659 54.8987 45.2481 52.7399 38.713 56.5178C28.4437 62.4546 31.6866 67.3119 33.8486 70.5502C36.0106 73.7884 38.1725 78.6458 33.8486 80.8046C29.5247 82.9635 21.9577 80.8046 18.7148 73.7884C15.9593 67.8269 15.4718 47.8825 34.9296 41.406C54.3873 34.9295 71.1313 48.4222 74.3856 54.359C77.6399 60.2958 78.169 75.4075 80.8715 78.1061C83.0335 80.2649 87.5376 83.0172 89.5194 84.1235M77.6399 101.313C80.6621 94.8975 84.4582 88.7845 89.5194 84.1235M160.324 120.743C160.144 118.944 160.54 114.59 163.567 111.568M190.592 160.681C197.618 159.422 209.613 155.83 213.221 154.723C217.666 153.359 227.345 154.989 228.943 150.798C230.541 146.607 225.724 147.009 224.102 145.569C225.724 144.13 228.452 141.968 227.345 139.633C226.56 137.977 224.643 138.014 224.102 138.014C225.183 137.654 226.978 137.062 226.978 134.609C226.978 132.156 224.462 131.177 223.562 130.458C226.264 129.918 231.561 128.083 231.129 125.061C230.588 121.283 224.643 119.124 214.373 119.124C204.104 119.124 183.025 121.822 178.701 125.061M272.747 162.374C271.846 155.873 271.017 140.712 274.908 132.077C279.773 121.283 289.502 115.886 294.366 115.346C298.166 114.924 301.306 113.844 303.014 114.42M301.933 120.743C303.014 119.664 304.96 117.073 304.095 115.346C303.859 114.873 303.493 114.582 303.014 114.42M303.014 114.42C303.735 113.65 305.825 112.216 308.419 112.647C309.078 112.757 309.611 113.031 310.041 113.404M311.662 117.505C311.662 116.431 311.301 114.496 310.041 113.404" stroke="#232E53" stroke-width="3.14432" stroke-linecap="round" stroke-linejoin="round"/>
<path d="M295.76 246.952H182.27C181.615 247.115 179.715 246.952 177.357 244.99C174.409 242.537 174.409 238.612 174.409 237.14C174.409 235.668 195.044 174.345 197.992 167.477C200.35 161.983 207.49 161.427 210.765 161.591C247.777 161.427 317.377 161.689 323.273 162.081C329.168 162.474 330.151 167.478 329.168 171.893C320.489 192.171 307.158 234.393 305.586 239.103C302.802 247.443 298.217 246.461 295.76 246.952Z" fill="#D9D9D9" stroke="#232E53" stroke-width="2.9478" stroke-linejoin="round"/>
<path d="M264.002 214.308L249.281 213.58C248.79 213.556 247.538 213.209 246.876 212.479C245.943 211.451 246.482 210.495 246.506 210.005C246.531 209.515 251.262 203.363 257.642 203.678C264.021 203.994 266.722 209.039 267.606 211.047C268.491 213.056 265.964 214.404 264.002 214.308Z" fill="#FEFEFE"/>
<path d="M265.338 199.222C264.766 200.744 263.478 201.669 262.462 201.288C261.446 200.907 261.086 199.364 261.659 197.842C262.231 196.32 263.519 195.396 264.535 195.777C265.551 196.158 265.911 197.7 265.338 199.222Z" fill="#FEFEFE"/>
<path d="M256.308 196.7C256.482 198.316 255.748 199.721 254.669 199.836C253.59 199.952 252.574 198.735 252.4 197.119C252.227 195.503 252.961 194.099 254.04 193.983C255.119 193.867 256.135 195.084 256.308 196.7Z" fill="#FEFEFE"/>
<path d="M247.861 198.915C248.56 200.383 248.331 201.95 247.351 202.416C246.371 202.881 245.01 202.067 244.311 200.599C243.612 199.131 243.841 197.563 244.821 197.098C245.801 196.633 247.162 197.446 247.861 198.915Z" fill="#FEFEFE"/>
<path d="M271.315 203.108C270.333 204.404 268.835 204.925 267.97 204.272C267.104 203.618 267.198 202.037 268.181 200.74C269.163 199.444 270.661 198.923 271.526 199.576C272.392 200.23 272.297 201.811 271.315 203.108Z" fill="#FEFEFE"/>
<path d="M184.106 55.4381C182.809 53.2793 177.8 52.02 175.458 51.6602C176.539 51.1205 179.35 49.3935 181.944 46.8029C184.538 44.2123 184.106 35.2891 183.565 31.1514C185.187 33.3102 189.078 38.7073 191.673 43.0249C194.003 46.9029 198.542 47.8783 201.14 47.9064C201.469 47.8502 201.74 47.8485 201.942 47.8822C201.704 47.9006 201.434 47.9095 201.14 47.9064C199.712 48.1501 197.186 49.4197 194.375 53.2793C190.916 58.0287 189.691 65.6926 189.511 68.9308C188.25 65.3328 185.403 57.597 184.106 55.4381Z" fill="#FCED90" stroke="#232E53" stroke-width="2.16197" stroke-linejoin="round"/>
<path d="M228 32C225.5 32.5 220 33.1 218 31.5C216 29.9 216.166 28.8333 216.5 28.5C218.666 22.5 223.999 10.5 228 10.5C233 10.5 235.5 18 236 20.5C236.352 22.2582 237.759 26.4635 238.661 29.0399C238.801 29.3882 238.915 29.7167 239 30C238.899 29.7179 238.785 29.3943 238.661 29.0399C237.976 27.3392 236.66 25.168 235 25.5C233 25.9 232.5 29 232.5 30.5C231.667 29.1667 229.8 26.7 229 27.5C228.2 28.3 228 30.8333 228 32Z" fill="#F9B3AC"/>
<path d="M314.5 41.5C310.9 36.7 297.667 41.8333 291.5 45H293C294.833 45 298.7 45.2 299.5 46C300.5 47 298 50.5 299.5 49.5C301 48.5 302.5 50 301.5 53C300.5 56 300.5 55.5 302.5 60.5C304.1 64.5 307.167 65.5 308.5 65.5C312 59.5 318.1 46.3 314.5 41.5Z" fill="#F9B3AC"/>
<path d="M215.454 30.612C217.796 23.7758 223.778 10.2111 228.966 10.6429C234.155 11.0746 237.614 24.1356 238.695 30.612C238.335 28.6331 237.074 24.7832 234.912 25.2149C232.75 25.6467 232.209 28.9929 232.209 30.612C231.849 29.3527 230.696 27.0499 228.966 27.9135C227.237 28.777 227.525 31.1517 227.885 32.2311M307.878 66.2327C311.662 59.9361 318.364 46.1556 314.905 41.4061C311.446 36.6567 297.249 42.3056 290.583 45.7238C292.925 45.1841 297.933 44.4285 299.231 45.7238C300.528 47.0191 298.33 49.8615 297.069 51.1209C298.33 50.4013 301.068 49.1779 301.933 50.0415C302.798 50.905 301.573 53.9993 300.852 55.4385" stroke="#232E53" stroke-width="2.16197" stroke-linecap="round" stroke-linejoin="round"/>
<path d="M212.211 87.2812C192.321 82.5317 193.834 67.6718 197.077 60.8355C196.717 59.5762 196.104 56.5178 196.536 54.359C197.077 51.6604 203.022 51.6604 216.535 53.2795C227.344 54.5748 235.092 58.8566 237.614 60.8355C238.695 60.4757 241.938 59.972 246.262 60.8355C250.586 61.6991 253.468 64.0738 254.369 65.1532C257.252 64.6135 265.179 63.8579 273.827 65.1532C284.637 66.7723 294.906 72.7091 294.906 75.4076C294.906 78.1061 292.204 80.265 291.123 81.8841C290.042 83.5032 285.718 99.6944 264.638 96.9959C243.559 94.2974 248.964 72.1694 249.505 70.5502C250.045 68.9311 247.343 67.312 244.64 66.2326C241.938 65.1532 238.154 65.6929 237.614 67.312C237.073 68.9311 237.074 93.2179 212.211 87.2812Z" fill="#232E53"/>
<path d="M238.156 78.6452C236.955 79.2978 239.058 81.3438 239.779 81.8835C239.959 82.0635 240.483 82.1889 241.401 81.8836C243.022 81.3438 244.986 80.9467 244.643 80.2644C244.101 79.1849 239.778 77.7638 238.156 78.6452Z" fill="#F9B3AC"/>
<path d="M238.155 78.106C237.975 79.0055 238.047 81.0204 239.777 81.8839C241.506 82.7474 243.741 81.1643 244.642 80.2648M239.908 81.9442L238.696 88.9001M238.696 88.9001C238.156 89.7996 236.75 91.5986 235.453 91.5986M238.696 88.9001C238.876 89.7996 239.344 91.7066 239.777 92.1383" stroke="#232E53" stroke-width="1.08099" stroke-linecap="round" stroke-linejoin="round"/>
</svg>
