<svg width="373" height="373" viewBox="0 0 373 373" fill="none" xmlns="http://www.w3.org/2000/svg">
<path d="M0 275C0 258.431 13.4315 245 30 245H343C359.569 245 373 258.431 373 275V373H0V275Z" fill="#6B8EDE"/>
<rect x="168.367" y="36.916" width="135.35" height="79.6175" rx="1.90062" fill="#FF5391"/>
<path d="M214.358 93.3164C210.329 93.3164 206.996 91.986 204.361 89.3251C201.751 86.6643 200.445 83.3952 200.445 79.5179C200.445 75.6407 201.751 72.3716 204.361 69.7108C206.996 67.0499 210.329 65.7195 214.358 65.7195C216.791 65.7195 219.021 66.3023 221.048 67.468C223.101 68.6337 224.697 70.2049 225.838 72.1816L222.759 73.9681C221.998 72.4983 220.858 71.3326 219.338 70.471C217.842 69.5841 216.183 69.1406 214.358 69.1406C211.292 69.1406 208.783 70.1289 206.832 72.1055C204.906 74.0822 203.943 76.553 203.943 79.5179C203.943 82.4576 204.906 84.9157 206.832 86.8923C208.783 88.869 211.292 89.8573 214.358 89.8573C216.183 89.8573 217.842 89.4265 219.338 88.5649C220.858 87.6779 221.998 86.5122 222.759 85.0677L225.838 86.8163C224.723 88.793 223.139 90.3768 221.086 91.5679C219.033 92.7336 216.791 93.3164 214.358 93.3164ZM240.333 93.3164C237.849 93.3164 235.721 92.7336 233.947 91.5679C232.198 90.4021 230.969 88.8056 230.26 86.7783L233.301 85.0297C234.34 88.2481 236.709 89.8573 240.409 89.8573C242.233 89.8573 243.627 89.4899 244.59 88.7549C245.553 87.9947 246.035 86.9937 246.035 85.752C246.035 84.4849 245.553 83.5346 244.59 82.901C243.627 82.2675 242.018 81.596 239.763 80.8864C238.648 80.5316 237.799 80.2529 237.216 80.0501C236.633 79.822 235.898 79.4926 235.011 79.0618C234.15 78.6057 233.503 78.1495 233.073 77.6934C232.642 77.2119 232.249 76.591 231.894 75.8308C231.565 75.0705 231.4 74.2089 231.4 73.2459C231.4 70.9398 232.211 69.1152 233.833 67.7721C235.455 66.4037 237.431 65.7195 239.763 65.7195C241.866 65.7195 243.691 66.2516 245.236 67.316C246.808 68.3803 247.986 69.7868 248.772 71.5354L245.807 73.2459C244.666 70.509 242.652 69.1406 239.763 69.1406C238.318 69.1406 237.152 69.4954 236.266 70.2049C235.379 70.9145 234.935 71.8775 234.935 73.0939C234.935 74.2596 235.353 75.1465 236.19 75.7547C237.026 76.3629 238.47 76.9965 240.523 77.6553C241.258 77.8834 241.777 78.0481 242.081 78.1495C242.386 78.2509 242.854 78.4283 243.488 78.6817C244.147 78.9351 244.628 79.1378 244.932 79.2899C245.236 79.4419 245.642 79.6573 246.149 79.9361C246.681 80.2148 247.074 80.4809 247.327 80.7343C247.581 80.9878 247.872 81.3045 248.201 81.6847C248.556 82.0394 248.81 82.4069 248.962 82.787C249.114 83.1671 249.24 83.6106 249.342 84.1174C249.468 84.5989 249.532 85.1184 249.532 85.6759C249.532 88.0074 248.683 89.87 246.985 91.2638C245.287 92.6322 243.07 93.3164 240.333 93.3164ZM263.281 93.3164C260.798 93.3164 258.669 92.7336 256.895 91.5679C255.147 90.4021 253.918 88.8056 253.208 86.7783L256.249 85.0297C257.288 88.2481 259.657 89.8573 263.357 89.8573C265.182 89.8573 266.576 89.4899 267.539 88.7549C268.502 87.9947 268.983 86.9937 268.983 85.752C268.983 84.4849 268.502 83.5346 267.539 82.901C266.576 82.2675 264.967 81.596 262.711 80.8864C261.596 80.5316 260.747 80.2529 260.164 80.0501C259.581 79.822 258.847 79.4926 257.96 79.0618C257.098 78.6057 256.452 78.1495 256.021 77.6934C255.59 77.2119 255.197 76.591 254.843 75.8308C254.513 75.0705 254.348 74.2089 254.348 73.2459C254.348 70.9398 255.159 69.1152 256.781 67.7721C258.403 66.4037 260.38 65.7195 262.711 65.7195C264.814 65.7195 266.639 66.2516 268.185 67.316C269.756 68.3803 270.934 69.7868 271.72 71.5354L268.755 73.2459C267.615 70.509 265.6 69.1406 262.711 69.1406C261.267 69.1406 260.101 69.4954 259.214 70.2049C258.327 70.9145 257.884 71.8775 257.884 73.0939C257.884 74.2596 258.302 75.1465 259.138 75.7547C259.974 76.3629 261.419 76.9965 263.471 77.6553C264.206 77.8834 264.726 78.0481 265.03 78.1495C265.334 78.2509 265.803 78.4283 266.436 78.6817C267.095 78.9351 267.577 79.1378 267.881 79.2899C268.185 79.4419 268.59 79.6573 269.097 79.9361C269.629 80.2148 270.022 80.4809 270.276 80.7343C270.529 80.9878 270.82 81.3045 271.15 81.6847C271.505 82.0394 271.758 82.4069 271.91 82.787C272.062 83.1671 272.189 83.6106 272.29 84.1174C272.417 84.5989 272.48 85.1184 272.48 85.6759C272.48 88.0074 271.631 89.87 269.933 91.2638C268.236 92.6322 266.018 93.3164 263.281 93.3164Z" fill="white"/>
<path d="M168.367 38.8166C168.367 37.767 169.218 36.916 170.268 36.916H301.816C302.866 36.916 303.717 37.767 303.717 38.8166V48.8586H168.367V38.8166Z" fill="#9E3058"/>
<circle cx="179.065" cy="42.4048" r="2.55913" fill="#FEFEFE"/>
<circle cx="190.288" cy="42.4048" r="2.55913" fill="#FEFEFE"/>
<circle cx="201.51" cy="42.4048" r="2.55913" fill="#FEFEFE"/>
<path d="M48.6121 272.896C39.1965 270.542 39.1965 259.557 40.3734 254.359C43.1196 251.024 50.7306 243.472 59.2047 239.941C69.7972 235.528 95.6903 236.411 98.3384 239.941C100.987 243.472 103.046 246.12 103.046 252.299C103.046 258.478 100.104 264.363 89.5112 269.954C78.9187 275.544 60.3816 275.839 48.6121 272.896Z" fill="#6B8EDE"/>
<path d="M48.6121 272.896C39.1965 270.542 39.1965 259.557 40.3734 254.359C43.1196 251.024 50.7306 243.472 59.2047 239.941C69.7972 235.528 95.6903 236.411 98.3384 239.941C100.987 243.472 103.046 246.12 103.046 252.299C103.046 258.478 100.104 264.363 89.5112 269.954C78.9187 275.544 60.3816 275.839 48.6121 272.896ZM48.6121 272.896C48.4159 271.131 48.4944 266.776 50.3775 263.481C52.2606 260.185 54.693 257.596 55.6738 256.713" stroke="#232E53" stroke-width="1.76543"/>
<rect x="50.8301" y="258.697" width="3.22142" height="6.94854" rx="0.588477" transform="rotate(24.2091 50.8301 258.697)" fill="#232E53"/>
<path d="M254.579 254.947C239.573 258.478 201.675 265.069 170.133 263.186C130.705 260.832 113.933 257.595 103.341 246.709C100.769 244.065 99.0466 241.404 97.9851 238.764C97.7106 245.139 95.6315 258.066 89.5114 258.772C83.3912 259.479 81.0765 255.34 80.6842 253.182C78.0361 256.32 71.4451 262.539 66.2665 262.303C61.0879 262.068 59.5971 258.086 59.499 256.124C57.1451 257.89 51.4369 261.126 47.4352 259.949C43.4336 258.772 43.0217 254.947 43.3159 253.182C41.9428 254.261 38.4904 255.183 35.6657 250.239C32.1349 244.06 43.0217 229.054 59.499 215.814C72.6809 205.221 95.7015 205.515 105.564 206.986C108.049 200.073 109.499 192.594 110.108 186.095C110.814 178.563 115.11 170.795 117.17 167.853C114.129 158.731 109.578 136.958 115.699 122.834C123.349 105.18 125.703 105.474 131.587 106.651C136.295 107.593 157.873 126.071 168.073 135.192C174.742 133.525 190.435 130.367 199.851 131.073C211.62 131.956 223.684 137.546 229.569 131.073C235.454 124.6 257.227 102.826 268.997 103.12C280.766 103.414 289.888 150.198 289.594 162.851C289.299 175.503 287.24 182.27 289.594 186.39C291.948 190.509 295.773 197.276 297.832 206.104C299.425 212.929 297.847 219.387 296.766 222.026C297.369 221.513 300.372 220.816 309.308 220.816C322.548 220.816 331.081 233.762 334.318 239.353C337.554 244.943 337.554 252.593 334.318 257.89C331.081 263.186 322.843 261.126 314.898 267.305C306.954 273.484 294.007 273.779 290.476 271.719C286.945 269.659 285.18 269.953 277.236 267.305C270.88 265.187 272.037 259.753 273.41 257.301C270.664 259.753 263.936 264.245 258.993 262.597C254.05 260.95 253.991 256.811 254.579 254.947Z" fill="#D9D9D9"/>
<path d="M298.715 289.667L298.126 283.193L127.468 322.327V327.329C142.082 326.741 172.781 327.153 179.842 327.623C188.669 328.212 196.32 332.625 197.497 332.625C198.674 332.625 200.733 332.625 207.501 330.566C214.268 328.506 226.038 329.389 235.159 329.683C244.28 329.977 273.116 335.568 275.764 335.862C278.412 336.156 280.472 335.274 281.06 333.214C281.531 331.566 293.026 303.496 298.715 289.667Z" fill="#D9D9D9" stroke="#232E53" stroke-width="1.76543" stroke-linejoin="round"/>
<path d="M173.958 322.033C159.599 320.385 136.197 321.347 126.291 322.033C127.174 320.758 129.116 318.032 129.822 317.325C130.705 316.443 140.709 303.496 146.888 297.317C151.831 292.374 159.932 280.938 163.365 275.838C164.738 275.445 168.132 274.661 170.721 274.661C173.958 274.661 182.196 274.366 199.556 275.838C213.444 277.015 221.82 280.644 224.272 282.311C225.253 281.722 228.156 280.31 231.923 279.369C236.63 278.192 245.163 277.309 260.17 277.603C272.175 277.839 290.868 280.84 298.715 282.311C297.342 285.253 293.889 292.786 291.065 299.377C288.24 305.968 281.061 322.524 277.824 329.978C273.901 329.389 261.052 327.565 241.044 324.976C221.036 322.386 205.049 326.054 199.556 328.212C197.006 326.839 188.317 323.681 173.958 322.033Z" fill="#FEFEFE"/>
<path d="M199.556 328.212C197.006 326.839 188.317 323.681 173.958 322.033C159.599 320.385 136.197 321.347 126.291 322.033C127.174 320.758 129.116 318.032 129.822 317.325C130.705 316.443 140.709 303.496 146.888 297.317C151.831 292.374 159.932 280.938 163.365 275.838C164.738 275.445 168.132 274.661 170.721 274.661C173.958 274.661 182.196 274.366 199.556 275.838C213.444 277.015 221.82 280.644 224.272 282.311M199.556 328.212C205.049 326.054 221.036 322.386 241.044 324.976C261.052 327.565 273.901 329.389 277.824 329.978C281.061 322.524 288.24 305.968 291.065 299.377C293.889 292.786 297.342 285.253 298.715 282.311C290.868 280.84 272.175 277.839 260.17 277.603C245.163 277.309 236.63 278.192 231.923 279.369C228.156 280.31 225.253 281.722 224.272 282.311M199.556 328.212C203.872 319.287 213.327 300.201 216.622 295.257C219.918 290.314 223.096 284.567 224.272 282.311" stroke="#232E53" stroke-width="1.76543" stroke-linejoin="round"/>
<path d="M257.815 270.542L259.875 263.48C260.66 263.284 262.876 262.774 265.466 262.303C268.702 261.715 272.822 256.713 272.822 257.596V262.892L269.291 272.896L259.875 287.902L257.815 270.542Z" fill="#6B8EDE"/>
<path d="M271.939 215.814L265.466 237.587C266.446 236.901 268.938 235.175 271.056 233.762C273.175 232.35 276.843 231.212 278.412 230.82L281.943 219.05C282.335 217.677 282.178 214.696 278.412 213.754C274.646 212.812 272.527 214.735 271.939 215.814Z" fill="#6B8EDE"/>
<path d="M259.875 287.608L257.815 271.131C258.11 270.738 258.934 269.895 259.875 269.659C260.817 269.424 261.052 269.758 261.052 269.954C261.248 269.758 261.817 269.365 262.523 269.365C263.229 269.365 263.602 270.15 263.7 270.542C264.093 270.346 265.054 270.013 265.76 270.248C266.466 270.483 266.643 270.934 266.643 271.131C266.643 271.033 266.878 270.895 267.82 271.131C268.761 271.366 269.193 272.602 269.291 273.19L259.875 287.608Z" fill="#F9B3AC"/>
<path d="M263.995 281.134L259.876 287.608L258.993 279.663C259.287 279.565 260.229 279.428 261.641 279.663C263.054 279.899 263.799 280.742 263.995 281.134Z" fill="#232E53"/>
<path d="M257.815 270.542L259.875 263.48C260.66 263.284 262.876 262.774 265.466 262.303C268.702 261.715 272.822 256.713 272.822 257.596V262.892L269.291 272.896L259.875 287.902L257.815 270.542Z" stroke="#232E53" stroke-width="1.17695"/>
<path d="M271.939 215.814L265.466 237.587C266.446 236.901 268.938 235.175 271.056 233.762C273.175 232.35 276.843 231.212 278.412 230.82L281.943 219.05C282.335 217.677 282.178 214.696 278.412 213.754C274.646 212.812 272.527 214.735 271.939 215.814Z" stroke="#232E53" stroke-width="1.17695"/>
<path d="M113.05 237.294C105.988 239.648 106.185 246.709 107.165 249.946C107.95 250.731 110.225 252.653 113.05 254.065C116.581 255.831 123.349 257.596 130.999 259.362C138.649 261.127 166.013 262.598 178.96 263.481C191.906 264.364 218.093 260.833 225.155 259.95C230.804 259.244 246.929 256.517 254.285 255.242C254.481 255.929 254.873 257.655 254.873 259.067C254.873 260.833 256.933 262.893 262.229 262.893C266.466 262.893 271.252 259.166 273.116 257.302C272.724 258.675 271.939 261.716 271.939 262.893C271.939 264.364 276.647 267.306 279.001 268.189C281.355 269.072 293.124 273.485 296.655 273.485C300.186 273.485 314.309 267.6 317.252 265.835C319.606 264.423 326.079 262.304 329.021 261.421C326.667 260.637 321.665 258.538 320.488 256.419C319.017 253.771 316.663 245.238 308.425 237C300.186 228.761 281.06 230.821 273.999 231.998C268.349 232.939 261.837 241.217 259.287 245.238C256.344 244.944 247.87 243.355 237.513 239.354C224.567 234.351 222.213 213.461 219.565 206.399C216.916 199.337 203.381 178.74 179.548 176.386C155.715 174.033 142.474 185.214 139.237 196.983C136.001 208.753 121.877 234.351 113.05 237.294Z" fill="#FEFEFE"/>
<path d="M91.5707 257.891C96.5139 255.301 97.9459 244.061 98.044 238.765C97.7498 238.078 97.1613 236.352 97.1613 234.94C97.1613 233.174 96.8671 229.055 97.1613 227.584C97.3967 226.407 97.8478 223.17 98.044 221.699C93.9247 222.386 84.9798 223.465 82.1551 222.288C78.6243 220.816 68.6202 220.228 62.1469 220.816C55.6737 221.405 47.7292 226.701 40.3732 234.94C33.0173 243.179 34.7827 249.358 36.8424 252.3C38.4901 254.654 41.6483 253.869 43.0214 253.183C43.0214 255.537 44.1395 260.303 48.6119 260.539C53.0843 260.774 57.5371 258.283 59.2045 257.008C60.3814 258.675 63.5592 262.186 66.8547 262.893C70.1502 263.599 77.4473 257.302 80.6839 254.065C82.2532 256.419 86.6275 260.48 91.5707 257.891Z" fill="#FEFEFE"/>
<path d="M131.587 155.789C128.998 157.201 124.82 159.908 123.054 161.085C121.877 157.358 119.465 147.609 119.229 138.429C118.935 126.953 128.645 118.126 130.41 118.42C131.823 118.656 147.868 133.034 155.715 140.194C152.478 137.938 145.593 133.662 143.945 134.603C142.298 135.545 146.005 141.861 148.065 144.902C145.809 143.333 140.944 140.429 139.532 141.371C138.119 142.313 140.512 147.452 141.886 149.904C140.611 148.825 137.649 146.844 136.001 147.55C134.353 148.256 136.295 150.787 137.472 151.964C136.589 152.65 134.177 154.376 131.587 155.789Z" fill="#F9B3AC"/>
<path d="M276.058 137.546C278.177 147.668 278.314 167.068 278.118 175.503C276.451 173.835 272.351 169.5 269.291 165.499C266.231 161.497 260.954 157.75 258.698 156.377C259.483 153.925 260.817 149.021 259.875 149.021C258.934 149.021 255.756 151.767 254.285 153.14C256.344 150.787 259.875 145.667 257.521 144.019C254.579 141.959 247.811 147.55 248.988 146.079C250.165 144.608 254.579 136.075 251.931 134.015C249.812 132.367 241.24 137.644 237.219 140.488C244.477 132.446 260.228 116.42 265.172 116.655C271.351 116.949 273.41 124.894 276.058 137.546Z" fill="#F9B3AC"/>
<path d="M254.579 254.947C239.573 258.478 201.675 265.069 170.133 263.186C130.705 260.832 113.933 257.595 103.341 246.709C100.769 244.065 99.0466 241.404 97.9851 238.764M254.579 254.947C255.462 250.828 259.699 241 269.585 234.645C281.943 226.7 290.771 228.172 291.653 227.289C292.359 226.583 295.282 223.66 296.655 222.287M254.579 254.947C253.991 256.811 254.05 260.95 258.993 262.597C263.936 264.245 270.664 259.753 273.41 257.301C272.037 259.753 270.88 265.187 277.236 267.305C285.18 269.953 286.945 269.659 290.476 271.719C294.007 273.779 306.954 273.484 314.898 267.305C322.843 261.126 331.081 263.186 334.318 257.89C337.554 252.593 337.554 244.943 334.318 239.353C331.081 233.762 322.548 220.816 309.308 220.816C298.715 220.816 296.459 221.796 296.655 222.287M117.17 167.853C115.11 170.795 110.814 178.563 110.108 186.095C109.499 192.594 108.049 200.073 105.564 206.986M117.17 167.853C114.129 158.731 109.578 136.958 115.699 122.834C123.349 105.18 125.703 105.474 131.587 106.651C136.295 107.593 157.873 126.071 168.073 135.192C174.742 133.525 190.435 130.367 199.851 131.073C211.62 131.956 223.684 137.546 229.569 131.073C235.454 124.6 257.227 102.826 268.997 103.12C280.766 103.414 289.888 150.198 289.594 162.851C289.299 175.503 287.24 182.27 289.594 186.39C291.948 190.509 295.773 197.276 297.832 206.104C299.48 213.165 297.734 219.835 296.655 222.287M117.17 167.853C118.102 166.419 120.218 163.685 122.76 161.583M105.564 206.986C104.449 210.09 103.125 213.079 101.575 215.814C97.7876 222.497 94.6749 230.531 97.9851 238.764M105.564 206.986C95.7015 205.515 72.6809 205.221 59.499 215.814C43.0217 229.054 32.1349 244.06 35.6657 250.239C38.4904 255.183 41.9428 254.261 43.3159 253.182C43.0217 254.947 43.4336 258.772 47.4352 259.949C51.4369 261.126 57.1451 257.89 59.499 256.124C59.5971 258.086 61.0879 262.068 66.2665 262.303C71.4451 262.539 78.0361 256.32 80.6842 253.182C81.0765 255.34 83.3912 259.479 89.5114 258.772C95.6315 258.066 97.7106 245.139 97.9851 238.764M125.703 159.614C124.689 160.121 123.696 160.809 122.76 161.583M122.76 161.583C120.897 154.944 117.817 139.782 120.406 132.25C123.643 122.834 126.585 117.832 129.822 118.126C132.411 118.362 148.359 133.329 156.009 140.783C152.969 138.331 146.417 133.603 144.534 134.309C142.651 135.016 146.103 141.862 148.065 145.196C146.397 143.431 142.474 140.194 140.12 141.371C137.766 142.548 140.709 147.746 142.474 150.198C140.905 149.021 137.413 146.844 136.001 147.55C134.589 148.256 136.786 151.179 138.061 152.552M277.824 175.503C277.922 167.951 277.765 150.434 276.353 140.783C274.587 128.719 272.234 116.067 264.878 116.949C258.993 117.656 243.987 133.132 237.219 140.783C240.848 137.546 248.93 131.779 252.225 134.604C255.521 137.428 250.656 144.215 247.812 147.256C250.068 145.392 255.168 142.136 257.522 144.019C259.875 145.902 256.345 150.885 254.285 153.141C255.658 151.67 258.757 148.845 260.17 149.316C261.582 149.786 259.777 154.22 258.699 156.377M112.462 222.581C110.618 221.993 106.036 220.639 102.458 219.933C98.8797 219.227 93.7091 219.05 91.571 219.05M112.462 226.7C108.343 226.21 98.8093 225.229 93.6307 225.229C88.4521 225.229 86.1767 225.229 85.6863 225.229M112.462 230.525C106.97 230.82 95.3373 231.408 92.748 231.408C90.1587 231.408 88.9229 231.997 88.6286 232.291M240.456 228.466C243.692 228.073 251.048 227.289 254.579 227.289C258.11 227.289 261.543 227.289 262.818 227.289M240.456 232.291C244.575 232.193 253.638 232.114 256.933 232.585C260.229 233.056 263.21 233.762 264.289 234.056M240.456 235.822C244.183 236.116 252.461 237.058 255.756 238.47C259.052 239.882 260.856 241.02 261.347 241.412" stroke="#232E53" stroke-width="2.35391" stroke-linecap="round" stroke-linejoin="round"/>
<path d="M166.308 216.991C156.893 216.756 162.385 224.74 166.308 228.761C166.701 228.565 167.662 227.996 168.368 227.29C169.251 226.407 175.135 222.288 176.607 221.405C178.078 220.522 178.078 217.286 166.308 216.991Z" fill="#F9B3AC"/>
<path d="M166.602 228.761V238.765M166.602 228.761C164.739 226.701 161.012 222.052 161.012 219.934M166.602 228.761C168.368 227.191 172.781 223.582 176.312 221.699M166.602 238.765C166.602 238.765 164.837 243.473 162.483 244.355M166.602 238.765C166.602 238.765 168.368 243.473 170.427 244.355" stroke="#232E53" stroke-width="1.76543" stroke-linecap="round" stroke-linejoin="round"/>
<path d="M145.711 224.936C140.297 227.525 131.294 222.484 127.469 219.639C126.782 219.051 126.468 218.286 124.821 216.403C122.761 214.049 123.349 210.288 123.349 207.576C123.349 202.868 126.88 197.277 127.469 196.395C128.057 195.512 133.059 186.39 143.652 186.685C154.244 186.979 158.364 202.868 158.069 210.224C157.775 217.58 152.479 221.699 145.711 224.936Z" fill="#FEFEFE"/>
<path d="M213.975 226.407C220.566 228.996 232.806 220.424 238.102 215.814C238.397 214.932 239.044 212.931 239.279 211.989C239.574 210.812 238.691 204.927 238.102 202.574C237.514 200.22 230.746 188.156 218.388 188.45C206.03 188.744 202.205 195.806 199.557 207.281C196.909 218.757 205.736 223.17 213.975 226.407Z" fill="#FEFEFE"/>
<path d="M157.776 208.165C157.776 216.29 152.282 224.936 146.595 224.936C134.237 224.936 131 216.29 131 208.165C131 200.04 135.119 190.805 145.418 190.805C155.716 190.805 157.776 200.04 157.776 208.165Z" fill="#232E53"/>
<path d="M236.926 199.336C234.278 195.217 226.333 187.331 215.741 188.743C202.5 190.509 197.91 203.75 198.675 211.4C199.352 218.167 203.383 227.583 218.389 226.112C230.394 224.935 236.533 218.167 238.103 214.931M127.175 219.639C132.863 223.856 146.241 229.76 154.245 219.639C159.204 213.367 159.102 204.926 156.304 198.187C153.458 191.331 147.822 186.236 141.887 186.978C132.471 188.155 128.156 194.138 127.175 196.982" stroke="#232E53" stroke-width="1.76543" stroke-linecap="round" stroke-linejoin="round"/>
<path d="M229.863 209.647C229.863 217.772 224.37 226.419 218.682 226.419C206.324 226.419 198.38 219.538 198.38 211.413C198.38 203.287 204.853 191.404 215.151 191.404C225.45 191.404 229.863 201.522 229.863 209.647Z" fill="#232E53"/>
<ellipse cx="144.917" cy="200.65" rx="4.91745" ry="3.56696" transform="rotate(-46.4794 144.917 200.65)" fill="#FEFEFE"/>
<ellipse cx="219.609" cy="201.198" rx="5.32714" ry="3.92864" transform="rotate(-46.4794 219.609 201.198)" fill="#FEFEFE"/>
<ellipse cx="140.128" cy="208.762" rx="1.69615" ry="1.64532" transform="rotate(-46.4794 140.128 208.762)" fill="#FEFEFE"/>
<ellipse cx="211.923" cy="209.938" rx="1.69615" ry="1.64532" transform="rotate(-46.4794 211.923 209.938)" fill="#FEFEFE"/>
</svg>
