<svg fill="none" height="373" viewBox="0 0 373 373" width="373" xmlns="http://www.w3.org/2000/svg" xmlns:xlink="http://www.w3.org/1999/xlink"><clipPath id="a"><path d="m0 0h373v373h-373z"/></clipPath><g clip-path="url(#a)"><path d="m338.295 344.166c-1.883 14.21-10.058 29.462-13.911 35.311h-152.589-155.7989-2.9961c5.6356-10.272 18.4477-32.872 24.6111-41.09 7.7044-10.272 46.4402-48.58 50.2924-62.49 3.8521-13.911-4.9223-20.759-6.8484-50.079-1.5408-23.455 7.205-47.581 11.7706-56.712-2.7108-3.139-7.79-11-6.4203-17.335s6.2776-8.632 8.5604-8.989c.5707-2.782 3.4669-8.731 10.4862-10.272 7.02-1.541 12.199.642 13.911 1.926 1.284-1.569 5.821-4.152 13.697-1.926 9.844 2.782 8.56 7.49 11.342 7.704 2.226.172 3.872 1.784 4.416 2.568-.139-2.862-.193-5.671-.136-8.346.428-19.903 6.421-17.549 24.183-11.556 14.211 4.793 24.326 13.839 27.608 17.762 2.14-1.284 11.299-4.323 30.817-6.206s29.961-.785 32.744 0c10.771-11.128 34.284-32.615 42.16-29.533 9.844 3.852 15.408 27.821 16.906 38.521 1.199 8.561 2.925 26.538 3.638 34.456 2.569 1.926 8.347 7.619 10.915 14.981s2.213 12.198 1.714 13.696c2.822 2.601 4.269 6.143 4.706 8.133 2.64 1.141 8.689 4.794 11.771 10.272 3.852 6.849 3.638 13.697 1.284 48.366-1.883 27.736-13.269 39.592-18.833 44.515.785 3.352 1.883 12.112 0 26.323z" fill="#d9d9d9"/><path d="m149.5 201c-11.6 6.4-9.167 20.333-6.5 26.5-6.833 19.833-21.8 64-27 82s-39.1667 54.5-55.5 70.5h223c3.667-5.167 12.3-18.6 17.5-31s4.167-23.833 3-28c-.833-.667-3.5-2.4-7.5-4s-9.667-10-12-14c.833.5 3.2 1 6-1 3.5-2.5 15-14 25.5-27s41.5-12 41.5-13.5 3-23.5 0-33.5c-2.4-8-9.667-12-13-13-1.333-3.333-5.3-10.3-10.5-11.5s-10.5.5-12.5 1.5l-4.5-3c.333-.5-.7-3-7.5-9-8.5-7.5-19.5-3.5-27-3.5s-36.5-20-55.5-20.5-27.5 11.5-37.5 20.5-25.5 3.5-40 11.5z" fill="#fefefe"/><path d="m103 195.5c2.8 1.6 4.833 11.667 5.5 16.5 9.333-3.667 28.2-11.7 29-14.5s8.333-6.5 12-8l4.5-11.5c-.833-4-2.7-12.9-3.5-16.5s-1.667-14.5-2-19.5l-5.5-2c-.5-.667-1.6-2.3-2-3.5-.5-1.5-6-4-12.5-5-5.2-.8-8.167 1.667-9 3-1.833-1-6.9-3-12.5-3s-10 7-11.5 10.5c0-.5-1.4-.3-7 4.5s.3333 17 4 22.5l-7 18c4.6667 2.167 14.7 6.9 17.5 8.5z" fill="#fefefe"/><path d="m174 157.5c4.4-4 12.833-9 16.5-11l1-1.5c-2.833-2.5-9.7-8.2-14.5-11-6-3.5-16-4-18-3.5s-.5 7.5-.5 17.5c0 8 2.333 16.667 3.5 20 2.167-1.833 7.6-6.5 12-10.5z" fill="#f9b3ac"/><path d="m306 153.5c-4-2.4-21-10.667-29-14.5 1.5-2.667 5.3-8.9 8.5-12.5 4-4.5 16.5-11 18-11s5 6.5 7 13 2 15 2.5 23.5-2 4.5-7 1.5z" fill="#f9b3ac"/><path d="m231.501 196.499c.4.4-5.167 2.834-8 4-1.667-.666-5.3-2.2-6.5-3-1.5-1 3-3 7-3.5s7 2 7.5 2.5z" fill="#f9b3ac"/><path d="m217.5 198 6 2.5m0 0 8-4m-8 4c0 4-1.2 12-6 12s-6.333-2.667-6.5-4m12.5-8c-.5 2.667-.7 8.4 2.5 10 4 2 6.5 1 8 0 1.2-.8 1.833-2.667 2-3.5" stroke="#232e53" stroke-linecap="round" stroke-linejoin="round" stroke-width="2"/><g fill="#f9b3ac"><path clip-rule="evenodd" d="m108.314 166.041c1.039-.321 1.912-1.066 2.604-1.905 1.548-1.873 4.475-3.136 7.832-3.136 3.829 0 7.099 1.644 8.4 3.961.645 1.15 1.492 2.31 2.661 2.92 2.166 1.13 3.564 2.918 3.564 4.931 0 3.418-4.029 6.188-9 6.188-2.012 0-3.869-.454-5.368-1.221-1.082-.553-2.37-.716-3.539-.38-1.067.307-2.239.476-3.468.476-4.971 0-9-2.77-9-6.187 0-2.515 2.181-4.679 5.314-5.647z" fill-rule="evenodd"/><path clip-rule="evenodd" d="m327.895 239.216c-.532-.136-.895-.667-.895-1.216 0-3.314-4.029-6-9-6-3.598 0-6.703 1.408-8.143 3.442-.517.73-1.141 1.414-1.919 1.856-2.377 1.35-3.938 3.624-3.938 6.202 0 4.142 4.029 7.5 9 7.5.957 0 1.88-.125 2.745-.355 1.568-.418 3.363-.038 4.59 1.024 1.591 1.374 3.631 2.331 5.857 2.331 5.076 0 8.808-2.173 8.808-5.739 0-3.154-2.919-7.972-7.105-9.045z" fill-rule="evenodd"/><ellipse cx="94.9312" cy="158.03" rx="3.01572" ry="4.04388" transform="matrix(.75334191 -.65762905 .65762905 .75334191 -80.50957 101.408892)"/><ellipse cx="297.931" cy="226.03" rx="3.01572" ry="4.04388" transform="matrix(.75334191 -.65762905 .65762905 .75334191 -75.156803 251.680206)"/><ellipse cx="108.343" cy="149.117" rx="3.01572" ry="4.33463" transform="matrix(.9366618 -.35023517 .35023517 .9366618 -45.363767 47.390332)"/><ellipse cx="310.343" cy="219.117" rx="3.01572" ry="4.33463" transform="matrix(.9366618 -.35023517 .35023517 .9366618 -57.085913 122.571511)"/><ellipse cx="124.343" cy="149.117" rx="3.01572" ry="4.33463" transform="matrix(.9366618 -.35023517 .35023517 .9366618 -44.350356 52.994095)"/><ellipse cx="326.343" cy="221.117" rx="3.01572" ry="4.33463" transform="matrix(.9366618 -.35023517 .35023517 .9366618 -56.772972 128.30195)"/><ellipse cx="140.343" cy="157.117" rx="3.01572" ry="4.33463" transform="matrix(.98919729 -.14659029 .14659029 .98919729 -21.515742 22.270209)"/><ellipse cx="342.619" cy="231.73" rx="3.01572" ry="4.33463" transform="matrix(.98919729 -.14659029 .14659029 .98919729 -30.268155 52.727928)"/></g><path d="m39.5369 358.505c-5.9923 5.65-17.9055 16.336-23.1131 20.973h155.5852c.214-.285.685-1.027.856-1.712.214-.856 4.494-2.782 7.704-3.852h.001c3.21-1.071 12.198-4.067 13.91-5.137s5.564-4.708 6.848-6.206 2.997-5.136 5.137-5.992 7.062-5.35 9.844-7.704c2.782-2.355 11.985-12.413 15.409-15.837s6.42-5.136 10.272-8.775c3.852-3.638 11.129-15.408 13.055-18.618 1.541-2.569 7.205-11.914 9.844-16.265 1.57-3.995 4.066-12.37 1.498-13.911s-7.633 1.07-9.844 2.568c2.853-5.136 8.689-15.879 9.202-17.763.642-2.354.856-6.42-2.354-7.704-2.568-1.027-7.205 1.427-9.202 2.782.642-1.284 1.883-4.066 1.712-4.922s-1.213-1.498-1.712-1.712c-3.781 1.07-13.354 3.467-21.401 4.494s-16.764-.713-20.117-1.712c-3.71.571-12.027 1.712-15.623 1.712-4.494 0-9.844 1.07-14.124 1.284-3.425.171-16.265 3.068-22.258 4.494v-3.638c0-2.14-3.21-8.346-5.992-13.91-2.782-5.565-9.844-11.343-12.84-13.911-2.997-2.568-5.137-6.634-5.993-19.475-.684-10.272 5.137-15.123 8.133-16.265.428-2.425.685-8.303-1.712-12.412-2.996-5.137-11.129-7.063-13.697-7.063s-2.14 3.639-1.926 5.993-3.638 10.914-4.494 12.626-10.487 11.343-11.557 13.055-1.926 11.77-2.354 14.981c-.428 3.21-8.132 25.039-10.7004 31.887-2.5681 6.848-3.8522 13.483-3.2102 24.397.6421 10.915-.428 18.619-1.498 25.467-1.0701 6.849-11.1286 15.623-12.6266 17.335-1.4981 1.712-33.1716 33.386-40.6619 40.448z" fill="#f5ded8"/><path d="m338.295 317.843c.785 3.352 1.883 12.112 0 26.323-1.883 14.21-10.058 29.462-13.911 35.311h-152.589m166.5-61.634c5.564-4.923 16.95-16.779 18.833-44.515 2.354-34.669 2.568-41.517-1.284-48.366-3.082-5.478-9.131-9.131-11.771-10.272-.437-1.99-1.884-5.532-4.706-8.133m-1.072 111.286c-3.923 2.425-14.938 6.805-27.607 4.922-12.67-1.884-23.256-15.195-26.966-21.615m5.779-30.39c.356-4.565 1.284-15.408 2.14-22.257 1.07-8.56-.428-15.622-2.14-17.977-1.712-2.354-3.21-10.486 0-15.836 2.568-4.28 8.631-4.922 11.342-4.708 1.07-2.426 4.537-7.534 9.845-8.561 5.307-1.027 9.488 1.855 10.914 3.424 1.712-1.07 6.677-2.782 12.841-1.07 1.97.547 3.599 1.561 4.924 2.782m0 0c.499-1.498.854-6.334-1.714-13.696s-8.346-13.055-10.915-14.981c-.713-7.918-2.439-25.895-3.638-34.456-1.498-10.7-7.062-34.669-16.906-38.521-7.876-3.082-31.389 18.405-42.16 29.533m0 0c-2.783-.785-13.226-1.883-32.744 0s-28.677 4.922-30.817 6.206m63.561-6.206c2.232.46 7.641 1.922 12.626 4.287m-76.187 1.919c-3.282-3.923-13.397-12.969-27.608-17.762-17.762-5.993-23.755-8.347-24.183 11.556-.057 2.675-.003 5.484.136 8.346m51.655-2.14c-1.641.785-5.607 2.74-8.347 4.281m-38.307 34.455c3.638-5.207 11.727-16.136 14.98-18.191m-14.98 18.191-5.137 11.343c-1.201 0-2.905.286-4.675 1.07m9.812-12.413c-1.544-6.944-4.311-22.421-5.001-36.596m3.288 95.235c-2.996-5.136-6.206-7.062-10.272-10.915-4.066-3.852-7.704-14.98-5.35-25.681 1.194-5.427 4.458-8.274 7.523-9.63m8.099 46.226c2.997 5.136 8.989 13.268 8.775 21.187m-8.775-21.187c2.141 2.925 7.662 9.159 12.627 10.7s7.348 2.069 7.918 2.14m-11.77 8.347c-.214 7.918 1.284 21.829 1.926 24.611m-1.926-24.611c7.562-1.926 24.568-5.778 32.101-5.778s17.692-.956 21.829-1.434m-19.689-6.913c3.703 1.963 11.128 5.07 19.689 6.913m47.297-6.913c-1.726.947-4.673 2.295-8.48 3.638m-104.81-105.935c-.544-.784-2.19-2.396-4.416-2.568-2.782-.214-1.498-4.922-11.342-7.704-7.876-2.226-12.413.357-13.697 1.926-1.712-1.284-6.891-3.467-13.911-1.926-7.0193 1.541-9.9155 7.49-10.4862 10.272-2.2828.357-7.1907 2.654-8.5604 8.989s3.7095 14.196 6.4203 17.335c-4.5656 9.131-13.3114 33.257-11.7706 56.712 1.9261 29.32 10.7005 36.168 6.8484 50.079-3.8522 13.91-42.588 52.218-50.2924 62.49-6.1634 8.218-18.9755 30.818-24.6111 41.09h2.9961m198.8149-127.485c5.128 1.104 10.664 1.754 16.051 1.434 8.77-.522 16.818-2.609 22.766-4.709m0 0c.544.193 1.802.848 2.487 1.926.433.682-1.214 3.412-3.806 6.635m-64.035 44.728c5.208-2.426 16.864-7.79 21.829-9.845 6.206-2.568 22.471-15.408 24.397-16.906 1.926-1.499 1.926-3.211 8.561-8.561 3.279-2.644 6.715-6.266 9.248-9.416m-16.311-3.852c-3.139 2.14-9.887 6.805-11.77 8.346-1.884 1.541-3.353 2.782-3.852 3.21-1.57.571-5.993 2.354-11.129 4.922-2.622 1.312-4.501 2.493-5.778 3.43m-28.892 10.481 26.752-8.56c.244-.35.916-1.023 2.14-1.921m0 0c-3.71.212-12.584 1.065-18.405 2.777s-10.701 3.424-12.413 4.066m-8.346-9.845c2.425 2.64 7.662 8.732 9.202 11.985 1.541 3.253 4.067 9.06 5.137 11.556m-4.067 5.137c5.065 3.566 16.565 10.871 22.043 11.556 5.813.727 11.009 2.07 15.195 3.899m9.417 9.584c-.928-2.069-3.681-6.677-7.277-8.561-.68-.356-1.394-.697-2.14-1.023m-45.156-15.455c.285 3.067 2.397 10.187 8.56 14.124 7.705 4.923 16.693 11.557 19.903 17.121 2.569 4.452 4.209 7.847 4.709 8.989m-77.472-13.269c4.352 2.782 14.553 10.358 20.545 18.405s7.062 13.34 6.848 14.98m62.063-44.895c4.851-3.012 15.238-9.206 17.977-9.891 3.424-.856 8.346-7.704 11.771-10.701 2.739-2.396 4.85-3.566 5.564-3.852 1.355-1.64 4.751-5.906 7.49-9.844m0 0c3.424-4.922 14.767-20.759 10.487-26.109-3.425-4.281-9.957.356-12.795 3.21m2.308 22.899c1.712-2.14 6.335-6.121 11.129-4.922 5.992 1.498-2.568 18.832-6.421 23.755-3.852 4.922-12.84 22.685-20.759 28.035-7.918 5.35-17.976 18.191-21.829 21.401-3.852 3.21-8.774 7.704-10.272 7.918s-7.49 9.845-13.269 13.269c-5.778 3.424-16.478 4.922-18.619 6.634-1.712 1.37-2.568 2.711-2.782 3.21m0 0h-155.7989m128.0109-187.686c.845-3.353 1.123-11.129-4.527-15.409-7.062-5.35-13.697-5.564-13.055 0s-2.996 13.911-8.346 19.475-8.561 7.062-8.775 15.409c-.214 8.346-7.062 26.109-10.272 35.097-3.2102 8.989-5.1363 15.837-4.9223 25.895.2141 10.059 1.9261 26.966-4.7082 35.74s-50.7203 51.576-56.2846 56.071c-4.4514 3.595-13.2686 11.77-17.1208 15.408m176.1299-234.554c-3.424-2.997-11.941-9.674-18.619-12.413-6.677-2.739-12.626-2.568-14.766-2.14m33.385 14.553-7.704 4.494m101.869-5.35c-.571-.429-3.039-1.969-8.347-4.709-.423-.218-.852-.43-1.284-.635m0 0c2.069-3.712 7.747-12.205 13.911-16.486 7.704-5.35 11.342-6.42 13.054-6.42m-199.457 40.448c-2.069-.999-6.5057-3.809-7.7041-7.062m22.0431 2.996c-1.142-1.142-3.296-4.409-2.782-8.347m17.977 14.767c-.428-1.783-1.028-5.992 0-8.56 1.027-2.568 2.14-3.638 2.568-3.852m170.138 78.969c-1.499-.927-4.537-3.552-4.709-6.634-.171-3.082-.071-4.708 0-5.136m17.335 8.56c-.571-2.211-1.498-7.233-.642-9.63s1.926-3.567 2.354-3.853m13.697 23.756c-.5-2.212-1.199-7.277 0-9.845 1.198-2.568 3.21-3.638 4.066-3.852" stroke="#232e53" stroke-linecap="round" stroke-linejoin="round" stroke-width="3"/><path d="m176 192.001c7.6.4 23.5 3.5 30.5 5 .333 0 1-.2 1-1 0-1-2-1.5-3.5-2.5s-10.5-3.5-14-4-14-4-25-3 1.5 5 11 5.5z" fill="#232e53"/><path d="m279.5 187.001c-7.5 1.5-22.667 5.5-30 7.5-.833.167-2.6.4-3 0-.5-.5 1.5-2.5 4-3.5s14.5-6.5 24.5-8.5 18.5-3.5 19.5-1-7.094 3.919-15 5.5z" fill="#232e53"/><path clip-rule="evenodd" d="m168.5 62c-11.322 0-20.5 9.1782-20.5 20.5s9.178 20.5 20.5 20.5h7c6.152 0 11.67-2.71 15.428-7.0002.024.0001.048.0002.072.0002h72c6.627 0 12-5.3726 12-12s-5.373-12-12-12h-69.89c-3.578-5.9893-10.126-10-17.61-10z" fill="#ff5391" fill-rule="evenodd"/><path d="m163.656 87.182c-1.484 0-2.711-.49-3.682-1.47-.961-.98-1.442-2.184-1.442-3.612s.481-2.632 1.442-3.612c.971-.98 2.198-1.47 3.682-1.47.896 0 1.717.2147 2.464.644.756.4293 1.344 1.008 1.764 1.736l-1.134.658c-.28-.5413-.7-.9707-1.26-1.288-.551-.3267-1.162-.49-1.834-.49-1.129 0-2.053.364-2.772 1.092-.709.728-1.064 1.638-1.064 2.73 0 1.0827.355 1.988 1.064 2.716.719.728 1.643 1.092 2.772 1.092.672 0 1.283-.1587 1.834-.476.56-.3267.98-.756 1.26-1.288l1.134.644c-.411.728-.994 1.3113-1.75 1.75-.756.4293-1.582.644-2.478.644zm9.567 0c-.915 0-1.699-.2147-2.352-.644-.644-.4293-1.097-1.0173-1.358-1.764l1.12-.644c.382 1.1853 1.255 1.778 2.618 1.778.672 0 1.185-.1353 1.54-.406.354-.28.532-.6487.532-1.106 0-.4667-.178-.8167-.532-1.05-.355-.2333-.948-.4807-1.778-.742-.411-.1307-.724-.2333-.938-.308-.215-.084-.486-.2053-.812-.364-.318-.168-.556-.336-.714-.504-.159-.1773-.304-.406-.434-.686-.122-.28-.182-.5973-.182-.952 0-.8493.298-1.5213.896-2.016.597-.504 1.325-.756 2.184-.756.774 0 1.446.196 2.016.588.578.392 1.012.91 1.302 1.554l-1.092.63c-.42-1.008-1.162-1.512-2.226-1.512-.532 0-.962.1307-1.288.392-.327.2613-.49.616-.49 1.064 0 .4293.154.756.462.98s.84.4573 1.596.7c.27.084.462.1447.574.182s.284.1027.518.196c.242.0933.42.168.532.224s.261.1353.448.238c.196.1027.34.2007.434.294.093.0933.2.21.322.35.13.1307.224.266.28.406s.102.3033.14.49c.046.1773.07.3687.07.574 0 .8587-.313 1.5447-.938 2.058-.626.504-1.442.756-2.45.756zm8.452 0c-.915 0-1.699-.2147-2.352-.644-.644-.4293-1.097-1.0173-1.358-1.764l1.12-.644c.382 1.1853 1.255 1.778 2.618 1.778.672 0 1.185-.1353 1.54-.406.354-.28.532-.6487.532-1.106 0-.4667-.178-.8167-.532-1.05-.355-.2333-.948-.4807-1.778-.742-.411-.1307-.724-.2333-.938-.308-.215-.084-.486-.2053-.812-.364-.318-.168-.556-.336-.714-.504-.159-.1773-.304-.406-.434-.686-.122-.28-.182-.5973-.182-.952 0-.8493.298-1.5213.896-2.016.597-.504 1.325-.756 2.184-.756.774 0 1.446.196 2.016.588.578.392 1.012.91 1.302 1.554l-1.092.63c-.42-1.008-1.162-1.512-2.226-1.512-.532 0-.962.1307-1.288.392-.327.2613-.49.616-.49 1.064 0 .4293.154.756.462.98s.84.4573 1.596.7c.27.084.462.1447.574.182s.284.1027.518.196c.242.0933.42.168.532.224s.261.1353.448.238c.196.1027.34.2007.434.294.093.0933.2.21.322.35.13.1307.224.266.28.406s.102.3033.14.49c.046.1773.07.3687.07.574 0 .8587-.313 1.5447-.938 2.058-.626.504-1.442.756-2.45.756z" fill="#fff"/><path d="m291.16 81.352c0 .864-.229 1.616-.688 2.256h.016l-3.616 5.392h-1.68l2.656-3.92c-.235.0213-.416.032-.544.032-1.131 0-2.059-.3467-2.784-1.04-.715-.704-1.072-1.6107-1.072-2.72s.357-2.0107 1.072-2.704c.725-.704 1.653-1.056 2.784-1.056s2.053.352 2.768 1.056c.725.6933 1.088 1.5947 1.088 2.704zm-5.584-1.696c-.437.4267-.656.992-.656 1.696s.219 1.2747.656 1.712c.448.4267 1.024.64 1.728.64s1.275-.2133 1.712-.64c.448-.4373.672-1.008.672-1.712s-.219-1.2693-.656-1.696-1.013-.64-1.728-.64c-.704 0-1.28.2133-1.728.64zm14.257 7.968c-.757 1.056-1.818 1.584-3.184 1.584-1.365 0-2.426-.528-3.184-1.584-.757-1.056-1.136-2.464-1.136-4.224s.379-3.168 1.136-4.224c.758-1.056 1.819-1.584 3.184-1.584 1.366 0 2.427.528 3.184 1.584.758 1.056 1.136 2.464 1.136 4.224s-.378 3.168-1.136 4.224zm-5.28-1.008c.491.7573 1.19 1.136 2.096 1.136.907 0 1.606-.3787 2.096-1.136.502-.7573.752-1.8293.752-3.216s-.25-2.4587-.752-3.216c-.49-.768-1.189-1.152-2.096-1.152-.906 0-1.605.3787-2.096 1.136-.49.7573-.736 1.8347-.736 3.232 0 1.3867.246 2.4587.736 3.216zm10.23-4.064c-.725 0-1.328-.24-1.808-.72s-.72-1.0667-.72-1.76c0-.6827.24-1.264.72-1.744.491-.4907 1.093-.736 1.808-.736.725 0 1.328.24 1.808.72s.72 1.0667.72 1.76-.24 1.28-.72 1.76c-.469.48-1.072.72-1.808.72zm-.928-1.536c.245.2453.555.368.928.368s.677-.128.912-.384c.245-.256.368-.5653.368-.928s-.123-.6667-.368-.912c-.235-.256-.539-.384-.912-.384s-.683.128-.928.384c-.235.2453-.352.5493-.352.912 0 .3733.117.688.352.944zm-.848 6.4 7.44-8.32.784.432-7.456 8.336zm8.416 1.056c-.48.48-1.083.72-1.808.72s-1.328-.24-1.808-.72-.72-1.0667-.72-1.76.24-1.28.72-1.76 1.083-.72 1.808-.72 1.328.24 1.808.72.72 1.0667.72 1.76-.24 1.28-.72 1.76zm-2.736-.832c.245.2453.555.368.928.368s.677-.1227.912-.368c.245-.256.368-.5653.368-.928s-.123-.6667-.368-.912c-.235-.256-.539-.384-.912-.384s-.683.128-.928.384c-.235.2453-.352.5493-.352.912s.117.672.352.928z" fill="#ff5391"/><rect fill="#232e53" height="9" rx="4.5" width="74" x="192" y="79"/><rect fill="#9e3058" height="7" rx="3.5" width="62" x="193" y="80"/></g></svg>