<svg width="373" height="373" viewBox="0 0 373 373" fill="none" xmlns="http://www.w3.org/2000/svg">
<g clip-path="url(#clip0_684_66033)">
<path d="M338.295 344.166C336.412 358.376 328.237 373.628 324.384 379.477H171.795H15.9961H13C18.6356 369.205 31.4477 346.605 37.6111 338.387C45.3155 328.115 84.0513 289.807 87.9035 275.897C91.7556 261.986 82.9812 255.138 81.0551 225.818C79.5143 202.363 88.2601 178.237 92.8257 169.106C90.1149 165.967 85.0357 158.106 86.4054 151.771C87.7751 145.436 92.683 143.139 94.9658 142.782C95.5365 140 98.4327 134.051 105.452 132.51C112.472 130.969 117.651 133.152 119.363 134.436C120.647 132.867 125.184 130.284 133.06 132.51C142.904 135.292 141.62 140 144.402 140.214C146.628 140.386 148.274 141.998 148.818 142.782C148.679 139.92 148.625 137.111 148.682 134.436C149.11 114.533 155.103 116.887 172.865 122.88C187.076 127.673 197.191 136.719 200.473 140.642C202.613 139.358 211.772 136.319 231.29 134.436C250.808 132.553 261.251 133.651 264.034 134.436C274.805 123.308 298.318 101.821 306.194 104.903C316.038 108.755 321.602 132.724 323.1 143.424C324.299 151.985 326.025 169.962 326.738 177.88C329.307 179.806 335.085 185.499 337.653 192.861C340.221 200.223 339.866 205.059 339.367 206.557C342.189 209.158 343.636 212.7 344.073 214.69C346.713 215.831 352.762 219.484 355.844 224.962C359.696 231.811 359.482 238.659 357.128 273.328C355.245 301.064 343.859 312.92 338.295 317.843C339.08 321.195 340.178 329.955 338.295 344.166Z" fill="#D9D9D9"/>
<path d="M149.5 201C137.9 207.4 140.333 221.333 143 227.5C136.167 247.333 121.2 291.5 116 309.5C110.8 327.5 76.8333 364 60.5 380H283.5C287.167 374.833 295.8 361.4 301 349C306.2 336.6 305.167 325.167 304 321C303.167 320.333 300.5 318.6 296.5 317C292.5 315.4 286.833 307 284.5 303C285.333 303.5 287.7 304 290.5 302C294 299.5 305.5 288 316 275C326.5 262 357.5 263 357.5 261.5C357.5 260 360.5 238 357.5 228C355.1 220 347.833 216 344.5 215C343.167 211.667 339.2 204.7 334 203.5C328.8 202.3 323.5 204 321.5 205L317 202C317.333 201.5 316.3 199 309.5 193C301 185.5 290 189.5 282.5 189.5C275 189.5 246 169.5 227 169C208 168.5 199.5 180.5 189.5 189.5C179.5 198.5 164 193 149.5 201Z" fill="#FEFEFE"/>
<path d="M103 195.5C105.8 197.1 107.833 207.167 108.5 212C117.833 208.333 136.7 200.3 137.5 197.5C138.3 194.7 145.833 191 149.5 189.5L154 178C153.167 174 151.3 165.1 150.5 161.5C149.7 157.9 148.833 147 148.5 142L143 140C142.5 139.333 141.4 137.7 141 136.5C140.5 135 135 132.5 128.5 131.5C123.3 130.7 120.333 133.167 119.5 134.5C117.667 133.5 112.6 131.5 107 131.5C101.4 131.5 97 138.5 95.5 142C95.5 141.5 94.1 141.7 88.5 146.5C82.9 151.3 88.8333 163.5 92.5 169L85.5 187C90.1667 189.167 100.2 193.9 103 195.5Z" fill="#FEFEFE"/>
<path d="M174 157.5C178.4 153.5 186.833 148.5 190.5 146.5L191.5 145C188.667 142.5 181.8 136.8 177 134C171 130.5 161 130 159 130.5C157 131 158.5 138 158.5 148C158.5 156 160.833 164.667 162 168C164.167 166.167 169.6 161.5 174 157.5Z" fill="#F9B3AC"/>
<path d="M306 153.5C302 151.1 285 142.833 277 139C278.5 136.333 282.3 130.1 285.5 126.5C289.5 122 302 115.5 303.5 115.5C305 115.5 308.5 122 310.5 128.5C312.5 135 312.5 143.5 313 152C313.5 160.5 311 156.5 306 153.5Z" fill="#F9B3AC"/>
<path d="M231.501 196.499C231.901 196.899 226.334 199.333 223.501 200.499C221.834 199.833 218.201 198.299 217.001 197.499C215.501 196.499 220.001 194.499 224.001 193.999C228.001 193.499 231.001 195.999 231.501 196.499Z" fill="#F9B3AC"/>
<path d="M217.5 198L223.5 200.5M223.5 200.5L231.5 196.5M223.5 200.5C223.5 204.5 222.3 212.5 217.5 212.5C212.7 212.5 211.167 209.833 211 208.5M223.5 200.5C223 203.167 222.8 208.9 226 210.5C230 212.5 232.5 211.5 234 210.5C235.2 209.7 235.833 207.833 236 207" stroke="#232E53" stroke-width="2" stroke-linecap="round" stroke-linejoin="round"/>
<path fill-rule="evenodd" clip-rule="evenodd" d="M108.314 166.041C109.353 165.72 110.226 164.975 110.918 164.136C112.466 162.263 115.393 161 118.75 161C122.579 161 125.849 162.644 127.15 164.961C127.795 166.111 128.642 167.271 129.811 167.881C131.977 169.011 133.375 170.799 133.375 172.812C133.375 176.23 129.346 179 124.375 179C122.363 179 120.506 178.546 119.007 177.779C117.925 177.226 116.637 177.063 115.468 177.399C114.401 177.706 113.229 177.875 112 177.875C107.029 177.875 103 175.105 103 171.688C103 169.173 105.181 167.009 108.314 166.041Z" fill="#F9B3AC"/>
<path fill-rule="evenodd" clip-rule="evenodd" d="M327.895 239.216C327.363 239.08 327 238.549 327 238C327 234.686 322.971 232 318 232C314.402 232 311.297 233.408 309.857 235.442C309.34 236.172 308.716 236.856 307.938 237.298C305.561 238.648 304 240.922 304 243.5C304 247.642 308.029 251 313 251C313.957 251 314.88 250.875 315.745 250.645C317.313 250.227 319.108 250.607 320.335 251.669C321.926 253.043 323.966 254 326.192 254C331.268 254 335 251.827 335 248.261C335 245.107 332.081 240.289 327.895 239.216Z" fill="#F9B3AC"/>
<ellipse cx="94.9312" cy="158.03" rx="3.01572" ry="4.04388" transform="rotate(-41.1193 94.9312 158.03)" fill="#F9B3AC"/>
<ellipse cx="297.931" cy="226.03" rx="3.01572" ry="4.04388" transform="rotate(-41.1193 297.931 226.03)" fill="#F9B3AC"/>
<ellipse cx="108.343" cy="149.117" rx="3.01572" ry="4.33463" transform="rotate(-20.5017 108.343 149.117)" fill="#F9B3AC"/>
<ellipse cx="310.343" cy="219.117" rx="3.01572" ry="4.33463" transform="rotate(-20.5017 310.343 219.117)" fill="#F9B3AC"/>
<ellipse cx="124.343" cy="149.117" rx="3.01572" ry="4.33463" transform="rotate(-20.5017 124.343 149.117)" fill="#F9B3AC"/>
<ellipse cx="326.343" cy="221.117" rx="3.01572" ry="4.33463" transform="rotate(-20.5017 326.343 221.117)" fill="#F9B3AC"/>
<ellipse cx="140.343" cy="157.117" rx="3.01572" ry="4.33463" transform="rotate(-8.42938 140.343 157.117)" fill="#F9B3AC"/>
<ellipse cx="342.619" cy="231.73" rx="3.01572" ry="4.33463" transform="rotate(-8.42938 342.619 231.73)" fill="#F9B3AC"/>
<path d="M39.5369 358.505C33.5446 364.155 21.6314 374.841 16.4238 379.478H172.009C172.223 379.193 172.694 378.451 172.865 377.766C173.079 376.91 177.359 374.984 180.569 373.914L180.57 373.914C183.78 372.843 192.768 369.847 194.48 368.777C196.192 367.707 200.044 364.069 201.328 362.571C202.612 361.073 204.325 357.435 206.465 356.579C208.605 355.723 213.527 351.229 216.309 348.875C219.091 346.52 228.294 336.462 231.718 333.038C235.142 329.614 238.138 327.902 241.99 324.263C245.842 320.625 253.119 308.855 255.045 305.645C256.586 303.076 262.25 293.731 264.889 289.38C266.459 285.385 268.955 277.01 266.387 275.469C263.819 273.928 258.754 276.539 256.543 278.037C259.396 272.901 265.232 262.158 265.745 260.274C266.387 257.92 266.601 253.854 263.391 252.57C260.823 251.543 256.186 253.997 254.189 255.352C254.831 254.068 256.072 251.286 255.901 250.43C255.73 249.574 254.688 248.932 254.189 248.718C250.408 249.788 240.835 252.185 232.788 253.212C224.741 254.239 216.024 252.499 212.671 251.5C208.961 252.071 200.644 253.212 197.048 253.212C192.554 253.212 187.204 254.282 182.924 254.496C179.499 254.667 166.659 257.564 160.666 258.99V255.352C160.666 253.212 157.456 247.006 154.674 241.442C151.892 235.877 144.83 230.099 141.834 227.531C138.837 224.963 136.697 220.897 135.841 208.056C135.157 197.784 140.978 192.933 143.974 191.791C144.402 189.366 144.659 183.488 142.262 179.379C139.266 174.242 131.133 172.316 128.565 172.316C125.997 172.316 126.425 175.955 126.639 178.309C126.853 180.663 123.001 189.223 122.145 190.935C121.289 192.647 111.658 202.278 110.588 203.99C109.518 205.702 108.662 215.76 108.234 218.971C107.806 222.181 100.102 244.01 97.5336 250.858C94.9655 257.706 93.6814 264.341 94.3234 275.255C94.9655 286.17 93.8954 293.874 92.8254 300.722C91.7553 307.571 81.6968 316.345 80.1988 318.057C78.7007 319.769 47.0272 351.443 39.5369 358.505Z" fill="#F5DED8"/>
<path d="M338.295 317.843C339.08 321.195 340.178 329.955 338.295 344.166C336.412 358.376 328.237 373.628 324.384 379.477H171.795M338.295 317.843C343.859 312.92 355.245 301.064 357.128 273.328C359.482 238.659 359.696 231.811 355.844 224.962C352.762 219.484 346.713 215.831 344.073 214.69C343.636 212.7 342.189 209.158 339.367 206.557M338.295 317.843C334.372 320.268 323.357 324.648 310.688 322.765C298.018 320.881 287.432 307.57 283.722 301.15M289.501 270.76C289.857 266.195 290.785 255.352 291.641 248.503C292.711 239.943 291.213 232.881 289.501 230.526C287.789 228.172 286.291 220.04 289.501 214.69C292.069 210.41 298.132 209.768 300.843 209.982C301.913 207.556 305.38 202.448 310.688 201.421C315.995 200.394 320.176 203.276 321.602 204.845C323.314 203.775 328.279 202.063 334.443 203.775C336.413 204.322 338.042 205.336 339.367 206.557M339.367 206.557C339.866 205.059 340.221 200.223 337.653 192.861C335.085 185.499 329.307 179.806 326.738 177.88C326.025 169.962 324.299 151.985 323.1 143.424C321.602 132.724 316.038 108.755 306.194 104.903C298.318 101.821 274.805 123.308 264.034 134.436M264.034 134.436C261.251 133.651 250.808 132.553 231.29 134.436C211.772 136.319 202.613 139.358 200.473 140.642M264.034 134.436C266.266 134.896 271.675 136.358 276.66 138.723M200.473 140.642C197.191 136.719 187.076 127.673 172.865 122.88C155.103 116.887 149.11 114.533 148.682 134.436C148.625 137.111 148.679 139.92 148.818 142.782M200.473 140.642C198.832 141.427 194.866 143.382 192.126 144.923M153.819 179.378C157.457 174.171 165.546 163.242 168.799 161.187M153.819 179.378L148.682 190.721C147.481 190.721 145.777 191.007 144.007 191.791M153.819 179.378C152.275 172.434 149.508 156.957 148.818 142.782M152.106 238.017C149.11 232.881 145.9 230.955 141.834 227.102C137.768 223.25 134.13 212.122 136.484 201.421C137.678 195.994 140.942 193.147 144.007 191.791M152.106 238.017C155.103 243.153 161.095 251.285 160.881 259.204M152.106 238.017C154.247 240.942 159.768 247.176 164.733 248.717C169.698 250.258 172.081 250.786 172.651 250.857M160.881 259.204C160.667 267.122 162.165 281.033 162.807 283.815M160.881 259.204C168.443 257.278 185.449 253.426 192.982 253.426C200.515 253.426 210.674 252.47 214.811 251.992M195.122 245.079C198.825 247.042 206.25 250.149 214.811 251.992M262.108 245.079C260.382 246.026 257.435 247.374 253.628 248.717M148.818 142.782C148.274 141.998 146.628 140.386 144.402 140.214C141.62 140 142.904 135.292 133.06 132.51C125.184 130.284 120.647 132.867 119.363 134.436C117.651 133.152 112.472 130.969 105.452 132.51C98.4327 134.051 95.5365 140 94.9658 142.782C92.683 143.139 87.7751 145.436 86.4054 151.771C85.0357 158.106 90.1149 165.967 92.8257 169.106C88.2601 178.237 79.5143 202.363 81.0551 225.818C82.9812 255.138 91.7556 261.986 87.9035 275.897C84.0513 289.807 45.3155 328.115 37.6111 338.387C31.4477 346.605 18.6356 369.205 13 379.477H15.9961M214.811 251.992C219.939 253.096 225.475 253.746 230.862 253.426C239.632 252.904 247.68 250.817 253.628 248.717M253.628 248.717C254.172 248.91 255.43 249.565 256.115 250.643C256.548 251.325 254.901 254.055 252.309 257.278M188.274 302.006C193.482 299.58 205.138 294.216 210.103 292.161C216.309 289.593 232.574 276.753 234.5 275.255C236.426 273.756 236.426 272.044 243.061 266.694C246.34 264.05 249.776 260.428 252.309 257.278M235.998 253.426C232.859 255.566 226.111 260.231 224.228 261.772C222.344 263.313 220.875 264.554 220.376 264.982C218.806 265.553 214.383 267.336 209.247 269.904C206.625 271.216 204.746 272.397 203.469 273.334M174.577 283.815L201.329 275.255C201.573 274.905 202.245 274.232 203.469 273.334M203.469 273.334C199.759 273.546 190.885 274.399 185.064 276.111C179.243 277.823 174.363 279.535 172.651 280.177M164.305 270.332C166.73 272.972 171.967 279.064 173.507 282.317C175.048 285.57 177.574 291.377 178.644 293.873M174.577 299.01C179.642 302.576 191.142 309.881 196.62 310.566C202.433 311.293 207.629 312.636 211.815 314.465M221.232 324.049C220.304 321.98 217.551 317.372 213.955 315.488C213.275 315.132 212.561 314.791 211.815 314.465M166.659 299.01C166.944 302.077 169.056 309.197 175.219 313.134C182.924 318.057 191.912 324.691 195.122 330.255C197.691 334.707 199.331 338.102 199.831 339.244M122.359 325.975C126.711 328.757 136.912 336.333 142.904 344.38C148.896 352.427 149.966 357.72 149.752 359.36M211.815 314.465C216.666 311.453 227.053 305.259 229.792 304.574C233.216 303.718 238.138 296.87 241.563 293.873C244.302 291.477 246.413 290.307 247.127 290.021C248.482 288.381 251.878 284.115 254.617 280.177M254.617 280.177C258.041 275.255 269.384 259.418 265.104 254.068C261.679 249.787 255.147 254.424 252.309 257.278M254.617 280.177C256.329 278.037 260.952 274.056 265.746 275.255C271.738 276.753 263.178 294.087 259.325 299.01C255.473 303.932 246.485 321.695 238.566 327.045C230.648 332.395 220.59 345.236 216.737 348.446C212.885 351.656 207.963 356.15 206.465 356.364C204.967 356.578 198.975 366.209 193.196 369.633C187.418 373.057 176.718 374.555 174.577 376.267C172.865 377.637 172.009 378.978 171.795 379.477M171.795 379.477H15.9961M144.007 191.791C144.852 188.438 145.13 180.662 139.48 176.382C132.418 171.032 125.783 170.818 126.425 176.382C127.067 181.946 123.429 190.293 118.079 195.857C112.729 201.421 109.518 202.919 109.304 211.266C109.09 219.612 102.242 237.375 99.032 246.363C95.8218 255.352 93.8957 262.2 94.1097 272.258C94.3238 282.317 96.0358 299.224 89.4015 307.998C82.7672 316.772 38.6812 359.574 33.1169 364.069C28.6655 367.664 19.8483 375.839 15.9961 379.477M192.126 144.923C188.702 141.926 180.185 135.249 173.507 132.51C166.83 129.771 160.881 129.942 158.741 130.37M192.126 144.923L184.422 149.417M286.291 144.067C285.72 143.638 283.252 142.098 277.944 139.358C277.521 139.14 277.092 138.928 276.66 138.723M276.66 138.723C278.729 135.011 284.407 126.518 290.571 122.237C298.275 116.887 301.913 115.817 303.625 115.817M104.168 156.265C102.099 155.266 97.6623 152.456 96.4639 149.203M118.507 152.199C117.365 151.057 115.211 147.79 115.725 143.852M133.702 158.619C133.274 156.836 132.674 152.627 133.702 150.059C134.729 147.491 135.842 146.421 136.27 146.207M306.408 225.176C304.909 224.249 301.871 221.624 301.699 218.542C301.528 215.46 301.628 213.834 301.699 213.406M319.034 221.966C318.463 219.755 317.536 214.733 318.392 212.336C319.248 209.939 320.318 208.769 320.746 208.483M334.443 232.239C333.943 230.027 333.244 224.962 334.443 222.394C335.641 219.826 337.653 218.756 338.509 218.542" stroke="#232E53" stroke-width="3" stroke-linecap="round" stroke-linejoin="round"/>
<path d="M176 192.001C183.6 192.401 199.5 195.501 206.5 197.001C206.833 197.001 207.5 196.801 207.5 196.001C207.5 195.001 205.5 194.501 204 193.501C202.5 192.501 193.5 190.001 190 189.501C186.5 189.001 176 185.501 165 186.501C154 187.501 166.5 191.501 176 192.001Z" fill="#232E53"/>
<path d="M279.5 187.001C272 188.501 256.833 192.501 249.5 194.501C248.667 194.668 246.9 194.901 246.5 194.501C246 194.001 248 192.001 250.5 191.001C253 190.001 265 184.501 275 182.501C285 180.501 293.5 179.001 294.5 181.501C295.5 184.001 287.406 185.42 279.5 187.001Z" fill="#232E53"/>
<path fill-rule="evenodd" clip-rule="evenodd" d="M168.5 62C157.178 62 148 71.1782 148 82.5C148 93.8218 157.178 103 168.5 103H175.5C181.652 103 187.17 100.29 190.928 95.9998C190.952 95.9999 190.976 96 191 96H263C269.627 96 275 90.6274 275 84C275 77.3726 269.627 72 263 72H193.11C189.532 66.0107 182.984 62 175.5 62H168.5Z" fill="#FF5391"/>
<path d="M163.656 87.182C162.172 87.182 160.945 86.692 159.974 85.712C159.013 84.732 158.532 83.528 158.532 82.1C158.532 80.672 159.013 79.468 159.974 78.488C160.945 77.508 162.172 77.018 163.656 77.018C164.552 77.018 165.373 77.2327 166.12 77.662C166.876 78.0913 167.464 78.67 167.884 79.398L166.75 80.056C166.47 79.5147 166.05 79.0853 165.49 78.768C164.939 78.4413 164.328 78.278 163.656 78.278C162.527 78.278 161.603 78.642 160.884 79.37C160.175 80.098 159.82 81.008 159.82 82.1C159.82 83.1827 160.175 84.088 160.884 84.816C161.603 85.544 162.527 85.908 163.656 85.908C164.328 85.908 164.939 85.7493 165.49 85.432C166.05 85.1053 166.47 84.676 166.75 84.144L167.884 84.788C167.473 85.516 166.89 86.0993 166.134 86.538C165.378 86.9673 164.552 87.182 163.656 87.182ZM173.223 87.182C172.308 87.182 171.524 86.9673 170.871 86.538C170.227 86.1087 169.774 85.5207 169.513 84.774L170.633 84.13C171.015 85.3153 171.888 85.908 173.251 85.908C173.923 85.908 174.436 85.7727 174.791 85.502C175.145 85.222 175.323 84.8533 175.323 84.396C175.323 83.9293 175.145 83.5793 174.791 83.346C174.436 83.1127 173.843 82.8653 173.013 82.604C172.602 82.4733 172.289 82.3707 172.075 82.296C171.86 82.212 171.589 82.0907 171.263 81.932C170.945 81.764 170.707 81.596 170.549 81.428C170.39 81.2507 170.245 81.022 170.115 80.742C169.993 80.462 169.933 80.1447 169.933 79.79C169.933 78.9407 170.231 78.2687 170.829 77.774C171.426 77.27 172.154 77.018 173.013 77.018C173.787 77.018 174.459 77.214 175.029 77.606C175.607 77.998 176.041 78.516 176.331 79.16L175.239 79.79C174.819 78.782 174.077 78.278 173.013 78.278C172.481 78.278 172.051 78.4087 171.725 78.67C171.398 78.9313 171.235 79.286 171.235 79.734C171.235 80.1633 171.389 80.49 171.697 80.714C172.005 80.938 172.537 81.1713 173.293 81.414C173.563 81.498 173.755 81.5587 173.867 81.596C173.979 81.6333 174.151 81.6987 174.385 81.792C174.627 81.8853 174.805 81.96 174.917 82.016C175.029 82.072 175.178 82.1513 175.365 82.254C175.561 82.3567 175.705 82.4547 175.799 82.548C175.892 82.6413 175.999 82.758 176.121 82.898C176.251 83.0287 176.345 83.164 176.401 83.304C176.457 83.444 176.503 83.6073 176.541 83.794C176.587 83.9713 176.611 84.1627 176.611 84.368C176.611 85.2267 176.298 85.9127 175.673 86.426C175.047 86.93 174.231 87.182 173.223 87.182ZM181.675 87.182C180.76 87.182 179.976 86.9673 179.323 86.538C178.679 86.1087 178.226 85.5207 177.965 84.774L179.085 84.13C179.467 85.3153 180.34 85.908 181.703 85.908C182.375 85.908 182.888 85.7727 183.243 85.502C183.597 85.222 183.775 84.8533 183.775 84.396C183.775 83.9293 183.597 83.5793 183.243 83.346C182.888 83.1127 182.295 82.8653 181.465 82.604C181.054 82.4733 180.741 82.3707 180.527 82.296C180.312 82.212 180.041 82.0907 179.715 81.932C179.397 81.764 179.159 81.596 179.001 81.428C178.842 81.2507 178.697 81.022 178.567 80.742C178.445 80.462 178.385 80.1447 178.385 79.79C178.385 78.9407 178.683 78.2687 179.281 77.774C179.878 77.27 180.606 77.018 181.465 77.018C182.239 77.018 182.911 77.214 183.481 77.606C184.059 77.998 184.493 78.516 184.783 79.16L183.691 79.79C183.271 78.782 182.529 78.278 181.465 78.278C180.933 78.278 180.503 78.4087 180.177 78.67C179.85 78.9313 179.687 79.286 179.687 79.734C179.687 80.1633 179.841 80.49 180.149 80.714C180.457 80.938 180.989 81.1713 181.745 81.414C182.015 81.498 182.207 81.5587 182.319 81.596C182.431 81.6333 182.603 81.6987 182.837 81.792C183.079 81.8853 183.257 81.96 183.369 82.016C183.481 82.072 183.63 82.1513 183.817 82.254C184.013 82.3567 184.157 82.4547 184.251 82.548C184.344 82.6413 184.451 82.758 184.573 82.898C184.703 83.0287 184.797 83.164 184.853 83.304C184.909 83.444 184.955 83.6073 184.993 83.794C185.039 83.9713 185.063 84.1627 185.063 84.368C185.063 85.2267 184.75 85.9127 184.125 86.426C183.499 86.93 182.683 87.182 181.675 87.182Z" fill="white"/>
<path d="M291.16 81.352C291.16 82.216 290.931 82.968 290.472 83.608H290.488L286.872 89H285.192L287.848 85.08C287.613 85.1013 287.432 85.112 287.304 85.112C286.173 85.112 285.245 84.7653 284.52 84.072C283.805 83.368 283.448 82.4613 283.448 81.352C283.448 80.2427 283.805 79.3413 284.52 78.648C285.245 77.944 286.173 77.592 287.304 77.592C288.435 77.592 289.357 77.944 290.072 78.648C290.797 79.3413 291.16 80.2427 291.16 81.352ZM285.576 79.656C285.139 80.0827 284.92 80.648 284.92 81.352C284.92 82.056 285.139 82.6267 285.576 83.064C286.024 83.4907 286.6 83.704 287.304 83.704C288.008 83.704 288.579 83.4907 289.016 83.064C289.464 82.6267 289.688 82.056 289.688 81.352C289.688 80.648 289.469 80.0827 289.032 79.656C288.595 79.2293 288.019 79.016 287.304 79.016C286.6 79.016 286.024 79.2293 285.576 79.656ZM299.833 87.624C299.076 88.68 298.015 89.208 296.649 89.208C295.284 89.208 294.223 88.68 293.465 87.624C292.708 86.568 292.329 85.16 292.329 83.4C292.329 81.64 292.708 80.232 293.465 79.176C294.223 78.12 295.284 77.592 296.649 77.592C298.015 77.592 299.076 78.12 299.833 79.176C300.591 80.232 300.969 81.64 300.969 83.4C300.969 85.16 300.591 86.568 299.833 87.624ZM294.553 86.616C295.044 87.3733 295.743 87.752 296.649 87.752C297.556 87.752 298.255 87.3733 298.745 86.616C299.247 85.8587 299.497 84.7867 299.497 83.4C299.497 82.0133 299.247 80.9413 298.745 80.184C298.255 79.416 297.556 79.032 296.649 79.032C295.743 79.032 295.044 79.4107 294.553 80.168C294.063 80.9253 293.817 82.0027 293.817 83.4C293.817 84.7867 294.063 85.8587 294.553 86.616ZM304.783 82.552C304.058 82.552 303.455 82.312 302.975 81.832C302.495 81.352 302.255 80.7653 302.255 80.072C302.255 79.3893 302.495 78.808 302.975 78.328C303.466 77.8373 304.068 77.592 304.783 77.592C305.508 77.592 306.111 77.832 306.591 78.312C307.071 78.792 307.311 79.3787 307.311 80.072C307.311 80.7653 307.071 81.352 306.591 81.832C306.122 82.312 305.519 82.552 304.783 82.552ZM303.855 81.016C304.1 81.2613 304.41 81.384 304.783 81.384C305.156 81.384 305.46 81.256 305.695 81C305.94 80.744 306.063 80.4347 306.063 80.072C306.063 79.7093 305.94 79.4053 305.695 79.16C305.46 78.904 305.156 78.776 304.783 78.776C304.41 78.776 304.1 78.904 303.855 79.16C303.62 79.4053 303.503 79.7093 303.503 80.072C303.503 80.4453 303.62 80.76 303.855 81.016ZM303.007 87.416L310.447 79.096L311.231 79.528L303.775 87.864L303.007 87.416ZM311.423 88.472C310.943 88.952 310.34 89.192 309.615 89.192C308.89 89.192 308.287 88.952 307.807 88.472C307.327 87.992 307.087 87.4053 307.087 86.712C307.087 86.0187 307.327 85.432 307.807 84.952C308.287 84.472 308.89 84.232 309.615 84.232C310.34 84.232 310.943 84.472 311.423 84.952C311.903 85.432 312.143 86.0187 312.143 86.712C312.143 87.4053 311.903 87.992 311.423 88.472ZM308.687 87.64C308.932 87.8853 309.242 88.008 309.615 88.008C309.988 88.008 310.292 87.8853 310.527 87.64C310.772 87.384 310.895 87.0747 310.895 86.712C310.895 86.3493 310.772 86.0453 310.527 85.8C310.292 85.544 309.988 85.416 309.615 85.416C309.242 85.416 308.932 85.544 308.687 85.8C308.452 86.0453 308.335 86.3493 308.335 86.712C308.335 87.0747 308.452 87.384 308.687 87.64Z" fill="#FF5391"/>
<rect x="192" y="79" width="74" height="9" rx="4.5" fill="#232E53"/>
<rect x="193" y="80" width="62" height="7" rx="3.5" fill="#9E3058"/>
</g>
<defs>
<clipPath id="clip0_684_66033">
<rect width="373" height="373" fill="white"/>
</clipPath>
</defs>
</svg>
