<svg fill="none" height="249" viewBox="0 0 331 249" width="331" xmlns="http://www.w3.org/2000/svg"><path d="m130.729 200.63h10.087 42.635 77.199l39.407 40.424-120.244 5.899c-13.539-10.923-48.627-34.585-50.563-36.519-2.421-2.418-3.094-4.164-2.556-6.984.431-2.256 2.87-2.82 4.035-2.82z" fill="#d9d9d9" stroke="#232e53" stroke-linejoin="round" stroke-width="2.1519"/><path d="m135.461 194.143c-16.035-.719-51.671-1.727-65.94 0-17.8363 2.159-44.861 5.937-50.8064 2.159-3.2488-2.064-4.1608-3.071-4.1829-3.502-1.0806.652-3.112 1.237-5.00529-.276-2.16197-1.727-3.06279-3.238-3.24296-3.778-1.26115-.539-3.78345-2.159-3.78345-4.317 0-2.699 0-5.937 7.02641-7.556 7.02639-1.619 18.37679-7.556 21.61969-12.414 3.243-4.857 7.5669-11.873 11.8909-13.492 4.3239-1.619 15.6743-4.858 22.1602-16.191 6.4859-11.334 10.8098-45.8756 33.5106-55.5903 22.7002-9.7148 46.4822-1.0794 52.9682 2.6985 6.486 3.778 17.296 12.4133 17.836 12.4133h9.189c-1.442-2.8784-3.784-10.7942-1.622-19.4295 2.703-10.7941 13.513-17.2706 14.594-21.0485 1.081-3.778 3.783-9.1751 7.026-11.3339 2.594-1.7271 6.126-3.9579 7.567-4.8574 3.243-11.3338 12.647-34.10946 24.322-34.54122 11.675-.43177 15.674 18.17012 16.215 27.52502 3.243-.1799 11.783.108 19.998 2.6986 8.216 2.5906 14.954 6.4765 17.296 8.0956 8.468-4.3177 27.565-11.4418 36.213-5.3971s-1.802 26.9854-8.108 36.7001c.541 5.2172 1.622 16.4071 1.622 19.4295 0 3.7779 3.243 7.0161 1.621 12.4133-1.297 4.318-1.621 6.836-1.621 7.556 1.261.18 3.675 1.727 3.243 6.476-.432 4.75-6.666 11.694-9.729 14.572.901 2.699 2.703 9.175 2.703 13.493v15.112l-107.018 4.857-12.972 27.525h-6.486c.36 3.238 1.297 10.471 2.162 13.493 1.081 3.778-.54 11.334-3.783 12.953s-8.108 1.079-10.27-1.079c-1.729-1.728-3.243-2.879-3.783-3.239-.36.54-1.838 1.619-4.865 1.619-3.026 0-6.305-1.439-7.566-2.158-1.262.359-4.541.863-7.567 0-3.784-1.08-5.405-4.858-5.405-6.477 0-1.295.72-3.778 1.081-4.857-1.261-2.339-4.108-7.34-5.405-8.636-1.297-1.295-2.342-1.619-2.703-1.619z" fill="#fff"/><path d="m231.128 137.474c-1.297 0-2.702-1.08-3.243-1.619 0-.54-.056-1.51-.489-2.374-.432-.864-1.346-2.124-1.706-2.484.538-.23 1.379-.598 2.195-1.012 1.096-.555 2.207-1.191 2.703-1.686 1.081-1.08 2.162-1.619 1.081-4.858-.865-2.59-6.486-4.317-9.189-4.857 2.523-.54 7.675-1.835 8.108-2.699.432-.863.18-3.238 0-4.317 1.081-1.08 6.594-3.238 19.998-3.238s18.557 2.158 19.458 3.238c-.18 3.958-.649 13.385-1.081 19.429-.541 7.556 0 12.414-17.296 13.493s-16.755-4.857-17.296-6.477c-.54-1.619-1.621-.539-3.243-.539z" fill="#6b8ede"/><path d="m230.254 119.783c.317.21.673 2.149.942 2.954-.135-.089-.807-.913-1.345-1.343-.538-.429-1.39-.895-1.748-1.074.582-.179 1.748-.806 2.151-.537z" fill="#fefefe"/><path d="m234.154 134.421s-2.286.806-4.034-.671c-1.378-1.165-1.999-3.12-2.146-3.991.312-.147.989-.468 1.204-.575.269-.135 1.614-1.075 1.883-1.343.215-.215.897-1.254 1.076-1.478.269.806.807 2.686 1.076 3.761.279 1.113.941 4.297.941 4.297z" fill="#fefefe"/><path d="m73.3051 178.491c-8.2155 2.591-17.8362 12.594-21.6197 17.271 4.5041-.54 15.8905-1.835 25.4032-2.698 9.5127-.864 43.2394.359 58.9134 1.079-2.342-2.879-9.512-9.607-19.457-13.493-9.946-3.886-20.359-13.852-24.3226-18.35-2.8827 4.318-10.7018 13.601-18.9173 16.191z" fill="#d9d9d9"/><path d="m143.029 174.713c10.81 4.318 29.006 0 36.753-2.698l-2.702-17.81c3.783.539 12.323 1.295 16.215 0 4.864-1.619 12.971-8.096 15.133-12.414 2.162-4.317 3.784-19.969 0-20.508-3.026-.432-18.917 2.338-26.484 3.778 1.982-2.159 6.27-7.556 7.567-11.874s.541-6.477 0-7.016l-10.81-11.3341h-8.648c-1.801-1.4392-6.918-5.5051-12.971-10.2545-7.567-5.9368-19.458-11.3338-44.321-10.2544-19.89.8635-30.4477 16.9108-32.97 24.2868-.1801 2.3382-.4323 8.2032 0 12.9532.5405 5.937 2.162 9.714 9.1884 21.588s40.5366 36.16 54.0496 41.557z" fill="#d9d9d9"/><path d="m189.511 88.9002c-3.027 4.7494-7.026 6.6563-8.648 7.0161-1.801-3.598-5.189-12.5212-4.324-19.4295.865-6.9082 9.009-15.8314 12.972-19.4294.36-.8996 1.838-3.9939 4.865-9.1751 3.026-5.1812 8.828-8.6353 11.35-9.7147 3.964-11.6937 14.593-35.18903 25.403-35.6208s14.954 18.5299 15.674 28.0648c4.144.3598 13.837 1.2953 19.458 2.1588s13.873 5.7569 17.296 8.0957c10.269-3.9579 32.321-10.2544 38.375-3.7779 6.053 6.4764-3.964 26.4456-9.729 35.6206l2.162 19.4295c0 1.6191.324 5.505 1.621 8.0957 1.298 2.59-.54 8.275-1.621 10.794-1.261.72-4.216 2.159-5.945 2.159-2.162 0-4.324 1.619-5.946 1.619-1.297 0-8.107 2.159-11.35 3.238-.901-.36-2.703-1.511-2.703-3.238v-22.6677c0-12.4133-21.079-26.9853-38.915-32.922-17.836-5.9368-35.673 0-41.078 0s-15.133 23.7471-18.917 29.6839z" fill="#d9d9d9"/><path d="m83.034 90.5192c-.8648.8635-3.6033 6.4765-4.8644 9.175l-.5408 1.0798c-.5405-.18-1.9458-.756-3.243-1.6195-1.6214-1.0794-8.1074-7.0162-9.7288-8.6353-1.6215-1.6191-3.7835-14.5721-4.324-18.35-.5405-3.778-4.8644-11.8736-6.4859-14.0324-1.6215-2.1589-8.6479-6.4765-16.7553-1.0794-8.1074 5.397-4.8644 11.3338-2.1619 14.572 2.7024 3.2383 2.1619 7.0162-1.081 9.1751-3.243 2.1588-7.5667.5397-11.8906-2.1589-4.3239-2.6985-5.9454-11.3338-4.3239-18.8897 1.6214-7.5559 4.3239-12.953 19.9982-18.8898 15.6743-5.9367 33.5106 8.6354 36.7535 12.4133 3.243 3.778 4.324 20.5089 5.9454 23.7471 1.2972 2.5906 6.3058 5.7569 8.6479 7.0162-1.6215 1.799-5.0806 5.613-5.9454 6.4765z" fill="#d9d9d9"/><path d="m178.701 93.2179c-2.883 0-8.756 0-9.189 0-.54 0-11.35-8.6353-17.836-12.4133-6.486-3.7779-30.268-12.4132-52.9682-2.6985-3.4671 1.4837-6.5055 3.5465-9.1884 6.0174m89.1816 9.0944c2.162 2.6985 7.242 8.7431 10.269 11.3341 3.027 2.59 4.504 3.238 4.865 3.238m-15.134-14.5721c-1.442-2.8784-3.784-10.7941-1.622-19.4295 2.703-10.7941 13.513-17.2706 14.594-21.0485 1.081-3.778 3.783-9.1751 7.026-11.3339 2.594-1.7271 6.126-3.9578 7.567-4.8574 3.243-11.3338 12.647-34.10945 24.322-34.54121 11.675-.43177 15.674 18.17011 16.215 27.52511 3.243-.18 11.783.1079 19.998 2.6985 8.216 2.5906 14.954 6.4765 17.296 8.0956 8.468-4.3177 27.565-11.4418 36.213-5.3971s-1.802 26.9854-8.108 36.7001c.541 5.2172 1.622 16.4071 1.622 19.4295 0 3.7779 3.243 7.0162 1.621 12.4129-1.297 4.318-1.621 6.837-1.621 7.556m0 0c1.261.18 3.675 1.727 3.243 6.477-.432 4.749-6.666 11.693-9.729 14.572.901 2.698 2.703 9.175 2.703 13.492v15.112l-37.294 1.693m41.077-51.346c-.36 0-1.297 0-2.162 0s-1.441 1.584-1.621 2.376m-126.476 79.66h6.486l12.972-27.525 69.724-3.165m-89.182 30.69c.36 3.238 1.297 10.47 2.162 13.492 1.081 3.778-.54 11.334-3.783 12.953s-8.108 1.08-10.27-1.079c-1.729-1.727-3.243-2.878-3.783-3.238-.36.539-1.838 1.619-4.865 1.619-3.026 0-6.305-1.439-7.566-2.159-1.262.36-4.541.864-7.567 0-3.784-1.079-5.405-4.857-5.405-6.476 0-1.296.72-3.778 1.081-4.858-1.261-2.339-4.108-7.34-5.405-8.635m45.401-1.619c-.18-9.535-2.27-32.383-9.188-47.495-6.919-15.111-19.458-31.482-24.863-37.779m-11.35 86.893c-1.297-1.296-2.342-1.619-2.703-1.619-16.035-.72-51.671-1.727-65.94 0-17.8363 2.158-44.861 5.936-50.8064 2.159-4.7563-3.023-4.5041-3.778-3.7834-3.778-.9008.719-3.2428 1.727-5.40479 0-2.16197-1.727-3.06279-3.239-3.24296-3.778-1.26115-.54-3.78345-2.159-3.78345-4.318 0-2.699 0-5.937 7.02641-7.556 7.02639-1.619 18.37679-7.556 21.61969-12.413 3.243-4.858 7.5669-11.874 11.8909-13.493 4.3239-1.619 15.6743-4.857 22.1602-16.191 3.6266-6.337 6.5773-19.931 12.4427-32.383m60.5241 93.37c-8.288-6.836-24.586-16.043-36.468-25.243-10.6964-8.282-20.4642-24.77-21.365-31.966m-2.6911-36.161c-2.7063-1.9784-9.8483-6.0442-12.4427-10.7936-3.243-5.9368-6.0854-23.8526-8.6479-28.6045-3.7834-7.0162-11.3012-9.175-17.8363-5.3971-10.2693 5.9368-7.0264 10.7941-4.8644 14.0324 2.162 3.2382 4.3239 8.0956 0 10.2544-4.3239 2.1589-11.8909 0-15.1338-7.0162-2.7555-5.9615-3.243-25.9059 16.2148-32.3824 19.4577-6.4765 36.2017 7.0162 39.456 12.953s3.7834 21.0485 6.4859 23.7471c2.162 2.1588 6.6661 4.9111 8.6479 6.0174m-11.8795 17.1895c3.0222-6.4155 6.8183-12.5285 11.8795-17.1895m70.8046 36.6195c-.18-1.799.216-6.153 3.243-9.175m27.025 49.113c7.026-1.259 19.021-4.851 22.629-5.958 4.445-1.364 14.124.266 15.722-3.925s-3.219-3.789-4.841-5.229c1.622-1.439 4.35-3.601 3.243-5.936-.785-1.656-2.702-1.619-3.243-1.619 1.081-.36 2.876-.952 2.876-3.405s-2.516-3.432-3.416-4.151c2.702-.54 7.999-2.375 7.567-5.397-.541-3.778-6.486-5.937-16.756-5.937-10.269 0-31.348 2.698-35.672 5.937m94.046 37.313c-.901-6.501-1.73-21.662 2.161-30.297 4.865-10.794 14.594-16.191 19.458-16.731 3.8-.422 6.94-1.502 8.648-.926m-1.081 6.323c1.081-1.079 3.027-3.67 2.162-5.397-.236-.473-.602-.764-1.081-.926m0 0c.721-.77 2.811-2.204 5.405-1.773.659.11 1.192.384 1.622.757m1.621 4.101c0-1.074-.361-3.009-1.621-4.101" stroke="#232e53" stroke-linecap="round" stroke-linejoin="round" stroke-width="3.14432"/><path d="m295.76 246.952h-113.49c-.655.163-2.555 0-4.913-1.962-2.948-2.453-2.948-6.378-2.948-7.85s20.635-62.795 23.583-69.663c2.358-5.494 9.498-6.05 12.773-5.886 37.012-.164 106.612.098 112.508.49 5.895.393 6.878 5.397 5.895 9.812-8.679 20.278-22.01 62.5-23.582 67.21-2.784 8.34-7.369 7.358-9.826 7.849z" fill="#d9d9d9" stroke="#232e53" stroke-linejoin="round" stroke-width="2.9478"/><g fill="#fefefe"><path d="m264.002 214.308-14.721-.728c-.491-.024-1.743-.371-2.405-1.101-.933-1.028-.394-1.984-.37-2.474.025-.49 4.756-6.642 11.136-6.327 6.379.316 9.08 5.361 9.964 7.369.885 2.009-1.642 3.357-3.604 3.261z"/><path d="m265.338 199.222c-.572 1.522-1.86 2.447-2.876 2.066s-1.376-1.924-.803-3.446c.572-1.522 1.86-2.446 2.876-2.065s1.376 1.923.803 3.445z"/><path d="m256.308 196.7c.174 1.616-.56 3.021-1.639 3.136-1.079.116-2.095-1.101-2.269-2.717-.173-1.616.561-3.02 1.64-3.136s2.095 1.101 2.268 2.717z"/><path d="m247.861 198.915c.699 1.468.47 3.035-.51 3.501-.98.465-2.341-.349-3.04-1.817s-.47-3.036.51-3.501 2.341.348 3.04 1.817z"/><path d="m271.315 203.108c-.982 1.296-2.48 1.817-3.345 1.164-.866-.654-.772-2.235.211-3.532.982-1.296 2.48-1.817 3.345-1.164.866.654.771 2.235-.211 3.532z"/></g><path d="m184.106 55.4381c-1.297-2.1588-6.306-3.4181-8.648-3.7779 1.081-.5397 3.892-2.2667 6.486-4.8573s2.162-11.5138 1.621-15.6515c1.622 2.1588 5.513 7.5559 8.108 11.8735 2.33 3.878 6.869 4.8534 9.467 4.8815.329-.0562.6-.0579.802-.0242-.238.0184-.508.0273-.802.0242-1.428.2437-3.954 1.5133-6.765 5.3729-3.459 4.7494-4.684 12.4133-4.864 15.6515-1.261-3.598-4.108-11.3338-5.405-13.4927z" fill="#fced90" stroke="#232e53" stroke-linejoin="round" stroke-width="2.16197"/><path d="m228 32c-2.5.5-8 1.1-10-.5s-1.834-2.6667-1.5-3c2.166-6 7.499-18 11.5-18 5 0 7.5 7.5 8 10 .352 1.7582 1.759 5.9635 2.661 8.5399.14.3483.254.6768.339.9601-.101-.2821-.215-.6057-.339-.9601-.685-1.7007-2.001-3.8719-3.661-3.5399-2 .4-2.5 3.5-2.5 5-.833-1.3333-2.7-3.8-3.5-3s-1 3.3333-1 4.5z" fill="#f9b3ac"/><path d="m314.5 41.5c-3.6-4.8-16.833.3333-23 3.5h1.5c1.833 0 5.7.2 6.5 1 1 1-1.5 4.5 0 3.5s3 .5 2 3.5-1 2.5 1 7.5c1.6 4 4.667 5 6 5 3.5-6 9.6-19.2 6-24z" fill="#f9b3ac"/><path d="m215.454 30.612c2.342-6.8362 8.324-20.4009 13.512-19.9691 5.189.4317 8.648 13.4927 9.729 19.9691-.36-1.9789-1.621-5.8288-3.783-5.3971-2.162.4318-2.703 3.778-2.703 5.3971-.36-1.2593-1.513-3.5621-3.243-2.6985-1.729.8635-1.441 3.2382-1.081 4.3176m79.993 34.0016c3.784-6.2966 10.486-20.0771 7.027-24.8266-3.459-4.7494-17.656.8995-24.322 4.3177 2.342-.5397 7.35-1.2953 8.648 0 1.297 1.2953-.901 4.1377-2.162 5.3971 1.261-.7196 3.999-1.943 4.864-1.0794.865.8635-.36 3.9578-1.081 5.397" stroke="#232e53" stroke-linecap="round" stroke-linejoin="round" stroke-width="2.16197"/><path d="m212.211 87.2812c-19.89-4.7495-18.377-19.6094-15.134-26.4457-.36-1.2593-.973-4.3177-.541-6.4765.541-2.6986 6.486-2.6986 19.999-1.0795 10.809 1.2953 18.557 5.5771 21.079 7.556 1.081-.3598 4.324-.8635 8.648 0 4.324.8636 7.206 3.2383 8.107 4.3177 2.883-.5397 10.81-1.2953 19.458 0 10.81 1.6191 21.079 7.5559 21.079 10.2544s-2.702 4.8574-3.783 6.4765-5.405 17.8103-26.485 15.1118c-21.079-2.6985-15.674-24.8265-15.133-26.4457.54-1.6191-2.162-3.2382-4.865-4.3176-2.702-1.0794-6.486-.5397-7.026 1.0794-.541 1.6191-.54 25.9059-25.403 19.9692z" fill="#232e53"/><path d="m238.156 78.6452c-1.201.6526.902 2.6986 1.623 3.2383.18.18.704.3054 1.622.0001 1.621-.5398 3.585-.9369 3.242-1.6192-.542-1.0795-4.865-2.5006-6.487-1.6192z" fill="#f9b3ac"/><path d="m238.155 78.106c-.18.8995-.108 2.9144 1.622 3.7779 1.729.8635 3.964-.7196 4.865-1.6191m-4.734 1.6794-1.212 6.9559m0 0c-.54.8995-1.946 2.6985-3.243 2.6985m3.243-2.6985c.18.8995.648 2.8065 1.081 3.2382" stroke="#232e53" stroke-linecap="round" stroke-linejoin="round" stroke-width="1.08099"/></svg>