<svg fill="none" height="245" viewBox="0 0 219 245" width="219" xmlns="http://www.w3.org/2000/svg"><path d="m159.802 32c3.2-4.4 4.333-22.5 4.5-31 1.666 6 5.9 19.1 9.5 23.5s16.833 3.5 23 2.5c-4.5 2.5-14.9 8.6-20.5 13s-7 21.1667-7 29c-.5-5.6667-2.1-18.1-4.5-22.5s-12-5.5-16.5-5.5c2.5-1.1667 8.3-4.6 11.5-9z" fill="#fced90" stroke="#232e53" stroke-linecap="round" stroke-linejoin="round" stroke-width="2"/><path d="m.801758 115 9.500042-14.5 1.5 4-8.00004 17z" fill="#232e53"/><path d="m36.8021 225c.4 6-3.8333 15.833-6 20h182.9999c-.666-6.667-2.3-21.1-3.5-25.5-1.5-5.5-15-54-18.5-63s.5-15 14-38.5 11.5-43.5 10.5-47.5c-.8-3.2-3.333-2.6667-4.5-2-.333-6.5-2-19.6-6-20-5-.5-10 10.5-13.5 16.5-2.8 4.8-20.5 15.3333-29 20-1-3.1667-3.6-10.9-6-16.5s-13-14.6667-18-18.5c.334-1.1667 1.1-4.1 1.5-6.5.5-2.9999 3-15-10.5-26-13.5-10.99997-15-3-17 1.5-1.6 3.6-13 12.1667-18.4998 16-3.5 0-12.5.3-20.5 1.5s-17.6666 5.1667-21.5 7c-1-2.8333-3-9.4-3-13 0-4.5 2.5-6-6.5-5s-16 9.5-21.5 16-7.5 27-10 41.5c-2.49995 14.5 1 26 2.5 28.5s.5 6 0 14.5c-.4 6.8 4.8334 18.833 7.5 24-4.1667 2-12.60005 11.2-13.00005 32s18.49995 28 27.99995 29c-.1666 2.167-.4 8 0 14z" fill="#fff"/><g fill="#d9d9d9"><path d="m55.3022 217c.4 4.4-3.8334 20.5-6 28h-18.5c2-5.833 6-18.1 6-20.5v-13c-2.8333 0-10.7-1.8-19.5-9-11.00003-9-9.00003-21.5-6.5-34.5 2-10.4 8.1666-16.333 11-18 .6666 1.333 2.5 4.5 4.5 6.5s12.1666 5.833 17 7.5l-8.5 1c-1.8334.333-5.5 2.6-5.5 9 0 8 5.5 13.5 13 19 6 4.4 6.1666 14.167 5.5 18.5l5.5-1c.5.333 1.6 2.1 2 6.5z"/><path d="m57.3022 94.4999c-20 .8-36.6666 20.0001-42.5 29.5001v-9c-.8333-3-2.5-9.4-2.5-11 0-2-2.99995-13-1-19.0001 2-6.0001 0-27.9999 10.5-44.9999 8.3999-13.6 22.1667-15.3334 28-14.5001v8.0001c0 1.6 2.3334 7 3.5 9.5 2-.6667 7.9-2.7 15.5-5.5s20.1667-2.8333 25.5-2.5c1.5-1 6.2998-4.3 13.4998-9.5001 9-6.5001 4-10 9.5-13.5 5.5-3.49998 13.5 5.5 20.5 13.5 5.6 6.4 3.334 19.3334 1.5 25 3.334 2.1667 11.1 7.9 15.5 13.5s7.834 16.3334 9 21l17-10c1.167 2.3334 2.8 9.4 0 19-2.8 9.6001-12.5 16.3331-17 18.5001l1-13.0001c-5.666 6.8331-20.1 21.2001-32.5 24.0001-15.5 3.5-49.9998-30.0001-74.9998-29.0001z"/><path d="m192.302 187v-25.5c4.334 13.5 13.6 42.7 16 51.5s4.667 25 5.5 32h-12.5c-.666-5-2-16.7-2-23.5 0-8.5-7-21.5-7-34.5z"/></g><path d="m133.302 38c.8-8.8-8-12.6667-12.5-13.5 0 1.5-.2 5.7-1 10.5s-7 14-10 18l7-3v5l4-2v3.5l6-1.5c2-.5 5.5-6 6.5-17z" fill="#f9b3ac"/><path d="m24.3024 48c-3.2 4.8-2.3334 13.3333-1.5 17l6.9998 4c-1.1666-3.1667-3.5-10.1-3.5-12.5s4-11.3333 6-15.5c-1.3332.3333-4.7998 2.2-7.9998 7z" fill="#f9b3ac"/><path d="m64.3022 139.5-5.5-3.5c-.1666-.333-.3-1.2.5-2 1-1 4 0 4.5 0s1.5-.5 3-.5c1.2 0 2.1667 1 2.5 1.5z" fill="#f9b3ac"/><path d="m57.8018 135.5 6.5 4m0 0 5-4.5m-5 4.5 1.5 8m0 0-2 6.5m2-6.5 5 5" stroke="#232e53" stroke-linecap="round" stroke-linejoin="round" stroke-width="2"/><path d="m30.8021 245c2.1667-4.167 6.4-14 6-20s-.1666-11.834 0-14m0 0c-9.5-1-28.39995-8.2-27.99995-29s8.83335-30 13.00005-32m14.9999 61c3.8334 0 15.1001-.3 29.5001-1.5 18-1.5 26-8.5 29-11s10.9998-3 12.4998-8c1.2-4-5.166-6.334-8.4998-7m-77.5-33.5c-2.6666-5.167-7.9-17.2-7.5-24 .5-8.5 1.5-12 0-14.5s-4.99995-14.0003-2.5-28.5003c2.5-14.5 1-25 10-41.5 4.0773-7.475 12.5-15 21.5-16 4.5-.5 6.5.5 6.5 5 0 3.6 2 10.1667 3 13m-31 106.5003c.8334 2.333 4 7.5 10 9.5l12 4m9-120.0003c3.8334-1.8333 13.5-5.8 21.5-7s17-1.5 20.5-1.5c5.4998-3.8333 15.2408-12.2727 17.4998-15.5 3.5-5 8-11.4997 18-2 12.626 11.9938 11 23 10.5 26-.4 2.4-1.166 5.3333-1.5 6.5 5 3.8333 15.6 12.9 18 18.5s5 13.3333 6 16.5m-110.4998-41.5c-2.8333 2.3333-8.7 8.4-9.5 14m119.9998 27.5c8.5-4.6667 26.2-15.2 29-20 3.5-6 8.5-17 13.5-16.5 4 .4 5.667 13.5 6 20 1.167-.6667 3.7-1.2 4.5 2 1 4 3 24-10.5 47.5003-13.5 23.5-17.5 29.5-14 38.5s17 57.5 18.5 63c1.2 4.4 2.834 18.833 3.5 25.5m-50.5-160.0003c.334 1.6666 1 6.8 1 14 0 7.2003-.666 13.3333-1 15.5003m-119.4998 49c4-.5 13.9-1.2 21.5 0 9.5 1.5 19 3 23 1.5s8.5-2 10.5 0c1.5998 1.6 1.3338 2.333 1 2.5m-56-4c-4 .333-13 1.4-17 3m66 2c5.1667-.667 16.5998-.9 20.9998 3.5s3 8.5 1.5 9.5m-12-5.5c3.834.666 11.4 3 11 7s-4.166 5.333-6 5.5m-71.9998-153.0003c-4 4.8333-11.5 16.4-9.5 24s3.8334 10.1667 4.5 10.5c-2.3333-2-7.4-5.7-9-4.5s0 5.1667 1 7c-1.3333-.5-3.9-1.2-3.5 0s1.1667 2.1667 1.5 2.5m96.4998-54c1.5 1 3.8 5.5 1 15.5s-10.5 18.1667-14 21c4.334-3.5 13-9.9 13-7.5s-2 6-3 7.5c1.167-1.6667 3.9-4.8 5.5-4s.667 3 0 4m-36.9998 43.5003c5.5-6.5 18.7998-11 19.9998-11m-61.9998 19.5c-4.5-2.5-16-7-19.5-6.5" stroke="#232e53" stroke-linecap="round" stroke-linejoin="round" stroke-width="3"/><path d="m1.30124 119c-.800005-2-.666671-3.5-.500005-4 0-1 .800005-3.4 4.000035-5 4.00003-2 13.50003-4 16.50003-4s23.5 0 29 5 6 1 10.5 1 5 2.5 6-1 9-10.5 22.5-14.5c13.4997-4 30.4997-3 32.4997-2s4-.5 6.5-1c2-.4 3.834-.1667 4.5 0 4.334-10.6667 13.2-32.3001 14-33.5001 1-1.5 3-6 5.5-4.5s1.5 3 1.5 4-14 39-14.5 40c-.5 1.0001-3 2.0001-2.5 3.5001s-4 4-7 4.5-1.5 3-1.5 8.5 2 20.5-26 25c-27.9997 4.5-28.4997-5-29.9997-8s0-11-10-10.5-6 8-6 14 2.5 10.5-20 13-27.50003-20-28.00003-22-2-4-3.5-4-2.50003-2-3.50003-4.5z" fill="#232e53"/><path d="m37.8018 145.5-22.5-31-1-1.5c.3333-.167 1.7-.7 4.5-1.5s9.8333-.667 13-.5l20.5 30.5c-.5 1.5-3 2.5-6 3.5-2.7365.912-6.5 1.167-8.5.5z" fill="#6b8ede"/><path d="m103.302 136-23.0002-29.5c.6666-.833 3.1-2.9 7.5-4.5s9.1666-1.667 11-1.5l21.0002 28c-.667.667-2.7 2.5-5.5 4.5s-8.5 2.833-11 3z" fill="#6b8ede"/></svg>