<svg fill="none" height="373" viewBox="0 0 373 373" width="373" xmlns="http://www.w3.org/2000/svg"><path d="m0 275c0-16.569 13.4315-30 30-30h313c16.569 0 30 13.431 30 30v98h-373z" fill="#6b8ede"/><rect fill="#ff5391" height="79.6175" rx="1.90062" width="135.35" x="168.367" y="36.916"/><path d="m214.358 93.3164c-4.029 0-7.362-1.3304-9.997-3.9913-2.61-2.6608-3.916-5.9299-3.916-9.8072 0-3.8772 1.306-7.1463 3.916-9.8071 2.635-2.6609 5.968-3.9913 9.997-3.9913 2.433 0 4.663.5828 6.69 1.7485 2.053 1.1657 3.649 2.7369 4.79 4.7136l-3.079 1.7865c-.761-1.4698-1.901-2.6355-3.421-3.4971-1.496-.8869-3.155-1.3304-4.98-1.3304-3.066 0-5.575.9883-7.526 2.9649-1.926 1.9767-2.889 4.4475-2.889 7.4124 0 2.9397.963 5.3978 2.889 7.3744 1.951 1.9767 4.46 2.965 7.526 2.965 1.825 0 3.484-.4308 4.98-1.2924 1.52-.887 2.66-2.0527 3.421-3.4972l3.079 1.7486c-1.115 1.9767-2.699 3.5605-4.752 4.7516-2.053 1.1657-4.295 1.7485-6.728 1.7485zm25.975 0c-2.484 0-4.612-.5828-6.386-1.7485-1.749-1.1658-2.978-2.7623-3.687-4.7896l3.041-1.7486c1.039 3.2184 3.408 4.8276 7.108 4.8276 1.824 0 3.218-.3674 4.181-1.1024.963-.7602 1.445-1.7612 1.445-3.0029 0-1.2671-.482-2.2174-1.445-2.851-.963-.6335-2.572-1.305-4.827-2.0146-1.115-.3548-1.964-.6335-2.547-.8363-.583-.2281-1.318-.5575-2.205-.9883-.861-.4561-1.508-.9123-1.938-1.3684-.431-.4815-.824-1.1024-1.179-1.8626-.329-.7603-.494-1.6219-.494-2.5849 0-2.3061.811-4.1307 2.433-5.4738 1.622-1.3684 3.598-2.0526 5.93-2.0526 2.103 0 3.928.5321 5.473 1.5965 1.572 1.0643 2.75 2.4708 3.536 4.2194l-2.965 1.7105c-1.141-2.7369-3.155-4.1053-6.044-4.1053-1.445 0-2.611.3548-3.497 1.0643-.887.7096-1.331 1.6726-1.331 2.889 0 1.1657.418 2.0526 1.255 2.6608.836.6082 2.28 1.2418 4.333 1.9006.735.2281 1.254.3928 1.558.4942.305.1014.773.2788 1.407.5322.659.2534 1.14.4561 1.444.6082.304.152.71.3674 1.217.6462.532.2787.925.5448 1.178.7982.254.2535.545.5702.874.9504.355.3547.609.7222.761 1.1023s.278.8236.38 1.3304c.126.4815.19 1.001.19 1.5585 0 2.3315-.849 4.1941-2.547 5.5879-1.698 1.3684-3.915 2.0526-6.652 2.0526zm22.948 0c-2.483 0-4.612-.5828-6.386-1.7485-1.748-1.1658-2.977-2.7623-3.687-4.7896l3.041-1.7486c1.039 3.2184 3.408 4.8276 7.108 4.8276 1.825 0 3.219-.3674 4.182-1.1024.963-.7602 1.444-1.7612 1.444-3.0029 0-1.2671-.481-2.2174-1.444-2.851-.963-.6335-2.572-1.305-4.828-2.0146-1.115-.3548-1.964-.6335-2.547-.8363-.583-.2281-1.317-.5575-2.204-.9883-.862-.4561-1.508-.9123-1.939-1.3684-.431-.4815-.824-1.1024-1.178-1.8626-.33-.7603-.495-1.6219-.495-2.5849 0-2.3061.811-4.1307 2.433-5.4738 1.622-1.3684 3.599-2.0526 5.93-2.0526 2.103 0 3.928.5321 5.474 1.5965 1.571 1.0643 2.749 2.4708 3.535 4.2194l-2.965 1.7105c-1.14-2.7369-3.155-4.1053-6.044-4.1053-1.444 0-2.61.3548-3.497 1.0643-.887.7096-1.33 1.6726-1.33 2.889 0 1.1657.418 2.0526 1.254 2.6608s2.281 1.2418 4.333 1.9006c.735.2281 1.255.3928 1.559.4942s.773.2788 1.406.5322c.659.2534 1.141.4561 1.445.6082.304.152.709.3674 1.216.6462.532.2787.925.5448 1.179.7982.253.2535.544.5702.874.9504.355.3547.608.7222.76 1.1023s.279.8236.38 1.3304c.127.4815.19 1.001.19 1.5585 0 2.3315-.849 4.1941-2.547 5.5879-1.697 1.3684-3.915 2.0526-6.652 2.0526z" fill="#fff"/><path d="m168.367 38.8166c0-1.0496.851-1.9006 1.901-1.9006h131.548c1.05 0 1.901.851 1.901 1.9006v10.042h-135.35z" fill="#9e3058"/><circle cx="179.065" cy="42.4048" fill="#fefefe" r="2.55913"/><circle cx="190.288" cy="42.4048" fill="#fefefe" r="2.55913"/><circle cx="201.51" cy="42.4048" fill="#fefefe" r="2.55913"/><path d="m48.6121 272.896c-9.4156-2.354-9.4156-13.339-8.2387-18.537 2.7462-3.335 10.3572-10.887 18.8313-14.418 10.5925-4.413 36.4856-3.53 39.1337 0 2.6486 3.531 4.7076 6.179 4.7076 12.358s-2.942 12.064-13.5348 17.655c-10.5925 5.59-29.1296 5.885-40.8991 2.942z" fill="#6b8ede"/><path d="m48.6121 272.896c-9.4156-2.354-9.4156-13.339-8.2387-18.537 2.7462-3.335 10.3572-10.887 18.8313-14.418 10.5925-4.413 36.4856-3.53 39.1337 0 2.6486 3.531 4.7076 6.179 4.7076 12.358s-2.942 12.064-13.5348 17.655c-10.5925 5.59-29.1296 5.885-40.8991 2.942zm0 0c-.1962-1.765-.1177-6.12 1.7654-9.415 1.8831-3.296 4.3155-5.885 5.2963-6.768" stroke="#232e53" stroke-width="1.76543"/><rect fill="#232e53" height="6.94854" rx=".588477" transform="matrix(.912055 .4100679 -.4100679 .912055 110.553588 1.907316)" width="3.22142" x="50.8301" y="258.697"/><path d="m254.579 254.947c-15.006 3.531-52.904 10.122-84.446 8.239-39.428-2.354-56.2-5.591-66.792-16.477-2.572-2.644-4.2944-5.305-5.3559-7.945-.2745 6.375-2.3536 19.302-8.4737 20.008-6.1202.707-8.4349-3.432-8.8272-5.59-2.6481 3.138-9.2391 9.357-14.4177 9.121-5.1786-.235-6.6694-4.217-6.7675-6.179-2.3539 1.766-8.0621 5.002-12.0638 3.825-4.0016-1.177-4.4135-5.002-4.1193-6.767-1.3731 1.079-4.8255 2.001-7.6502-2.943-3.5308-6.179 7.356-21.185 23.8333-34.425 13.1819-10.593 36.2025-10.299 46.065-8.828 2.485-6.913 3.935-14.392 4.544-20.891.706-7.532 5.002-15.3 7.062-18.242-3.041-9.122-7.592-30.895-1.471-45.019 7.65-17.654 10.004-17.36 15.888-16.183 4.708.942 26.286 19.42 36.486 28.541 6.669-1.667 22.362-4.825 31.778-4.119 11.769.883 23.833 6.473 29.718 0s27.658-28.247 39.428-27.953c11.769.294 20.891 47.078 20.597 59.731-.295 12.652-2.354 19.419 0 23.539 2.354 4.119 6.179 10.886 8.238 19.714 1.593 6.825.015 13.283-1.066 15.922.603-.513 3.606-1.21 12.542-1.21 13.24 0 21.773 12.946 25.01 18.537 3.236 5.59 3.236 13.24 0 18.537-3.237 5.296-11.475 3.236-19.42 9.415-7.944 6.179-20.891 6.474-24.422 4.414s-5.296-1.766-13.24-4.414c-6.356-2.118-5.199-7.552-3.826-10.004-2.746 2.452-9.474 6.944-14.417 5.296-4.943-1.647-5.002-5.786-4.414-7.65z" fill="#d9d9d9"/><path d="m298.715 289.667-.589-6.474-170.658 39.134v5.002c14.614-.588 45.313-.176 52.374.294 8.827.589 16.478 5.002 17.655 5.002s3.236 0 10.004-2.059c6.767-2.06 18.537-1.177 27.658-.883s37.957 5.885 40.605 6.179 4.708-.588 5.296-2.648c.471-1.648 11.966-29.718 17.655-43.547z" fill="#d9d9d9" stroke="#232e53" stroke-linejoin="round" stroke-width="1.76543"/><path d="m173.958 322.033c-14.359-1.648-37.761-.686-47.667 0 .883-1.275 2.825-4.001 3.531-4.708.883-.882 10.887-13.829 17.066-20.008 4.943-4.943 13.044-16.379 16.477-21.479 1.373-.393 4.767-1.177 7.356-1.177 3.237 0 11.475-.295 28.835 1.177 13.888 1.177 22.264 4.806 24.716 6.473.981-.589 3.884-2.001 7.651-2.942 4.707-1.177 13.24-2.06 28.247-1.766 12.005.236 30.698 3.237 38.545 4.708-1.373 2.942-4.826 10.475-7.65 17.066-2.825 6.591-10.004 23.147-13.241 30.601-3.923-.589-16.772-2.413-36.78-5.002-20.008-2.59-35.995 1.078-41.488 3.236-2.55-1.373-11.239-4.531-25.598-6.179z" fill="#fefefe"/><path d="m199.556 328.212c-2.55-1.373-11.239-4.531-25.598-6.179s-37.761-.686-47.667 0c.883-1.275 2.825-4.001 3.531-4.708.883-.882 10.887-13.829 17.066-20.008 4.943-4.943 13.044-16.379 16.477-21.479 1.373-.393 4.767-1.177 7.356-1.177 3.237 0 11.475-.295 28.835 1.177 13.888 1.177 22.264 4.806 24.716 6.473m-24.716 45.901c5.493-2.158 21.48-5.826 41.488-3.236 20.008 2.589 32.857 4.413 36.78 5.002 3.237-7.454 10.416-24.01 13.241-30.601 2.824-6.591 6.277-14.124 7.65-17.066-7.847-1.471-26.54-4.472-38.545-4.708-15.007-.294-23.54.589-28.247 1.766-3.767.941-6.67 2.353-7.651 2.942m-24.716 45.901c4.316-8.925 13.771-28.011 17.066-32.955 3.296-4.943 6.474-10.69 7.65-12.946" stroke="#232e53" stroke-linejoin="round" stroke-width="1.76543"/><path d="m257.815 270.542 2.06-7.062c.785-.196 3.001-.706 5.591-1.177 3.236-.588 7.356-5.59 7.356-4.707v5.296l-3.531 10.004-9.416 15.006z" fill="#6b8ede"/><path d="m271.939 215.814-6.473 21.773c.98-.686 3.472-2.412 5.59-3.825 2.119-1.412 5.787-2.55 7.356-2.942l3.531-11.77c.392-1.373.235-4.354-3.531-5.296s-5.885.981-6.473 2.06z" fill="#6b8ede"/><path d="m259.875 287.608-2.06-16.477c.295-.393 1.119-1.236 2.06-1.472.942-.235 1.177.099 1.177.295.196-.196.765-.589 1.471-.589s1.079.785 1.177 1.177c.393-.196 1.354-.529 2.06-.294s.883.686.883.883c0-.098.235-.236 1.177 0 .941.235 1.373 1.471 1.471 2.059z" fill="#f9b3ac"/><path d="m263.995 281.134-4.119 6.474-.883-7.945c.294-.098 1.236-.235 2.648 0 1.413.236 2.158 1.079 2.354 1.471z" fill="#232e53"/><path d="m257.815 270.542 2.06-7.062c.785-.196 3.001-.706 5.591-1.177 3.236-.588 7.356-5.59 7.356-4.707v5.296l-3.531 10.004-9.416 15.006z" stroke="#232e53" stroke-width="1.17695"/><path d="m271.939 215.814-6.473 21.773c.98-.686 3.472-2.412 5.59-3.825 2.119-1.412 5.787-2.55 7.356-2.942l3.531-11.77c.392-1.373.235-4.354-3.531-5.296s-5.885.981-6.473 2.06z" stroke="#232e53" stroke-width="1.17695"/><path d="m113.05 237.294c-7.062 2.354-6.865 9.415-5.885 12.652.785.785 3.06 2.707 5.885 4.119 3.531 1.766 10.299 3.531 17.949 5.297 7.65 1.765 35.014 3.236 47.961 4.119 12.946.883 39.133-2.648 46.195-3.531 5.649-.706 21.774-3.433 29.13-4.708.196.687.588 2.413.588 3.825 0 1.766 2.06 3.826 7.356 3.826 4.237 0 9.023-3.727 10.887-5.591-.392 1.373-1.177 4.414-1.177 5.591 0 1.471 4.708 4.413 7.062 5.296s14.123 5.296 17.654 5.296 17.654-5.885 20.597-7.65c2.354-1.412 8.827-3.531 11.769-4.414-2.354-.784-7.356-2.883-8.533-5.002-1.471-2.648-3.825-11.181-12.063-19.419-8.239-8.239-27.365-6.179-34.426-5.002-5.65.941-12.162 9.219-14.712 13.24-2.943-.294-11.417-1.883-21.774-5.884-12.946-5.003-15.3-25.893-17.948-32.955-2.649-7.062-16.184-27.659-40.017-30.013-23.833-2.353-37.074 8.828-40.311 20.597-3.236 11.77-17.36 37.368-26.187 40.311z" fill="#fefefe"/><path d="m91.5707 257.891c4.9432-2.59 6.3752-13.83 6.4733-19.126-.2942-.687-.8827-2.413-.8827-3.825 0-1.766-.2942-5.885 0-7.356.2354-1.177.6865-4.414.8827-5.885-4.1193.687-13.0642 1.766-15.8889.589-3.5308-1.472-13.5349-2.06-20.0082-1.472-6.4732.589-14.4177 5.885-21.7737 14.124-7.3559 8.239-5.5905 14.418-3.5308 17.36 1.6477 2.354 4.8059 1.569 6.179.883 0 2.354 1.1181 7.12 5.5905 7.356 4.4724.235 8.9252-2.256 10.5926-3.531 1.1769 1.667 4.3547 5.178 7.6502 5.885 3.2955.706 10.5926-5.591 13.8292-8.828 1.5693 2.354 5.9436 6.415 10.8868 3.826z" fill="#fefefe"/><path d="m131.587 155.789c-2.589 1.412-6.767 4.119-8.533 5.296-1.177-3.727-3.589-13.476-3.825-22.656-.294-11.476 9.416-20.303 11.181-20.009 1.413.236 17.458 14.614 25.305 21.774-3.237-2.256-10.122-6.532-11.77-5.591-1.647.942 2.06 7.258 4.12 10.299-2.256-1.569-7.121-4.473-8.533-3.531-1.413.942.98 6.081 2.354 8.533-1.275-1.079-4.237-3.06-5.885-2.354s.294 3.237 1.471 4.414c-.883.686-3.295 2.412-5.885 3.825z" fill="#f9b3ac"/><path d="m276.058 137.546c2.119 10.122 2.256 29.522 2.06 37.957-1.667-1.668-5.767-6.003-8.827-10.004-3.06-4.002-8.337-7.749-10.593-9.122.785-2.452 2.119-7.356 1.177-7.356-.941 0-4.119 2.746-5.59 4.119 2.059-2.353 5.59-7.473 3.236-9.121-2.942-2.06-9.71 3.531-8.533 2.06s5.591-10.004 2.943-12.064c-2.119-1.648-10.691 3.629-14.712 6.473 7.258-8.042 23.009-24.068 27.953-23.833 6.179.294 8.238 8.239 10.886 20.891z" fill="#f9b3ac"/><path d="m254.579 254.947c-15.006 3.531-52.904 10.122-84.446 8.239-39.428-2.354-56.2-5.591-66.792-16.477-2.572-2.644-4.2944-5.305-5.3559-7.945m156.5939 16.183c.883-4.119 5.12-13.947 15.006-20.302 12.358-7.945 21.186-6.473 22.068-7.356.706-.706 3.629-3.629 5.002-5.002m-42.076 32.66c-.588 1.864-.529 6.003 4.414 7.65 4.943 1.648 11.671-2.844 14.417-5.296-1.373 2.452-2.53 7.886 3.826 10.004 7.944 2.648 9.709 2.354 13.24 4.414s16.478 1.765 24.422-4.414c7.945-6.179 16.183-4.119 19.42-9.415 3.236-5.297 3.236-12.947 0-18.537-3.237-5.591-11.77-18.537-25.01-18.537-10.593 0-12.849.98-12.653 1.471m-179.485-54.434c-2.06 2.942-6.356 10.71-7.062 18.242-.609 6.499-2.059 13.978-4.544 20.891m11.606-39.133c-3.041-9.122-7.592-30.895-1.471-45.019 7.65-17.654 10.004-17.36 15.888-16.183 4.708.942 26.286 19.42 36.486 28.541 6.669-1.667 22.362-4.825 31.778-4.119 11.769.883 23.833 6.473 29.718 0s27.658-28.247 39.428-27.953c11.769.294 20.891 47.078 20.597 59.731-.295 12.652-2.354 19.419 0 23.539 2.354 4.119 6.179 10.886 8.238 19.714 1.648 7.061-.098 13.731-1.177 16.183m-179.485-54.434c.932-1.434 3.048-4.168 5.59-6.27m-17.196 45.403c-1.115 3.104-2.439 6.093-3.989 8.828-3.7874 6.683-6.9001 14.717-3.5899 22.95m7.5789-31.778c-9.8625-1.471-32.8831-1.765-46.065 8.828-16.4773 13.24-27.3641 28.246-23.8333 34.425 2.8247 4.944 6.2771 4.022 7.6502 2.943-.2942 1.765.1177 5.59 4.1193 6.767 4.0017 1.177 9.7099-2.059 12.0638-3.825.0981 1.962 1.5889 5.944 6.7675 6.179 5.1786.236 11.7696-5.983 14.4177-9.121.3923 2.158 2.707 6.297 8.8272 5.59 6.1201-.706 8.1992-13.633 8.4737-20.008m27.7179-79.15c-1.014.507-2.007 1.195-2.943 1.969m0 0c-1.863-6.639-4.943-21.801-2.354-29.333 3.237-9.416 6.179-14.418 9.416-14.124 2.589.236 18.537 15.203 26.187 22.657-3.04-2.452-9.592-7.18-11.475-6.474-1.883.707 1.569 7.553 3.531 10.887-1.668-1.765-5.591-5.002-7.945-3.825s.589 6.375 2.354 8.827c-1.569-1.177-5.061-3.354-6.473-2.648s.785 3.629 2.06 5.002m139.763 22.951c.098-7.552-.059-25.069-1.471-34.72-1.766-12.064-4.119-24.716-11.475-23.834-5.885.707-20.891 16.183-27.659 23.834 3.629-3.237 11.711-9.004 15.006-6.179 3.296 2.824-1.569 9.611-4.413 12.652 2.256-1.864 7.356-5.12 9.71-3.237 2.353 1.883-1.177 6.866-3.237 9.122 1.373-1.471 4.472-4.296 5.885-3.825 1.412.47-.393 4.904-1.471 7.061m-146.237 66.204c-1.844-.588-6.426-1.942-10.004-2.648-3.5783-.706-8.7489-.883-10.887-.883m20.891 7.65c-4.119-.49-13.6527-1.471-18.8313-1.471s-7.454 0-7.9444 0m26.7757 5.296c-5.492.295-17.1247.883-19.714.883s-3.8251.589-4.1194.883m151.8274-3.825c3.236-.393 10.592-1.177 14.123-1.177h8.239m-22.362 5.002c4.119-.098 13.182-.177 16.477.294 3.296.471 6.277 1.177 7.356 1.471m-23.833 1.766c3.727.294 12.005 1.236 15.3 2.648 3.296 1.412 5.1 2.55 5.591 2.942" stroke="#232e53" stroke-linecap="round" stroke-linejoin="round" stroke-width="2.35391"/><path d="m166.308 216.991c-9.415-.235-3.923 7.749 0 11.77.393-.196 1.354-.765 2.06-1.471.883-.883 6.767-5.002 8.239-5.885 1.471-.883 1.471-4.119-10.299-4.414z" fill="#f9b3ac"/><path d="m166.602 228.761v10.004m0-10.004c-1.863-2.06-5.59-6.709-5.59-8.827m5.59 8.827c1.766-1.57 6.179-5.179 9.71-7.062m-9.71 17.066s-1.765 4.708-4.119 5.59m4.119-5.59s1.766 4.708 3.825 5.59" stroke="#232e53" stroke-linecap="round" stroke-linejoin="round" stroke-width="1.76543"/><path d="m145.711 224.936c-5.414 2.589-14.417-2.452-18.242-5.297-.687-.588-1.001-1.353-2.648-3.236-2.06-2.354-1.472-6.115-1.472-8.827 0-4.708 3.531-10.299 4.12-11.181.588-.883 5.59-10.005 16.183-9.71 10.592.294 14.712 16.183 14.417 23.539-.294 7.356-5.59 11.475-12.358 14.712z" fill="#fefefe"/><path d="m213.975 226.407c6.591 2.589 18.831-5.983 24.127-10.593.295-.882.942-2.883 1.177-3.825.295-1.177-.588-7.062-1.177-9.415-.588-2.354-7.356-14.418-19.714-14.124s-16.183 7.356-18.831 18.831c-2.648 11.476 6.179 15.889 14.418 19.126z" fill="#fefefe"/><path d="m157.776 208.165c0 8.125-5.494 16.771-11.181 16.771-12.358 0-15.595-8.646-15.595-16.771s4.119-17.36 14.418-17.36c10.298 0 12.358 9.235 12.358 17.36z" fill="#232e53"/><path d="m236.926 199.336c-2.648-4.119-10.593-12.005-21.185-10.593-13.241 1.766-17.831 15.007-17.066 22.657.677 6.767 4.708 16.183 19.714 14.712 12.005-1.177 18.144-7.945 19.714-11.181m-110.928 4.708c5.688 4.217 19.066 10.121 27.07 0 4.959-6.272 4.857-14.713 2.059-21.452-2.846-6.856-8.482-11.951-14.417-11.209-9.416 1.177-13.731 7.16-14.712 10.004" stroke="#232e53" stroke-linecap="round" stroke-linejoin="round" stroke-width="1.76543"/><path d="m229.863 209.647c0 8.125-5.493 16.772-11.181 16.772-12.358 0-20.302-6.881-20.302-15.006 0-8.126 6.473-20.009 16.771-20.009 10.299 0 14.712 10.118 14.712 18.243z" fill="#232e53"/><g fill="#fefefe"><ellipse cx="144.917" cy="200.65" rx="4.91745" ry="3.56696" transform="matrix(.68861533 -.72512683 .72512683 .68861533 -100.371767 167.562539)"/><ellipse cx="219.609" cy="201.198" rx="5.32714" ry="3.92864" transform="matrix(.68861533 -.72512683 .72512683 .68861533 -77.511193 221.894352)"/><ellipse cx="140.128" cy="208.762" rx="1.69615" ry="1.64532" transform="matrix(.68861533 -.72512683 .72512683 .68861533 -107.745217 166.615859)"/><ellipse cx="211.923" cy="209.938" rx="1.69615" ry="1.64532" transform="matrix(.68861533 -.72512683 .72512683 .68861533 -86.242104 219.042529)"/></g></svg>