<svg fill="none" height="373" viewBox="0 0 373 373" width="373" xmlns="http://www.w3.org/2000/svg"><path d="m0 275c0-16.569 13.4315-30 30-30h313c16.569 0 30 13.431 30 30v98h-373z" fill="#6b8ede"/><path d="m150.327 265.657h10.488 44.33 80.268l40.973 42.031-125.024 6.134c-14.077-11.357-50.559-35.961-52.573-37.971-2.517-2.514-3.216-4.329-2.657-7.261.447-2.346 2.983-2.933 4.195-2.933z" fill="#d9d9d9" stroke="#232e53" stroke-linejoin="round" stroke-width="2.23744"/><path d="m155.247 258.913c-16.672-.748-53.725-1.796-68.5617 0-18.5453 2.245-46.6443 6.173-52.8261 2.245-3.378-2.147-4.3262-3.194-4.3492-3.642-1.1236.678-3.2357 1.286-5.2043-.286-2.2479-1.796-3.1845-3.367-3.3718-3.928-1.3113-.562-3.9339-2.245-3.9339-4.49 0-2.806 0-6.173 7.3057-7.856 7.3058-1.684 19.1073-7.856 22.4792-12.907 3.3719-5.05 7.8677-12.345 12.3636-14.029 4.4958-1.683 16.2974-5.05 23.0412-16.835 6.7437-11.784 11.2395-47.699 34.8423-57.799 23.604-10.101 48.331-1.123 55.074 2.805 6.744 3.928 17.984 12.907 18.546 12.907h9.553c-1.498-2.993-3.933-11.223-1.686-20.202 2.81-11.223 14.05-17.957 15.174-21.885s3.934-9.54 7.306-11.785c2.697-1.7953 6.369-4.1147 7.867-5.05 3.372-11.7844 13.151-35.4655 25.289-35.9144 12.139-.4489 16.298 18.8925 16.86 28.6193 3.372-.1871 12.251.1122 20.793 2.8058s15.548 6.7339 17.983 8.4173c8.805-4.4892 28.661-11.8965 37.653-5.6115 8.992 6.2855-1.873 28.0585-8.43 38.1595.562 5.424 1.686 17.059 1.686 20.201 0 3.929 3.372 7.296 1.686 12.907-1.348 4.489-1.686 7.108-1.686 7.856 1.312.187 3.822 1.796 3.372 6.734-.449 4.939-6.931 12.159-10.115 15.152.936 2.806 2.809 9.54 2.809 14.029v15.712l-111.272 5.051-13.487 28.619h-6.744c.375 3.367 1.349 10.887 2.248 14.029 1.124 3.928-.562 11.785-3.934 13.468-3.372 1.684-8.429 1.122-10.677-1.122-1.799-1.796-3.372-2.993-3.934-3.367-.375.561-1.911 1.683-5.058 1.683s-6.556-1.496-7.868-2.244c-1.311.374-4.72.898-7.867 0-3.934-1.123-5.62-5.051-5.62-6.734 0-1.347.749-3.928 1.124-5.051-1.312-2.431-4.271-7.631-5.62-8.978s-2.435-1.684-2.81-1.684z" fill="#fff"/><path d="m254.716 199.99c-1.348 0-2.81-1.122-3.372-1.683 0-.561-.059-1.57-.508-2.468-.45-.898-1.4-2.209-1.775-2.583.56-.239 1.435-.622 2.283-1.052 1.14-.577 2.295-1.239 2.81-1.753 1.124-1.123 2.248-1.684 1.124-5.051-.899-2.694-6.743-4.489-9.553-5.05 2.622-.562 7.98-1.908 8.429-2.806.45-.898.188-3.367 0-4.49 1.124-1.122 6.856-3.366 20.794-3.366 13.937 0 19.294 2.244 20.231 3.366-.187 4.116-.675 13.917-1.124 20.202-.562 7.857 0 12.907-17.983 14.029-17.984 1.123-17.422-5.05-17.984-6.734-.562-1.683-1.686-.561-3.372-.561z" fill="#6b8ede"/><path d="m253.808 181.596c.329.219.699 2.234.979 3.072-.14-.093-.839-.95-1.399-1.396-.559-.447-1.445-.931-1.818-1.118.606-.186 1.818-.837 2.238-.558z" fill="#fefefe"/><path d="m257.864 196.817s-2.377.838-4.195-.698c-1.433-1.211-2.078-3.244-2.231-4.15.324-.153 1.028-.486 1.252-.598.28-.14 1.678-1.117 1.958-1.397.224-.223.932-1.303 1.119-1.536.279.838.839 2.793 1.118 3.91.29 1.158.979 4.469.979 4.469z" fill="#fefefe"/><path d="m90.619 242.638c-8.5421 2.694-18.5454 13.094-22.4792 17.957 4.6831-.561 16.5222-1.908 26.413-2.806 9.8912-.897 44.9582.375 61.2562 1.123-2.436-2.993-9.891-9.989-20.232-14.029-10.34-4.041-21.168-14.403-25.289-19.08-2.997 4.489-11.127 14.141-19.669 16.835z" fill="#d9d9d9"/><path d="m163.114 238.71c11.24 4.489 30.16 0 38.215-2.806l-2.81-18.518c3.934.561 12.813 1.347 16.859 0 5.058-1.684 13.488-8.418 15.736-12.907s3.934-20.763 0-21.324c-3.147-.449-19.669 2.432-27.537 3.928 2.06-2.245 6.519-7.856 7.868-12.345 1.348-4.49.562-6.734 0-7.296l-11.24-11.784h-8.992c-1.873-1.496-7.193-5.724-13.487-10.662-7.868-6.173-20.231-11.785-46.083-10.662-20.68.898-31.6577 17.583-34.2803 25.252-.1873 2.432-.4496 8.53 0 13.468.562 6.173 2.2479 10.101 9.5533 22.446 7.306 12.346 42.149 37.598 56.198 43.21z" fill="#d9d9d9"/><path d="m211.445 149.485c-3.147 4.938-7.306 6.921-8.992 7.295-1.873-3.741-5.395-13.019-4.496-20.202s9.366-16.46 13.488-20.201c.374-.936 1.91-4.153 5.057-9.54 3.148-5.387 9.179-8.9789 11.802-10.1012 4.121-12.1586 15.173-36.5879 26.413-37.0369 11.24-.4489 15.548 19.2666 16.297 29.1805 4.309.3741 14.387 1.3468 20.232 2.2447 5.844.8978 14.424 5.9858 17.983 8.4175 10.678-4.1152 33.606-10.6621 39.901-3.9282 6.294 6.7336-4.122 27.4966-10.116 37.0366l2.248 20.202c0 1.684.337 5.724 1.686 8.417 1.349 2.694-.562 8.605-1.686 11.224-1.311.748-4.384 2.245-6.182 2.245-2.248 0-4.496 1.683-6.182 1.683-1.348 0-8.429 2.245-11.801 3.367-.937-.374-2.81-1.571-2.81-3.367v-23.569c0-12.907-21.917-28.058-40.463-34.231-18.545-6.173-37.09 0-42.71 0s-15.736 24.691-19.669 30.864z" fill="#d9d9d9"/><path d="m100.735 151.169c-.8996.897-3.7469 6.734-5.0582 9.539l-.5623 1.123c-.562-.187-2.0231-.786-3.3719-1.684-1.6859-1.122-8.4297-7.295-10.1156-8.978-1.6859-1.684-3.9339-15.152-4.4958-19.08-.562-3.928-5.0579-12.346-6.7438-14.59-1.6859-2.245-8.9917-6.734-17.4214-1.122-8.4297 5.611-5.0578 11.784-2.2479 15.151s2.2479 7.295-1.124 9.54c-3.3718 2.244-7.8674.561-12.3632-2.245-4.4959-2.806-6.1818-11.784-4.4959-19.641 1.686-7.856 4.4959-13.468 20.7933-19.6404 16.2974-6.1728 34.8427 8.9784 38.2146 12.9064 3.3719 3.929 4.4959 21.325 6.1818 24.692 1.3487 2.693 6.5563 5.985 8.9913 7.295-1.686 1.87-5.282 5.836-6.181 6.734z" fill="#d9d9d9"/><path d="m200.205 153.975c-2.997 0-9.104 0-9.553 0-.562 0-11.802-8.979-18.546-12.907-6.743-3.928-31.47-12.906-55.074-2.806-3.604 1.543-6.764 3.688-9.553 6.257m92.726 9.456c2.248 2.806 7.531 9.091 10.678 11.784 3.147 2.694 4.683 3.367 5.058 3.367m-15.736-15.151c-1.498-2.993-3.933-11.223-1.686-20.202 2.81-11.223 14.05-17.957 15.174-21.885s3.934-9.54 7.306-11.785c2.697-1.7953 6.369-4.1148 7.867-5.05 3.372-11.7845 13.151-35.4655 25.289-35.9145 12.139-.4489 16.298 18.8925 16.86 28.6193 3.372-.187 12.251.1123 20.793 2.8058 8.542 2.6936 15.548 6.734 17.983 8.4175 8.805-4.4893 28.661-11.8967 37.653-5.6116 8.992 6.285-1.873 28.0585-8.43 38.1595.562 5.424 1.686 17.059 1.686 20.201 0 3.929 3.372 7.296 1.686 12.907-1.348 4.489-1.686 7.108-1.686 7.856m0 0c1.312.187 3.822 1.796 3.372 6.734-.449 4.939-6.931 12.159-10.115 15.152.936 2.806 2.809 9.54 2.809 14.029v15.712l-38.776 1.76m42.71-53.387c-.374 0-1.348 0-2.248 0-.899 0-1.498 1.647-1.686 2.47m-131.503 82.827h6.744l13.487-28.619 72.496-3.291m-92.727 31.91c.375 3.367 1.349 10.887 2.248 14.029 1.124 3.928-.562 11.785-3.934 13.468-3.372 1.684-8.429 1.122-10.677-1.122-1.799-1.796-3.372-2.993-3.934-3.367-.375.561-1.911 1.683-5.058 1.683s-6.556-1.496-7.868-2.244c-1.311.374-4.72.898-7.867 0-3.934-1.123-5.62-5.051-5.62-6.734 0-1.347.749-3.928 1.124-5.051-1.312-2.431-4.271-7.631-5.62-8.978m47.206-1.684c-.187-9.914-2.36-33.67-9.553-49.382-7.194-15.713-20.232-32.735-25.851-39.282m-11.802 90.348c-1.349-1.347-2.435-1.684-2.81-1.684-16.672-.748-53.725-1.796-68.5617 0-18.5453 2.245-46.6443 6.173-52.8261 2.245-4.9454-3.143-4.6831-3.928-3.9338-3.928-.9366.748-3.3717 1.795-5.6197 0-2.2479-1.796-3.1845-3.367-3.3718-3.928-1.3113-.562-3.9339-2.245-3.9339-4.49 0-2.806 0-6.173 7.3057-7.856 7.3058-1.684 19.1073-7.856 22.4792-12.907 3.3719-5.05 7.8677-12.345 12.3636-14.029 4.4958-1.683 16.2974-5.05 23.0412-16.835 3.7708-6.589 6.8387-20.723 12.9373-33.67m62.93 97.082c-8.617-7.108-25.564-16.681-37.917-26.246-11.122-8.612-21.2783-25.755-22.2149-33.238m-2.7981-37.598c-2.8139-2.057-10.2398-6.285-12.9373-11.223-3.3719-6.173-6.3274-24.801-8.9917-29.741-3.9339-7.296-11.7505-9.54-18.5454-5.612-10.6776 6.173-7.3057 11.223-5.0578 14.59s4.4959 8.418 0 10.662c-4.4958 2.245-12.3635 0-15.7354-7.295-2.865-6.198-3.3719-26.936 16.8594-33.67 20.2313-6.7335 37.6408 7.296 41.0245 13.468 3.3837 6.173 3.9339 21.886 6.7438 24.691 2.2479 2.245 6.9309 5.107 8.9919 6.257m-12.352 17.873c3.1424-6.671 7.089-13.027 12.352-17.873m73.619 38.075c-.187-1.87.225-6.397 3.372-9.539m28.099 51.065c7.306-1.309 19.778-5.044 23.529-6.195 4.622-1.418 14.686.277 16.347-4.081s-3.347-3.94-5.033-5.436c1.686-1.497 4.522-3.745 3.372-6.173-.816-1.722-2.81-1.683-3.372-1.683 1.124-.375 2.99-.99 2.99-3.541 0-2.55-2.616-3.568-3.552-4.316 2.81-.561 8.317-2.469 7.867-5.611-.562-3.929-6.743-6.173-17.421-6.173s-32.595 2.806-37.091 6.173m97.785 38.796c-.937-6.759-1.798-22.523 2.248-31.501 5.058-11.224 15.173-16.835 20.231-17.396 3.951-.439 7.216-1.562 8.992-.963m-1.124 6.574c1.124-1.122 3.147-3.816 2.248-5.611-.246-.492-.627-.795-1.124-.963m0 0c.749-.801 2.922-2.292 5.62-1.843.685.114 1.239.399 1.685.786m1.686 4.264c0-1.116-.375-3.128-1.686-4.264" stroke="#232e53" stroke-linecap="round" stroke-linejoin="round" stroke-width="3.26932"/><path d="m321.919 313.821h-118.002c-.681.17-2.656 0-5.108-2.041-3.065-2.55-3.065-6.631-3.065-8.161s21.455-65.291 24.52-72.433c2.452-5.712 9.876-6.29 13.282-6.12 38.482-.17 110.85.102 116.98.51s7.151 5.612 6.13 10.202c-9.025 21.084-22.885 64.984-24.52 69.881-2.895 8.672-7.663 7.652-10.217 8.162z" fill="#d9d9d9" stroke="#232e53" stroke-linejoin="round" stroke-width="3.06498"/><g fill="#fefefe"><path d="m288.896 279.878-15.306-.756c-.51-.025-1.812-.386-2.5-1.145-.97-1.069-.41-2.063-.384-2.572.025-.51 4.945-6.906 11.578-6.578 6.632.327 9.441 5.573 10.36 7.661.92 2.089-1.707 3.491-3.748 3.39z"/><path d="m290.286 264.193c-.595 1.583-1.934 2.544-2.991 2.148-1.056-.396-1.43-2-.835-3.583.596-1.582 1.934-2.543 2.991-2.147 1.056.396 1.43 2 .835 3.582z"/><path d="m280.897 261.571c.181 1.68-.582 3.14-1.704 3.261-1.122.12-2.178-1.145-2.359-2.826-.181-1.68.583-3.14 1.705-3.26 1.122-.121 2.178 1.144 2.358 2.825z"/><path d="m272.114 263.874c.727 1.526.489 3.156-.53 3.64-1.019.483-2.435-.362-3.161-1.889s-.489-3.157.53-3.64c1.019-.484 2.435.362 3.161 1.889z"/><path d="m296.501 268.233c-1.021 1.348-2.579 1.89-3.479 1.21-.9-.679-.802-2.323.22-3.671 1.021-1.348 2.578-1.89 3.478-1.21.9.679.802 2.323-.219 3.671z"/></g><path d="m205.826 114.694c-1.349-2.245-6.557-3.554-8.992-3.928 1.124-.562 4.046-2.357 6.744-5.051 2.697-2.693 2.248-11.9713 1.686-16.2736 1.686 2.2447 5.732 7.8563 8.429 12.3456 2.423 4.032 7.143 5.046 9.844 5.075.342-.058.623-.06.834-.025-.248.019-.528.029-.834.025-1.485.254-4.111 1.574-7.034 5.587-3.596 4.938-4.87 12.907-5.058 16.274-1.311-3.741-4.271-11.785-5.619-14.029z" fill="#fced90" stroke="#232e53" stroke-linejoin="round" stroke-width="2.24792"/><path d="m251.464 90.3235c-2.599.5198-8.318 1.1437-10.398-.5199-2.079-1.6636-1.906-2.7727-1.559-3.1193 2.252-6.2385 7.798-18.7155 11.957-18.7155 5.199 0 7.798 7.7981 8.318 10.3975.366 1.8281 1.83 6.2006 2.767 8.8794.146.3621.264.7037.353.9983-.105-.2934-.224-.6298-.353-.9983-.712-1.7683-2.08-4.0259-3.806-3.6806-2.08.4159-2.6 3.6391-2.6 5.1987-.866-1.3863-2.807-3.951-3.639-3.1192s-1.04 3.4658-1.04 4.6789z" fill="#f9b3ac"/><path d="m341.403 100.201c-3.743-4.9907-17.502.347-23.914 3.639h1.559c1.907 0 5.927.208 6.759 1.04 1.039 1.04-1.56 4.679 0 3.639 1.559-1.04 3.119.52 2.079 3.639-1.04 3.12-1.04 2.6 1.04 7.798 1.664 4.159 4.852 5.199 6.239 5.199 3.639-6.238 9.981-19.963 6.238-24.954z" fill="#f9b3ac"/><path d="m238.42 88.8799c2.435-7.108 8.654-21.2119 14.049-20.763s8.992 14.0291 10.116 20.763c-.375-2.0576-1.686-6.0606-3.934-5.6116-2.248.4489-2.81 3.9281-2.81 5.6116-.374-1.3094-1.573-3.7037-3.372-2.8058-1.798.8978-1.498 3.3669-1.124 4.4893m83.173 35.3536c3.934-6.547 10.903-20.876 7.306-25.814-3.596-4.9381-18.358.935-25.289 4.489 2.435-.561 7.643-1.346 8.992 0 1.349 1.347-.937 4.303-2.248 5.612 1.311-.748 4.159-2.02 5.058-1.122s-.375 4.115-1.124 5.611" stroke="#232e53" stroke-linecap="round" stroke-linejoin="round" stroke-width="2.24792"/><path d="m235.048 147.803c-20.681-4.938-19.107-20.389-15.735-27.497-.375-1.309-1.012-4.489-.563-6.734.562-2.806 6.744-2.806 20.793-1.122 11.24 1.346 19.295 5.798 21.918 7.856 1.124-.374 4.495-.898 8.991 0s7.493 3.367 8.43 4.489c2.997-.561 11.24-1.346 20.231 0 11.24 1.684 21.917 7.857 21.917 10.662 0 2.806-2.809 5.051-3.933 6.734-1.124 1.684-5.62 18.519-27.537 15.713-21.918-2.806-16.298-25.814-15.736-27.497.562-1.684-2.248-3.367-5.058-4.489-2.81-1.123-6.743-.561-7.305 1.122s-.562 26.936-26.413 20.763z" fill="#232e53"/><path d="m262.024 138.823c-1.249.678.938 2.806 1.688 3.367.187.187.732.317 1.685 0 1.686-.561 3.729-.974 3.372-1.684-.563-1.122-5.058-2.6-6.745-1.683z" fill="#f9b3ac"/><path d="m262.024 138.262c-.187.935-.112 3.03 1.686 3.928 1.799.898 4.122-.748 5.058-1.684m-4.921 1.747-1.26 7.232m0 0c-.562.935-2.023 2.806-3.372 2.806m3.372-2.806c.187.935.674 2.918 1.123 3.367" stroke="#232e53" stroke-linecap="round" stroke-linejoin="round" stroke-width="1.12396"/></svg>