<svg fill="none" height="330" viewBox="0 0 390 330" width="390" xmlns="http://www.w3.org/2000/svg"><rect height="206.952" rx="4.10318" stroke="#6b8ede" stroke-width="2.5" width="353.568" x="16.5703" y="3.25"/><path d="m16.5703 7.35317c0-2.26612 1.8371-4.10317 4.1032-4.10317h345.3615c2.266 0 4.103 1.83705 4.103 4.10317v24.81463h-353.5677z" stroke="#6b8ede" stroke-width="2.5"/><g fill="#6b8ede"><circle cx="43.4638" cy="19.4391" r="6.73238"/><circle cx="72.9882" cy="19.4391" r="6.73238"/><circle cx="102.513" cy="19.4391" r="6.73238"/><rect height="8.9765" rx="1.49608" width="149.608" x="51.0801" y="58.5268"/><rect height="8.9765" rx="1.49608" width="104.726" x="204.796" y="58.5268"/><rect height="8.9765" rx="1.49608" width="136.144" x="45.2861" y="72.5033"/><rect height="8.9765" rx="1.49608" width="62.8355" x="185.537" y="72.5033"/><rect height="8.9765" rx="1.49608" width="62.8355" x="252.479" y="72.5033"/><rect height="8.9765" rx="1.49608" width="282.76" x="38.9209" y="86.4798"/><rect height="8.9765" rx="1.49608" width="73.3081" x="40.0498" y="100.456"/><rect height="8.9765" rx="1.49608" width="62.8355" x="117.465" y="100.456"/><rect height="8.9765" rx="1.49608" width="136.144" x="184.408" y="100.456"/><rect height="8.9765" rx="1.49608" width="26.9295" x="40.6074" y="114.433"/><rect height="8.9765" rx="1.49608" width="248.35" x="71.6445" y="114.433"/><rect height="8.9765" rx="1.49608" width="26.9295" x="42.2939" y="128.409"/><rect height="8.9765" rx="1.49608" width="178.034" x="73.3311" y="128.409"/><rect height="8.9765" rx="1.49608" width="62.8355" x="255.472" y="128.409"/><rect height="8.9765" rx="1.49608" width="124.175" x="57.2549" y="142.386"/><rect height="8.9765" rx="1.49608" width="56.8512" x="185.537" y="142.386"/><rect height="8.9765" rx="1.49608" width="56.8512" x="246.495" y="142.386"/><rect height="8.9765" rx="1.49608" width="124.175" x="53.3242" y="156.362"/><rect height="8.9765" rx="1.49608" width="125.671" x="181.606" y="156.362"/></g><rect fill="#ff5391" height="32.8423" rx=".842111" width="53.8951" x="46.5332" y="41.4262"/><path d="m67.4597 64.7717-2.9474-8.2527h1.1789l2.3933 6.8851 2.3815-6.8851h1.1908l-2.9592 8.2527zm9.7009-5.8948h1.0257v5.8948h-1.0257v-.8488c-.4165.668-1.0532 1.0021-1.9099 1.0021-.6916 0-1.2457-.2162-1.6623-.6485-.4166-.4401-.6248-1.0335-.6248-1.7802v-3.6194h1.0256v3.5605c0 .4794.1297.8528.3891 1.12.2594.2594.617.389 1.0729.389.5108 0 .9235-.1572 1.2379-.4715.3143-.3223.4715-.8135.4715-1.4737zm4.2496 3.419c.1022.5266.3419.9353.7192 1.2261.3851.2908.8567.4362 1.4147.4362.7781 0 1.344-.2868 1.6977-.8606l.8725.4952c-.5738.8881-1.4384 1.3322-2.5937 1.3322-.9354 0-1.6977-.2908-2.2872-.8725-.5816-.5894-.8724-1.3322-.8724-2.2282 0-.8881.2868-1.6269.8606-2.2164.5737-.5895 1.3165-.8842 2.2282-.8842.8646 0 1.568.3065 2.1103.9196.5502.6051.8253 1.3361.8253 2.1928 0 .1493-.0118.3026-.0354.4598zm2.0396-2.6055c-.5502 0-1.006.1572-1.3676.4716-.3615.3065-.5855.7192-.672 1.2379h3.9377c-.0864-.558-.3065-.9825-.6602-1.2733s-.7663-.4362-1.2379-.4362z" fill="#fff"/><path d="m46.5332 42.2684c0-.4651.377-.8422.8421-.8422h52.2109c.4648 0 .8418.3771.8418.8422v5.0526h-53.8948z" fill="#9e3058"/><circle cx="51.1645" cy="44.3736" fill="#fefefe" r="1.26317"/><circle cx="56.2173" cy="44.3736" fill="#fefefe" r="1.26317"/><circle cx="61.27" cy="44.3736" fill="#fefefe" r="1.26317"/><rect fill="#ff5391" height="42.7117" rx="1.09517" width="70.091" x="3" y="139.992"/><path d="m27.8125 169.619c-1.6253 0-2.9694-.537-4.0325-1.61-1.0528-1.074-1.5792-2.392-1.5792-3.956s.5264-2.883 1.5792-3.956c1.0631-1.073 2.4072-1.61 4.0325-1.61.9812 0 1.8807.235 2.6985.706.8279.47 1.4719 1.104 1.9319 1.901l-1.242.72c-.3066-.592-.7666-1.063-1.3799-1.41-.6031-.358-1.2726-.537-2.0085-.537-1.2369 0-2.2488.399-3.0359 1.196-.7768.797-1.1652 1.794-1.1652 2.99 0 1.186.3884 2.177 1.1652 2.974.7871.798 1.799 1.196 3.0359 1.196.7359 0 1.4054-.173 2.0085-.521.6133-.358 1.0733-.828 1.3799-1.411l1.242.706c-.4498.797-1.0887 1.436-1.9166 1.916-.828.471-1.7326.706-2.7138.706zm10.937 0c-1.0017 0-1.8603-.235-2.5758-.706-.7053-.47-1.2011-1.114-1.4873-1.932l1.2266-.705c.4191 1.298 1.3748 1.947 2.8672 1.947.7359 0 1.2981-.148 1.6865-.444.3885-.307.5827-.711.5827-1.212 0-.511-.1942-.894-.5827-1.149-.3884-.256-1.0375-.527-1.9472-.813-.4497-.143-.7922-.256-1.0273-.337-.2351-.092-.5315-.225-.8892-.399-.3476-.184-.6082-.368-.782-.552-.1738-.194-.3322-.445-.4753-.751-.1329-.307-.1993-.654-.1993-1.043 0-.93.3271-1.666.9813-2.208.6541-.552 1.4514-.828 2.3918-.828.8484 0 1.5844.215 2.2079.644.6337.43 1.109.997 1.4259 1.702l-1.1959.69c-.46-1.104-1.2726-1.656-2.4379-1.656-.5826 0-1.0528.143-1.4106.43-.3577.286-.5366.674-.5366 1.165 0 .47.1687.828.506 1.073s.9199.501 1.7479.767c.2964.092.5059.158.6286.199s.3118.112.5673.215c.2658.102.46.184.5826.245.1227.061.2862.148.4907.261.2146.112.3731.219.4753.322.1022.102.2197.23.3526.383.1431.143.2453.291.3067.445.0613.153.1124.332.1533.536.0511.194.0766.404.0766.629 0 .94-.3424 1.691-1.0272 2.254-.6849.552-1.5793.828-2.6832.828zm9.7163 0c-1.0017 0-1.8603-.235-2.5758-.706-.7053-.47-1.2011-1.114-1.4873-1.932l1.2266-.705c.4191 1.298 1.3748 1.947 2.8672 1.947.7359 0 1.2981-.148 1.6866-.444.3884-.307.5826-.711.5826-1.212 0-.511-.1942-.894-.5826-1.149-.3885-.256-1.0375-.527-1.9473-.813-.4497-.143-.7921-.256-1.0272-.337-.2351-.092-.5316-.225-.8893-.399-.3475-.184-.6082-.368-.782-.552-.1737-.194-.3322-.445-.4753-.751-.1329-.307-.1993-.654-.1993-1.043 0-.93.3271-1.666.9813-2.208.6542-.552 1.4515-.828 2.3918-.828.8484 0 1.5844.215 2.2079.644.6337.43 1.1091.997 1.4259 1.702l-1.1959.69c-.46-1.104-1.2726-1.656-2.4379-1.656-.5826 0-1.0528.143-1.4105.43-.3578.286-.5367.674-.5367 1.165 0 .47.1687.828.506 1.073s.9199.501 1.7479.767c.2964.092.506.158.6286.199.1227.041.3118.112.5673.215.2658.102.46.184.5826.245.1227.061.2863.148.4907.261.2146.112.3731.219.4753.322.1022.102.2198.23.3526.383.1431.143.2454.291.3067.445.0613.153.1124.332.1533.536.0511.194.0767.404.0767.629 0 .94-.3425 1.691-1.0273 2.254-.6849.552-1.5792.828-2.6832.828z" fill="#fff"/><path d="m3 141.087c0-.605.49033-1.095 1.09517-1.095h67.90073c.6048 0 1.0951.49 1.0951 1.095v6.571h-70.091z" fill="#9e3058"/><circle cx="9.02362" cy="143.825" fill="#fefefe" r="1.64276"/><circle cx="15.5949" cy="143.825" fill="#fefefe" r="1.64276"/><circle cx="22.1652" cy="143.825" fill="#fefefe" r="1.64276"/><rect fill="#ff5391" height="38.5407" rx=".988222" width="63.2462" x="297.054" y="202.417"/><path d="m319.695 219.555h1.273v9.685h-1.273v-4.358h-4.704v4.358h-1.286v-9.685h1.286v4.109h4.704zm10.651 0v1.218h-2.864v8.467h-1.273v-8.467h-2.85v-1.218zm11.442 0v9.685h-1.273v-7.568l-3.168 5.271h-.166l-3.169-5.257v7.554h-1.286v-9.685h1.452l3.086 5.119 3.071-5.119zm4.464 8.467h4.178v1.218h-5.465v-9.685h1.287z" fill="#fff"/><path d="m297.054 203.405c0-.546.442-.988.988-.988h61.27c.545 0 .988.442.988.988v5.929h-63.246z" fill="#9e3058"/><circle cx="302.489" cy="205.875" fill="#fefefe" r="1.48233"/><circle cx="308.419" cy="205.875" fill="#fefefe" r="1.48233"/><circle cx="314.348" cy="205.875" fill="#fefefe" r="1.48233"/><path d="m103.619 259.495c-9.1992 7.556-17.5226 25.599-20.5343 33.676-.5476 2.327-2.0534 8.132-3.6962 12.731-1.5682 4.391-5.2535 16.869-7.133 23.233l-.2555.865h235c-.821-14.511-3.786-47.096-8.714-60.238s-14.374-20.535-18.481-22.588c5.476-4.381 18.07-17.578 24.641-35.319 8.214-22.178-6.981-55.854-8.213-58.318-1.232-2.465-2.054-8.214-6.161-25.874s-12.731-24.231-18.07-25.873c-4.271-1.315-16.291 2.19-21.767 4.107-3.97-2.191-14.209-7.1464-23.409-9.4463-11.499-2.8748-28.337-1.6427-30.391-1.6427-2.053 0-13.553-9.8566-22.999-16.8383-9.445-6.9817-25.052-10.2672-32.033-7.8031-6.982 2.4641-7.803 13.1421-7.803 24.6414 0 11.499 4.106 23.409 2.464 25.052-1.643 1.643-14.785 15.196-17.249 30.802s-5.75 16.838-11.5 24.641c-5.749 7.803-10.2668 12.732-7.8027 33.677 1.9717 16.756 16.4277 29.159 23.4097 33.266-2.601 2.601-10.103 9.692-19.303 17.249z" fill="#fefefe"/><path d="m103.618 259.495c9.2-7.557 16.702-14.648 19.303-17.249-6.982-4.107-21.438-16.51-23.4095-33.266-1.3033-11.079-.6534-17.676 1.0985-22.588 1.561-4.375 3.996-7.413 6.705-11.089 5.749-7.803 9.035-9.035 11.499-24.641s15.606-29.159 17.249-30.802-2.464-13.553-2.464-25.052c0-11.4993.821-22.1773 7.803-24.6414s22.588.8214 32.034 7.8031 20.945 16.8383 22.998 16.8383c2.054 0 18.892-1.2321 30.391 1.6427 9.2 2.2999 19.44 7.2553 23.41 9.4463 5.476-1.917 17.495-5.422 21.766-4.107 5.339 1.642 13.964 8.213 18.071 25.873 4.106 17.66 4.928 23.409 6.16 25.874 1.232 2.464 16.428 36.14 8.214 58.317-6.571 17.742-19.166 30.939-24.642 35.32 4.107 2.053 13.553 9.446 18.481 22.588 1.096 4.654 3.368 14.867 3.697 18.481.411 4.517.411 10.678-3.697 13.142-4.107 2.464-13.963 11.91-16.016 12.321-2.054.41-7.393-6.571-16.839-17.66-9.445-11.089-4.928-27.927-2.053-36.551 1.781-5.344 7.947-9.062 12.736-11.039-12.254 3.65-34.854 5.068-50.519-12.371-17.414-19.384-17.934-24.231-16.017-24.231 2.327 0 7.556-1.149 9.856-5.749 2.875-5.75 1.643-17.66 0-24.231s-7.393-19.302-22.999-16.427c-7.459 1.374-10.5 2.523-11.419 3.342.141.427.251.82.331 1.175-.606-.22-.951-.623-.331-1.175-1.552-4.676-6.928-13.31-18.971-18.127-13.143-5.257-20.809 3.011-22.999 7.803-.548-3.149-2.711-10.021-6.982-12.321s-10.541 5.613-13.142 9.857c-1.095 2.738-3.45 9.363-4.107 13.963s.822 10.952 1.643 13.553c-.411 1.916-2.628 5.914-8.214 6.571-5.585.657-10.082-2.19-11.633-3.696-1.7519 4.912-2.4018 11.509-1.0985 22.588 1.9715 16.756 16.4275 29.159 23.4095 33.266l13.964 10.267c-1.369 4.517-4.518 13.963-6.161 15.606-2.053 2.053-7.803-2.053-11.91-2.053s-9.035 8.624-15.196 13.963c-6.1602 5.339-11.9093-2.053-8.6237-7.392 2.6284-4.272 6.8447-10.541 8.6237-13.142z" fill="#d9d9d9"/><path d="m257.217 160.108c7.228 8.542 12.594 13.963 14.374 15.606 1.095-3.97 3.367-13.224 3.696-18.481.411-6.571 1.232-40.659-10.267-43.944-9.2-2.628-31.213 10.678-41.069 17.66 6.434-1.917 19.959-4.929 22.588-1.643 2.628 3.285-5.202 7.94-9.446 9.856 3.012 0 9.364.493 10.678 2.465 1.314 1.971-2.464 4.38-4.518 5.338 1.643.822 6.735 4.6 13.964 13.143z" fill="#f9b3ac"/><path d="m141.402 94.3972c0 7.5568 1.917 14.6478 2.875 17.2488l1.232-1.232 6.982 1.232c-1.369-2.738-3.861-8.378-2.875-9.035s5.887 3.012 8.214 4.928c-1.643-4.928-5.257-16.0166-6.571-20.9449-1.643-6.1603-6.982-7.3924-8.625-7.3924s-1.232 5.7497-1.232 15.1955z" fill="#f9b3ac"/><path d="m143.866 203.641c-.985-1.314-1.232-4.381-1.232-5.75v-.821c.411-.411 2.382-.822 6.982.821s5.476 3.97 5.339 4.928c-.274.274-.986 1.068-1.643 2.054-.657.985-4.928 1.506-6.982 1.643-.41-.411-1.478-1.561-2.464-2.875z" fill="#f9b3ac"/><path d="m85.548 247.174c-1.2321-3.696-4.6819-12.403-8.6245-17.66s-8.4876-10.404-10.2673-12.321" stroke="#232e53" stroke-linecap="round" stroke-linejoin="round" stroke-width="3.28552"/><path d="m72.8167 239.781c-1.2321-1.369-4.5997-4.681-8.2138-6.981s-6.7079-4.244-7.8031-4.929" stroke="#232e53" stroke-linecap="round" stroke-linejoin="round" stroke-width="3.28552"/><path d="m285.966 316.58c1.095-1.642 4.353-5.667 8.624-8.624s9.72-3.97 11.91-4.107" stroke="#232e53" stroke-linecap="round" stroke-linejoin="round" stroke-width="3.28552"/><path d="m82.2623 294.403c0 1.971-1.0952 2.464-1.6427 2.464l-6.9818 3.286c-.1369-1.917-.4928-5.996-.8213-6.982-.3286-.986-12.7314-2.875-18.8918-3.696 3.0117-1.506 9.1173-4.764 9.4459-5.75.3285-.985-6.1604-10.267-9.4459-14.785l-3.6962-7.803 2.4642-.821 27.9269 15.606 1.6427-10.678c1.0952 1.643 3.5319 5.257 4.5176 6.571 1.2321 1.643 1.6428 6.982 1.2321 7.803-.4107.822-2.8749 1.643-5.7497 4.929-2.8748 3.285 0 7.392 0 9.856z" fill="#fced90"/><path d="m136.473 273.458c-1.314-2.3-2.464-3.696-2.874-4.107l-3.286-12.731 14.374 9.856 7.393-8.624.41 9.035 3.286 2.875 8.214-.411-8.214 7.392c-2.191-1.095-7.721-2.628-12.321 0-5.75 3.286-5.339-.41-6.982-3.285z" fill="#fced90"/><path d="m178.364 293.582c0 1.314-1.917 1.369-2.875 1.232l-1.643.411-4.928-1.233 4.928-6.571-6.571-6.16-1.232-2.875 8.624-2.053.411-9.857c3.012 3.012 9.364 9.282 10.678 10.267 1.643 1.233-2.464 2.875-5.75 6.161-3.285 3.285-1.642 9.035-1.642 10.678z" fill="#fced90"/><path d="m221.486 269.351c-6.242-1.643-11.088 3.423-12.731 6.16l-12.321-6.571 8.214-2.464 4.517-2.464 1.643-19.713 14.785 14.374 10.267-4.928v12.321l5.339-.411.822 1.643c-2.601 3.422-7.968 10.267-8.625 10.267-.821 0-4.107-6.16-11.91-8.214z" fill="#fced90"/><path d="m262.555 296.046c0-3.286-4.928-7.666-7.392-9.446l13.552-16.838-1.232 11.499h6.161l19.302-12.321-13.142 21.356 9.446 2.875-7.392 6.16-2.465 3.286 4.107 4.107-2.464.411c-2.464-.137-7.721-.411-9.035-.411-1.643 0-2.875-2.464-4.518-3.696-1.642-1.232-4.928-2.875-4.928-6.982z" fill="#fced90"/><path d="m274.465 306.724h9.857c-1.78-1.369-5.339-4.271-5.339-4.929 0-.821 11.088-6.981 10.677-8.213-.41-1.232-7.392-.411-9.035-2.464-1.642-2.054 6.161-13.553 13.964-20.946 7.803-7.392 25.052-22.998 0-3.285s-27.927 16.427-26.695 11.089c1.232-5.339 3.696-13.964-4.107-3.697-6.242 8.214-8.351 11.363-8.624 11.91m-18.892-10.267c2.464-2.738 7.064-8.542 5.75-9.856-1.643-1.643-3.286 2.053-5.75 0-2.464-2.054 1.643-10.268 0-11.91-1.643-1.643-6.16 4.517-11.088 4.106-4.929-.41-12.732-14.784-14.375-14.784-1.642 0 1.232 18.891-2.464 21.766s-17.249 2.464-9.446 5.75c6.243 2.628 8.899 4.38 9.446 4.928m-23.409 0c-2.738-2.464-8.707-8.049-10.678-10.678-2.464-3.285 2.874 10.267 0 11.499-2.875 1.233-12.321-.41-6.982 4.518s6.571 3.286 6.161 6.16c-.411 2.875-5.339 6.161-4.518 6.982.657.657 4.381.822 6.16.822m-18.481-18.071c2.738-2.327 8.132-7.228 7.804-8.214-.411-1.232-5.75 1.643-9.857.822-4.107-.822-.411-10.267-1.643-12.321-1.232-2.053-3.285 8.625-8.624 8.625s-12.321-10.268-14.374-10.268c-2.054 0 3.696 11.089 3.696 13.142m-46.8188 2.875-5.339-9.446c.2738 4.518.4928 13.553-.8214 13.553-1.6427 0-39.4262-26.695-28.3376-9.856 11.0886 16.838 11.4994 16.427 10.678 18.891s-18.0704 4.518-4.9283 5.75 15.6062 2.464 15.6062 4.518c0 2.053-1.2321 7.392 2.0535 4.517 2.6284-2.3 3.8331-2.875 4.1069-2.875" stroke="#232e53" stroke-linecap="round" stroke-linejoin="round" stroke-width="3.28552"/><path d="m81.442 314.527-12.7314 4.928-1.2321-8.214 10.2673-2.874z" fill="#d9d9d9"/><path d="m90.4771 317.402-2.8748 6.571 15.6067.821-2.875-8.214z" fill="#d9d9d9"/><path d="m110.19 319.455-2.464 4.518-.821 1.643h15.606l-2.054-4.518z" fill="#d9d9d9"/><path d="m143.045 320.277-15.195 4.517 1.232-8.214 9.857-2.874z" fill="#d9d9d9"/><path d="m162.348 320.277-14.374-4.518 5.339-7.392 9.035 4.107z" fill="#d9d9d9"/><path d="m169.74 318.223-3.696 7.393h17.249l-4.518-7.393z" fill="#d9d9d9"/><path d="m200.542 316.58-12.731 5.339-1.232-7.803 7.803-3.285z" fill="#d9d9d9"/><path d="m204.649 317.812-3.286 6.572h13.553v-3.697z" fill="#d9d9d9"/><path d="m221.898 316.58-3.696 7.804h13.963l-2.875-7.804z" fill="#d9d9d9"/><path d="m236.683 319.866-1.643 4.518-.821.821h15.195l-2.053-5.339z" fill="#d9d9d9"/><path d="m254.753 311.241-.821 6.982 16.017-3.285-5.339-5.339z" fill="#d9d9d9"/><path d="m81.442 314.527-12.7314 4.928-1.2321-8.214 10.2673-2.874z" stroke="#232e53" stroke-linecap="round" stroke-linejoin="round" stroke-width="2.46414"/><path d="m90.4771 317.402-2.8748 6.571 15.6067.821-2.875-8.214z" stroke="#232e53" stroke-linecap="round" stroke-linejoin="round" stroke-width="2.46414"/><path d="m110.19 319.455-2.464 4.518-.821 1.643h15.606l-2.054-4.518z" stroke="#232e53" stroke-linecap="round" stroke-linejoin="round" stroke-width="2.46414"/><path d="m143.045 320.277-15.195 4.517 1.232-8.214 9.857-2.874z" stroke="#232e53" stroke-linecap="round" stroke-linejoin="round" stroke-width="2.46414"/><path d="m162.348 320.277-14.374-4.518 5.339-7.392 9.035 4.107z" stroke="#232e53" stroke-linecap="round" stroke-linejoin="round" stroke-width="2.46414"/><path d="m169.74 318.223-3.696 7.393h17.249l-4.518-7.393z" stroke="#232e53" stroke-linecap="round" stroke-linejoin="round" stroke-width="2.46414"/><path d="m200.542 316.58-12.731 5.339-1.232-7.803 7.803-3.285z" stroke="#232e53" stroke-linecap="round" stroke-linejoin="round" stroke-width="2.46414"/><path d="m204.649 317.812-3.286 6.572h13.553v-3.697z" stroke="#232e53" stroke-linecap="round" stroke-linejoin="round" stroke-width="2.46414"/><path d="m221.898 316.58-3.696 7.804h13.963l-2.875-7.804z" stroke="#232e53" stroke-linecap="round" stroke-linejoin="round" stroke-width="2.46414"/><path d="m236.683 319.866-1.643 4.518-.821.821h15.195l-2.053-5.339z" stroke="#232e53" stroke-linecap="round" stroke-linejoin="round" stroke-width="2.46414"/><path d="m254.753 311.241-.821 6.982 16.017-3.285-5.339-5.339z" stroke="#232e53" stroke-linecap="round" stroke-linejoin="round" stroke-width="2.46414"/><path d="m56.3895 176.125 16.0169 26.694-13.5527 14.374-17.6597 10.268-17.6596-15.606-1.6428-15.607 19.3024-18.891z" fill="#d9d9d9"/><path d="m311.839 293.582 3.696 18.07 13.142-1.232 4.928-5.75-2.053-11.088-6.982-4.928z" fill="#d9d9d9"/><path d="m311.839 294.403 3.285 17.66m-3.285-17.66 13.142-5.339 6.571 4.518m-19.713.821 8.624 2.464m-5.339 15.196 13.142-1.643 5.339-5.75m-18.481 7.393 7.393-7.393m11.088 0-2.053-11.088m2.053 11.088h-11.088m9.035-11.088-11.089 3.285m0 0 2.054 7.803" stroke="#232e53" stroke-linejoin="round" stroke-width="1.5"/><path d="m40.3727 228.693c4.6545-2.875 15.0313-9.364 19.3024-12.321 4.2712-2.957 11.0887-10.267 13.9635-13.553m-33.2659 25.874-2.8748-16.017m2.8748 16.017-16.0169-14.785-3.2855-18.481m52.5683 7.392-16.4276-6.16m16.4276 6.16-17.249-26.694-13.9634.821m14.7848 19.713-19.7131 16.017m19.7131-16.017-14.7848-19.713m-4.9283 35.73-16.4276-17.249m0 0 21.3559-18.481" stroke="#232e53" stroke-linejoin="round" stroke-width="2.29"/><path d="m145.509 195.838c-1.369.41-3.778 2.053-2.464 5.339 1.314 3.285 2.738 4.928 3.286 5.339m0 0c-.548 1.369-1.643 4.517-1.643 6.16 0 .55.123 1.605.307 2.875m1.336-9.035c.137.273 2.382.41 5.339-1.233 2.957-1.642 3.012-2.601 3.286-2.874m-9.961 13.142c.365 2.523 1.793 5.069 2.157 6.981zm0 0-7.699 3.696" stroke="#232e53" stroke-linecap="round" stroke-linejoin="round" stroke-width="2.46414"/><path d="m173.847 189.267c1.643-9.172 9.692-26.777 28.748-23.82s19.713 23.409 17.66 33.265c0 0-16.017-3.688-27.927-3.688s-19.713 3.688-19.713 3.688c1.095 5.613 7.557 16.592 24.641 15.607 17.085-.986 22.451-7.53 22.999-10.678m-102.262-30.802c.137 4.244 1.971 13.471 8.214 16.428 6.242 2.957 12.184-2.328 14.374-5.339-1.643-4.51-7.885-10.917-11.499-15.188s-7.94-6.579-8.214-8.222c2.19-7.392 8.707-20.288 17.249-12.731s6.023 23.957 3.696 31.212" stroke="#232e53" stroke-linecap="round" stroke-linejoin="round" stroke-width="3"/><path d="m203.416 206.926c.329-3.614-1.642-9.164-2.464-10.259h-13.142l-13.964 2.456c1.096 2.601 4.436 8.625 9.036 11.91 4.599 3.286 13.416 3.012 17.249 2.464.958-.684 2.957-2.957 3.285-6.571z" fill="#232e53"/><path d="m122.921 176.946c-1.314 2.628-.548 7.119 0 9.035 1.643 1.369 5.832 4.107 9.446 4.107s6.982-4.107 8.214-6.16l-9.857-12.313c-1.095.137-6.489 2.702-7.803 5.331z" fill="#232e53"/><path d="m203.416 206.926c.329-3.614-1.642-9.164-2.464-10.259h-13.142l-13.964 2.456c1.096 2.601 4.436 8.625 9.036 11.91 4.599 3.286 13.416 3.012 17.249 2.464.958-.684 2.957-2.957 3.285-6.571z" stroke="#232e53" stroke-linecap="round" stroke-linejoin="round" stroke-width="3.28552"/><path d="m122.921 176.946c-1.314 2.628-.548 7.119 0 9.035 1.643 1.369 5.832 4.107 9.446 4.107s6.982-4.107 8.214-6.16l-9.857-12.313c-1.095.137-6.489 2.702-7.803 5.331z" stroke="#232e53" stroke-linecap="round" stroke-linejoin="round" stroke-width="3.28552"/><path d="m105.672 311.241c-1.916-.41-6.0779-1.889-7.3921-4.517-1.3142-2.629-2.1903-4.381-2.4641-4.928-4.5176-1.643-12.8135-6.818-9.8565-14.375 2.9569-7.556 10.8149-2.601 14.3747.822m16.838 9.035c-.411 1.506-1.972 4.518-4.928 4.518-3.697 0-9.036-.822-10.268-6.982s1.232-9.857 4.929-11.499c2.957-1.315 4.791-1.096 5.339-.822m10.267 12.321c-4.655-1.917-12.732-8.542-7.803-19.713 6.16-13.964 20.123 5.749 20.123 6.16m4.518 4.518c1.232-3.012 5.257-8.214 11.499-4.929 7.803 4.107 5.173 12.436 3.286 16.839-.77 1.797-2.985 2.695-5.339 2.875m-8.214-8.625c-.821 2.053-.977 6.689 4.107 8.214 1.232.369 2.695.52 4.107.411m0 0c.274 1.095.328 3.696-1.643 5.338-1.971 1.643-4.654 3.149-5.75 3.697" stroke="#232e53" stroke-linecap="round" stroke-linejoin="round" stroke-width="3.28552"/><path d="m193.149 305.492c-.684-1.369-2.217-4.189-2.875-4.518-.821-.411-10.678-4.107-7.392-13.553 2.628-7.556 11.499-3.148 15.606 0m14.785 11.91c-3.149 2.601-10.596 6.325-15.195.411-5.75-7.392 6.571-16.017 8.624-16.838 1.643-.657 4.244-1.369 5.339-1.643m6.571 13.142c-3.422-3.422-8.953-11.91-3.696-18.481s14.785 3.559 18.892 9.446m12.32 15.606c-2.19 3.423-8.049 9.2-13.963 4.928-7.393-5.339.411-15.195 5.339-17.249 4.928-2.053 11.088-.821 14.374 4.107 2.628 3.943 3.833 10.131 4.107 12.732" stroke="#232e53" stroke-linecap="round" stroke-width="3.28552"/><ellipse cx="122.885" cy="285.289" fill="#f9b3ac" rx="3.69621" ry="5.33897" transform="matrix(.81009383 -.58630025 .58630025 .81009383 -143.928393 126.225647)"/><ellipse cx="221.451" cy="286.932" fill="#f9b3ac" rx="3.69621" ry="5.33897" transform="matrix(.81009383 -.58630025 .58630025 .81009383 -126.173393 184.326934)"/><ellipse cx="189.509" cy="294.643" fill="#f9b3ac" rx="2.73479" ry="3.27018" transform="matrix(.68639989 -.72722431 .72722431 .68639989 -154.841508 230.21563)"/><ellipse cx="94.4701" cy="294.19" fill="#f9b3ac" rx="2.76137" ry="3.98864" transform="matrix(.66541147 -.74647677 .74647677 .66541147 -187.997391 168.952335)"/><path d="m130.724 308.777c-2.3 1.972-9.446 1.643-12.731 1.232-2.053-.41-1.971-1.889-1.643-2.874.411-1.233 2.464-6.161 6.16-6.572 3.697-.41 5.339 1.643 6.982 2.465 1.643.821 4.107 3.285 1.232 5.749z" fill="#f9b3ac"/><path d="m228.737 311.679c-3.038 2.281-11.957 1.292-16.036.512-2.536-.68-2.314-2.524-1.823-3.731.613-1.509 3.583-7.512 8.242-7.727 4.66-.215 6.732 2.095 8.115 3.937 1.233 1.643 5.3 4.157 1.502 7.009z" fill="#f9b3ac"/><path d="m90.5 278.5c1.6428-3.833 7.5336-12.352 13.119-18.595 5.585-6.242 14.1-13.279 17.66-16.017m21.356 10.268c-8.899-1.78-29.159-11.171-39.016-34.498-12.3207-29.159-2.875-36.962 2.053-41.48 4.929-4.518 8.185-8.375 9.828-16.178s3.84-22.108 10-29.5c4.928-5.914 9.468-11.545 11.385-13.051-1.369-6.16-3.696-21.1091-2.054-31.6228 2.054-13.1421 2.574-25.5573 29.159-14.3741 21.51 9.0479 25.51 18.0479 30.01 21.5479 6.297-.2738 24.612-.5206 36.111 3.0935 11.5 3.6145 17.934 7.2555 19.714 8.6245m-31.213 16.838c6.434-3.833 21.438-12.238 29.98-15.195 10.678-3.697 24.462-12.1023 33.408 1.639 8.5 13.056 10.679 28.608 11.5 36 .657 5.914-.69 17.941-.964 23.143" stroke="#232e53" stroke-linecap="round" stroke-linejoin="round" stroke-width="3"/><path d="m271.18 178.589c1.779-6.298 5.01-22.506 3.696-36.962-1.643-18.071-.822-32.445-18.07-27.517-13.8 3.943-27.654 13.142-32.856 17.249 6.161-2.601 19.303-6.735 22.588-2.464 3.286 4.271-4.928 8.898-9.446 10.678 2.738-.547 8.625-.986 10.268 1.643 1.642 2.628-3.149 5.75-5.75 6.982m-98.976-68.9963c1.779-.8213 6.078-.0821 9.035 9.4459 3.696 11.9104 4.928 16.4274 8.214 20.9454 2.628 3.614 4.928 6.708 5.749 7.803-3.696-5.202-11.91-15.36-15.195-14.374-3.286.985 1.369 7.803 4.107 11.088-2.191-1.779-7.228-4.928-9.857-3.285-2.628 1.643.548 5.065 2.464 6.571" stroke="#232e53" stroke-linecap="round" stroke-linejoin="round" stroke-width="3"/><path d="m293.768 149.43c5.202 6.434 15.031 25.052 12.731 48.05-2.567 25.676-16.049 42.588-24.999 49.346m-16.48 7.33c1.095-.548 4.98-4.156 11.088-5.656.981-.241 4.321-.865 5.392-1.674m0 0c4.381 2.332 11.611 8.069 15.553 19.24 3.943 11.17 5.202 21.629 5.339 25.462" stroke="#232e53" stroke-linecap="round" stroke-linejoin="round" stroke-width="3"/><path d="m215.326 203.23c0 16.956-12.298 30.391-27.105 30.391s-27.106-13.435-27.106-30.391 12.299-30.391 27.106-30.391 27.105 13.435 27.105 30.391z" stroke="#232e53" stroke-width="3.28552"/><path d="m139.759 176.946c0 8.56-2.36 16.237-6.091 21.728-3.737 5.499-8.727 8.663-14.032 8.663s-10.296-3.164-14.033-8.663c-3.731-5.491-6.0911-13.168-6.0911-21.728 0-8.561 2.3601-16.238 6.0911-21.728 3.737-5.499 8.728-8.663 14.033-8.663s10.295 3.164 14.032 8.663c3.731 5.49 6.091 13.167 6.091 21.728z" stroke="#232e53" stroke-width="3.28552"/><path d="m159.489 198.123c.128.899.961 1.523 1.859 1.394.898-.128 1.522-.96 1.394-1.858zm-20.506-7.823c1.053-1.301 3.005-3.156 5.337-4.399 2.334-1.243 4.823-1.764 7.165-.853l1.191-3.062c-3.573-1.389-7.107-.473-9.9 1.015-2.794 1.489-5.073 3.658-6.347 5.232zm12.502-5.252c2.418.94 4.295 3.165 5.664 5.831 1.356 2.642 2.088 5.48 2.34 7.244l3.253-.464c-.296-2.069-1.124-5.268-2.67-8.28-1.534-2.988-3.9-6.034-7.396-7.393z" fill="#232e53"/><rect fill="#232e53" height="8.24575" rx="3.28552" transform="matrix(.9302883 .36682923 -.36682923 .9302883 91.996712 -64.170949)" width="10.7025" x="214.835" y="209.962"/><rect fill="#232e53" height="8.24575" rx="3.28552" transform="matrix(.9302883 .36682923 -.36682923 .9302883 64.413589 -23.472084)" width="10.0927" x="93.9629" y="157.739"/><path d="m258.039 211.033c9.199-3.285 27.653-13.142 35.73-17.66h9.446c4.106 0 11.91-2.464 11.499-5.338-.411-2.875-8.625-3.286-13.553-3.286s-28.748 14.374-36.962 18.07c-8.214 3.697-39.426 9.446-38.605 14.374.821 4.929 20.945-2.053 32.445-6.16z" fill="#232e53"/><path d="m220.255 234.032 13.552 8.624m-12.731-13.553c4.107.822 13.06 2.711 16.017 3.697 2.957.985 6.16 2.327 7.392 2.875m-23.409-10.678c6.16.136 18.974.492 20.945.821m-144.5625-35.73-13.1421-3.696m14.7848-1.232c-2.4641-1.643-8.1316-5.175-11.0886-6.161m14.3744.822-11.4996-6.982" stroke="#232e53" stroke-linecap="round" stroke-width="2.46414"/><rect fill="#ff5391" height="46.0486" rx="1.18073" width="75.5669" x="311.839" y="74.2301"/><path d="m345.879 106.864c-.837 0-1.576-.176-2.215-.529-.639-.352-1.107-.865-1.405-1.537l1.306-.76c.342.881 1.113 1.322 2.314 1.322.738 0 1.317-.176 1.736-.529s.628-.876.628-1.57v-8.1828h1.521v8.1828c0 1.157-.369 2.049-1.108 2.678-.727.617-1.653.925-2.777.925zm11.267 0c-1.08 0-2.005-.253-2.777-.76-.76-.507-1.295-1.201-1.603-2.083l1.322-.76c.452 1.399 1.483 2.099 3.092 2.099.793 0 1.399-.16 1.818-.479.419-.331.628-.766.628-1.306 0-.551-.209-.964-.628-1.24-.419-.275-1.119-.568-2.1-.876-.484-.154-.854-.276-1.107-.364-.253-.099-.573-.242-.959-.43-.374-.198-.655-.396-.843-.595-.187-.209-.358-.479-.512-.8096-.144-.3306-.215-.7053-.215-1.1241 0-1.0028.352-1.7962 1.058-2.3803.705-.5951 1.565-.8926 2.578-.8926.915 0 1.709.2314 2.381.6942.683.4629 1.196 1.0745 1.537 1.8349l-1.289.7438c-.496-1.1901-1.372-1.7852-2.629-1.7852-.628 0-1.135.1543-1.52.4628-.386.3086-.579.7274-.579 1.2563 0 .507.182.8927.546 1.1571.363.2645.991.54 1.884.8267.32.099.546.171.678.215s.336.121.611.231c.287.11.496.199.629.265.132.066.308.159.529.281.231.121.402.237.512.347s.237.248.38.413c.154.154.265.314.331.479.066.166.121.359.165.579.055.209.083.435.083.678 0 1.014-.369 1.824-1.108 2.43-.738.595-1.702.892-2.893.892z" fill="#fff"/><path d="m311.839 75.4108c0-.6521.528-1.1807 1.181-1.1807h73.205c.652 0 1.181.5286 1.181 1.1807v7.0844h-75.567z" fill="#9e3058"/><circle cx="318.333" cy="78.3626" fill="#fefefe" r="1.7711"/><circle cx="325.417" cy="78.3626" fill="#fefefe" r="1.7711"/><circle cx="332.502" cy="78.3626" fill="#fefefe" r="1.7711"/></svg>