<svg fill="none" height="323" viewBox="0 0 182 323" width="182" xmlns="http://www.w3.org/2000/svg"><path d="m15.7138 304.427c.8 0 1.3333 6.667 1.5 10 2.1667 1.167 7.9001 3.8 13.5001 5 7 1.5 38.5 2.5 47.5 3 0 0 83.0001-1.5 83.0001-5s-2.5-68.7-2.5-71.5-1.667-7.833-2.5-10c-1.167-3-4.8-9.1-10-9.5-6.5-.5-85.0001 6.5-99.5001 6.5h-28.5001c-2 0-9.99995 3.5-9.49995 5.5s4.49995-.5 5.99995-1-.5 11 0 35.5-1.5 23-3.5 25.5-1.5 6-1 7 4.5-1 5.5-1z" fill="#d9d9d9"/><path d="m39.2138 242.928c-5 1-10-2-14.5-5.5-3.5999-2.8-7.8333-.167-9.5 1.5-1.5.166-4.7999.499-5.99993.499-1.5 0-.5-1.999-.5-3 0-1 6.49993-13 6.49993-15.5s-5.99993-24-7.99993-32-4.00003-18.5-5.00003-33.5 2.5-21 10.99996-28.5c6.8-6 19.5-5.166 25-4 0-2.333 2.1-8.999 10.5-17 8.4-7.9996 19.8334-5 24.5-2.5-.1666-4.6662 2.5-16.2994 14.5-25.4994 15.0002-11.5 34.0002 9 39.0002 15 4 4.8 9.667 16.6664 12 22.0004 1 0 4.4.2 10 1 7 1 13.5 6 18.5 13.5s1.5 20.5-1 24-10 14.5-12 21 2 22 3.5 26 5 16 3.5 17c-1.2.8-6.167-3-8.5-5 1.667 3 5.5 9.7 7.5 12.5 2.5 3.5 3 6.5 1 8.5-1.6 1.6-5.667-.667-7.5-2l4 7.5h-7c-5 0-17-2-21.5-3s-3.5 4-8 4.5-10-1.5-13.5-1.5-13.5002 5.5-23.5002 7.5-17-4.5-19-7.5c-2-3.001-2.5 0-6 0s-2.5 0-4.5 3-4 1-6 0-4.5 0-9.5 1z" fill="#fefefe"/><path d="m48.2139 206.927c-10.4-.4-13.6667-10.833-14-16l1-8.5c1-1 3.6-3.5 6-5.5 3-2.5 3-5 5-10.5 1.6-4.4.3333-11.166-.5-14 .3333.667 1.3 2.4 2.5 4 1.5 2 11 7.5 15 9s9-1.5 11.5-2.5c2-.8 6.8333-5.333 9-7.5 4.1666.334 13.8 2 19.0001 6 6.5 5 14.5 20 3.5 32.5-11.0001 12.5-23.0001 5.5-34.0001 5.5s-11 8-24 7.5z" fill="#f9b3ac"/><ellipse cx="97.7139" cy="102.927" fill="#f9b3ac" rx="14" ry="14.5"/><ellipse cx="137.766" cy="140.539" fill="#f9b3ac" rx="14" ry="14.5" transform="matrix(.7635301 .64577224 -.64577224 .7635301 123.333697 -55.732215)"/><path d="m17.7137 314.927c-.6667-.666-1.9-3-1.5-7 .5-5-2-4-4.5-3s-2.49998-4 1-8c3.5-4 2.4999-9 2.4999-14s-1-38 0-43c1.0001-5-4 .5-5.99997-1.5-2-2 5.99997-10 5.99997-16.5s-7.49967-29.5-8.49967-35-3.5-17.5-4-26m0 0c-.5-8.5-1.999995-27 10.49997-34 10-5.6 20.8333-5.333 25-4.5m-35.49997 38.5c.99998 9.334 7.59997 26.9 25.99997 22.5 23-5.5 18.5-29.5 16.5-33m-7-28c.8333-4.666 4.8-15.1 14-19.5 9.2-4.3995 18.1666-.833 21.5 1.5m-35.5 18c0 1.167.3 5.3 1.5 12.5 1.5 9 3.5 12 5.5 15.5m28.5-46c-.3334-5.8328 2-19.2995 14-26.4995 15.0001-9 31.5001 7 36.5001 12.5s14 24.4995 15 24.9995m-65.5001-11c1.6666 3.167 5.8 10.8 9 16 4 6.5 11 31.5-7 42-14.4 8.4-26.3334-4.5-30.5-12m28.5-46c3.8333 5.5 12.6 17 17 19m48.5001-8c1 .5 25.5-1.5 30 20s-15.5 24-15.5 45 16 45.5 2.5 34.5 7 10 6 16-8 .5-8.5 1 4.5 4.5 4.5 11.5c0 5.6 1.667 50.667 2.5 72.5m-21.5-200.5c-2 .334-7.3 2-12.5 6s-9.167 8.334-10.5 10" stroke="#232e53" stroke-linecap="round" stroke-width="3"/><g fill="#d9d9d9"><path d="m32.2139 192.927c-1.6 0-7.3334-5.333-10-8 1.1666-.5 4.1-1.5 6.5-1.5s5.6666-1.666 7-2.5c-.5 4-1.9 12-3.5 12z"/><path d="m76.7139 172.927c-4 0-9.8334-5.666-12-8 0 0 4.5-.499 6-1 1.5-.5 5-2 5-2 .5 1 1.1 3.7 1.5 6.5s-.1667 4.167-.5 4.5z"/><path d="m80.2139 72.4274c-2 1.2-.8334 8.1667 0 11.5.8333-.8333 2.9-2.7999 4.5-3.9999s4.6666-3.1667 6-4.0001c-2.6667-1.6667-8.5-4.7-10.5-3.5z"/><path d="m180.714 134.427c-1.6-2-8.333-1.833-11.5-1.5l1 4.5c.8 2.4-.333 6.667-1 8.5 4.5-3 13.1-9.5 11.5-11.5z"/></g><path d="m32.2139 192.927c-1.6 0-7.3334-5.333-10-8 1.1666-.5 4.1-1.5 6.5-1.5s5.6666-1.666 7-2.5c-.5 4-1.9 12-3.5 12z" stroke="#232e53" stroke-linecap="round" stroke-width="2"/><path d="m76.7139 172.927c-4 0-9.8334-5.666-12-8 0 0 4.5-.499 6-1 1.5-.5 5-2 5-2 .5 1 1.1 3.7 1.5 6.5s-.1667 4.167-.5 4.5z" stroke="#232e53" stroke-linecap="round" stroke-width="2"/><path d="m80.2139 72.4274c-2 1.2-.8334 8.1667 0 11.5.8333-.8333 2.9-2.7999 4.5-3.9999s4.6666-3.1667 6-4.0001c-2.6667-1.6667-8.5-4.7-10.5-3.5z" stroke="#232e53" stroke-linecap="round" stroke-width="2"/><path d="m180.714 134.427c-1.6-2-8.333-1.833-11.5-1.5l1 4.5c.8 2.4-.333 6.667-1 8.5 4.5-3 13.1-9.5 11.5-11.5z" stroke="#232e53" stroke-linecap="round" stroke-width="2"/><path d="m110.214 5.42743c12.8 11.59997-11.3337 31.83337-25.0003 40.49997-1.3334-.9999-5-3.4999-9-5.4999-5-2.5-29-20.0001-13.5-35.00007 12.4-12.00001 20.1666-1.33334 22.5 5.49997 3-6.66663 12.2-17.09997 25.0003-5.49997z" fill="#ff5391"/><path d="m139.714 36.9275c10.8 8.4-5.5 25.8333-15 33.5-2.5-1.1667-8.3-3.8-11.5-5-4-1.5-22.0001-16-9.5-27 10-8.8 15.833-.3333 17.5 5 1.667-5.6667 7.7-14.9 18.5-6.5z" fill="#ff5391"/><path d="m172.214 99.9275c-4 8.3995-16.667 8.8335-22.5 7.9995-4.667-7.666-11.7-23.7995-2.5-26.9995s11.833 4.3333 12 8.5c.167-.3333 1.1-1.1 3.5-1.5 3-.5 14.5 1.5 9.5 12z" fill="#ff5391"/></svg>