<svg fill="none" height="20" viewBox="0 0 20 20" width="20" xmlns="http://www.w3.org/2000/svg"><path d="m10.0228 0h-.04558c-5.51027 0-9.97722 4.46696-9.97722 9.97723v.04557c0 5.5102 4.46695 9.9772 9.97722 9.9772h.04558c5.5102 0 9.9772-4.467 9.9772-9.9772v-.04557c0-5.51027-4.467-9.97723-9.9772-9.97723z" fill="#ff5391"/><path d="m3.78842 9.6583c.02803-.01401.05607-.02733.08339-.03994.47508-.22002.95646-.42602 1.43714-.63203.02592 0 .06935-.03013.09388-.03994.03713-.01611.07428-.03153.11142-.04764.07147-.03084.14294-.06096.21371-.0918.14294-.06096.28518-.12192.42812-.18288l.85555-.36646c.57036-.24385 1.14144-.48839 1.71181-.73223.57037-.24385 1.14143-.48839 1.71176-.73223.5704-.24385 1.1415-.48839 1.7118-.73223.5704-.24384 1.1415-.48838 1.7119-.73223.1268-.05465.2641-.13593.4001-.15976.1142-.02032.2256-.05956.3405-.08128.2179-.04134.4582-.05815.667.03224.0722.03153.1388.07567.1941.13103.2649.26206.2278.69228.1717 1.06085-.3903 2.56875-.7806 5.13823-1.1716 7.70693-.0532.3525-.1261.7393-.4043.9621-.2354.1885-.5703.2095-.8611.1296-.2908-.0806-.5473-.2494-.7988-.4155-1.0433-.6909-2.0874-1.3818-3.13072-2.0727-.24804-.1639-.52412-.3783-.52131-.6761.0014-.1794.1086-.3392.2179-.4814.90671-1.1828 2.21493-1.99559 3.18813-3.12371.1374-.15906.2453-.44634.0568-.53814-.1121-.05465-.241.01962-.3433.09039-1.2865.89339-2.57229 1.78748-3.85877 2.68086-.41972.2915-.85976.5914-1.36566.6629-.45265.0644-.9081-.0617-1.34604-.1906-.36716-.1079-.73364-.2186-1.0987-.3329-.1941-.0602-.3945-.1254-.54445-.262s-.23612-.3665-.14573-.54866c.05676-.11421.16677-.18638.28238-.24524z" fill="#fefffc"/></svg>