<svg xmlns="http://www.w3.org/2000/svg" fill="none" viewBox="0 0 40 40"><path fill="#fff" d="M30.15 20.168q.002.012.015.014a.014.014 0 0 0 .013-.014.014.014 0 0 0-.013-.014.014.014 0 0 0-.015.014M30.083 21.429a.031.031 0 0 0 0 .062.031.031 0 0 0 0-.062M29.897 22.733a.054.054 0 1 0-.108 0c0 .03.024.053.054.053s.054-.024.054-.053M29.445 23.87a.094.094 0 1 0 0 .188.094.094 0 0 0 0-.188M28.897 24.993a.143.143 0 0 0 0 .286.143.143 0 0 0 0-.286M28.205 26.075a.154.154 0 0 0 0 .309c.085 0 .154-.07.154-.155a.154.154 0 0 0-.154-.154M27.57 27.227a.185.185 0 0 0-.185-.186.185.185 0 0 0-.185.186c0 .103.083.186.185.186a.185.185 0 0 0 .185-.186M26.446 27.917a.197.197 0 0 0 0 .394.197.197 0 0 0 0-.394M25.404 28.666a.208.208 0 1 0 .001.417.208.208 0 0 0 0-.417M24.277 29.273a.226.226 0 0 0 0 .452.226.226 0 0 0 0-.452M23.078 29.747a.228.228 0 0 0 0 .457.228.228 0 0 0 0-.458M21.831 30.064a.233.233 0 0 0-.232.233.233.233 0 1 0 .466 0 .233.233 0 0 0-.234-.233M20.554 30.22a.24.24 0 0 0-.24.24.24.24 0 1 0 .479 0 .24.24 0 0 0-.24-.24M19.265 30.22a.24.24 0 0 0-.239.24.24.24 0 1 0 .478 0 .24.24 0 0 0-.239-.24M18.232 30.298a.245.245 0 1 0-.489 0 .245.245 0 1 0 .489 0M16.996 29.976a.256.256 0 1 0-.512 0 .257.257 0 1 0 .512 0M15.81 29.499a.268.268 0 1 0-.535 0 .268.268 0 1 0 .535 0M14.699 28.875a.285.285 0 0 0-.285-.286.286.286 0 0 0 0 .572.285.285 0 0 0 .284-.286M13.688 28.114a.317.317 0 0 0-.316-.318.317.317 0 0 0 0 .635.317.317 0 0 0 .316-.317M12.434 27.559a.331.331 0 0 0 0-.664.331.331 0 0 0 0 .664M11.613 26.587c.196 0 .355-.16.355-.358a.357.357 0 0 0-.355-.357.357.357 0 0 0 0 .715M11.313 25.136a.39.39 0 0 0-.39-.392.39.39 0 0 0-.389.392.39.39 0 0 0 .39.392.39.39 0 0 0 .39-.392M10.375 24.367c.22 0 .4-.18.4-.403a.402.402 0 1 0-.802 0c0 .222.18.403.402.403M9.977 23.158c.234 0 .424-.19.424-.426a.425.425 0 0 0-.424-.426.425.425 0 0 0-.423.426c0 .235.19.426.423.426M9.735 21.892a.43.43 0 0 0 0-.864.43.43 0 0 0 0 .864M9.654 20.605c.24 0 .435-.196.435-.438a.436.436 0 0 0-.435-.437.436.436 0 0 0-.435.437c0 .242.195.438.435.438M9.735 19.315a.44.44 0 0 0 .438-.44.44.44 0 0 0-.438-.441.44.44 0 0 0-.438.44c0 .244.196.441.438.441M10.417 17.602a.44.44 0 0 0-.441-.443.44.44 0 0 0-.44.443c0 .245.197.443.44.443a.44.44 0 0 0 .44-.443M10.375 15.913a.456.456 0 0 0-.455.458c0 .252.204.457.455.457a.456.456 0 0 0 .455-.457.456.456 0 0 0-.455-.458M10.923 14.727a.47.47 0 0 0-.469.472.47.47 0 1 0 .938 0 .47.47 0 0 0-.469-.472M11.613 13.607a.496.496 0 0 0-.495.498c0 .275.221.498.495.498a.496.496 0 0 0 .495-.498.496.496 0 0 0-.495-.498M12.433 13.616a.508.508 0 0 0 0-1.018.51.51 0 0 0-.506.51c0 .28.227.508.506.508M13.373 11.686a.533.533 0 0 0-.532.535.533.533 0 1 0 1.064 0 .533.533 0 0 0-.532-.535M14.414 10.913c-.3 0-.543.245-.543.546s.243.547.543.547.543-.245.543-.547a.545.545 0 0 0-.543-.546M15.543 10.284a.55.55 0 0 0-.549.552.55.55 0 0 0 .549.551.55.55 0 0 0 .549-.551.55.55 0 0 0-.549-.552M16.74 9.798a.56.56 0 0 0-.557.56c0 .31.249.561.557.561a.56.56 0 0 0 0-1.12M17.987 9.47a.565.565 0 0 0 0 1.133c.311 0 .563-.254.563-.566a.564.564 0 0 0-.563-.567M28.804 14.105c0-.332-.267-.6-.597-.6a.6.6 0 0 0-.598.6.6.6 0 0 0 .598.601c.33 0 .597-.27.597-.6M31.19 20.162a.006.006 0 1 0 0 .011.006.006 0 0 0 0-.011M31.117 21.438a.023.023 0 1 0 0 .045c.012 0 .023-.01.023-.023a.023.023 0 0 0-.023-.022M30.898 22.686a.051.051 0 0 0 0 .102.051.051 0 0 0 0-.103M30.534 24.065a.085.085 0 1 0 0-.17.085.085 0 0 0 0 .17M29.914 25.173a.12.12 0 1 0 .12-.12.12.12 0 0 0-.12.12M29.399 26.158a.14.14 0 0 0-.142.142.142.142 0 1 0 .284 0 .14.14 0 0 0-.142-.143M28.48 27.348c0 .09.073.164.162.164s.162-.074.162-.164a.163.163 0 0 0-.162-.163.163.163 0 0 0-.162.163M27.77 28.483a.18.18 0 0 0 .18-.18.18.18 0 1 0-.358 0c0 .1.08.18.179.18M26.798 28.954a.197.197 0 0 0-.196.197.197.197 0 1 0 .392 0 .197.197 0 0 0-.196-.197M25.735 30.085a.203.203 0 0 0 0-.406.2.2 0 0 0-.202.203c0 .112.09.203.202.203M24.596 30.704a.217.217 0 0 0 0-.435.217.217 0 0 0 0 .435M23.165 30.956c0 .129.103.232.23.232.128 0 .23-.103.23-.232a.23.23 0 1 0-.46 0M21.917 31.286a.233.233 0 1 0 .466 0 .234.234 0 0 0-.233-.235.234.234 0 0 0-.233.235M20.636 31.47c0 .133.107.24.239.24a.24.24 0 0 0 0-.48.24.24 0 0 0-.24.24M19.348 31.507c0 .133.106.24.238.24a.24.24 0 0 0 .24-.24.24.24 0 0 0-.24-.24.24.24 0 0 0-.238.24M18.303 31.642a.245.245 0 0 0 0-.491.245.245 0 0 0 0 .491M17.042 31.391a.25.25 0 0 0 .25-.252.25.25 0 1 0-.501 0c0 .14.112.252.25.252M15.816 31.002a.263.263 0 0 0 0-.526.26.26 0 0 0-.261.263c0 .145.117.263.261.263M14.645 30.475a.274.274 0 0 0 0-.549.274.274 0 0 0 0 .55M13.542 29.835a.303.303 0 0 0 .301-.303.302.302 0 1 0-.603 0c0 .167.135.303.302.303M12.522 29.067a.325.325 0 0 0 0-.652.325.325 0 0 0-.324.326c0 .18.145.326.324.326M11.598 28.181a.343.343 0 0 0 0-.686.34.34 0 0 0-.341.343c0 .19.152.343.34.343M10.783 26.467a.368.368 0 0 0 0 .737.367.367 0 0 0 .367-.368.37.37 0 0 0-.367-.37M10.087 26.138a.39.39 0 0 0 0-.784.39.39 0 0 0-.39.392.39.39 0 0 0 .39.392M9.518 24.987c.221 0 .401-.181.401-.404a.4.4 0 0 0-.4-.403.402.402 0 0 0 0 .806M9.504 23.363a.42.42 0 0 0-.418-.42.42.42 0 0 0-.418.42.419.419 0 1 0 .836 0M8.794 22.53a.428.428 0 0 0 0-.857.43.43 0 0 0-.427.429c0 .236.191.429.427.429M8.647 21.25a.434.434 0 0 0 .432-.435.433.433 0 1 0-.865 0c0 .24.194.435.433.435M8.647 19.96a.44.44 0 0 0 0-.88.44.44 0 0 0 0 .88M9.235 18.233a.44.44 0 0 0-.441-.444.44.44 0 0 0-.44.444c0 .244.197.443.44.443a.44.44 0 0 0 .441-.443M9.532 16.97a.448.448 0 1 0-.893 0c0 .25.2.45.446.45a.45.45 0 0 0 .447-.45M9.518 15.296a.453.453 0 0 0-.452.455c0 .251.202.455.452.455s.452-.204.452-.455a.454.454 0 0 0-.452-.455M10.547 14.589a.46.46 0 0 0-.46-.464.46.46 0 0 0-.461.464c0 .256.206.463.46.463.255 0 .461-.207.461-.463"/><path fill="#fff" d="M11.27 13.499c0-.27-.218-.49-.486-.49a.49.49 0 0 0-.486.49c0 .27.217.49.486.49a.49.49 0 0 0 .487-.49M12.096 12.496a.5.5 0 0 0-.498-.5.5.5 0 0 0-.497.5.5.5 0 0 0 .497.5.5.5 0 0 0 .498-.5M13.046 11.593a.524.524 0 1 0-1.047 0c0 .291.234.527.523.527a.525.525 0 0 0 .524-.527M13.542 11.337c.294 0 .532-.239.532-.534a.533.533 0 0 0-.532-.535.533.533 0 0 0-.531.535c0 .295.238.534.531.534M15.188 10.133a.545.545 0 0 0-.543-.546c-.3 0-.543.245-.543.546 0 .303.243.547.543.547s.543-.244.543-.547M16.365 9.596a.55.55 0 0 0-.549-.552.55.55 0 0 0-.548.552.55.55 0 0 0 .548.552.55.55 0 0 0 .55-.552M17.602 9.196a.56.56 0 0 0-.56-.564c-.31 0-.56.252-.56.564 0 .31.25.562.56.562.309 0 .56-.251.56-.562M18.87 8.938a.567.567 0 0 0-.567-.569.567.567 0 0 0-.566.569c0 .315.254.57.566.57a.567.567 0 0 0 .566-.57M32.215 20.157a.01.01 0 0 0-.01.01.01.01 0 1 0 .02 0 .01.01 0 0 0-.01-.01M32.117 21.46a.031.031 0 0 0 .063 0 .031.031 0 0 0-.063 0M32 22.74a.054.054 0 0 0-.054-.053.054.054 0 1 0 0 .108c.03 0 .054-.024.054-.055M31.614 23.894a.097.097 0 0 0 0 .195.098.098 0 0 0 0-.195M31.053 25.2a.1.1 0 0 0 .1.101.1.1 0 0 0 .099-.1.1.1 0 1 0-.2 0M30.567 26.498a.143.143 0 0 0 .142-.143.143.143 0 0 0-.142-.143.143.143 0 0 0-.142.143c0 .079.063.143.142.143M29.718 27.442a.148.148 0 1 0 .296 0 .148.148 0 1 0-.296 0M28.89 28.449a.165.165 0 1 0 .33 0 .166.166 0 0 0-.165-.167.166.166 0 0 0-.165.166M28.144 29.175a.189.189 0 0 0 0 .378.19.19 0 0 0 .188-.189.19.19 0 0 0-.188-.189M26.939 30.18a.205.205 0 1 0 .41 0 .205.205 0 1 0-.41 0M26.276 30.885a.214.214 0 0 0-.213-.215.214.214 0 0 0 0 .43.214.214 0 0 0 .213-.215M25.14 31.473a.225.225 0 1 0-.45 0 .225.225 0 1 0 .45 0M23.94 31.938a.228.228 0 1 0-.456 0 .228.228 0 1 0 .455 0M22.704 32.273a.237.237 0 0 0-.236-.238.237.237 0 0 0 0 .475c.13 0 .236-.106.236-.237M21.436 32.475a.24.24 0 1 0-.478 0c0 .133.107.24.238.24a.24.24 0 0 0 .24-.24M20.149 32.543a.24.24 0 1 0-.478 0c0 .133.107.24.239.24a.24.24 0 0 0 .239-.24M18.862 32.475a.24.24 0 1 0-.477 0c0 .133.106.24.239.24a.24.24 0 0 0 .238-.24M17.601 32.273a.25.25 0 1 0-.5 0 .25.25 0 1 0 .5 0M16.372 31.938a.265.265 0 1 0-.53 0 .265.265 0 1 0 .53 0M15.175 31.473c0-.15-.121-.272-.27-.272s-.27.122-.27.272.12.272.27.272a.27.27 0 0 0 .27-.272M14.046 30.885a.29.29 0 1 0-.58 0 .29.29 0 1 0 .58 0M12.677 30.491a.31.31 0 0 0 .31-.311.31.31 0 0 0-.31-.312.31.31 0 0 0-.31.312.31.31 0 0 0 .31.311M11.676 29.693c.18 0 .327-.147.327-.329a.33.33 0 0 0-.327-.329.328.328 0 0 0 0 .658M10.764 28.105a.34.34 0 0 0-.341.343.342.342 0 1 0 .682 0 .34.34 0 0 0-.341-.343M9.953 27.813a.37.37 0 0 0 .37-.371.37.37 0 0 0-.37-.372.37.37 0 0 0-.37.372.37.37 0 0 0 .37.371M9.251 25.975a.38.38 0 0 0-.378.38c0 .21.17.38.378.38a.38.38 0 0 0 .378-.38.38.38 0 0 0-.378-.38M8.668 25.604a.402.402 0 0 0 0-.806.4.4 0 0 0-.401.403c0 .223.18.403.4.403M8.615 23.992a.41.41 0 0 0-.41-.413.41.41 0 0 0-.41.413.41.41 0 1 0 .82 0M7.872 23.17a.43.43 0 0 0 .426-.43.43.43 0 0 0-.426-.429.43.43 0 0 0-.427.43c0 .236.191.428.427.428M8.103 21.46a.433.433 0 0 0-.433-.434.434.434 0 0 0-.432.435.433.433 0 1 0 .864 0M7.604 19.73a.436.436 0 0 0-.435.437c0 .242.195.438.435.438s.435-.196.435-.438a.436.436 0 0 0-.435-.437M7.67 18.433a.44.44 0 0 0 0 .88.44.44 0 0 0 .438-.44.44.44 0 0 0-.438-.44M8.319 17.594a.448.448 0 1 0-.893 0c0 .248.2.45.446.45a.45.45 0 0 0 .447-.45M8.205 16.8a.457.457 0 0 0 .455-.457.456.456 0 0 0-.455-.458.456.456 0 0 0-.455.458c0 .252.204.458.455.458M9.124 15.133a.46.46 0 0 0-.457-.46.46.46 0 0 0-.458.46c0 .255.205.461.458.461a.46.46 0 0 0 .457-.46M9.73 13.98a.479.479 0 1 0-.956 0 .479.479 0 1 0 .956 0M10.44 12.893a.488.488 0 1 0-.973 0c0 .27.218.489.486.489a.49.49 0 0 0 .487-.49"/><path fill="#fff" d="M11.268 11.886a.505.505 0 0 0-.504-.506.505.505 0 0 0-.503.506c0 .28.225.507.503.507a.505.505 0 0 0 .504-.507M11.676 11.488a.517.517 0 0 0 0-1.035.516.516 0 0 0-.515.517c0 .286.23.518.515.518M12.677 10.687a.53.53 0 0 0 .529-.532.53.53 0 0 0-.53-.532.53.53 0 0 0-.528.532.53.53 0 0 0 .529.532M14.296 9.45c0-.3-.241-.544-.54-.544a.54.54 0 0 0-.54.544.541.541 0 1 0 1.08 0M14.903 9.413a.55.55 0 0 0 .55-.552.55.55 0 1 0-1.098 0 .55.55 0 0 0 .548.552M16.106 8.955c.306 0 .555-.25.555-.558a.556.556 0 0 0-.555-.558.556.556 0 0 0-.554.558c0 .308.248.558.554.558M17.351 7.496a.564.564 0 0 0-.563.566c0 .312.252.566.563.566a.565.565 0 0 0 .563-.566.565.565 0 0 0-.563-.566M29.866 13.499a.605.605 0 0 0 .603-.606.605.605 0 0 0-.603-.606.605.605 0 0 0-.603.606c0 .335.27.606.603.606M33.24 20.162a.01.01 0 0 0-.005.006q0 .005.006.005a.006.006 0 1 0 0-.011M33.18 21.43a.03.03 0 0 0-.032.031c0 .018.014.032.032.032a.03.03 0 0 0 .03-.032.03.03 0 0 0-.03-.03M32.993 22.712a.03.03 0 0 0-.031.031c0 .018.014.032.031.032a.03.03 0 0 0 .031-.032.03.03 0 0 0-.03-.03M32.684 24.09a.088.088 0 0 0 0-.177.09.09 0 0 0-.088.089c0 .048.039.088.088.088M32.163 25.223c0 .052.042.095.094.095a.094.094 0 0 0 0-.19.094.094 0 0 0-.094.095M31.58 26.398c0 .074.06.134.133.134s.134-.06.134-.134a.134.134 0 0 0-.134-.135.134.134 0 0 0-.133.135M30.928 27.514a.134.134 0 1 0 .268.001.134.134 0 0 0-.268 0M30.304 28.406a.156.156 0 0 0-.156.157.156.156 0 1 0 .312 0 .156.156 0 0 0-.156-.157M29.629 29.533a.18.18 0 1 0-.358 0 .18.18 0 1 0 .358 0M28.31 30.414a.197.197 0 1 0 .394.002.197.197 0 0 0-.393-.002M27.69 31.201a.208.208 0 1 0-.415 0 .208.208 0 1 0 .415 0M26.39 32.105a.22.22 0 0 0 .218-.22.22.22 0 0 0-.219-.22.22.22 0 0 0 0 .44M25.233 32.685a.225.225 0 0 0 .225-.226.225.225 0 1 0-.449 0c0 .125.1.226.224.226M24.03 33.147a.228.228 0 0 0 0-.457.228.228 0 0 0 0 .458M22.786 33.493a.234.234 0 0 0 0-.469.233.233 0 0 0-.233.234c0 .13.104.235.233.235M21.516 33.714c.13 0 .236-.106.236-.237a.236.236 0 1 0-.472 0c0 .13.106.237.236.237M20.232 33.81a.24.24 0 0 0 0-.48.24.24 0 0 0 0 .48M18.944 33.78a.24.24 0 0 0 .239-.241.24.24 0 1 0-.478 0c0 .133.107.24.24.24M17.666 33.63c.134 0 .244-.11.244-.247a.245.245 0 0 0-.244-.246.245.245 0 0 0-.245.246c0 .136.11.246.245.246M16.407 33.35c.135 0 .245-.11.245-.247a.245.245 0 1 0-.49 0c0 .136.11.246.245.246M15.182 32.972a.268.268 0 0 0 0-.537.268.268 0 0 0 0 .537M14 32.464a.277.277 0 0 0 .277-.278.277.277 0 1 0-.552 0c0 .153.123.278.276.278M13.18 31.557a.305.305 0 0 0-.305-.307.305.305 0 0 0-.304.306c0 .17.136.306.304.306a.305.305 0 0 0 .305-.305M12.13 30.82a.316.316 0 1 0-.631 0c0 .176.141.318.316.318a.317.317 0 0 0 .315-.318M10.83 30.314c.18 0 .327-.147.327-.329a.328.328 0 1 0-.654 0c0 .182.146.329.327.329M9.93 29.401a.343.343 0 0 0 0-.687.34.34 0 0 0-.341.344c0 .19.152.343.34.343M9.124 28.42a.37.37 0 0 0 .37-.372.37.37 0 0 0-.37-.372.37.37 0 0 0-.37.372.37.37 0 0 0 .37.372M8.787 26.964a.37.37 0 1 0-.74 0 .37.37 0 1 0 .74 0M7.819 26.22c.221 0 .4-.18.4-.403a.402.402 0 1 0-.802 0c.001.223.18.403.402.403M7.743 24.617a.41.41 0 0 0-.41-.412.41.41 0 0 0-.41.412.41.41 0 1 0 .82 0M6.964 23.802a.425.425 0 0 0 .424-.426.425.425 0 0 0-.424-.427.425.425 0 0 0-.423.427c0 .235.19.426.423.426M6.717 22.533a.43.43 0 0 0 .427-.429.43.43 0 0 0-.427-.429.43.43 0 0 0-.426.43c0 .236.191.428.426.428M6.593 21.25a.433.433 0 0 0 .433-.435.433.433 0 1 0-.865 0c0 .24.194.435.432.435M6.593 19.96a.44.44 0 0 0 .438-.44.439.439 0 1 0-.876 0c0 .242.197.44.438.44M6.717 18.67a.44.44 0 0 0 .438-.44.439.439 0 1 0-.876 0c0 .243.196.44.438.44M7.409 16.959a.445.445 0 1 0-.888 0c0 .246.2.446.444.446.245 0 .444-.2.444-.446M7.333 16.17a.45.45 0 0 0 .45-.453.45.45 0 1 0-.899 0c0 .25.2.452.45.452M7.364 14.518c0 .252.204.457.455.457a.456.456 0 0 0 .455-.457.456.456 0 0 0-.455-.458.456.456 0 0 0-.455.457M8.898 13.37a.48.48 0 0 0-.48-.483.482.482 0 0 0 0 .966c.265 0 .48-.216.48-.483M9.124 11.8a.485.485 0 0 0-.483.487.484.484 0 1 0 .966 0 .485.485 0 0 0-.483-.487"/><path fill="#fff" d="M10.427 11.277a.5.5 0 0 0-.498-.501.5.5 0 0 0-.497.5.5.5 0 0 0 .497.501.5.5 0 0 0 .498-.5M10.83 9.84a.507.507 0 0 0-.506.51c0 .28.227.509.506.509.28 0 .506-.228.506-.51a.507.507 0 0 0-.506-.508M11.815 10.04a.525.525 0 0 0 .524-.526.525.525 0 0 0-.524-.526.525.525 0 0 0-.523.526c0 .29.234.526.523.526M12.344 8.778c0 .296.238.535.531.535s.532-.24.532-.535a.533.533 0 0 0-.532-.534.533.533 0 0 0-.531.534M14.544 8.149a.545.545 0 0 0-.543-.546c-.3 0-.543.244-.543.546 0 .301.243.546.543.546s.543-.245.543-.546M15.732 7.631a.55.55 0 0 0-.55-.552.55.55 0 0 0-.548.552.55.55 0 0 0 .549.552.55.55 0 0 0 .549-.552M16.97 7.23a.564.564 0 0 0-.562-.565.565.565 0 0 0-.563.566c0 .313.252.566.563.566s.563-.253.563-.566M18.234 6.951a.57.57 0 0 0-.568-.572.57.57 0 0 0-.57.572.57.57 0 0 0 .57.572.57.57 0 0 0 .568-.572M34.266 20.159q-.008 0-.008.009 0 .007.008.008.008-.001.009-.008a.01.01 0 0 0-.01-.009M34.209 21.433a.03.03 0 0 0-.028.028c0 .017.012.03.028.03a.03.03 0 0 0 .028-.03.03.03 0 0 0-.028-.028M34.084 22.746a.048.048 0 1 0-.097 0 .048.048 0 0 0 .097 0M33.83 24.009a.08.08 0 1 0-.16 0 .08.08 0 0 0 .16 0M33.351 25.344a.103.103 0 0 0 0-.206.103.103 0 0 0 0 .206M32.845 26.312a.12.12 0 0 0-.12.12.12.12 0 1 0 .24 0 .12.12 0 0 0-.12-.12M32.235 27.71a.137.137 0 0 0 0-.275.137.137 0 0 0 0 .275M31.379 28.654c0 .08.065.146.145.146a.146.146 0 0 0 0-.292.146.146 0 0 0-.145.146M30.722 29.501a.166.166 0 0 0 0 .332.166.166 0 0 0 0-.331M29.65 30.603c0 .101.08.184.181.184a.183.183 0 0 0 0-.367c-.1 0-.182.082-.182.183M28.862 31.648a.191.191 0 0 0 0-.384.191.191 0 0 0 0 .383M27.819 32.423a.205.205 0 0 0 .204-.206.205.205 0 1 0-.41 0c.001.114.092.206.206.206M26.713 33.096a.213.213 0 0 0 .212-.214.214.214 0 0 0-.213-.215.214.214 0 0 0 0 .429M25.552 33.67a.225.225 0 0 0 .224-.226.225.225 0 1 0-.449 0c0 .125.1.226.225.226M24.346 34.13a.23.23 0 0 0 .23-.23.23.23 0 1 0-.46 0c0 .127.102.23.23.23M23.105 34.479a.234.234 0 0 0 .233-.235.233.233 0 1 0-.466 0c0 .13.104.234.233.234M21.837 34.713c.13 0 .236-.107.236-.238a.237.237 0 0 0-.236-.237.237.237 0 0 0-.236.237c0 .131.105.238.236.238M20.554 34.831a.24.24 0 0 0 .239-.24.24.24 0 1 0-.479 0c0 .133.108.24.24.24M19.265 34.835a.243.243 0 0 0 .242-.244.24.24 0 0 0-.242-.243.24.24 0 0 0-.242.243c0 .135.109.244.242.244M17.982 34.718a.243.243 0 0 0 .242-.243.243.243 0 0 0-.242-.243.243.243 0 0 0-.242.243c0 .134.109.243.242.243M16.715 34.49c.135 0 .245-.11.245-.246a.245.245 0 1 0-.49 0c0 .136.11.246.245.246M15.473 34.156a.257.257 0 0 0 .256-.257.257.257 0 0 0-.256-.257.257.257 0 0 0 0 .514M14.266 33.716a.27.27 0 0 0 .27-.272.27.27 0 1 0-.54 0c0 .15.12.272.27.272M13.105 33.176a.294.294 0 0 0 0-.589.294.294 0 0 0-.293.295c0 .162.132.294.293.294M12 32.523a.305.305 0 0 0 .304-.306.305.305 0 1 0-.609 0c0 .17.137.306.305.306M10.957 31.773a.317.317 0 0 0 .316-.317.316.316 0 1 0-.631 0c0 .175.14.317.315.317M9.988 30.944a.34.34 0 0 0 .338-.34.34.34 0 0 0-.338-.34.34.34 0 0 0-.339.34c0 .187.152.34.339.34M9.098 30.022a.353.353 0 0 0 .352-.355.353.353 0 0 0-.352-.355.353.353 0 0 0-.353.355c0 .196.158.355.353.355M8.295 28.282a.37.37 0 0 0-.37.372.37.37 0 0 0 .37.372.37.37 0 0 0 .37-.372.37.37 0 0 0-.37-.372M7.968 27.573a.385.385 0 0 0-.384-.387.386.386 0 0 0 0 .773.385.385 0 0 0 .384-.386M6.973 26.835c.222 0 .401-.18.401-.403a.4.4 0 0 0-.4-.403.4.4 0 0 0-.402.403c0 .222.18.403.401.403M6.467 25.647a.405.405 0 0 0 .404-.406.405.405 0 0 0-.404-.406.405.405 0 0 0-.404.406c0 .224.181.406.404.406M6.07 24.429a.42.42 0 0 0 .418-.42.42.42 0 0 0-.418-.421.42.42 0 0 0-.418.42c0 .233.187.42.418.42M6.213 22.745a.43.43 0 0 0-.43-.432.431.431 0 0 0 0 .864c.237 0 .43-.193.43-.432M5.61 21.896a.434.434 0 0 0 0-.87.433.433 0 0 0-.432.435c0 .24.193.435.432.435M5.986 20.167a.436.436 0 0 0-.434-.437.436.436 0 0 0-.436.437.436.436 0 1 0 .87 0M5.61 18.432a.44.44 0 0 0-.438.44.439.439 0 1 0 .876 0 .44.44 0 0 0-.438-.44M6.226 17.59a.445.445 0 1 0-.887 0c0 .245.198.445.444.445.244 0 .443-.2.443-.446M6.07 16.775a.45.45 0 0 0 .446-.449c0-.248-.2-.449-.447-.449a.45.45 0 0 0-.446.45c0 .247.2.448.446.448M6.016 15.094c0 .25.202.455.452.455s.452-.204.452-.455a.453.453 0 0 0-.452-.455.453.453 0 0 0-.452.455M6.517 13.903c0 .254.205.46.457.46a.46.46 0 0 0 0-.921.46.46 0 0 0-.457.46M7.11 12.762a.476.476 0 1 0 .95 0 .476.476 0 1 0-.95 0M7.81 11.68c0 .269.217.487.484.487a.485.485 0 0 0 .484-.487.485.485 0 1 0-.967 0"/><path fill="#fff" d="M9.097 11.168a.5.5 0 0 0 .498-.5.499.499 0 1 0-.995 0c0 .276.222.5.497.5M9.988 9.222a.507.507 0 0 0-.507.51.507.507 0 1 0 1.012 0 .507.507 0 0 0-.505-.51M10.958 8.352a.525.525 0 0 0-.523.527c0 .29.234.526.523.526a.525.525 0 0 0 .523-.526.525.525 0 0 0-.523-.527M12 7.585a.53.53 0 0 0-.528.532.53.53 0 1 0 1.058 0 .53.53 0 0 0-.53-.532M13.644 7.453a.539.539 0 1 0-1.075 0 .539.539 0 1 0 1.075 0M14.813 6.89a.547.547 0 1 0-1.092 0 .547.547 0 1 0 1.092 0M15.473 5.875a.56.56 0 0 0 0 1.12c.307 0 .557-.25.557-.56s-.25-.56-.557-.56M16.715 5.519a.57.57 0 0 0-.57.572.57.57 0 0 0 .57.572.57.57 0 0 0 .568-.572.57.57 0 0 0-.568-.572M31.525 12.284c.331 0 .6-.27.6-.604a.6.6 0 0 0-.6-.603c-.331 0-.6.27-.6.603 0 .334.268.604.6.604M35.292 20.162a.01.01 0 0 0-.006.006q0 .005.006.005a.006.006 0 1 0 0-.011M35.24 21.439a.023.023 0 0 0-.023.023c0 .012.01.023.022.023q.021-.002.023-.023a.023.023 0 0 0-.023-.023M35.125 22.747a.05.05 0 0 0-.048-.048.048.048 0 1 0 0 .097.05.05 0 0 0 .048-.049M34.88 24.015a.071.071 0 1 0-.143 0 .071.071 0 0 0 .142 0M34.536 25.255a.1.1 0 0 0-.1-.1.1.1 0 0 0 0 .2.1.1 0 0 0 .1-.1M33.863 26.46a.1.1 0 0 0 .1.1.1.1 0 0 0 0-.2.1.1 0 0 0-.1.1M33.517 27.62a.128.128 0 1 0-.256 0 .128.128 0 0 0 .256 0M32.723 28.88a.151.151 0 0 0 0-.303.15.15 0 0 0-.15.151.15.15 0 0 0 .15.151M31.964 29.622a.154.154 0 0 0 0 .309.154.154 0 0 0 0-.309M30.947 30.757a.177.177 0 1 0 .353 0 .177.177 0 0 0-.177-.177.177.177 0 0 0-.176.177M30.203 31.48c-.1 0-.181.083-.181.184a.182.182 0 1 0 .364 0 .183.183 0 0 0-.183-.184M29.21 32.687a.197.197 0 0 0 0-.395.197.197 0 0 0 0 .395M28.152 33.44a.211.211 0 0 0 0-.422.211.211 0 0 0 0 .423M27.037 34.097a.22.22 0 0 0 .218-.22.22.22 0 0 0-.218-.22.22.22 0 0 0 0 .44M25.87 34.654a.225.225 0 0 0 .225-.226c0-.124-.1-.225-.224-.225a.225.225 0 0 0-.224.225c0 .125.1.226.224.226M24.663 35.109a.229.229 0 0 0 0-.458.229.229 0 0 0 0 .458M23.423 35.463a.234.234 0 0 0 0-.47.234.234 0 0 0 0 .47M22.156 35.709c.13 0 .236-.107.236-.238a.237.237 0 0 0-.236-.237.237.237 0 0 0-.236.237c0 .131.106.238.236.238M20.875 35.847a.24.24 0 0 0 0-.48.24.24 0 0 0 0 .48M19.586 35.874a.24.24 0 0 0 .24-.24.24.24 0 0 0-.24-.24.24.24 0 0 0-.238.24c0 .132.106.24.238.24M18.301 35.796a.24.24 0 0 0 .242-.243.242.242 0 1 0-.483 0c0 .134.108.242.241.242M17.028 35.61c.135 0 .244-.11.244-.247a.245.245 0 1 0-.489 0c0 .136.11.246.245.246M15.773 35.319a.25.25 0 0 0 .25-.252.25.25 0 1 0-.5 0c0 .14.111.252.25.252M14.548 34.927a.26.26 0 0 0 0-.52.26.26 0 0 0-.259.26c0 .143.116.26.259.26M13.36 34.433a.268.268 0 0 0 0-.537.27.27 0 0 0-.267.269c0 .148.119.268.267.268M12.218 33.868a.303.303 0 0 0 .301-.303.302.302 0 1 0-.603 0c0 .167.135.303.301.303M11.13 33.188a.316.316 0 0 0 .316-.318.316.316 0 1 0-.631 0c0 .176.14.318.315.318M10.104 32.41a.322.322 0 0 0 0-.646.32.32 0 0 0-.322.323c0 .178.144.323.322.323M9.147 31.555c.184 0 .333-.15.333-.335a.334.334 0 1 0-.666 0c0 .185.15.335.333.335M8.265 29.933a.34.34 0 0 0-.341.343.342.342 0 1 0 .682 0 .34.34 0 0 0-.341-.343M7.464 29.629a.368.368 0 0 0 0-.738.37.37 0 0 0-.366.37c0 .203.164.368.366.368M7.127 28.18a.377.377 0 0 0-.376-.377.377.377 0 0 0-.375.378c0 .208.168.377.375.377.208 0 .376-.169.376-.377M6.13 27.435a.39.39 0 0 0 .387-.39.39.39 0 0 0-.386-.388.39.39 0 0 0-.387.389c0 .214.173.389.387.389M6.005 25.862a.4.4 0 0 0-.399-.4.4.4 0 0 0 0 .8.4.4 0 0 0 .399-.4M5.183 25.059a.42.42 0 0 0 .418-.42.419.419 0 1 0-.836 0c0 .232.187.42.418.42M5.287 23.384a.425.425 0 0 0-.424-.427.425.425 0 0 0 0 .852.425.425 0 0 0 .424-.425M4.648 22.538a.43.43 0 0 0 .43-.432.43.43 0 1 0-.859 0 .43.43 0 0 0 .429.432M4.54 21.25a.433.433 0 0 0 .432-.435.433.433 0 0 0-.432-.435.434.434 0 0 0 0 .87M4.54 19.96a.44.44 0 0 0 .437-.44.439.439 0 1 0-.875 0c0 .242.196.44.437.44M4.648 17.788a.44.44 0 0 0 0 .88.44.44 0 0 0 .438-.44.44.44 0 0 0-.438-.44M5.304 16.951a.443.443 0 0 0-.441-.444.44.44 0 0 0-.441.444.442.442 0 1 0 .882 0M4.736 15.696c0 .248.2.45.447.45a.45.45 0 0 0 .446-.45c0-.248-.2-.449-.446-.449a.45.45 0 0 0-.447.449M5.151 14.472c0 .253.204.458.455.458a.457.457 0 0 0 0-.915.456.456 0 0 0-.455.457M5.662 13.289a.47.47 0 1 0 .938 0 .47.47 0 1 0-.938 0M6.274 12.153c0 .266.214.48.478.48a.48.48 0 0 0 0-.96.48.48 0 0 0-.478.48M6.974 11.075c0 .272.22.494.491.494a.493.493 0 0 0 .492-.495.493.493 0 0 0-.492-.494.493.493 0 0 0-.491.495"/><path fill="#fff" d="M8.264 9.558a.5.5 0 0 0 0 1.001.5.5 0 0 0 0-1M9.147 8.611c-.277 0-.5.225-.5.503s.223.504.5.504c.276 0 .5-.226.5-.504a.5.5 0 0 0-.5-.503M10.103 7.724a.52.52 0 0 0-.52.523c0 .29.233.524.52.524a.522.522 0 0 0 0-1.047M10.607 7.464a.524.524 0 1 0 1.047 0 .525.525 0 0 0-.523-.526.525.525 0 0 0-.524.526M11.684 6.77c0 .297.239.538.534.538s.535-.241.535-.538a.536.536 0 0 0-.535-.538.536.536 0 0 0-.534.538M12.814 6.17c0 .303.244.549.546.549a.547.547 0 0 0 .545-.55.55.55 0 0 0-.545-.549.55.55 0 0 0-.546.55M13.99 5.668a.559.559 0 1 0 1.115 0 .56.56 0 0 0-.557-.561.56.56 0 0 0-.558.56M15.212 5.267c0 .312.25.563.56.563s.56-.251.56-.563a.56.56 0 0 0-.56-.563c-.31 0-.56.252-.56.563M17.596 4.971a.57.57 0 0 0-.569-.572.57.57 0 0 0-.569.572.57.57 0 0 0 .57.573.57.57 0 0 0 .568-.573M36.318 20.165q-.003 0-.003.003 0 .002.003.002l.002-.002q0-.003-.002-.003M36.296 21.462a.03.03 0 0 0-.029-.028.03.03 0 0 0-.028.028c0 .016.013.029.028.029a.03.03 0 0 0 .029-.029M36.153 22.749a.037.037 0 0 0-.037-.037.037.037 0 0 0-.037.037c0 .02.017.037.037.037s.037-.017.037-.037M35.938 24.02a.074.074 0 1 0-.148 0 .074.074 0 0 0 .148 0M35.603 25.267a.088.088 0 1 0-.176 0 .088.088 0 1 0 .176 0M34.975 26.482a.094.094 0 1 0 .187 0 .094.094 0 0 0-.094-.095.094.094 0 0 0-.093.095M34.53 27.542a.117.117 0 1 0 0 .233.117.117 0 0 0 0-.233M34.033 28.789a.134.134 0 1 0-.267 0c0 .074.06.134.133.134s.134-.06.134-.134M33.04 29.867a.145.145 0 1 0 .29 0 .145.145 0 1 0-.29 0M32.222 30.884a.165.165 0 1 0 .33 0 .165.165 0 1 0-.33 0M31.512 32.016a.18.18 0 0 0 .18-.18.18.18 0 1 0-.358 0c-.001.1.08.18.178.18M30.566 32.904a.19.19 0 0 0 .188-.19.188.188 0 1 0-.375 0c0 .105.084.19.187.19M29.554 33.314a.203.203 0 0 0 0 .406.203.203 0 0 0 0-.406M28.483 34.449c.116 0 .21-.095.21-.212a.21.21 0 1 0-.42 0 .21.21 0 0 0 .21.212M27.359 35.09a.22.22 0 0 0 .219-.22.22.22 0 1 0-.438 0c0 .122.098.22.219.22M26.414 35.412a.225.225 0 1 0-.449 0c0 .125.1.226.224.226a.225.225 0 0 0 .225-.226M25.208 35.86a.228.228 0 1 0-.455 0c0 .127.102.23.227.23a.23.23 0 0 0 .228-.23M23.97 36.212a.23.23 0 1 0-.46 0c0 .129.103.232.23.232.128 0 .23-.103.23-.232M22.715 36.465a.24.24 0 0 0-.239-.24.24.24 0 0 0-.239.24.24.24 0 1 0 .477 0M21.437 36.618a.24.24 0 1 0-.477 0c-.001.132.106.24.238.24a.24.24 0 0 0 .238-.24M20.149 36.669a.24.24 0 0 0-.24-.24.24.24 0 0 0 0 .48.24.24 0 0 0 .24-.24M18.862 36.618a.24.24 0 1 0-.478 0c0 .132.107.24.239.24a.24.24 0 0 0 .239-.24M17.587 36.465a.245.245 0 0 0-.245-.246.245.245 0 0 0-.244.246c0 .136.109.246.244.246s.245-.11.245-.246M16.33 36.212a.25.25 0 0 0-.251-.251.251.251 0 0 0 0 .503c.138 0 .25-.112.25-.252M15.098 35.861a.26.26 0 1 0-.518 0c0 .143.116.26.259.26a.26.26 0 0 0 .259-.26M13.898 35.412a.268.268 0 1 0-.535 0c0 .149.12.27.267.27s.268-.121.268-.27M12.46 35.147a.277.277 0 0 0 .276-.277.276.276 0 1 0-.551 0c0 .153.123.277.275.277M11.337 34.523a.286.286 0 0 0 0-.572.286.286 0 0 0 0 .572M10.265 33.823a.305.305 0 0 0 0-.612.305.305 0 0 0-.304.306c0 .17.136.306.304.306M9.253 33.038a.32.32 0 0 0 .321-.323.322.322 0 1 0-.642 0c0 .178.143.323.32.323M8.64 31.836a.334.334 0 0 0-.334-.335.334.334 0 0 0 0 .67c.184 0 .333-.151.333-.335M7.433 31.241c.196 0 .355-.16.355-.357a.356.356 0 0 0-.355-.358.357.357 0 0 0 0 .715M6.262 29.867c0 .206.166.374.372.374a.373.373 0 0 0 .372-.374.374.374 0 0 0-.372-.375.374.374 0 0 0-.372.375M5.919 28.403a.385.385 0 0 0-.384.386c0 .213.172.386.384.386a.385.385 0 0 0 0-.772M5.289 28.05a.39.39 0 0 0 .39-.391.39.39 0 0 0-.39-.392.39.39 0 0 0-.39.392.39.39 0 0 0 .39.392M5.153 26.482a.405.405 0 1 0-.807 0 .405.405 0 1 0 .807 0M4.304 25.68a.413.413 0 0 0 .412-.414.413.413 0 1 0-.824 0c0 .23.184.415.412.415M4.375 24.02a.42.42 0 0 0-.42-.424.422.422 0 0 0 0 .846c.232 0 .42-.19.42-.423M3.703 23.18a.43.43 0 0 0 0-.863.43.43 0 0 0-.43.431.43.43 0 0 0 .43.432M3.552 21.9c.24 0 .435-.196.435-.438a.436.436 0 1 0-.87 0c0 .242.195.438.435.438M3.5 20.605c.241 0 .436-.196.436-.438a.436.436 0 1 0-.87 0c0 .242.194.438.435.438M3.117 18.873c0 .241.195.437.435.437s.435-.196.435-.437a.436.436 0 0 0-.435-.438.436.436 0 0 0-.435.438M3.263 17.586c0 .245.197.443.44.443.244 0 .441-.198.441-.443a.44.44 0 0 0-.44-.443.44.44 0 0 0-.441.443M3.506 16.315c0 .25.2.452.45.452a.45.45 0 0 0 .448-.452.45.45 0 0 0-.449-.452.45.45 0 0 0-.45.452M3.854 15.068a.45.45 0 1 0 .899 0 .45.45 0 0 0-.45-.452.45.45 0 0 0-.449.452M4.298 13.853a.453.453 0 1 0 .904 0 .453.453 0 1 0-.904 0M4.826 12.676a.465.465 0 1 0 .928 0 .465.465 0 1 0-.927 0M5.45 11.545a.47.47 0 1 0 .939 0c0-.26-.21-.472-.47-.472a.47.47 0 0 0-.469.472M6.147 10.468a.488.488 0 1 0 .973 0c0-.27-.218-.49-.486-.49a.49.49 0 0 0-.487.49"/><path fill="#fff" d="M7.433 8.953a.496.496 0 0 0-.495.498.496.496 0 1 0 .99 0 .496.496 0 0 0-.495-.498M8.307 7.996c-.276 0-.5.225-.5.503a.502.502 0 1 0 1.001 0 .5.5 0 0 0-.5-.503M9.254 7.096a.52.52 0 0 0-.52.524c0 .288.232.523.52.523a.522.522 0 0 0 0-1.047M10.265 6.291a.525.525 0 0 0-.524.527.525.525 0 1 0 1.047 0 .525.525 0 0 0-.524-.527M11.337 5.56a.536.536 0 0 0-.535.538c0 .296.24.537.534.537.296 0 .535-.24.535-.537a.536.536 0 0 0-.535-.538M12.46 4.918c-.3 0-.543.245-.543.546s.243.547.543.547.543-.245.543-.547a.544.544 0 0 0-.543-.546M13.63 4.367a.553.553 0 0 0-.55.555c0 .307.246.555.55.555a.553.553 0 0 0 .552-.555.553.553 0 0 0-.552-.555M14.839 3.913a.56.56 0 0 0-.558.56.559.559 0 1 0 1.115 0 .56.56 0 0 0-.557-.56M16.641 4.122a.564.564 0 0 0-.562-.566.564.564 0 0 0-.563.566c0 .312.252.566.562.566s.563-.254.563-.566M17.911 3.87a.57.57 0 0 0-.568-.573.57.57 0 0 0-.57.572.57.57 0 0 0 .57.572.57.57 0 0 0 .568-.572M32.581 10.468c0 .335.27.606.603.606a.605.605 0 0 0 .603-.606.605.605 0 0 0-.603-.606.605.605 0 0 0-.603.606M37.344 20.159a.01.01 0 0 0-.009.009q0 .007.009.008a.01.01 0 0 0 .008-.008q-.001-.008-.008-.009M37.295 21.44a.022.022 0 0 0-.023.022q.002.021.023.023c.012 0 .023-.01.023-.023a.023.023 0 0 0-.023-.022M37.193 22.75a.04.04 0 1 0-.04.04.04.04 0 0 0 .04-.04M36.917 23.967a.057.057 0 0 0 0 .114.057.057 0 0 0 .057-.057.057.057 0 0 0-.057-.057M36.674 25.277a.088.088 0 1 0-.176 0 .088.088 0 1 0 .176 0M36.166 26.601a.1.1 0 0 0 0-.2.1.1 0 0 0-.1.1.1.1 0 0 0 .1.1M35.656 27.57a.12.12 0 0 0-.119.12.12.12 0 1 0 .24 0 .12.12 0 0 0-.12-.12M35.186 28.84a.126.126 0 0 0-.125-.126.126.126 0 0 0 0 .251.125.125 0 0 0 .125-.125M34.53 29.942a.148.148 0 1 0-.296 0 .148.148 0 1 0 .296 0M33.626 30.827a.163.163 0 0 0-.162.163.162.162 0 1 0 .324 0 .163.163 0 0 0-.162-.163M32.793 31.813a.166.166 0 0 0 0 .332.165.165 0 0 0 .165-.166.165.165 0 0 0-.165-.166M31.891 32.723a.18.18 0 0 0-.18.18.18.18 0 1 0 .358 0c.001-.1-.079-.18-.178-.18M30.923 33.57a.19.19 0 0 0-.188.188c0 .105.084.19.188.19a.189.189 0 0 0 0-.378M30.088 34.54a.194.194 0 1 0-.387 0c0 .107.087.194.194.194a.194.194 0 0 0 .193-.195M29.022 35.242a.211.211 0 1 0-.421 0 .211.211 0 1 0 .42 0M27.896 35.862a.217.217 0 0 0-.216-.218.217.217 0 0 0-.216.218c0 .12.097.217.216.217.12 0 .216-.097.216-.218M26.732 36.396c0-.124-.1-.226-.225-.226a.226.226 0 0 0 0 .452.225.225 0 0 0 .225-.226M25.524 36.842a.228.228 0 1 0-.455 0 .228.228 0 1 0 .455 0M24.288 37.196a.231.231 0 1 0-.462 0 .231.231 0 0 0 .462 0M23.032 37.458a.237.237 0 0 0-.236-.238.237.237 0 0 0-.235.238c0 .131.105.237.235.237s.236-.106.236-.237M21.757 37.625a.24.24 0 1 0-.478 0 .24.24 0 1 0 .478 0M20.471 37.697a.24.24 0 1 0-.478 0 .24.24 0 1 0 .478 0M19.182 37.673a.24.24 0 0 0-.239-.24.24.24 0 0 0 0 .48.24.24 0 0 0 .24-.24M17.902 37.554a.24.24 0 0 0-.241-.244.243.243 0 0 0-.242.243.242.242 0 1 0 .483 0M16.634 37.339a.245.245 0 0 0-.245-.246.245.245 0 0 0 0 .492c.135 0 .245-.11.245-.246M15.398 37.03a.26.26 0 0 0-.26-.26.26.26 0 0 0-.258.26.26.26 0 1 0 .518 0M14.18 36.63c0-.149-.12-.269-.267-.269a.268.268 0 0 0 0 .538c.147 0 .267-.12.267-.269M12.996 36.14a.277.277 0 1 0-.552 0 .277.277 0 1 0 .552 0M11.85 35.563a.285.285 0 0 0-.284-.287.286.286 0 0 0 0 .572.285.285 0 0 0 .285-.285M10.755 34.9a.296.296 0 1 0-.591 0 .296.296 0 1 0 .59 0M9.713 34.159a.31.31 0 1 0-.62 0 .31.31 0 1 0 .62 0M8.728 33.34a.325.325 0 0 0-.324-.326.325.325 0 0 0-.324.326c0 .18.145.326.324.326s.324-.146.324-.326M7.47 32.787a.336.336 0 0 0 .334-.337.337.337 0 0 0-.335-.338.337.337 0 0 0-.335.338c0 .186.15.337.335.337M6.6 31.852a.36.36 0 0 0 .359-.36.36.36 0 0 0-.359-.36.36.36 0 0 0-.358.36c0 .199.16.36.358.36M5.805 30.104a.368.368 0 0 0 0 .738.37.37 0 0 0 .366-.37.367.367 0 0 0-.366-.368M5.087 29.022a.373.373 0 0 0-.372.375.373.373 0 1 0 .745 0 .374.374 0 0 0-.373-.375M4.449 28.66a.39.39 0 0 0 .387-.389.388.388 0 1 0-.774 0c0 .215.173.39.387.39M4.295 27.1a.399.399 0 1 0-.796 0 .399.399 0 1 0 .796 0M3.43 26.304a.41.41 0 0 0 .41-.412.41.41 0 0 0-.41-.412.41.41 0 0 0-.41.412.41.41 0 0 0 .41.412M3.056 25.076c.232 0 .42-.19.42-.423a.42.42 0 0 0-.42-.424c-.233 0-.421.19-.421.424s.188.423.42.423M2.773 23.818a.428.428 0 0 0 0-.858.428.428 0 0 0 0 .858M2.582 22.539a.43.43 0 0 0 .43-.431.43.43 0 1 0-.86 0 .43.43 0 0 0 .43.431M2.488 21.253c.24 0 .435-.197.435-.438a.436.436 0 0 0-.435-.438.436.436 0 0 0-.435.438c0 .241.194.438.435.438M2.487 19.96a.44.44 0 0 0 .438-.44.439.439 0 1 0-.876 0c0 .242.196.44.438.44M2.145 18.227c0 .244.196.44.437.44a.44.44 0 0 0 .438-.44.44.44 0 0 0-.438-.44.44.44 0 0 0-.437.44M2.332 16.946c0 .244.197.443.441.443.243 0 .44-.199.44-.443a.44.44 0 0 0-.44-.444.44.44 0 0 0-.441.444M2.606 15.682a.45.45 0 1 0 .9 0 .45.45 0 1 0-.899 0M2.977 14.442a.456.456 0 1 0 .91 0 .457.457 0 0 0-.455-.458.457.457 0 0 0-.455.458M3.438 13.234a.46.46 0 1 0 .458-.46.46.46 0 0 0-.458.46M3.98 12.064a.47.47 0 1 0 .938 0 .47.47 0 1 0-.938 0M4.606 10.938a.482.482 0 1 0 .961 0 .482.482 0 1 0-.96 0M5.318 9.862c0 .27.218.489.487.489a.488.488 0 0 0 0-.978.49.49 0 0 0-.487.489"/><path fill="#fff" d="M6.6 8.342a.5.5 0 0 0-.497.5.499.499 0 1 0 .995 0 .5.5 0 0 0-.498-.5M7.468 7.376a.507.507 0 0 0-.506.509c0 .281.226.509.506.509s.506-.228.506-.51a.507.507 0 0 0-.506-.508M8.404 6.474a.52.52 0 0 0-.517.52c0 .288.231.521.517.521a.52.52 0 0 0 .518-.52.52.52 0 0 0-.518-.52M9.403 5.647a.528.528 0 0 0 0 1.058c.291 0 .526-.237.526-.529a.53.53 0 0 0-.526-.53M9.925 5.434a.536.536 0 1 0 1.07 0 .536.536 0 0 0-.535-.538.536.536 0 0 0-.535.538M11.023 4.772c0 .302.244.546.543.546s.544-.244.544-.546a.545.545 0 0 0-.543-.546c-.3 0-.544.245-.544.546M12.172 4.195a.55.55 0 0 0 .549.551.55.55 0 0 0 .549-.551.55.55 0 0 0-.55-.552.55.55 0 0 0-.548.552M13.358 3.704c0 .308.248.558.555.558.306 0 .554-.25.554-.558a.556.556 0 0 0-.554-.557.556.556 0 0 0-.555.557M14.58 3.304c0 .31.25.56.558.56a.56.56 0 0 0 .557-.56c0-.31-.25-.56-.557-.56a.56.56 0 0 0-.558.56M15.821 2.996a.57.57 0 0 0 .569.572.57.57 0 0 0 .569-.572.57.57 0 0 0-.57-.573.57.57 0 0 0-.568.573M33.625 9.942a.596.596 0 0 0 .594-.597.596.596 0 0 0-.594-.598.596.596 0 0 0-.594.598c0 .33.266.597.594.597M38.368 20.165q-.001 0-.002.003l.002.002q.003 0 .003-.002 0-.003-.003-.003M38.324 21.449a.014.014 0 0 0-.014.014q.002.012.014.013a.014.014 0 0 0 .014-.013.014.014 0 0 0-.014-.015M38.189 22.711a.04.04 0 0 0-.04.04.04.04 0 0 0 .08 0 .04.04 0 0 0-.04-.04M37.965 23.965a.063.063 0 1 0 0 .125.063.063 0 0 0 0-.125M37.655 25.202a.08.08 0 0 0-.083.082.082.082 0 1 0 .165 0 .08.08 0 0 0-.083-.082M37.344 26.517a.088.088 0 1 0-.177 0 .088.088 0 0 0 .176 0M36.773 27.606a.111.111 0 0 0 0 .223c.061 0 .11-.05.11-.111a.11.11 0 0 0-.11-.112M36.209 28.756a.126.126 0 0 0 0 .252.126.126 0 0 0 0-.252M35.564 29.853a.151.151 0 0 0 0 .303.152.152 0 0 0 0-.303M34.843 30.927a.152.152 0 0 0 0 .303.15.15 0 0 0 .15-.151.15.15 0 0 0-.15-.152M34.05 31.934a.166.166 0 0 0 0 .332c.09 0 .164-.074.164-.166a.166.166 0 0 0-.164-.166M33.188 32.888a.174.174 0 0 0 0 .35.174.174 0 0 0 .173-.175.174.174 0 0 0-.173-.175M32.261 33.78a.183.183 0 0 0 0 .366c.1 0 .182-.082.182-.183a.18.18 0 0 0-.182-.183M31.275 34.604a.191.191 0 0 0 0 .383.191.191 0 0 0 0-.383M30.434 35.557a.202.202 0 1 0-.404 0c0 .112.09.203.202.203a.2.2 0 0 0 .202-.203M29.35 36.244a.21.21 0 0 0-.21-.212.21.21 0 0 0-.211.212c0 .117.094.212.21.212a.21.21 0 0 0 .21-.212M28.22 36.852a.22.22 0 1 0-.438 0c0 .122.098.22.219.22a.22.22 0 0 0 .22-.22M27.049 37.38c0-.126-.101-.227-.225-.227a.225.225 0 0 0-.224.227c0 .124.1.225.224.225a.225.225 0 0 0 .224-.225M25.84 37.823a.23.23 0 0 0-.227-.23.228.228 0 0 0 0 .458.23.23 0 0 0 .228-.228M24.608 38.18a.234.234 0 0 0-.233-.235.234.234 0 0 0 0 .47c.129 0 .233-.106.233-.235M23.35 38.449a.237.237 0 0 0-.235-.237.237.237 0 0 0-.236.237c0 .131.106.238.236.238s.236-.107.236-.238M22.078 38.63a.24.24 0 1 0-.477 0 .24.24 0 1 0 .477 0M20.792 38.72a.24.24 0 1 0-.478 0 .24.24 0 1 0 .478 0M19.504 38.72a.24.24 0 1 0-.477 0 .24.24 0 0 0 .477 0M18.221 38.63a.242.242 0 1 0-.484 0c0 .134.109.243.242.243a.243.243 0 0 0 .242-.243M16.948 38.449a.245.245 0 1 0-.489 0 .245.245 0 1 0 .489 0M15.694 38.18a.25.25 0 0 0-.25-.252.252.252 0 0 0 0 .504c.138 0 .25-.114.25-.252M14.467 37.823a.263.263 0 0 0-.262-.264.26.26 0 0 0-.262.264.262.262 0 1 0 .524 0M13.262 37.38c0-.15-.12-.27-.267-.27a.27.27 0 0 0-.268.27.268.268 0 1 0 .535 0M12.093 36.852a.277.277 0 0 0-.276-.277.277.277 0 0 0-.276.277.277.277 0 1 0 .552 0M10.964 36.244a.285.285 0 0 0-.284-.286.285.285 0 0 0-.284.286c0 .158.127.286.284.286a.285.285 0 0 0 .284-.286M9.892 35.557a.305.305 0 0 0-.304-.306.305.305 0 0 0 0 .613.305.305 0 0 0 .304-.307M8.86 34.796a.316.316 0 1 0-.63 0 .316.316 0 1 0 .63 0M7.887 33.963a.33.33 0 1 0-.66 0c0 .183.148.332.33.332s.33-.149.33-.332M6.63 33.406a.343.343 0 0 0 0-.687.343.343 0 0 0 0 .687M5.769 32.452c.193 0 .35-.158.35-.352a.35.35 0 0 0-.35-.352.35.35 0 0 0-.35.352c0 .194.157.352.35.352M4.975 30.71a.37.37 0 0 0-.367.369.367.367 0 1 0 .734 0 .37.37 0 0 0-.367-.37M4.254 29.627a.376.376 0 0 0-.375.377.376.376 0 1 0 .375-.377M3.61 29.274a.39.39 0 0 0 .39-.391.39.39 0 1 0-.78 0 .39.39 0 0 0 .39.391M3.046 28.118c.22 0 .398-.179.398-.4a.399.399 0 1 0-.797 0 .4.4 0 0 0 .399.4M2.563 26.925a.41.41 0 0 0 .407-.409.41.41 0 0 0-.407-.409.41.41 0 0 0-.407.41c0 .225.182.408.407.408M2.165 25.705a.42.42 0 0 0 .418-.421.42.42 0 0 0-.418-.42.42.42 0 0 0-.418.42c0 .233.187.42.418.42M1.855 24.453c.233 0 .423-.19.423-.426a.425.425 0 1 0-.847 0c0 .235.19.426.424.426M1.63 23.186a.433.433 0 0 0 .433-.435.433.433 0 0 0-.433-.435.434.434 0 0 0-.432.435c0 .24.194.435.432.435M1.494 21.9c.24 0 .436-.196.436-.438a.436.436 0 0 0-.436-.437.436.436 0 0 0-.434.437c0 .242.194.438.434.438M1.45 20.605c.241 0 .436-.196.436-.438a.436.436 0 0 0-.436-.437.436.436 0 0 0-.434.437c0 .242.194.438.434.438M1.06 18.872a.436.436 0 1 0 .87 0 .436.436 0 0 0-.436-.437.436.436 0 0 0-.434.437M1.188 17.584c0 .245.198.443.441.443a.44.44 0 0 0 .441-.443.44.44 0 0 0-.441-.444.44.44 0 0 0-.44.444M1.41 16.307a.445.445 0 1 0 .887 0 .445.445 0 0 0-.443-.446c-.245 0-.444.2-.444.446M1.716 15.05a.45.45 0 1 0 .899 0 .45.45 0 1 0-.9 0M2.111 13.818c0 .251.202.455.452.455s.452-.204.452-.455a.453.453 0 0 0-.452-.455.453.453 0 0 0-.452.455M2.588 12.617a.459.459 0 1 0 .915 0 .459.459 0 1 0-.915 0M3.147 11.452a.465.465 0 1 0 .927 0 .465.465 0 1 0-.927 0M3.771 10.33a.485.485 0 1 0 .967 0 .484.484 0 1 0-.967 0M4.492 9.256c0 .268.217.486.483.486a.485.485 0 0 0 0-.972.485.485 0 0 0-.483.486"/><path fill="#fff" d="M5.77 7.734a.5.5 0 0 0-.499.5.499.499 0 1 0 .995 0c0-.276-.222-.5-.497-.5M6.63 6.763a.51.51 0 0 0-.506.509c0 .28.227.509.506.509a.508.508 0 0 0 0-1.018M7.558 5.85a.52.52 0 0 0-.518.521c0 .288.232.52.518.52a.52.52 0 0 0 .517-.52.52.52 0 0 0-.517-.52M8.544 5.015a.522.522 0 0 0 0 1.047c.288 0 .52-.234.52-.523a.52.52 0 0 0-.52-.524M9.587 4.248a.528.528 0 0 0 0 1.058c.29 0 .526-.237.526-.53a.527.527 0 0 0-.526-.528M10.68 3.55a.54.54 0 0 0-.537.54c0 .299.24.54.537.54a.54.54 0 0 0 .537-.54c0-.298-.24-.54-.537-.54M11.818 2.936c-.3 0-.544.244-.544.546s.244.547.544.547.543-.245.543-.547a.545.545 0 0 0-.543-.546M12.995 2.4a.553.553 0 0 0-.552.555.553.553 0 1 0 1.104 0 .553.553 0 0 0-.552-.555M14.204 1.954a.556.556 0 0 0-.554.558c0 .308.248.558.554.558s.555-.25.555-.558a.556.556 0 0 0-.555-.558M15.444 1.586a.57.57 0 0 0-.566.569c0 .314.254.57.566.57a.57.57 0 0 0 .566-.57.57.57 0 0 0-.566-.57M17.273 1.885a.57.57 0 0 0-.57-.572.57.57 0 0 0-.568.572.57.57 0 1 0 1.137 0M34.844 9.859c.33 0 .6-.27.6-.603a.6.6 0 0 0-.6-.604c-.332 0-.6.27-.6.604s.268.603.6.603M39.343 21.463q.001.007.008.008a.01.01 0 0 0 .008-.008q0-.009-.008-.01a.01.01 0 0 0-.008.01M39.202 22.752c0 .012.01.023.023.023q.021-.002.023-.023a.023.023 0 0 0-.023-.023.023.023 0 0 0-.023.023M39.011 23.98a.051.051 0 0 0 0 .101.05.05 0 0 0 .051-.05.05.05 0 0 0-.051-.052M38.717 25.217a.074.074 0 1 0 0 .148.074.074 0 0 0 0-.148M38.339 26.45a.08.08 0 1 0 0 .16.08.08 0 0 0 0-.16M37.88 27.65c-.05 0-.09.04-.09.09a.091.091 0 1 0 .09-.09M37.343 28.81a.11.11 0 0 0-.108.109.108.108 0 1 0 .217 0 .11.11 0 0 0-.109-.11M36.73 29.918a.14.14 0 0 0 0 .28.14.14 0 0 0 .14-.14.14.14 0 0 0-.14-.14M36.044 31.012a.143.143 0 0 0 0 .286.143.143 0 0 0 0-.286M35.285 32.042a.16.16 0 0 0-.159.16.16.16 0 1 0 .318 0 .16.16 0 0 0-.159-.16M34.462 33.03a.17.17 0 0 0-.168.169.168.168 0 1 0 .335 0 .17.17 0 0 0-.167-.169M33.574 33.957a.18.18 0 0 0-.18.18.18.18 0 1 0 .358 0c0-.1-.08-.18-.178-.18M32.625 34.829a.185.185 0 0 0-.185.186c0 .102.083.186.185.186a.185.185 0 0 0 .185-.186.185.185 0 0 0-.185-.186M31.622 35.633a.194.194 0 0 0-.193.194.194.194 0 1 0 .387 0 .194.194 0 0 0-.194-.194M30.566 36.368a.203.203 0 0 0 0 .407.2.2 0 0 0 .202-.203.2.2 0 0 0-.202-.204M29.466 37.032a.21.21 0 0 0-.211.212c0 .117.094.212.21.212.117 0 .211-.095.211-.212a.21.21 0 0 0-.21-.212M28.321 37.622a.22.22 0 0 0-.219.22.22.22 0 1 0 .439 0 .22.22 0 0 0-.22-.22M27.142 38.136a.226.226 0 0 0 0 .452.225.225 0 0 0 0-.452M25.93 38.575a.229.229 0 0 0 0 .457.23.23 0 0 0 .228-.229.23.23 0 0 0-.227-.228M24.692 38.931a.23.23 0 0 0-.23.232c0 .128.103.232.23.232s.23-.104.23-.232a.23.23 0 0 0-.23-.232M23.435 39.202a.237.237 0 0 0 0 .474.237.237 0 0 0 0-.474M22.16 39.39a.24.24 0 0 0-.24.241.24.24 0 1 0 .477 0 .24.24 0 0 0-.237-.24M20.876 39.498a.24.24 0 0 0-.24.24.24.24 0 1 0 .478 0 .24.24 0 0 0-.238-.24M19.586 39.52a.24.24 0 0 0-.238.24.24.24 0 1 0 .477 0 .24.24 0 0 0-.239-.24M18.3 39.452a.243.243 0 0 0-.241.244c0 .134.108.243.241.243a.24.24 0 0 0 .242-.243.243.243 0 0 0-.242-.244M17.02 39.3a.246.246 0 0 0 0 .492c.136 0 .245-.11.245-.246a.245.245 0 0 0-.245-.246M15.754 39.066a.245.245 0 0 0-.245.245.245.245 0 1 0 .489 0 .245.245 0 0 0-.244-.245M14.504 38.742a.25.25 0 0 0-.25.252.25.25 0 1 0 .5 0 .25.25 0 0 0-.25-.252M13.278 38.333a.26.26 0 0 0-.258.26.259.259 0 1 0 .517 0 .26.26 0 0 0-.26-.26M12.083 37.835a.277.277 0 0 0-.276.277.276.276 0 1 0 .552 0 .277.277 0 0 0-.276-.277M10.92 37.267a.285.285 0 0 0-.284.285.285.285 0 1 0 .568 0 .285.285 0 0 0-.284-.285M9.797 36.622a.294.294 0 0 0 0 .59.294.294 0 0 0 .293-.295.294.294 0 0 0-.293-.295M8.718 35.894a.314.314 0 0 0 0 .629.314.314 0 0 0 0-.629M7.69 35.109a.32.32 0 0 0-.319.32c0 .177.143.321.318.321a.32.32 0 0 0 .319-.32.32.32 0 0 0-.319-.321M6.713 34.255a.33.33 0 0 0-.327.329c0 .181.146.329.327.329a.328.328 0 0 0 0-.658M5.794 33.332a.343.343 0 0 0 0 .687.343.343 0 0 0 0-.687M4.937 32.339a.368.368 0 0 0 0 .738.37.37 0 0 0 .367-.37.37.37 0 0 0-.367-.368M4.146 31.316a.37.37 0 0 0-.367.369.368.368 0 1 0 .734 0 .37.37 0 0 0-.367-.369M3.423 30.226a.385.385 0 0 0-.384.386.385.385 0 1 0 .768 0 .385.385 0 0 0-.384-.386M3.162 29.494a.39.39 0 0 0-.39-.392.39.39 0 0 0-.39.392.39.39 0 1 0 .78 0M2.598 28.334a.402.402 0 1 0-.802 0c0 .223.18.404.401.404s.401-.181.401-.404M2.104 27.139a.405.405 0 1 0-.808 0c0 .224.18.406.403.406a.405.405 0 0 0 .405-.406M1.693 25.913a.414.414 0 0 0-.412-.414.414.414 0 0 0-.413.414c0 .23.185.415.413.415a.414.414 0 0 0 .412-.415M1.37 24.663a.428.428 0 1 0-.852 0c0 .237.19.429.426.429a.43.43 0 0 0 .427-.43M1.12 23.393a.43.43 0 1 0-.859 0 .43.43 0 0 0 .429.432c.237 0 .43-.194.43-.433M.952 22.108a.434.434 0 0 0-.432-.435.433.433 0 0 0-.432.435.433.433 0 1 0 .864 0M.435 21.253c.24 0 .435-.197.435-.438a.437.437 0 0 0-.435-.438.437.437 0 0 0-.435.438c0 .241.195.438.435.438M.435 19.957c.24 0 .435-.196.435-.437a.436.436 0 0 0-.435-.438.436.436 0 0 0-.435.438c0 .24.195.437.435.437M.52 18.667a.44.44 0 0 0 .438-.44.439.439 0 1 0-.876 0c0 .243.196.44.438.44M.69 17.382a.44.44 0 0 0 .438-.44.439.439 0 1 0-.876 0c0 .243.196.44.438.44M.945 16.115c.243 0 .44-.199.44-.443a.44.44 0 0 0-.44-.444.44.44 0 0 0-.441.444c0 .244.197.443.44.443M1.28 14.873a.45.45 0 0 0 0-.904.45.45 0 0 0-.449.452c0 .25.201.452.45.452M1.7 13.65c.25 0 .452-.203.452-.455a.453.453 0 0 0-.452-.454.454.454 0 0 0 0 .909M2.197 12.464c.254 0 .46-.208.46-.464a.46.46 0 0 0-.46-.463.46.46 0 0 0-.46.463c0 .256.206.464.46.464M2.773 11.313a.47.47 0 0 0 .469-.472.47.47 0 1 0-.938 0c0 .26.21.472.469.472M3.423 10.203a.48.48 0 0 0 .478-.48.479.479 0 1 0-.956 0c0 .265.214.48.478.48M4.146 9.136a.485.485 0 0 0 .484-.487.484.484 0 1 0-.967 0c0 .269.216.487.483.487"/><path fill="#fff" d="M4.937 8.121a.493.493 0 0 0 .492-.494.493.493 0 1 0-.984 0c0 .273.22.494.492.494M5.794 7.163a.502.502 0 0 0 0-1.007.502.502 0 0 0 0 1.007M6.713 6.265c.282 0 .512-.23.512-.515a.514.514 0 0 0-.512-.514.513.513 0 0 0-.512.514c0 .285.23.515.512.515M7.689 5.426a.52.52 0 0 0 .518-.52.52.52 0 0 0-.518-.521.52.52 0 0 0-.517.52c0 .288.232.52.517.52M8.718 4.655c.29 0 .526-.237.526-.529a.527.527 0 0 0-.526-.529.527.527 0 0 0-.526.529c0 .292.236.53.526.53M9.798 3.952c.293 0 .531-.24.531-.535a.533.533 0 1 0-1.063 0c0 .296.238.535.532.535M10.92 3.328c.3 0 .543-.244.543-.546a.545.545 0 0 0-.543-.546c-.3 0-.543.244-.543.546s.243.546.543.546M12.082 2.772a.55.55 0 0 0 .546-.55.547.547 0 1 0-1.092 0c0 .304.245.55.546.55M13.279 2.302c.308 0 .557-.25.557-.56s-.249-.561-.557-.561a.56.56 0 0 0-.557.56c0 .31.25.561.557.561M14.505 1.905c.309 0 .56-.253.56-.564a.56.56 0 0 0-.56-.563c-.31 0-.56.252-.56.563s.25.564.56.564M15.754 1.592a.567.567 0 0 0 .565-.569.567.567 0 0 0-.565-.569.567.567 0 0 0-.566.57c0 .313.253.568.566.568M17.02 1.36a.57.57 0 0 0 .568-.571.57.57 0 0 0-.568-.572.57.57 0 0 0-.569.572.57.57 0 0 0 .569.571"/><path fill="#fff" d="M18.052 1.148c-.024-.004-.046-.015-.072-.015a.57.57 0 0 0-.228 1.095c-.03-.006-.059-.019-.092-.019a.57.57 0 0 0-.568.572.57.57 0 0 0 .568.572.57.57 0 0 0 .228-1.094c.031.005.06.018.092.018a.57.57 0 0 0 .248-1.081c.025.004.047.015.072.015a.57.57 0 0 0 .569-.572.57.57 0 0 0-.569-.572.57.57 0 0 0-.248 1.08"/><path fill="#fff" d="m19.272 1.041-.006-.001a.566.566 0 0 0-.3 1.051q-.012-.002-.022-.004a.567.567 0 0 0-.284 1.063c-.013-.001-.024-.008-.037-.008a.57.57 0 0 0-.257 1.08c-.023-.002-.042-.012-.064-.012a.57.57 0 0 0-.225 1.096c-.032-.005-.061-.019-.094-.019a.57.57 0 0 0-.569.572.57.57 0 0 0 .569.572.57.57 0 0 0 .225-1.096c.032.005.06.019.094.019a.569.569 0 0 0 .256-1.076c.023.003.042.014.065.014a.573.573 0 0 0 .57-.575.57.57 0 0 0-.287-.488c.014 0 .024.007.038.007a.573.573 0 0 0 .572-.574.56.56 0 0 0-.271-.477c.007 0 .013.004.02.004a.573.573 0 0 0 .572-.575.56.56 0 0 0-.256-.466l.006.001a.573.573 0 0 0 .572-.575.573.573 0 0 0-.572-.574.573.573 0 0 0-.57.574c0 .198.105.364.255.467"/><path fill="#fff" d="M20.533 1.044a.57.57 0 0 0-.55.57c0 .188.095.347.233.452a.57.57 0 0 0-.556.572c0 .19.098.35.24.455a.57.57 0 0 0-.562.573c0 .193.101.356.247.46a.565.565 0 0 0-.308 1.044l-.012-.001a.567.567 0 0 0-.284 1.062c-.013-.001-.024-.008-.037-.008a.568.568 0 0 0-.253 1.078c-.023-.003-.044-.014-.068-.014a.57.57 0 0 0-.568.572.57.57 0 0 0 .568.572.568.568 0 0 0 .253-1.078c.023.003.044.014.068.014a.564.564 0 0 0 .283-1.057c.013.001.025.008.038.008a.566.566 0 0 0 .31-1.045l.012.002a.573.573 0 0 0 .572-.574.56.56 0 0 0-.247-.46.573.573 0 0 0 .57-.575c0-.19-.099-.35-.24-.455a.565.565 0 0 0 .329-1.024.57.57 0 0 0 .554-.573.57.57 0 0 0-.228-.447.573.573 0 0 0-.02-1.145.566.566 0 0 0-.343 1.023"/><path fill="#fff" d="M21.799 1.138a.57.57 0 0 0-.531.567c0 .179.086.332.213.437a.57.57 0 0 0-.534.567c0 .18.087.335.216.44a.57.57 0 0 0-.537.568c0 .182.089.337.22.442a.57.57 0 0 0-.542.569c0 .184.092.34.226.445a.57.57 0 0 0-.548.57c0 .186.095.345.232.45a.57.57 0 0 0-.553.57c0 .19.097.351.238.456a.57.57 0 0 0-.56.572c0 .194.101.358.248.462a.57.57 0 0 0-.57.574c0 .207.114.38.276.48-.01 0-.017-.005-.027-.005a.57.57 0 0 0-.569.572.57.57 0 0 0 .57.572.57.57 0 0 0 .568-.572.56.56 0 0 0-.275-.477c.01 0 .018.005.028.005a.573.573 0 0 0 .571-.575.56.56 0 0 0-.248-.46c.315-.001.57-.259.57-.576 0-.19-.097-.35-.238-.454a.565.565 0 0 0 .33-1.022.57.57 0 0 0 .553-.572.57.57 0 0 0-.225-.446.565.565 0 0 0 .326-1.012.57.57 0 0 0 .542-.568.57.57 0 0 0-.216-.44.57.57 0 0 0 .537-.568.57.57 0 0 0-.213-.437.57.57 0 0 0 .534-.567.57.57 0 0 0-.21-.436.57.57 0 0 0 .53-.566.573.573 0 0 0-.57-.575.573.573 0 0 0-.572.575c0 .177.084.33.21.435"/><path fill="#fff" d="M23.053 1.32a.57.57 0 0 0-.512.565c0 .17.077.32.194.426a.57.57 0 0 0-.513.565c0 .173.08.324.198.43a.57.57 0 0 0-.515.563c0 .174.08.324.202.43a.57.57 0 0 0-.521.564c0 .174.08.324.2.43a.57.57 0 0 0-.523.566c0 .175.08.326.202.432a.57.57 0 0 0-.522.567c0 .177.083.33.208.436a.57.57 0 0 0-.526.565c0 .18.086.333.213.438a.57.57 0 0 0-.534.567c0 .182.089.336.219.441a.573.573 0 0 0 .031 1.144.573.573 0 0 0 .571-.575.57.57 0 0 0-.218-.441.57.57 0 0 0 .54-.569.57.57 0 0 0-.214-.438.57.57 0 0 0 .535-.567.57.57 0 0 0-.206-.432.57.57 0 0 0 .53-.57.57.57 0 0 0-.202-.43.57.57 0 0 0 .522-.568.57.57 0 0 0-.203-.431.57.57 0 0 0 .52-.565.57.57 0 0 0-.201-.43.57.57 0 0 0 .52-.564.57.57 0 0 0-.196-.426.57.57 0 0 0 .519-.567.57.57 0 0 0-.194-.425.57.57 0 0 0 .513-.566c0-.17-.076-.32-.193-.425a.57.57 0 0 0 .512-.565.576.576 0 0 0-.574-.578.576.576 0 0 0-.575.578c0 .17.076.32.193.425M24.299 1.593a.57.57 0 0 0-.499.562c0 .167.073.315.185.42a.57.57 0 0 0-.503.563c0 .167.073.315.186.42a.57.57 0 0 0-.503.564c0 .167.073.315.186.42a.57.57 0 0 0-.317.985.57.57 0 0 0-.505.564c0 .167.074.316.188.421a.57.57 0 0 0-.506.564c0 .168.074.316.188.422a.57.57 0 0 0-.506.564c0 .168.075.317.19.422a.57.57 0 0 0-.508.564c0 .17.075.319.19.424a.57.57 0 0 0-.51.565c0 .318.258.577.575.577a.576.576 0 0 0 .385-1.001.57.57 0 0 0 .509-.565.57.57 0 0 0-.19-.422.57.57 0 0 0 .508-.564.57.57 0 0 0-.189-.422.57.57 0 0 0 .507-.564.57.57 0 0 0-.187-.422.57.57 0 0 0 .505-.563.57.57 0 0 0-.187-.421.57.57 0 0 0 .505-.564.57.57 0 0 0-.186-.42.57.57 0 0 0 .318-.985.57.57 0 0 0 .318-.983.57.57 0 0 0 .321-.981.57.57 0 0 0 .503-.566c0-.32-.26-.58-.578-.58a.579.579 0 0 0-.393 1.002"/><path fill="#fff" d="M25.532 1.948a.572.572 0 0 0-.318.98.572.572 0 0 0-.317.982.572.572 0 0 0-.316.98.572.572 0 0 0-.317.981.572.572 0 0 0-.317.981.572.572 0 0 0-.317.981.572.572 0 0 0-.317.98.573.573 0 0 0-.317.982.57.57 0 0 0-.495.564c0 .32.258.58.577.58a.58.58 0 0 0 .399-.997.572.572 0 0 0 .316-.981.572.572 0 0 0 .317-.98.572.572 0 0 0 .318-.982.572.572 0 0 0 .316-.98.573.573 0 0 0 .317-.981.572.572 0 0 0 .317-.981.573.573 0 0 0 .317-.981.573.573 0 0 0 .317-.98.57.57 0 0 0 .495-.565.58.58 0 0 0-.577-.58.579.579 0 0 0-.398.997"/><path fill="#fff" d="M26.747 2.39a.572.572 0 0 0-.318.984.572.572 0 0 0-.318.983.572.572 0 0 0-.317.984.573.573 0 0 0-.318.984.573.573 0 0 0-.318.985.573.573 0 0 0-.317.986.573.573 0 0 0-.322.984.576.576 0 0 0-.318.99.57.57 0 0 0-.502.566.579.579 0 1 0 .972-.42.576.576 0 0 0 .322-.99.572.572 0 0 0 .316-.985.573.573 0 0 0 .503-.566.58.58 0 0 0-.184-.42.573.573 0 0 0 .32-.984.573.573 0 0 0 .318-.984.573.573 0 0 0 .319-.984.572.572 0 0 0 .318-.983.573.573 0 0 0 .318-.983.57.57 0 0 0 .5-.565.58.58 0 0 0-.578-.58.579.579 0 0 0-.396.999"/><path fill="#fff" d="M27.922 2.912a.578.578 0 0 0-.323.99.578.578 0 0 0-.32.993.578.578 0 0 0-.321.992.578.578 0 0 0-.32.994.58.58 0 0 0-.509.572c0 .168.074.318.188.425a.58.58 0 0 0-.512.572c0 .17.075.32.19.427a.58.58 0 0 0-.516.573c0 .17.075.32.19.426a.58.58 0 0 0-.52.576c0 .172.075.323.192.431a.58.58 0 0 0-.523.576c0 .326.263.59.586.59a.587.587 0 0 0 .393-1.02.58.58 0 0 0 .523-.577.58.58 0 0 0-.192-.43.579.579 0 0 0 .328-1 .578.578 0 0 0 .329-.998.578.578 0 0 0 .326-.995.578.578 0 0 0 .325-.994.578.578 0 0 0 .324-.992.578.578 0 0 0 .323-.991.578.578 0 0 0 .319-.992c.28-.041.5-.274.5-.567a.58.58 0 0 0-.58-.584.582.582 0 0 0-.4 1.003"/><path fill="#fff" d="M29.069 3.515a.58.58 0 0 0-.516.575c0 .17.074.32.188.428a.58.58 0 0 0-.515.575c0 .172.076.323.193.431a.58.58 0 0 0-.52.574c0 .172.078.323.195.43a.583.583 0 0 0-.528.578c0 .172.076.323.194.431a.585.585 0 0 0-.53.58c0 .176.08.33.2.438a.583.583 0 0 0-.533.578c0 .177.081.33.203.439a.587.587 0 0 0-.546.583c0 .18.084.335.21.443a.587.587 0 0 0-.555.585c0 .184.088.341.218.45a.59.59 0 0 0 .02 1.18.59.59 0 0 0 .588-.592.58.58 0 0 0-.218-.45.584.584 0 0 0 .36-1.032.586.586 0 0 0 .555-.584.59.59 0 0 0-.206-.442.583.583 0 0 0 .542-.58.58.58 0 0 0-.198-.434.585.585 0 0 0 .537-.582.59.59 0 0 0-.195-.434.58.58 0 0 0 .526-.577.58.58 0 0 0-.197-.434.58.58 0 0 0 .525-.574.58.58 0 0 0-.191-.429.582.582 0 0 0 .335-1.004.58.58 0 0 0 .515-.575c0-.17-.074-.32-.189-.428a.58.58 0 0 0 .512-.572.584.584 0 0 0-.582-.586.584.584 0 0 0-.397 1.011"/><path fill="#fff" d="M30.178 4.196a.585.585 0 0 0-.535.58c0 .176.08.33.2.438a.586.586 0 0 0-.537.58c0 .178.081.332.203.44a.586.586 0 0 0-.544.584c0 .179.084.334.209.442a.587.587 0 0 0-.552.585c0 .182.086.338.214.447a.59.59 0 0 0-.563.587c0 .185.089.343.221.452a.583.583 0 0 0-.35 1.045.593.593 0 0 0-.591.594c0 .198.102.365.25.473-.01 0-.02-.006-.031-.006a.593.593 0 0 0-.592.595c0 .213.118.392.286.497-.027-.004-.052-.017-.08-.017a.593.593 0 0 0-.592.595c0 .329.264.595.591.595a.587.587 0 0 0 .305-1.092c.028.004.053.017.082.017a.586.586 0 0 0 .34-1.068c.011 0 .02.006.032.006a.586.586 0 0 0 .362-1.054.59.59 0 0 0 .589-.591.58.58 0 0 0-.221-.452.59.59 0 0 0 .576-.59.59.59 0 0 0-.214-.446.59.59 0 0 0 .563-.587.59.59 0 0 0-.208-.443.586.586 0 0 0 .552-.584.59.59 0 0 0-.203-.44.586.586 0 0 0 .543-.583.59.59 0 0 0-.199-.436.586.586 0 0 0 .537-.582.59.59 0 0 0-.199-.436.583.583 0 0 0 .53-.578.59.59 0 0 0-.585-.59.587.587 0 0 0-.39 1.023"/><path fill="#fff" d="M31.242 4.95a.59.59 0 0 0-.56.589c0 .181.086.338.214.448a.585.585 0 0 0-.345 1.041.586.586 0 0 0-.35 1.049.593.593 0 0 0-.59.594c0 .197.101.363.248.47-.01 0-.018-.005-.028-.005a.587.587 0 0 0-.317 1.084c-.022-.002-.042-.013-.065-.013a.593.593 0 0 0-.59.595c0 .22.124.405.3.508-.035-.007-.067-.021-.104-.021a.593.593 0 0 0-.262 1.127c-.05-.014-.098-.03-.15-.03a.6.6 0 0 0-.598.6c0 .332.268.6.597.6a.596.596 0 0 0 .264-1.133c.049.014.096.03.149.03a.59.59 0 0 0 .291-1.108c.035.007.067.022.103.022a.593.593 0 0 0 .592-.595.59.59 0 0 0-.275-.489c.023.002.042.013.065.013a.593.593 0 0 0 .591-.595.59.59 0 0 0-.247-.471c.01 0 .018.006.027.006a.593.593 0 0 0 .592-.595.59.59 0 0 0-.227-.457.593.593 0 0 0 .59-.594.59.59 0 0 0-.219-.452.587.587 0 0 0 .362-1.04.59.59 0 0 0 .565-.59.59.59 0 0 0-.21-.446.59.59 0 0 0-.033-1.177.59.59 0 0 0-.59.592c0 .18.084.335.21.443"/><path fill="#fff" d="M32.033 5.32c0 .187.092.348.227.457a.593.593 0 0 0-.59.594c0 .196.1.362.244.47-.008 0-.015-.005-.024-.005a.594.594 0 0 0-.592.595c0 .205.11.377.268.484-.02-.001-.035-.01-.055-.01a.594.594 0 0 0-.591.594c0 .214.118.393.287.498-.029-.005-.054-.017-.085-.017a.596.596 0 0 0-.594.597c0 .223.127.41.307.513-.038-.007-.073-.023-.114-.023a.6.6 0 0 0-.258 1.137c-.052-.015-.103-.033-.16-.033a.6.6 0 0 0-.597.6.6.6 0 0 0 .597.602.6.6 0 0 0 .258-1.137c.052.014.103.032.16.032a.593.593 0 0 0 .288-1.116c.038.008.073.023.113.023a.596.596 0 0 0 .595-.598.59.59 0 0 0-.289-.5c.029.004.054.017.083.017a.586.586 0 0 0 .324-1.08c.02.003.036.012.055.012a.593.593 0 0 0 .591-.595c0-.196-.1-.361-.245-.47q.013.003.025.005a.587.587 0 0 0 .364-1.052.593.593 0 0 0 .591-.595.593.593 0 1 0-1.183 0"/><path fill="#fff" d="M32.982 6.197c0 .213.117.39.283.495-.026-.003-.05-.015-.076-.015a.593.593 0 0 0-.592.595c0 .22.124.404.302.507-.036-.006-.068-.02-.105-.02a.593.593 0 0 0-.27 1.123c-.045-.012-.088-.029-.137-.029a.596.596 0 0 0-.242 1.141.6.6 0 0 0-.18-.037c-.33 0-.597.27-.597.601 0 .332.267.6.597.6a.6.6 0 0 0 .244-1.146.6.6 0 0 0 .178.036.593.593 0 0 0 .27-1.123c.044.011.088.028.137.028a.59.59 0 0 0 .291-1.108c.035.007.067.021.104.021a.586.586 0 0 0 .308-1.09c.026.004.05.016.076.016a.593.593 0 0 0 .592-.595.593.593 0 0 0-.592-.595.593.593 0 0 0-.591.595"/><path fill="#fff" d="M33.866 7.136c0 .235.138.434.335.531-.05-.013-.098-.03-.151-.03a.596.596 0 0 0-.595.598c0 .33.266.597.595.597a.596.596 0 0 0 .26-1.129c.048.013.097.03.15.03a.596.596 0 0 0 .595-.597.596.596 0 0 0-.594-.598.597.597 0 0 0-.595.598"/><path fill="#fff" d="M34.689 8.131c0 .332.267.601.597.601s.596-.269.596-.6c0-.332-.267-.601-.596-.601-.33 0-.598.269-.598.6M35.438 9.18c0 .337.27.609.605.609a.607.607 0 0 0 .606-.61.61.61 0 0 0-.606-.608.607.607 0 0 0-.605.609"/><path fill="#fff" d="M36.14 10.183a.6.6 0 0 0-.576-.462.604.604 0 0 0-.598.572.595.595 0 0 0-.583-.506.605.605 0 0 0-.603.606.6.6 0 0 0 1.199.037.6.6 0 0 0 .585.509.6.6 0 0 0 .588-.516.6.6 0 0 0 .579.465.61.61 0 0 0 .608-.612.61.61 0 0 0-.608-.612.6.6 0 0 0-.59.519"/><path fill="#fff" d="M36.768 11.208a.61.61 0 0 0-.56-.37c-.276 0-.5.187-.576.44a.61.61 0 0 0-.57-.401.606.606 0 0 0-.59.49.6.6 0 0 0-.572-.433.604.604 0 0 0-.598.558.596.596 0 0 0-.58-.492.605.605 0 0 0-.603.607c0 .334.27.605.603.605a.6.6 0 0 0 .592-.552c.055.281.29.497.586.497a.6.6 0 0 0 .583-.483.61.61 0 0 0 .578.438c.278 0 .503-.189.58-.443a.61.61 0 0 0 .567.398c.264 0 .484-.17.57-.405a.616.616 0 0 0 1.183-.246.62.62 0 0 0-.618-.62.61.61 0 0 0-.575.412"/><path fill="#fff" d="M37.32 12.341a.61.61 0 0 0-.547-.345.62.62 0 0 0-.568.38.61.61 0 0 0-.548-.35c-.26 0-.48.165-.57.396a.61.61 0 0 0-.557-.364c-.27 0-.494.179-.575.424a.61.61 0 0 0-.565-.382.6.6 0 0 0-.583.476.6.6 0 0 0-.572-.427.603.603 0 0 0-.594.54.6.6 0 0 0-.58-.478.607.607 0 0 0-.605.609c0 .336.271.609.606.609a.6.6 0 0 0 .59-.536.6.6 0 0 0 .583.48.6.6 0 0 0 .58-.473c.08.247.303.43.575.43.27 0 .49-.178.573-.421.091.225.31.385.567.385.261 0 .481-.166.57-.397a.612.612 0 0 0 1.123-.012c.1.207.306.352.55.352a.62.62 0 0 0 .562-.368.61.61 0 0 0 .546.345c.34 0 .617-.277.617-.62a.615.615 0 0 0-1.178-.252"/><path fill="#fff" d="M37.79 13.527a.61.61 0 0 0-.534-.33.61.61 0 0 0-.552.354.61.61 0 0 0-.538-.335.61.61 0 0 0-.555.361.61.61 0 0 0-.542-.342.61.61 0 0 0-.56.367.61.61 0 0 0-.546-.348.62.62 0 0 0-.569.379.61.61 0 0 0-.549-.35.61.61 0 0 0-.572.397.62.62 0 0 0-.559-.364.61.61 0 0 0-.583.454.6.6 0 0 0-.564-.4.6.6 0 0 0-.589.528.6.6 0 0 0-.579-.473.61.61 0 0 0-.605.609c0 .336.271.61.605.61a.6.6 0 0 0 .59-.528.6.6 0 0 0 .578.472.6.6 0 0 0 .572-.442.61.61 0 0 0 .575.411.615.615 0 0 0 .573-.398.615.615 0 0 0 1.126-.014c.1.206.306.35.55.35a.62.62 0 0 0 .562-.37.61.61 0 0 0 .544.345c.247 0 .457-.149.555-.36a.61.61 0 0 0 .542.342.61.61 0 0 0 .549-.352.61.61 0 0 0 .54.338c.24 0 .443-.14.545-.342a.612.612 0 0 0 1.159-.291.62.62 0 0 0-.62-.624.62.62 0 0 0-.548.346"/><path fill="#fff" d="M38.18 14.737a.61.61 0 0 0-.527-.313.62.62 0 0 0-.538.329.61.61 0 0 0-.529-.318.61.61 0 0 0-.54.335.61.61 0 0 0-.532-.323.61.61 0 0 0-.544.344.61.61 0 0 0-.533-.329.61.61 0 0 0-.548.35.61.61 0 0 0-.538-.336.61.61 0 0 0-.551.356.61.61 0 0 0-.543-.341.62.62 0 0 0-.56.366.61.61 0 0 0-.546-.344.62.62 0 0 0-.568.38.61.61 0 0 0-.55-.352.61.61 0 0 0-.576.415.61.61 0 0 0-1.173.243.607.607 0 0 0 1.181.207.616.616 0 0 0 1.136-.004c.1.207.306.352.55.352.25 0 .464-.15.56-.366a.61.61 0 0 0 .546.344.61.61 0 0 0 .554-.358.61.61 0 0 0 .54.337.61.61 0 0 0 .547-.349.61.61 0 0 0 .538.335c.239 0 .44-.14.541-.34a.61.61 0 0 0 .537.331.61.61 0 0 0 .538-.332.61.61 0 0 0 .535.326.61.61 0 0 0 .534-.326.62.62 0 0 0 .532.32.62.62 0 0 0 .533-.32.62.62 0 0 0 .53.317.627.627 0 0 0 .626-.63.627.627 0 0 0-.626-.629.62.62 0 0 0-.535.323"/><path fill="#fff" d="M38.478 15.957a.62.62 0 0 0-.512-.284.62.62 0 0 0-.527.307.62.62 0 0 0-.522-.301.62.62 0 0 0-.53.312.62.62 0 0 0-.522-.305.62.62 0 0 0-.524.307.63.63 0 0 0-.532-.31.63.63 0 0 0-.538.32.61.61 0 0 0-.521-.303.62.62 0 0 0-.537.327.61.61 0 0 0-.528-.317.61.61 0 0 0-.54.335.61.61 0 0 0-.531-.323.61.61 0 0 0-.54.337.61.61 0 0 0-.54-.33.62.62 0 0 0-.55.346.62.62 0 0 0-.539-.33.624.624 0 0 0-.623.626.617.617 0 0 0 1.173.28.62.62 0 0 0 .54.33c.24 0 .443-.142.547-.342.105.19.3.325.532.325a.61.61 0 0 0 .537-.332c.106.19.301.325.534.325a.61.61 0 0 0 .533-.324c.108.188.301.32.532.32a.61.61 0 0 0 .525-.31c.11.184.304.315.535.315.23 0 .423-.13.534-.316.11.178.298.302.521.302a.62.62 0 0 0 .525-.308c.111.18.3.307.527.307a.62.62 0 0 0 .524-.304.62.62 0 0 0 .525.304.62.62 0 0 0 .514-.288.635.635 0 0 0 1.17-.35.635.635 0 0 0-1.171-.348"/><path fill="#fff" d="M38.707 17.208a.636.636 0 0 0-1.035.001.637.637 0 0 0-1.048.015.62.62 0 0 0-.508-.276c-.22 0-.406.12-.52.294a.62.62 0 0 0-.519-.293.62.62 0 0 0-.524.3.62.62 0 0 0-.517-.292.62.62 0 0 0-.522.301.62.62 0 0 0-.52-.299.62.62 0 0 0-.524.304.62.62 0 0 0-.523-.301.62.62 0 0 0-.527.31.62.62 0 0 0-.523-.303c-.219 0-.402.12-.514.291a.636.636 0 0 0-1.18.342.636.636 0 0 0 1.183.337c.112.17.294.288.512.288a.62.62 0 0 0 .524-.307c.11.18.3.306.525.306a.62.62 0 0 0 .524-.304.62.62 0 0 0 .522.302c.224 0 .411-.125.523-.302a.62.62 0 0 0 .52.299c.221 0 .406-.121.518-.294.113.175.3.298.523.298.222 0 .407-.12.52-.293a.62.62 0 0 0 .52.292.62.62 0 0 0 .508-.277.636.636 0 0 0 1.047.012.636.636 0 0 0 1.036 0 .64.64 0 0 0 .517.267c.353 0 .64-.288.64-.643a.637.637 0 0 0-1.158-.375"/><path fill="#fff" d="M39.352 18.22a.64.64 0 0 0-.514.259.65.65 0 0 0-.514-.259.65.65 0 0 0-.514.259.64.64 0 0 0-.514-.259.64.64 0 0 0-.516.262.64.64 0 0 0-1.03.007.635.635 0 0 0-1.026.005.636.636 0 0 0-1.026-.004.64.64 0 0 0-1.035-.004.64.64 0 0 0-.515-.262.64.64 0 0 0-.516.263.64.64 0 0 0-1.035.006.637.637 0 0 0-1.153.382c0 .355.287.643.64.643.21 0 .397-.104.513-.262a.64.64 0 0 0 1.036.004.64.64 0 0 0 1.03 0 .64.64 0 0 0 1.035-.004.635.635 0 0 0 1.026-.004c.117.16.303.264.514.264.21 0 .395-.103.511-.26.118.16.305.266.518.266a.64.64 0 0 0 .513-.258.644.644 0 0 0 1.03.002.64.64 0 0 0 .514.258c.21 0 .395-.102.514-.258A.644.644 0 0 0 40 18.872a.65.65 0 0 0-.648-.652"/><path fill="#fff" d="M39.879 20.167c0 2.79-2.25 5.051-5.023 5.051-2.774 0-5.023-2.261-5.023-5.05 0-2.79 2.249-5.052 5.023-5.052s5.023 2.262 5.023 5.051"/></svg>