<svg xmlns="http://www.w3.org/2000/svg" width="180" height="45" fill="none"><path fill="#fff" d="M73.248 19.2v-5.442l-2.714 2.97-2.714-2.97v5.443h-2.462V9.976h1.59l3.586 3.948 3.587-3.948h1.59v9.225zM80.867 14.589c0 1.513 1.202 2.453 2.5 2.453 1.28 0 2.502-.94 2.502-2.453s-1.221-2.472-2.501-2.472c-1.3 0-2.5.959-2.5 2.472m7.483 0c0 2.619-2.23 4.722-4.982 4.722s-4.963-2.103-4.963-4.722 2.21-4.742 4.963-4.742 4.983 2.122 4.983 4.742M99.186 11.563l-1.474 1.513c-.795-.701-1.493-.942-2.345-.942-1.3 0-2.501.942-2.501 2.455s1.202 2.453 2.5 2.453c.853 0 1.551-.24 2.346-.94l1.474 1.512a5.09 5.09 0 0 1-3.82 1.697c-2.752 0-4.962-2.103-4.962-4.722s2.21-4.723 4.963-4.723a5.1 5.1 0 0 1 3.819 1.697M104.173 19.2h-2.463V9.977h2.463v3.376h1.454l2.558-3.376h2.733l-3.372 4.502 3.547 4.723h-2.753l-2.713-3.58h-1.454zM114.782 14.589c0 1.513 1.202 2.453 2.5 2.453 1.28 0 2.501-.94 2.501-2.453s-1.221-2.472-2.501-2.472c-1.298 0-2.5.959-2.5 2.472m7.483 0c0 2.619-2.23 4.722-4.983 4.722s-4.963-2.103-4.963-4.722 2.21-4.742 4.963-4.742 4.983 2.122 4.983 4.742M130.105 17.208c.931 0 1.241-.424 1.241-.96 0-.516-.31-.921-1.202-.94h-2.733v1.9zm-2.694-3.597h2.481c.698-.02 1.008-.333 1.008-.83 0-.499-.329-.812-1.047-.812h-2.442zm2.617-3.635c2.307 0 3.334.941 3.334 2.51 0 .866-.368 1.586-1.318 1.9 1.183.257 1.764 1.033 1.764 2.066 0 1.955-1.124 2.749-3.761 2.749h-5.098V9.976zM144.651 11.563l-1.473 1.513c-.795-.701-1.493-.942-2.346-.942-1.299 0-2.5.942-2.5 2.455s1.201 2.453 2.5 2.453c.853 0 1.551-.24 2.346-.94l1.473 1.512a5.09 5.09 0 0 1-3.819 1.697c-2.753 0-4.963-2.103-4.963-4.722s2.21-4.723 4.963-4.723c1.532 0 2.908.664 3.819 1.697M149.639 19.2h-2.462V9.977h2.462v3.376h1.453l2.56-3.376h2.733l-3.374 4.502 3.549 4.723h-2.753l-2.715-3.58h-1.453zM165.242 19.2v-5.442l-4.963 5.443h-1.59V9.976h2.463v5.442l4.962-5.442h1.59v9.225zM172.478 6.379h1.705c0 .664.582 1.18 1.338 1.18s1.357-.516 1.357-1.18h1.687c0 1.623-1.357 2.804-3.044 2.804-1.686 0-3.043-1.18-3.043-2.804m5.059 12.822v-5.443l-4.962 5.443h-1.59V9.976h2.462v5.442l4.963-5.442h1.589v9.225zM72.046 36.42v-6.956H67.82v6.955h-2.462v-9.224h9.15v9.224zM79.68 31.807c0 1.513 1.203 2.454 2.502 2.454 1.279 0 2.5-.941 2.5-2.454s-1.221-2.472-2.5-2.472c-1.299 0-2.501.959-2.501 2.472m7.483 0c0 2.62-2.228 4.723-4.981 4.723s-4.963-2.103-4.963-4.723 2.21-4.741 4.963-4.741 4.981 2.121 4.981 4.74M90.859 36.42H88.24l4.478-9.225h1.59l4.478 9.224H96.19l-2.676-5.774zM107.458 36.42v-5.443l-4.963 5.442h-1.589v-9.224h2.462v5.442l4.963-5.442h1.589v9.224zM117.787 36.42h-2.444v-6.956h-3.024v-2.269h8.491v2.27h-3.023zM124.901 30.977h4.44c0-.222-.078-.517-.233-.738-.33-.59-1.027-1.033-1.958-1.033-1.318 0-2.21.885-2.249 1.77m6.514-1.421c.407.849.426 2.103.155 2.896h-6.766c0 1.255 1.086 1.938 2.404 1.938 1.008 0 2.055-.222 2.927-.646l1.299 1.347c-1.047.738-2.5 1.439-4.226 1.439-2.946 0-4.943-2.03-4.943-4.723 0-2.62 1.861-4.741 4.885-4.741 2.074 0 3.528.94 4.265 2.49M135.974 36.42h-2.85l3.781-4.797-3.567-4.428h2.849l2.152 2.546 2.094-2.546h2.83l-3.567 4.52 3.8 4.704h-2.85l-2.365-2.84zM35.845 22.688l.017.016.017-.016-.017-.015zM35.766 24.107l-.038.035.038.036.037-.036zM35.543 25.574l-.065-.061-.064.061.064.06zM35.006 26.854a.11.11 0 0 0-.112.106c0 .058.05.106.112.106a.11.11 0 0 0 .111-.106.11.11 0 0 0-.111-.107M34.355 28.117a.165.165 0 0 0-.17.16c0 .09.076.162.17.162.092 0 .169-.072.169-.161a.165.165 0 0 0-.17-.161M33.533 29.334c-.1 0-.182.077-.182.174s.081.174.182.174.183-.078.183-.174a.18.18 0 0 0-.183-.174M32.777 30.63a.215.215 0 0 0-.22-.209.215.215 0 0 0-.22.21c0 .115.098.209.22.209.121 0 .22-.094.22-.21M31.44 31.405c-.128 0-.233.1-.233.223 0 .122.105.222.233.222.13 0 .234-.1.234-.222a.23.23 0 0 0-.234-.223M30.202 32.249a.24.24 0 0 0-.247.235c0 .13.11.235.247.235a.24.24 0 0 0 .247-.235c0-.13-.11-.235-.247-.235M28.861 32.932a.26.26 0 0 0-.267.254c0 .14.12.254.267.254a.26.26 0 0 0 .267-.254.26.26 0 0 0-.267-.254M27.438 33.465c-.15 0-.271.115-.271.257s.121.258.27.258.271-.115.271-.258a.264.264 0 0 0-.27-.257M25.954 33.82a.27.27 0 0 0-.277.264.27.27 0 0 0 .277.265.27.27 0 0 0 .277-.265.27.27 0 0 0-.277-.263M24.436 33.997a.277.277 0 0 0-.285.27c0 .15.127.27.285.27a.28.28 0 0 0 .284-.27c0-.15-.128-.27-.284-.27M22.904 33.997a.277.277 0 0 0-.284.27c0 .15.127.27.284.27a.277.277 0 0 0 .284-.27c0-.15-.127-.27-.284-.27M21.676 34.085a.284.284 0 0 0-.29-.277.284.284 0 0 0-.291.276c0 .154.13.278.29.278.161 0 .291-.124.291-.278M20.207 33.722c0-.16-.136-.29-.304-.29a.297.297 0 0 0-.304.29c0 .16.136.29.304.29s.304-.13.304-.29M18.796 33.186a.31.31 0 0 0-.318-.303.31.31 0 0 0-.318.303.31.31 0 0 0 .318.303.31.31 0 0 0 .318-.303M17.475 32.484a.33.33 0 0 0-.338-.322.33.33 0 0 0-.338.322.33.33 0 0 0 .338.323.33.33 0 0 0 .338-.323M16.273 31.628a.367.367 0 0 0-.375-.357.366.366 0 0 0-.375.357c0 .197.168.357.375.357s.375-.16.375-.357M14.783 31.004a.383.383 0 0 0 .392-.373.383.383 0 0 0-.392-.373.383.383 0 0 0-.392.373c0 .206.175.373.392.373M13.807 29.91c.233 0 .422-.18.422-.402a.413.413 0 0 0-.422-.403.413.413 0 0 0-.423.403c0 .222.19.402.423.402M13.449 28.278a.45.45 0 0 0-.463-.44.45.45 0 0 0-.463.44c0 .243.207.44.463.44a.45.45 0 0 0 .463-.44M12.333 27.413a.466.466 0 0 0 .477-.454.466.466 0 0 0-.477-.453.465.465 0 0 0-.477.453c0 .25.213.454.477.454M11.86 26.053a.49.49 0 0 0 .505-.479.49.49 0 0 0-.504-.48.49.49 0 0 0-.504.48c0 .265.226.48.504.48M11.573 24.628c.282 0 .51-.217.51-.486a.5.5 0 0 0-.51-.485.5.5 0 0 0-.51.485c0 .269.229.486.51.486M11.478 23.18c.285 0 .516-.22.516-.492a.505.505 0 0 0-.517-.492.505.505 0 0 0-.517.492c0 .272.231.492.517.492M11.574 21.73c.288 0 .521-.223.521-.497a.51.51 0 0 0-.52-.495.51.51 0 0 0-.521.495c0 .274.232.497.52.497M12.385 19.803a.51.51 0 0 0-.524-.499.51.51 0 0 0-.524.499c0 .275.235.499.524.499s.524-.224.524-.5M12.334 17.902a.53.53 0 0 0-.541.515c0 .284.242.515.541.515.298 0 .54-.23.54-.515a.53.53 0 0 0-.54-.515M12.986 16.568a.544.544 0 0 0-.558.53c0 .294.25.531.557.531a.545.545 0 0 0 .558-.53c0-.294-.25-.531-.557-.531M13.806 15.308a.575.575 0 0 0-.588.56c0 .31.263.56.588.56s.588-.25.588-.56c0-.309-.263-.56-.588-.56M14.782 15.318c.332 0 .602-.256.602-.572 0-.317-.27-.573-.602-.573s-.602.256-.602.573.27.572.602.572M15.898 13.147c-.35 0-.632.269-.632.601s.283.602.632.602.632-.27.632-.602-.283-.601-.632-.601M17.137 12.277c-.357 0-.646.276-.646.615 0 .34.29.614.646.614s.646-.275.646-.614c0-.34-.29-.615-.646-.615M18.48 11.57c-.36 0-.653.277-.653.62s.292.621.653.621c.36 0 .652-.278.652-.62 0-.344-.292-.622-.652-.622M19.903 11.023c-.366 0-.663.283-.663.63 0 .349.297.632.663.632s.663-.283.663-.631-.297-.63-.663-.63M21.386 10.654c-.37 0-.67.286-.67.637s.3.638.67.638.669-.286.669-.638c0-.351-.3-.637-.67-.637M34.244 15.869c0-.374-.318-.676-.71-.676s-.71.302-.71.676c0 .373.318.675.71.675s.71-.302.71-.675M37.081 22.682l-.007.006.007.007.008-.007zM36.993 24.117l-.027.025.027.027.027-.027zM36.732 25.521l-.061.058.06.058.061-.058zM36.3 27.074a.1.1 0 0 0 .102-.097.1.1 0 0 0-.101-.097.1.1 0 0 0-.102.097.1.1 0 0 0 .102.097M35.564 28.318c0 .075.063.136.141.136a.14.14 0 0 0 .143-.136.14.14 0 0 0-.143-.135.14.14 0 0 0-.142.135M34.951 29.427a.165.165 0 0 0-.169.161c0 .089.076.161.17.161a.165.165 0 0 0 .168-.161.165.165 0 0 0-.169-.161M33.86 30.767c0 .101.085.184.192.184a.19.19 0 0 0 .192-.184.19.19 0 0 0-.192-.184.19.19 0 0 0-.193.184M33.018 32.044c.117 0 .213-.091.213-.203a.21.21 0 0 0-.213-.203.21.21 0 0 0-.213.202c0 .113.095.204.213.204M31.86 32.572c-.13 0-.234.1-.234.223 0 .122.105.222.233.222.13 0 .234-.1.234-.222a.23.23 0 0 0-.234-.223M30.595 33.845c.133 0 .24-.102.24-.228a.235.235 0 0 0-.24-.229.234.234 0 0 0-.24.229c0 .126.108.228.24.228M29.24 34.542c.142 0 .257-.11.257-.245a.25.25 0 0 0-.257-.245.25.25 0 0 0-.257.245.25.25 0 0 0 .257.245M27.54 34.826c0 .144.123.26.274.26a.27.27 0 0 0 .274-.26.27.27 0 0 0-.274-.261.27.27 0 0 0-.274.26M26.056 35.196a.27.27 0 0 0 .276.264.27.27 0 0 0 .278-.264.27.27 0 0 0-.278-.264.27.27 0 0 0-.276.264M24.533 35.404c0 .15.128.27.284.27.157 0 .285-.12.285-.27s-.128-.27-.285-.27a.28.28 0 0 0-.284.27M23.003 35.445c0 .15.127.27.284.27a.28.28 0 0 0 .284-.27c0-.15-.127-.27-.284-.27a.28.28 0 0 0-.284.27M21.762 35.598c.16 0 .29-.124.29-.278a.284.284 0 0 0-.29-.276.284.284 0 0 0-.291.276c0 .154.13.278.29.278M20.26 35.315a.29.29 0 0 0 .297-.284.29.29 0 0 0-.297-.284.29.29 0 0 0-.298.284.29.29 0 0 0 .298.284M18.804 34.877a.304.304 0 0 0 .311-.296.304.304 0 0 0-.311-.297.304.304 0 0 0-.31.297c0 .163.138.296.31.296M17.41 34.284c.18 0 .325-.138.325-.309s-.145-.31-.325-.31a.317.317 0 0 0-.324.31c0 .171.145.31.324.31M16.1 33.565a.35.35 0 0 0 .358-.342.35.35 0 0 0-.358-.342.35.35 0 0 0-.359.342c0 .189.16.342.359.342M14.887 32.7a.377.377 0 0 0 .386-.367.376.376 0 0 0-.386-.366.376.376 0 0 0-.385.366c0 .203.173.367.385.367M13.79 31.704a.397.397 0 0 0 .405-.386.397.397 0 0 0-.406-.386.397.397 0 0 0-.405.386c0 .213.182.386.405.386M12.82 29.774a.427.427 0 0 0-.437.416c0 .229.195.415.436.415s.436-.186.436-.415a.426.426 0 0 0-.436-.416M11.991 29.405a.45.45 0 0 0 .464-.44.45.45 0 0 0-.464-.442.45.45 0 0 0-.463.441c0 .243.208.44.463.44M11.316 28.11a.466.466 0 0 0 .476-.454.466.466 0 0 0-.476-.453.466.466 0 0 0-.477.453c0 .25.213.454.476.454M11.299 26.284a.485.485 0 0 0-.497-.473.485.485 0 0 0-.497.473c0 .261.222.473.497.473a.486.486 0 0 0 .497-.473M10.456 25.347c.28 0 .507-.216.507-.482a.495.495 0 0 0-.507-.483.496.496 0 0 0-.508.483c0 .266.227.482.508.482M10.28 23.906c.284 0 .514-.22.514-.49s-.23-.488-.514-.488a.5.5 0 0 0-.514.489c0 .27.23.489.514.489M10.281 22.455c.287 0 .52-.222.52-.496a.51.51 0 0 0-.52-.495.51.51 0 0 0-.521.495c0 .274.233.496.521.496M10.979 20.512a.51.51 0 0 0-.524-.499.51.51 0 0 0-.524.5c0 .274.234.498.524.498s.524-.223.524-.499M11.333 19.093a.52.52 0 0 0-.53-.505.52.52 0 0 0-.532.505c0 .279.238.505.532.505.292 0 .53-.226.53-.505M11.317 17.208a.525.525 0 0 0-.538.512c0 .282.24.511.538.511.297 0 .537-.229.537-.51a.525.525 0 0 0-.537-.513M12.54 16.413a.535.535 0 0 0-.548-.522.535.535 0 0 0-.548.522c0 .288.245.521.548.521a.535.535 0 0 0 .547-.521M13.398 15.187a.565.565 0 0 0-.578-.55.565.565 0 0 0-.578.55c0 .304.259.55.578.55a.564.564 0 0 0 .578-.55"/><path fill="#fff" d="M14.381 14.058c0-.31-.265-.562-.592-.562s-.59.251-.59.562.264.564.59.564c.327 0 .592-.253.592-.564M15.509 13.042c0-.327-.279-.592-.622-.592-.344 0-.622.265-.622.592s.278.592.622.592.622-.265.622-.592M16.1 12.754c.349 0 .632-.269.632-.601s-.283-.602-.632-.602-.632.27-.632.602.283.601.632.601M18.056 11.4c0-.34-.29-.614-.646-.614s-.645.275-.645.615.289.614.645.614.646-.275.646-.614M19.456 10.795c0-.343-.292-.62-.652-.62s-.653.277-.653.62.293.621.653.621.652-.278.652-.62M20.927 10.345c0-.35-.298-.634-.666-.634s-.666.283-.666.634c0 .35.298.633.666.633s.666-.283.666-.633M22.434 10.055c0-.354-.302-.64-.673-.64s-.673.286-.673.64.301.64.673.64c.371 0 .673-.286.673-.64M38.3 22.676l-.013.013.014.013.013-.013zM38.183 24.143l.037.036.037-.036-.037-.035zM38.044 25.583l-.065-.061-.064.06.064.062zM37.585 26.88a.11.11 0 0 0-.115.11c0 .06.051.11.115.11a.113.113 0 0 0 .115-.11c0-.06-.052-.11-.115-.11M36.917 28.35c0 .063.053.114.118.114.066 0 .12-.05.12-.113a.116.116 0 0 0-.12-.113.116.116 0 0 0-.118.113M36.34 29.81a.165.165 0 0 0 .169-.16.165.165 0 0 0-.17-.162.165.165 0 0 0-.168.162c0 .088.075.16.169.16M35.33 30.872c0 .092.079.167.176.167a.17.17 0 0 0 .176-.168.17.17 0 0 0-.176-.167.17.17 0 0 0-.176.168M34.346 32.004c0 .103.088.186.196.186a.19.19 0 0 0 .196-.186.19.19 0 0 0-.196-.187.19.19 0 0 0-.196.187M33.46 32.822a.22.22 0 0 0-.224.213c0 .117.1.212.223.212a.22.22 0 0 0 .223-.212c0-.118-.1-.213-.223-.213M32.025 33.952c0 .128.11.232.244.232a.24.24 0 0 0 .244-.232.24.24 0 0 0-.244-.233.24.24 0 0 0-.244.233M31.238 34.745a.25.25 0 0 0-.254-.241.25.25 0 0 0-.254.241c0 .134.114.242.254.242s.253-.108.253-.242M29.887 35.407a.26.26 0 0 0-.267-.254.26.26 0 0 0-.268.254c0 .14.12.254.268.254a.26.26 0 0 0 .267-.254M28.461 35.93a.264.264 0 0 0-.27-.258c-.15 0-.271.114-.271.257 0 .142.121.258.27.258s.271-.115.271-.258M26.992 36.307a.274.274 0 0 0-.28-.268c-.156 0-.281.12-.281.267s.125.268.28.268.28-.12.28-.267M25.483 36.535c0-.15-.127-.27-.284-.27a.277.277 0 0 0-.284.27c0 .15.127.27.284.27a.28.28 0 0 0 .284-.27M23.953 36.61c0-.149-.127-.27-.284-.27a.28.28 0 0 0-.284.27c0 .15.127.271.284.271s.284-.12.284-.27M22.425 36.535c0-.15-.128-.27-.284-.27a.277.277 0 0 0-.285.27c0 .15.127.27.285.27a.28.28 0 0 0 .284-.27M20.925 36.306a.29.29 0 0 0-.297-.284.29.29 0 0 0-.298.284.29.29 0 0 0 .298.283.29.29 0 0 0 .297-.283M19.462 35.93c0-.166-.14-.3-.314-.3a.307.307 0 0 0-.315.3c0 .165.141.298.315.298a.307.307 0 0 0 .314-.299M18.04 35.407a.314.314 0 0 0-.32-.306.314.314 0 0 0-.322.306c0 .17.144.306.322.306.177 0 .32-.136.32-.306M16.699 34.745a.337.337 0 0 0-.345-.328.337.337 0 0 0-.345.328c0 .182.155.329.345.329s.345-.147.345-.329M15.07 34.303a.36.36 0 0 0 .369-.35.36.36 0 0 0-.369-.352.36.36 0 0 0-.368.351c0 .193.165.35.368.35M13.879 33.405a.38.38 0 0 0 .389-.37.38.38 0 0 0-.389-.37.38.38 0 0 0-.389.37c0 .204.174.37.389.37M12.797 31.618a.396.396 0 0 0-.405.387c0 .213.181.386.405.386a.396.396 0 0 0 .406-.386.396.396 0 0 0-.406-.387M11.833 31.29a.43.43 0 0 0 .44-.418.43.43 0 0 0-.44-.419.43.43 0 0 0-.44.419c0 .23.197.418.44.418M11 29.222a.44.44 0 0 0-.45.428c0 .236.201.428.45.428.248 0 .449-.192.449-.428a.44.44 0 0 0-.45-.428M10.304 28.804a.465.465 0 0 0 .476-.453.466.466 0 0 0-.476-.454.466.466 0 0 0-.477.454c0 .25.214.453.477.453M10.241 26.99a.476.476 0 0 0-.487-.462.475.475 0 0 0-.486.463c0 .255.217.463.486.463.27 0 .487-.208.487-.463M9.359 26.066c.28 0 .507-.216.507-.483a.495.495 0 0 0-.507-.483.495.495 0 0 0-.507.483c0 .267.227.483.507.483M9.632 24.143c0-.27-.23-.489-.514-.489a.5.5 0 0 0-.514.49c0 .27.23.488.514.488a.5.5 0 0 0 .514-.489M9.039 22.196a.505.505 0 0 0-.518.492c0 .272.232.492.518.492.285 0 .517-.22.517-.492a.505.505 0 0 0-.517-.492M9.12 20.737a.51.51 0 0 0-.521.496c0 .273.233.495.52.495s.52-.222.52-.495a.51.51 0 0 0-.52-.496M9.89 19.793a.52.52 0 0 0-.531-.505.52.52 0 0 0-.53.505c0 .28.237.506.53.506a.52.52 0 0 0 .53-.506M9.755 18.9a.53.53 0 0 0 .541-.514.53.53 0 0 0-.54-.515c-.3 0-.541.23-.541.515 0 .284.242.515.54.515M10.848 17.025a.53.53 0 0 0-.544-.518c-.3 0-.544.232-.544.518s.243.519.544.519c.3 0 .544-.233.544-.519M11.568 15.727a.555.555 0 0 0-.569-.54.554.554 0 0 0-.567.54c0 .298.253.54.567.54a.555.555 0 0 0 .569-.54M12.411 14.504a.565.565 0 0 0-.578-.55c-.319 0-.578.247-.578.55s.26.55.578.55c.32 0 .578-.246.578-.55"/><path fill="#fff" d="M13.396 13.372c0-.314-.268-.57-.599-.57a.584.584 0 0 0-.598.57c0 .315.268.57.598.57s.599-.255.599-.57M13.88 12.924c.337 0 .611-.26.611-.582s-.274-.583-.612-.583-.611.261-.611.583.273.582.611.582M15.07 12.023c.348 0 .63-.269.63-.6s-.282-.598-.63-.598c-.347 0-.629.268-.629.599s.282.599.63.599M16.997 10.63c0-.337-.288-.61-.643-.61s-.642.273-.642.61c0 .338.287.612.642.612s.643-.274.643-.611M17.719 10.59c.36 0 .652-.278.652-.62 0-.343-.292-.622-.652-.622s-.653.279-.653.621c0 .343.293.621.653.621M19.149 10.074c.364 0 .659-.28.659-.627s-.295-.628-.66-.628c-.363 0-.659.281-.659.628 0 .346.296.627.66.627M20.628 8.433c-.37 0-.67.285-.67.637 0 .351.3.637.67.637s.669-.286.669-.637-.3-.637-.67-.637M35.506 15.187c.395 0 .717-.306.717-.683 0-.376-.322-.681-.717-.681-.396 0-.717.305-.717.681s.321.683.717.683M39.52 22.682l-.007.006.007.007.007-.007zM39.445 24.108l-.037.036.037.035.038-.035zM39.224 25.55l-.037.036.037.036.037-.036zM38.858 27.1a.103.103 0 0 0 .104-.1c0-.055-.047-.099-.104-.099a.1.1 0 0 0-.105.1c0 .055.047.1.105.1M38.237 28.376c0 .058.05.106.112.106a.11.11 0 0 0 .111-.106.11.11 0 0 0-.111-.107.11.11 0 0 0-.112.107M37.545 29.697c0 .084.071.152.158.152s.16-.068.16-.152a.155.155 0 0 0-.16-.152.155.155 0 0 0-.158.152M36.769 30.954c0 .084.07.151.159.151.088 0 .159-.067.159-.151a.155.155 0 0 0-.16-.151.155.155 0 0 0-.158.15M36.027 31.956a.18.18 0 0 0-.186.177c0 .097.083.177.185.177.103 0 .186-.08.186-.177a.18.18 0 0 0-.186-.177M35.225 33.224a.21.21 0 0 0-.213-.203.21.21 0 0 0-.213.203c0 .112.095.203.213.203s.213-.091.213-.203M33.657 34.216c0 .123.105.222.234.222.128 0 .233-.099.233-.222a.23.23 0 0 0-.233-.222c-.13 0-.234.1-.234.222M32.92 35.101c0-.13-.11-.235-.247-.235a.24.24 0 0 0-.246.235c0 .13.11.235.246.235a.24.24 0 0 0 .247-.235M31.372 36.118c.144 0 .26-.11.26-.248a.255.255 0 0 0-.26-.248.255.255 0 0 0-.26.248c0 .137.116.248.26.248M30 36.77a.26.26 0 0 0 .266-.254.26.26 0 0 0-.267-.255.26.26 0 0 0-.267.255c0 .14.12.255.267.255M28.567 37.29c.15 0 .27-.115.27-.257a.264.264 0 0 0-.27-.258c-.149 0-.27.115-.27.258 0 .142.121.258.27.258M27.09 37.68a.27.27 0 0 0 .277-.265.27.27 0 0 0-.277-.263.27.27 0 0 0-.277.263.27.27 0 0 0 .277.265M25.58 37.928c.156 0 .281-.12.281-.267a.274.274 0 0 0-.28-.268c-.155 0-.281.12-.281.267s.125.268.28.268M24.053 38.037c.156 0 .284-.12.284-.27s-.128-.272-.284-.272a.28.28 0 0 0-.284.271c0 .15.127.271.284.271M22.522 38.002a.277.277 0 0 0 .283-.27c0-.15-.127-.271-.284-.271a.277.277 0 0 0-.284.27c0 .15.127.271.285.271M21 37.833c.161 0 .291-.124.291-.277a.284.284 0 0 0-.29-.277c-.161 0-.291.124-.291.277s.13.277.29.277M19.506 37.519a.284.284 0 0 0 .29-.278.284.284 0 0 0-.29-.276.284.284 0 0 0-.291.276c0 .154.13.278.29.278M18.049 37.094a.31.31 0 0 0 .318-.303.31.31 0 0 0-.318-.303.31.31 0 0 0-.318.303.31.31 0 0 0 .318.303M16.645 36.521a.32.32 0 0 0 .328-.313.32.32 0 0 0-.328-.312.32.32 0 0 0-.329.312.32.32 0 0 0 .329.313M15.668 35.5a.354.354 0 0 0-.361-.344c-.2 0-.362.154-.362.345s.162.344.362.344.361-.154.361-.344M14.422 34.673a.367.367 0 0 0-.375-.357.366.366 0 0 0-.375.357c0 .197.168.357.375.357s.375-.16.375-.357M12.875 34.103a.38.38 0 0 0 .389-.37.38.38 0 0 0-.389-.37.38.38 0 0 0-.389.37c0 .205.174.37.39.37M11.806 33.076a.396.396 0 0 0 .405-.386.396.396 0 0 0-.405-.386.396.396 0 0 0-.406.386c0 .214.182.386.406.386M10.847 31.972a.43.43 0 0 0 .44-.418.43.43 0 0 0-.44-.418.43.43 0 0 0-.44.418c0 .23.197.418.44.418M10.447 30.335a.43.43 0 0 0-.44-.418.43.43 0 0 0-.439.418c0 .231.197.418.44.418s.44-.187.44-.418M9.296 29.498a.466.466 0 0 0 .477-.454.466.466 0 0 0-.477-.454.465.465 0 0 0-.477.454c0 .25.213.454.477.454M9.204 27.694a.475.475 0 0 0-.486-.463.476.476 0 0 0-.488.463c0 .256.218.463.488.463a.475.475 0 0 0 .486-.463M8.28 26.777a.49.49 0 0 0 .504-.48.49.49 0 0 0-.504-.48.49.49 0 0 0-.504.48c0 .265.226.48.504.48M7.987 25.35c.28 0 .507-.216.507-.482a.495.495 0 0 0-.507-.483.495.495 0 0 0-.508.483c0 .267.228.482.508.482M7.839 23.906c.284 0 .514-.22.514-.49s-.23-.488-.514-.488a.5.5 0 0 0-.514.489c0 .27.23.489.514.489M7.838 22.455c.288 0 .52-.222.52-.496a.51.51 0 0 0-.52-.495.51.51 0 0 0-.52.495c0 .274.233.496.52.496M7.985 21.005c.288 0 .521-.222.521-.496a.51.51 0 0 0-.52-.495.51.51 0 0 0-.521.495c0 .274.233.496.52.496M8.808 19.079a.515.515 0 0 0-.528-.502.515.515 0 0 0-.527.502c0 .276.236.502.527.502a.515.515 0 0 0 .528-.502M8.719 18.19a.52.52 0 0 0 .534-.508c0-.28-.24-.508-.534-.508a.52.52 0 0 0-.534.508c0 .281.239.508.534.508M8.755 16.332c0 .284.242.515.54.515.3 0 .541-.23.541-.515a.53.53 0 0 0-.54-.515.53.53 0 0 0-.541.515M10.58 15.042c0-.3-.256-.544-.572-.544a.56.56 0 0 0-.571.544c0 .3.256.543.57.543a.56.56 0 0 0 .572-.543M10.847 13.275a.56.56 0 0 0-.574.547.56.56 0 0 0 .574.547.56.56 0 0 0 .574-.547.56.56 0 0 0-.574-.547"/><path fill="#fff" d="M12.398 12.686c0-.31-.265-.563-.592-.563s-.592.252-.592.563.265.563.592.563.592-.252.592-.563M12.876 11.071c-.332 0-.602.256-.602.573s.27.572.602.572c.333 0 .602-.256.602-.572 0-.317-.27-.573-.602-.573M14.046 11.295c.344 0 .622-.265.622-.592s-.278-.592-.622-.592-.622.265-.622.592.278.592.622.592M14.675 9.876c0 .332.283.601.632.601s.632-.27.632-.601c0-.333-.283-.602-.632-.602s-.632.27-.632.602M17.291 9.167c0-.339-.289-.614-.645-.614S16 8.828 16 9.167c0 .34.29.615.646.615s.645-.275.645-.615M18.702 8.586c0-.343-.293-.621-.653-.621s-.652.278-.652.62c0 .343.292.622.652.622s.652-.279.652-.621M20.174 8.135c0-.352-.3-.637-.669-.637s-.67.285-.67.637.3.637.67.637.67-.285.67-.637M21.678 7.82c0-.355-.303-.643-.676-.643s-.677.288-.677.643.303.644.677.644c.373 0 .676-.288.676-.644M40.738 22.679l-.01.01.01.009.01-.01zM40.67 24.112l-.033.032.033.032.034-.032zM40.521 25.589l-.057-.055-.058.055.058.055zM40.218 27.01l-.095-.09-.095.09.095.09zM39.65 28.512a.12.12 0 0 0 .123-.117.12.12 0 0 0-.122-.116.12.12 0 0 0-.122.116c0 .065.055.117.122.117M39.048 29.6a.14.14 0 0 0-.142.135c0 .075.063.136.142.136s.142-.06.142-.136a.14.14 0 0 0-.142-.135M38.322 31.174a.16.16 0 0 0 .162-.155.16.16 0 0 0-.162-.155.16.16 0 0 0-.163.155.16.16 0 0 0 .163.155M37.307 32.235c0 .091.077.165.172.165a.17.17 0 0 0 .172-.165.17.17 0 0 0-.172-.164.17.17 0 0 0-.172.164M36.524 33.188a.19.19 0 0 0-.196.187c0 .103.088.187.196.187a.19.19 0 0 0 .197-.187.19.19 0 0 0-.197-.187M35.249 34.428c0 .114.097.206.216.206.12 0 .217-.092.217-.206a.21.21 0 0 0-.217-.206.21.21 0 0 0-.216.206M34.312 35.604a.22.22 0 0 0 .226-.216.22.22 0 0 0-.226-.216.22.22 0 0 0-.227.216c0 .119.102.215.227.215M33.073 36.476a.24.24 0 0 0 .243-.232.24.24 0 0 0-.243-.232.24.24 0 0 0-.244.232c0 .128.11.232.244.232M31.759 37.233c.14 0 .253-.108.253-.241a.25.25 0 0 0-.253-.242.25.25 0 0 0-.254.242c0 .133.114.24.254.24M30.378 37.878a.26.26 0 0 0 .267-.254.26.26 0 0 0-.267-.255.26.26 0 0 0-.268.255c0 .14.12.254.268.254M28.945 38.397a.27.27 0 0 0 .274-.26.27.27 0 0 0-.274-.262.27.27 0 0 0-.274.261c0 .144.123.261.274.261M27.468 38.789a.27.27 0 0 0 .276-.265.27.27 0 0 0-.276-.264.27.27 0 0 0-.278.264c0 .146.124.265.278.265M25.96 39.052c.155 0 .281-.12.281-.267a.275.275 0 0 0-.28-.268c-.156 0-.281.12-.281.267s.125.268.28.268M24.436 39.186c.157 0 .284-.121.284-.271s-.127-.27-.284-.27a.28.28 0 0 0-.285.27c0 .15.128.27.285.27M22.904 39.189a.28.28 0 0 0 .287-.274.28.28 0 0 0-.287-.274.28.28 0 0 0-.288.274c0 .151.129.274.288.274M21.378 39.058a.28.28 0 0 0 .287-.274.28.28 0 0 0-.287-.274.28.28 0 0 0-.287.274c0 .151.129.274.287.274M19.872 38.801c.16 0 .29-.124.29-.277a.284.284 0 0 0-.29-.277c-.16 0-.29.124-.29.277s.13.277.29.277M18.395 38.426c.168 0 .304-.13.304-.29s-.136-.29-.304-.29a.297.297 0 0 0-.304.29c0 .16.136.29.304.29M16.96 37.93c.178 0 .322-.137.322-.306a.313.313 0 0 0-.321-.306.314.314 0 0 0-.321.306c0 .169.143.306.32.306M15.581 37.323a.34.34 0 0 0 .348-.331.34.34 0 0 0-.348-.332.34.34 0 0 0-.349.332.34.34 0 0 0 .349.331M14.266 36.588c.2 0 .362-.154.362-.344a.353.353 0 0 0-.362-.345c-.2 0-.362.154-.362.345s.162.344.362.344M13.028 35.745c.207 0 .375-.16.375-.357a.366.366 0 0 0-.376-.357.366.366 0 0 0-.375.357c0 .198.168.357.376.357M11.874 34.812a.393.393 0 0 0 .402-.383.393.393 0 0 0-.402-.383.393.393 0 0 0-.402.383c0 .212.18.383.402.383M10.816 33.774a.41.41 0 0 0 .419-.398.41.41 0 0 0-.42-.4.41.41 0 0 0-.418.4c0 .22.187.398.419.398M9.86 31.817a.43.43 0 0 0-.44.419.43.43 0 0 0 .44.418.43.43 0 0 0 .44-.419.43.43 0 0 0-.44-.418M9.473 31.02a.446.446 0 0 0-.456-.435.446.446 0 0 0-.456.435c0 .24.204.434.456.434a.446.446 0 0 0 .456-.434M8.291 30.19a.465.465 0 0 0 .477-.454.465.465 0 0 0-.477-.454.466.466 0 0 0-.477.454c0 .25.214.453.477.453M7.689 28.853a.47.47 0 0 0 .48-.458.47.47 0 0 0-.48-.456.47.47 0 0 0-.48.456.47.47 0 0 0 .48.457M7.216 27.482a.485.485 0 0 0 .496-.473.485.485 0 0 0-.496-.473.486.486 0 0 0-.497.473c0 .261.222.473.497.473M7.386 25.589a.5.5 0 0 0-.511-.486.5.5 0 0 0-.51.486c0 .268.228.486.51.486s.51-.218.51-.486M6.67 24.633a.5.5 0 0 0 .513-.49c0-.269-.23-.488-.514-.488a.5.5 0 0 0-.514.489c0 .27.23.489.514.489M7.118 22.688a.505.505 0 0 0-.516-.492.505.505 0 0 0-.518.492c0 .272.232.492.518.492.285 0 .516-.22.516-.492M6.67 20.736a.51.51 0 0 0-.52.496c0 .274.232.495.52.495.287 0 .52-.221.52-.495a.51.51 0 0 0-.52-.496M7.403 19.788a.515.515 0 0 0-.528-.502.515.515 0 0 0-.527.502c0 .277.236.502.527.502a.516.516 0 0 0 .528-.502M7.216 18.872c.293 0 .53-.226.53-.505a.52.52 0 0 0-.53-.505.52.52 0 0 0-.531.505c0 .279.237.505.53.505M7.151 16.98c0 .283.24.512.538.512.297 0 .537-.229.537-.511a.525.525 0 0 0-.537-.512.525.525 0 0 0-.538.512M7.747 15.64c0 .287.244.519.544.519s.545-.232.545-.518a.53.53 0 0 0-.545-.519c-.3 0-.544.232-.544.519M8.452 14.357c0 .297.253.538.565.538s.564-.24.564-.538a.55.55 0 0 0-.564-.537.55.55 0 0 0-.565.537M9.285 13.14c0 .302.258.547.575.547a.56.56 0 0 0 .575-.547.56.56 0 0 0-.575-.546.56.56 0 0 0-.575.546"/><path fill="#fff" d="M10.815 12.565c.327 0 .592-.253.592-.564s-.265-.563-.592-.563a.577.577 0 0 0-.591.563c0 .311.264.564.59.564M11.874 10.375c-.332 0-.601.257-.601.573s.269.572.601.572c.333 0 .602-.256.602-.572s-.27-.573-.602-.573M13.027 9.397c-.344 0-.623.265-.623.592s.279.592.623.592.622-.265.622-.592-.279-.592-.622-.592M14.267 8.533c-.348 0-.63.268-.63.599s.282.598.63.598c.347 0 .628-.268.628-.598s-.281-.599-.628-.599M16.22 8.384c0-.336-.285-.608-.638-.608s-.64.272-.64.608.286.608.64.608c.353 0 .639-.272.639-.608M17.61 7.752c0-.341-.29-.618-.648-.618-.36 0-.65.277-.65.618s.29.618.65.618c.358 0 .649-.277.649-.618M18.395 6.61c-.366 0-.664.282-.664.63s.298.63.663.63.663-.282.663-.63-.297-.63-.662-.63M19.871 6.209c-.374 0-.677.288-.677.643s.303.644.677.644c.373 0 .676-.288.676-.644 0-.355-.303-.643-.676-.643M37.478 13.82c.394 0 .714-.304.714-.68 0-.374-.32-.678-.714-.678s-.713.304-.713.679.32.679.713.679M41.958 22.682l-.007.006.007.007.008-.007zM41.893 24.119l-.027.025.027.026.027-.026zM41.759 25.59l-.058-.054-.057.054.057.055zM41.468 27.016l-.084-.08-.085.08.085.08zM41.06 28.411a.116.116 0 0 0-.119-.112.116.116 0 0 0-.118.112c0 .063.053.113.118.113.066 0 .119-.05.119-.113M40.259 29.767c0 .062.052.112.118.112.065 0 .118-.05.118-.112a.116.116 0 0 0-.118-.114.116.116 0 0 0-.118.114M39.849 31.072a.15.15 0 0 0-.153-.145.15.15 0 0 0-.152.145c0 .08.068.145.152.145a.15.15 0 0 0 .153-.145M38.903 32.49c.099 0 .18-.077.18-.171s-.081-.17-.18-.17a.175.175 0 0 0-.18.17c0 .094.08.17.18.17M38.002 33.324a.18.18 0 0 0-.183.174c0 .096.082.174.183.174s.183-.078.183-.174a.18.18 0 0 0-.183-.174M36.791 34.602c0 .11.094.2.21.2s.21-.09.21-.2-.095-.2-.21-.2c-.116 0-.21.09-.21.2M35.907 35.415a.21.21 0 0 0-.217.207c0 .114.097.206.217.206.119 0 .216-.092.216-.206a.21.21 0 0 0-.216-.207M34.727 36.773c.128 0 .233-.1.233-.223a.23.23 0 0 0-.233-.222c-.13 0-.234.1-.234.222 0 .123.105.223.234.223M33.468 37.62c.138 0 .25-.106.25-.238a.245.245 0 0 0-.25-.238.245.245 0 0 0-.25.238c0 .132.112.239.25.239M32.143 38.359c.143 0 .26-.111.26-.248a.255.255 0 0 0-.26-.248.255.255 0 0 0-.261.248c0 .137.116.248.26.248M30.757 38.986a.26.26 0 0 0 .267-.255c0-.14-.12-.254-.267-.254a.26.26 0 0 0-.267.254c0 .141.12.255.267.255M29.32 39.498c.15 0 .27-.116.27-.258a.264.264 0 0 0-.27-.258c-.149 0-.27.115-.27.258 0 .142.121.258.27.258M27.846 39.896a.27.27 0 0 0 .277-.265.27.27 0 0 0-.277-.264.27.27 0 0 0-.278.264c0 .146.125.264.278.264M26.342 40.172c.154 0 .28-.12.28-.267a.274.274 0 0 0-.28-.268.274.274 0 0 0-.281.268c0 .148.125.267.28.267M24.818 40.328c.157 0 .284-.121.284-.271s-.127-.27-.284-.27a.28.28 0 0 0-.284.27c0 .15.128.27.284.27M23.287 40.358a.28.28 0 0 0 .284-.27c0-.15-.127-.271-.285-.271a.28.28 0 0 0-.283.27c0 .15.127.271.284.271M21.758 40.27a.28.28 0 0 0 .287-.274.28.28 0 0 0-.287-.274.28.28 0 0 0-.287.274.28.28 0 0 0 .287.273M20.243 40.06c.16 0 .29-.124.29-.277a.284.284 0 0 0-.29-.277.284.284 0 0 0-.29.277c0 .153.13.277.29.277M18.752 39.734a.29.29 0 0 0 .297-.284.29.29 0 0 0-.297-.283.29.29 0 0 0-.298.283.29.29 0 0 0 .298.284M17.295 39.293c.17 0 .308-.132.308-.293a.3.3 0 0 0-.308-.294.3.3 0 0 0-.308.294.3.3 0 0 0 .308.293M15.883 38.738a.31.31 0 0 0 .318-.303.31.31 0 0 0-.318-.303.31.31 0 0 0-.318.303.31.31 0 0 0 .318.303M14.525 38.102a.35.35 0 0 0 .359-.342.35.35 0 0 0-.359-.342.35.35 0 0 0-.358.342c0 .188.16.342.358.342M13.233 37.336c.207 0 .375-.16.375-.357a.367.367 0 0 0-.375-.357.367.367 0 0 0-.376.357c0 .197.169.357.376.357M12.013 36.461c.21 0 .381-.162.381-.363s-.171-.364-.382-.364a.373.373 0 0 0-.382.364c0 .2.171.363.382.363M10.873 35.5c.219 0 .396-.17.396-.377a.386.386 0 0 0-.396-.376.386.386 0 0 0-.396.376c0 .207.178.377.396.377M9.826 33.674a.396.396 0 0 0-.405.386c0 .213.181.386.405.386a.396.396 0 0 0 .406-.386.396.396 0 0 0-.406-.386M8.873 33.333a.426.426 0 0 0 .437-.415.426.426 0 0 0-.437-.415.426.426 0 0 0-.435.415c0 .229.195.415.435.415M8.473 31.704c0-.235-.2-.425-.447-.425a.436.436 0 0 0-.446.425c0 .234.2.424.446.424.247 0 .447-.19.447-.424M7.288 30.864a.45.45 0 0 0 .46-.438.45.45 0 0 0-.46-.438.45.45 0 0 0-.459.438c0 .242.206.438.46.438M7.14 29.095a.463.463 0 0 0-.474-.45.463.463 0 0 0-.474.45c0 .248.213.45.474.45a.463.463 0 0 0 .474-.45M6.162 28.19a.485.485 0 0 0 .497-.472.485.485 0 0 0-.497-.473.485.485 0 0 0-.497.473c0 .261.223.473.497.473M6.285 26.307a.49.49 0 0 0-.504-.48.49.49 0 0 0-.504.48c0 .264.226.48.504.48a.493.493 0 0 0 .504-.48M5.525 25.356c.282 0 .51-.218.51-.487a.5.5 0 0 0-.51-.485.5.5 0 0 0-.51.485c0 .27.228.486.51.486M5.398 23.906c.284 0 .513-.22.513-.49s-.23-.488-.513-.488a.5.5 0 0 0-.514.489c0 .27.23.489.514.489M5.397 22.455c.287 0 .52-.222.52-.496a.51.51 0 0 0-.52-.495.51.51 0 0 0-.521.495c0 .274.233.496.52.496M5.526 20.012a.51.51 0 0 0-.521.495c0 .274.233.495.52.495s.521-.221.521-.495a.51.51 0 0 0-.52-.495M6.304 19.07a.51.51 0 0 0-.523-.499.51.51 0 0 0-.524.499c0 .275.234.498.524.498.289 0 .523-.223.523-.498M5.63 17.658c0 .279.239.505.531.505a.52.52 0 0 0 .532-.505.52.52 0 0 0-.532-.505.52.52 0 0 0-.53.505M6.125 16.282c0 .284.242.514.541.514s.541-.23.541-.514a.53.53 0 0 0-.54-.515.53.53 0 0 0-.542.515M6.731 14.95c0 .293.25.531.558.531a.545.545 0 0 0 .558-.53.545.545 0 0 0-.558-.532.545.545 0 0 0-.558.531M7.459 13.673c0 .298.254.54.568.54a.555.555 0 0 0 .568-.54.555.555 0 0 0-.568-.54.555.555 0 0 0-.568.54M8.29 12.459c0 .306.262.556.584.556.324 0 .585-.25.585-.556a.57.57 0 0 0-.585-.557.57.57 0 0 0-.584.557"/><path fill="#fff" d="M9.825 10.754c-.327 0-.592.252-.592.563s.265.562.592.562.592-.252.592-.562a.58.58 0 0 0-.592-.563M10.874 9.688c-.328 0-.595.253-.595.566s.267.566.595.566c.329 0 .595-.254.595-.566 0-.313-.266-.566-.595-.566M12.013 8.69c-.342 0-.62.263-.62.589s.278.588.62.588.618-.263.618-.588c0-.326-.277-.59-.618-.59M12.61 8.397c0 .327.278.592.622.592s.622-.265.622-.592-.279-.592-.622-.592c-.344 0-.623.265-.623.592M13.89 7.617c0 .334.285.605.636.605.35 0 .636-.271.636-.605s-.285-.605-.636-.605-.635.27-.635.605M15.233 6.941c0 .341.291.618.65.618.358 0 .649-.277.649-.618s-.29-.618-.65-.618c-.358 0-.649.277-.649.618M16.632 6.376c0 .348.297.63.663.63s.662-.282.662-.63-.296-.63-.662-.63-.663.282-.663.63M18.085 5.926c0 .35.298.634.666.634s.666-.284.666-.634-.298-.634-.666-.634-.666.284-.666.634M20.919 5.592c0-.355-.303-.643-.676-.643s-.677.288-.677.643.303.644.677.644c.373 0 .676-.288.676-.644M43.176 22.684l-.003.004.003.003.004-.003zM43.15 24.144l-.034-.032-.033.032.033.033zM42.98 25.592l-.043-.042-.044.042.044.042zM42.726 27.021l-.088-.084-.088.084.088.084zM42.326 28.424c0-.055-.046-.1-.104-.1a.103.103 0 0 0-.105.1c0 .056.047.1.105.1a.1.1 0 0 0 .104-.1M41.581 29.792c0 .059.05.106.111.106a.11.11 0 0 0 .112-.106.11.11 0 0 0-.111-.107.11.11 0 0 0-.112.107M41.05 30.984a.135.135 0 0 0-.138.132c0 .073.062.132.139.132.076 0 .139-.06.139-.132a.135.135 0 0 0-.14-.132M40.46 32.387a.155.155 0 0 0-.158-.151.155.155 0 0 0-.16.151c0 .084.072.152.16.152s.159-.068.159-.152M39.28 33.6c0 .09.076.164.171.164a.17.17 0 0 0 .173-.164.17.17 0 0 0-.173-.165.17.17 0 0 0-.172.165M38.307 34.744c0 .103.087.187.195.187a.19.19 0 0 0 .197-.187.19.19 0 0 0-.197-.187.19.19 0 0 0-.195.187M37.463 36.018c.118 0 .213-.091.213-.203a.21.21 0 0 0-.213-.203.21.21 0 0 0-.213.203c0 .112.095.203.213.203M36.338 37.017a.22.22 0 0 0 .224-.213c0-.118-.1-.213-.224-.213a.22.22 0 0 0-.223.213c0 .117.1.213.223.213M35.136 37.477a.235.235 0 0 0-.24.23c0 .125.107.228.24.228.132 0 .24-.103.24-.229a.235.235 0 0 0-.24-.229M33.862 38.755c.138 0 .25-.107.25-.239a.245.245 0 0 0-.25-.238.245.245 0 0 0-.25.239c0 .131.112.238.25.238M32.525 39.477c.144 0 .26-.111.26-.248a.254.254 0 0 0-.26-.249c-.143 0-.26.111-.26.249 0 .137.117.248.26.248M31.4 39.838a.26.26 0 0 0-.266-.254.26.26 0 0 0-.267.254c0 .141.12.255.267.255a.26.26 0 0 0 .267-.255M29.969 40.343a.264.264 0 0 0-.27-.258c-.15 0-.271.115-.271.258 0 .142.12.258.27.258s.27-.116.27-.258M28.498 40.739a.27.27 0 0 0-.274-.261.27.27 0 0 0-.274.26c0 .145.123.262.274.262a.27.27 0 0 0 .274-.261M27.005 41.023c0-.15-.127-.271-.283-.271a.28.28 0 0 0-.285.27c0 .15.127.272.285.272a.28.28 0 0 0 .283-.271M25.484 41.195c0-.15-.127-.271-.285-.271a.277.277 0 0 0-.283.27c0 .15.127.271.284.271a.28.28 0 0 0 .284-.27M23.953 41.252c0-.15-.127-.271-.284-.271a.28.28 0 0 0-.284.27c0 .15.127.272.284.272a.28.28 0 0 0 .284-.271M22.423 41.195c0-.15-.128-.271-.284-.271a.277.277 0 0 0-.284.27c0 .15.126.271.284.271a.28.28 0 0 0 .284-.27M20.91 41.023a.284.284 0 0 0-.29-.278.284.284 0 0 0-.292.278c0 .152.13.277.291.277s.29-.125.29-.277M19.413 40.739a.29.29 0 0 0-.298-.283.29.29 0 0 0-.298.283c0 .157.134.284.298.284a.29.29 0 0 0 .298-.284M17.95 40.343a.3.3 0 0 0-.308-.293.3.3 0 0 0-.308.293.3.3 0 0 0 .308.293c.17 0 .307-.131.307-.293M16.523 39.838a.31.31 0 0 0-.319-.302.31.31 0 0 0-.317.302.31.31 0 0 0 .317.304.31.31 0 0 0 .319-.304M14.813 39.541a.32.32 0 0 0 .328-.312.32.32 0 0 0-.328-.313.32.32 0 0 0-.328.313.32.32 0 0 0 .328.312M13.478 38.838a.33.33 0 0 0 .338-.322.33.33 0 0 0-.338-.322.33.33 0 0 0-.338.322.33.33 0 0 0 .338.322M12.203 38.05c.2 0 .363-.153.363-.344a.354.354 0 0 0-.363-.344c-.199 0-.361.154-.361.344s.162.345.361.345M11 37.168a.373.373 0 0 0 .382-.364c0-.2-.17-.363-.382-.363a.373.373 0 0 0-.382.363c0 .201.171.364.382.364M10.27 35.815a.386.386 0 0 0-.395-.377.387.387 0 0 0-.396.377c0 .207.178.376.396.376s.396-.169.396-.376M8.837 35.147c.233 0 .423-.18.423-.402a.413.413 0 0 0-.423-.403.413.413 0 0 0-.423.403c0 .222.19.402.423.402M7.445 33.6c0 .233.198.421.443.421a.43.43 0 0 0 .443-.421.433.433 0 0 0-.443-.422.433.433 0 0 0-.443.422M7.036 31.953a.446.446 0 0 0-.456.435c0 .24.204.434.456.434a.446.446 0 0 0 .457-.434.446.446 0 0 0-.457-.435M6.288 31.557a.45.45 0 0 0 .464-.441.453.453 0 0 0-.464-.441.45.45 0 0 0-.463.441c0 .243.208.44.463.44M6.127 29.793a.47.47 0 0 0-.48-.458.47.47 0 0 0-.48.457c0 .253.215.457.48.457s.48-.204.48-.456M5.116 28.891c.271 0 .49-.208.49-.466a.48.48 0 0 0-.49-.467.48.48 0 0 0-.49.466c0 .259.22.467.49.467M5.201 27.022a.49.49 0 0 0-.5-.476c-.277 0-.5.213-.5.476 0 .262.223.476.5.476.276 0 .5-.214.5-.477M4.402 26.078c.282 0 .511-.217.511-.486a.5.5 0 0 0-.51-.485.5.5 0 0 0-.511.485c0 .269.228.486.51.486M4.222 24.637c.286 0 .518-.22.518-.492a.505.505 0 0 0-.518-.492.505.505 0 0 0-.517.492c0 .272.232.492.517.492M4.163 23.18c.285 0 .518-.22.518-.492a.506.506 0 0 0-.518-.492.505.505 0 0 0-.517.492c0 .272.231.492.517.492M3.705 21.232c0 .271.232.492.517.492s.518-.22.518-.492a.505.505 0 0 0-.518-.493.505.505 0 0 0-.517.493M3.878 19.784c0 .275.235.499.524.499s.524-.224.524-.5a.51.51 0 0 0-.524-.498.51.51 0 0 0-.524.499M4.167 18.355c0 .28.239.508.534.508a.52.52 0 0 0 .534-.508.52.52 0 0 0-.534-.509.52.52 0 0 0-.534.509M4.583 16.952c0 .28.24.508.534.508a.52.52 0 0 0 .535-.508.52.52 0 0 0-.535-.509.52.52 0 0 0-.534.509M5.11 15.584c0 .283.24.511.537.511a.525.525 0 0 0 .538-.511.525.525 0 0 0-.538-.511.525.525 0 0 0-.538.51M5.737 14.26c0 .29.247.525.551.525a.54.54 0 0 0 .552-.525.54.54 0 0 0-.552-.524.54.54 0 0 0-.55.524M6.479 12.988c0 .294.25.531.557.531a.545.545 0 0 0 .559-.53c0-.294-.25-.532-.559-.532a.545.545 0 0 0-.557.531M7.31 11.776c0 .304.258.55.578.55s.578-.246.578-.55a.565.565 0 0 0-.578-.55.565.565 0 0 0-.578.55"/><path fill="#fff" d="M8.836 10.073a.574.574 0 0 0-.588.56c0 .309.263.559.588.559s.588-.25.588-.56-.263-.56-.588-.56M9.876 8.996c-.328 0-.595.253-.595.566s.267.566.595.566c.329 0 .596-.253.596-.566s-.267-.566-.596-.566M11 7.983c-.341 0-.618.264-.618.59 0 .324.277.588.618.588.342 0 .62-.264.62-.588 0-.326-.278-.59-.62-.59M12.203 7.078c-.343 0-.622.265-.622.592s.279.592.622.592c.344 0 .622-.265.622-.592s-.278-.592-.622-.592M13.478 6.255c-.351 0-.636.27-.636.605s.285.605.636.605c.35 0 .635-.271.635-.605s-.284-.605-.635-.605M14.814 5.533c-.357 0-.646.275-.646.615s.29.614.646.614.645-.275.645-.614c0-.34-.289-.615-.645-.615M16.204 4.913c-.362 0-.655.28-.655.624 0 .345.293.625.655.625s.657-.28.657-.625c0-.344-.294-.624-.657-.624M17.642 4.402c-.366 0-.663.283-.663.63 0 .349.297.631.663.631.365 0 .662-.282.662-.63s-.297-.63-.662-.63M19.785 4.637c0-.352-.3-.637-.67-.637s-.669.285-.669.637.3.637.67.637.669-.285.669-.637M21.294 4.353c0-.356-.303-.644-.676-.644s-.677.288-.677.644.304.644.677.644.676-.288.676-.644M38.733 11.777c0 .376.322.682.717.682.396 0 .717-.306.717-.682s-.32-.682-.717-.682c-.395 0-.717.305-.717.682M44.396 22.679l-.01.01.01.009.01-.01zM44.34 24.12l-.028.024.027.026.027-.026zM44.218 25.594l-.047-.046-.048.046.048.045zM43.888 26.962l-.068.064.068.065.067-.065zM43.602 28.435c0-.055-.047-.1-.105-.1a.1.1 0 0 0-.104.1c0 .055.046.1.104.1a.103.103 0 0 0 .105-.1M42.997 29.926c.065 0 .118-.05.118-.113a.116.116 0 0 0-.118-.113.116.116 0 0 0-.118.113c0 .063.053.113.118.113M42.39 31.017a.14.14 0 0 0-.141.135c0 .075.064.135.142.135s.142-.06.142-.135a.14.14 0 0 0-.142-.135M41.831 32.444a.146.146 0 0 0-.148-.141.145.145 0 0 0-.149.141c0 .079.066.142.149.142a.146.146 0 0 0 .148-.142M41.053 33.684a.17.17 0 0 0-.176-.168.17.17 0 0 0-.176.168c0 .092.079.167.176.167a.17.17 0 0 0 .176-.167M39.977 34.68a.19.19 0 0 0-.193.183c0 .102.086.184.193.184a.19.19 0 0 0 .192-.184.19.19 0 0 0-.192-.184M38.987 35.79a.19.19 0 0 0-.196.186c0 .103.088.187.196.187a.19.19 0 0 0 .196-.187.19.19 0 0 0-.196-.187M37.913 36.813a.21.21 0 0 0-.213.203c0 .112.095.203.213.203s.213-.091.213-.203a.21.21 0 0 0-.213-.203M36.762 37.766a.22.22 0 0 0-.223.212c0 .117.1.213.223.213a.22.22 0 0 0 .223-.213c0-.117-.1-.212-.223-.212M35.77 38.856a.224.224 0 0 0-.23-.219.225.225 0 0 0-.23.22c0 .12.103.219.23.219s.23-.099.23-.22M34.504 39.647a.245.245 0 0 0-.251-.239.245.245 0 0 0-.25.24c0 .131.112.238.25.238.139 0 .25-.107.25-.239M33.166 40.343a.25.25 0 0 0-.257-.244.25.25 0 0 0-.257.244c0 .136.115.246.257.246s.257-.11.257-.246M31.78 40.945a.26.26 0 0 0-.268-.254.26.26 0 0 0-.267.254c0 .14.12.255.267.255a.26.26 0 0 0 .267-.255M30.345 41.447a.264.264 0 0 0-.27-.258c-.15 0-.271.116-.271.258s.121.258.27.258.27-.116.27-.258M28.876 41.846a.27.27 0 0 0-.274-.261.27.27 0 0 0-.274.26c0 .145.123.261.274.261a.27.27 0 0 0 .274-.26M27.381 42.14a.274.274 0 0 0-.28-.268c-.155 0-.28.12-.28.267s.125.268.28.268.28-.12.28-.268M25.867 42.328c0-.15-.127-.271-.285-.271a.277.277 0 0 0-.283.27c0 .15.127.27.283.27a.277.277 0 0 0 .284-.27M24.337 42.408c0-.15-.128-.27-.284-.27a.28.28 0 0 0-.284.27c0 .15.127.271.284.271a.28.28 0 0 0 .284-.27M22.806 42.382c0-.15-.128-.271-.285-.271a.28.28 0 0 0-.284.27c0 .15.128.271.285.271a.28.28 0 0 0 .284-.27M21.283 42.247a.28.28 0 0 0-.288-.273.28.28 0 0 0-.287.273c0 .151.129.274.287.274a.28.28 0 0 0 .287-.274M19.776 42.005a.285.285 0 0 0-.29-.277.285.285 0 0 0-.292.277c0 .153.131.278.291.278s.291-.125.291-.278M18.306 41.658a.3.3 0 0 0-.308-.293.3.3 0 0 0-.308.293.3.3 0 0 0 .308.294.3.3 0 0 0 .308-.294M16.858 41.209a.31.31 0 0 0-.317-.304.31.31 0 0 0-.318.304.31.31 0 0 0 .318.302.31.31 0 0 0 .317-.302M15.451 40.657a.32.32 0 0 0-.328-.312.32.32 0 0 0-.328.312.32.32 0 0 0 .328.312.32.32 0 0 0 .328-.312M14.09 40.007a.33.33 0 0 0-.338-.323.33.33 0 0 0-.338.323.33.33 0 0 0 .338.322.33.33 0 0 0 .338-.322M12.786 39.263a.344.344 0 0 0-.351-.336.343.343 0 0 0-.352.336c0 .185.157.335.352.335s.351-.15.351-.335M11.548 38.428a.36.36 0 0 0-.368-.35.36.36 0 0 0-.37.35c0 .194.166.35.37.35a.36.36 0 0 0 .368-.35M10.377 37.508a.377.377 0 0 0-.386-.367.377.377 0 0 0-.385.367c0 .202.173.366.386.366a.377.377 0 0 0 .385-.367M8.88 36.885a.39.39 0 0 0 .398-.38.39.39 0 0 0-.399-.38.39.39 0 0 0-.399.38c0 .21.179.38.4.38M7.847 35.834a.416.416 0 0 0 .426-.405.416.416 0 0 0-.426-.406.416.416 0 0 0-.426.406c0 .224.19.405.426.405M6.901 33.867a.426.426 0 0 0-.436.415c0 .229.195.415.436.415s.436-.186.436-.416a.426.426 0 0 0-.436-.414M6.047 32.65a.43.43 0 0 0-.443.421c0 .233.199.422.443.422.245 0 .443-.189.443-.422a.433.433 0 0 0-.443-.42M5.29 32.242a.45.45 0 0 0 .46-.437.45.45 0 0 0-.46-.438.45.45 0 0 0-.46.438c0 .241.206.437.46.437M5.106 30.488a.46.46 0 0 0-.473-.45.463.463 0 0 0-.474.45c0 .249.212.45.474.45a.46.46 0 0 0 .473-.45M4.08 29.592a.475.475 0 0 0 .487-.463.475.475 0 0 0-.487-.464.476.476 0 0 0-.487.464c0 .255.218.463.487.463M3.633 28.21c.276 0 .5-.213.5-.476a.49.49 0 0 0-.5-.476c-.277 0-.5.213-.5.476s.223.476.5.476M3.296 26.795c.28 0 .507-.216.507-.483a.496.496 0 0 0-.507-.482.496.496 0 0 0-.508.482c0 .267.227.483.508.483M3.07 25.356c.283 0 .511-.217.511-.485a.5.5 0 0 0-.51-.486.5.5 0 0 0-.511.486c0 .268.229.485.51.485M2.957 23.91a.506.506 0 0 0 .518-.493.506.506 0 0 0-.518-.492.505.505 0 0 0-.517.492c0 .272.232.493.517.493M2.957 22.455c.288 0 .52-.222.52-.496a.51.51 0 0 0-.52-.495.51.51 0 0 0-.52.495c0 .274.233.496.52.496M2.55 20.506c0 .273.233.495.52.495s.521-.222.521-.495a.51.51 0 0 0-.52-.496.51.51 0 0 0-.521.495M2.771 19.064c0 .275.235.498.525.498.289 0 .524-.223.524-.498a.51.51 0 0 0-.524-.499.51.51 0 0 0-.525.5M3.099 17.642c0 .281.239.508.534.508a.52.52 0 0 0 .534-.508c0-.28-.24-.508-.534-.508a.52.52 0 0 0-.534.508M3.538 16.247c0 .285.242.515.541.515s.541-.23.541-.515a.53.53 0 0 0-.54-.515.53.53 0 0 0-.542.515M4.088 14.888c0 .287.244.518.545.518.3 0 .544-.231.544-.518a.53.53 0 0 0-.544-.517c-.301 0-.545.231-.545.517M4.731 13.572c0 .293.25.53.558.53a.545.545 0 0 0 .559-.53c0-.294-.25-.531-.559-.531a.545.545 0 0 0-.558.53M5.476 12.305c0 .3.256.544.571.544a.56.56 0 0 0 .571-.544c0-.3-.255-.543-.571-.543a.56.56 0 0 0-.571.543M6.323 11.094c0 .304.259.55.578.55.32 0 .579-.246.579-.55a.565.565 0 0 0-.579-.55.565.565 0 0 0-.578.55"/><path fill="#fff" d="M7.847 9.385c-.327 0-.592.252-.592.563s.265.563.592.563.592-.252.592-.563-.265-.563-.592-.563M8.88 8.298c-.333 0-.603.256-.603.573s.27.572.602.572.602-.256.602-.572c0-.317-.27-.573-.602-.573M9.992 7.283c-.34 0-.615.263-.615.586s.275.586.615.586.615-.263.615-.586-.275-.586-.615-.586M11.18 6.353c-.346 0-.626.267-.626.595 0 .33.28.595.626.595.345 0 .625-.266.625-.595s-.28-.595-.625-.595M11.8 6.113c0 .334.285.605.636.605.35 0 .635-.27.635-.605s-.284-.605-.635-.605-.636.271-.636.605M13.106 5.368c0 .34.289.615.645.615s.646-.275.646-.615-.29-.614-.646-.614-.646.275-.646.614M14.47 4.719c0 .343.293.62.653.62s.653-.277.653-.62-.293-.621-.653-.621-.652.278-.652.62M15.882 4.168c0 .346.295.627.66.627.363 0 .658-.281.658-.627 0-.347-.295-.628-.659-.628s-.66.281-.66.628M17.335 3.717c0 .348.297.63.663.63s.662-.282.662-.63-.296-.63-.662-.63-.663.282-.663.63M18.81 3.37c0 .356.302.644.676.644.373 0 .676-.288.676-.644 0-.355-.303-.644-.676-.644s-.676.289-.676.644M39.977 11.186c.39 0 .706-.302.706-.673 0-.37-.316-.672-.706-.672s-.707.301-.707.672.316.672.706.672M45.615 22.684l-.004.004.004.003.003-.003zM45.562 24.129l-.017.016.017.016.016-.016zM45.402 25.55l-.047.045.047.045.047-.045zM45.136 26.959l-.075.07.075.072.075-.071zM44.766 28.351l-.098.093.098.094.098-.094zM44.396 29.83c0-.054-.047-.099-.105-.099a.103.103 0 0 0-.104.1c0 .055.047.1.104.1a.103.103 0 0 0 .105-.1M43.718 31.057a.13.13 0 0 0-.132.125c0 .07.06.126.132.126a.13.13 0 0 0 .132-.126.13.13 0 0 0-.132-.125M43.047 32.35a.146.146 0 0 0-.15.143c0 .078.067.141.15.141a.146.146 0 0 0 .148-.141.146.146 0 0 0-.148-.143M42.28 33.584a.176.176 0 0 0-.18.171c0 .094.081.17.18.17a.175.175 0 0 0 .179-.17.175.175 0 0 0-.179-.17M41.425 34.793a.176.176 0 0 0-.18.17c0 .095.08.171.18.171s.179-.076.179-.17a.175.175 0 0 0-.18-.171M40.48 35.925a.19.19 0 0 0-.195.187c0 .103.088.186.196.186a.19.19 0 0 0 .196-.186.19.19 0 0 0-.196-.187M39.456 36.999a.2.2 0 0 0-.206.197c0 .108.092.196.206.196a.2.2 0 0 0 .206-.196.2.2 0 0 0-.206-.197M38.353 38.002a.21.21 0 0 0-.216.206c0 .113.097.206.216.206.12 0 .216-.093.216-.206a.21.21 0 0 0-.216-.206M37.18 38.929a.22.22 0 0 0-.226.216c0 .12.102.216.227.216a.22.22 0 0 0 .226-.216.22.22 0 0 0-.226-.216M36.18 40.002a.234.234 0 0 0-.239-.229.234.234 0 0 0-.24.229c0 .126.107.228.24.228s.24-.102.24-.228M34.892 40.774a.245.245 0 0 0-.25-.239.245.245 0 0 0-.25.24c0 .13.112.238.25.238s.25-.107.25-.239M33.55 41.459a.254.254 0 0 0-.26-.248c-.144 0-.26.11-.26.248 0 .136.116.248.26.248s.26-.111.26-.248M32.158 42.051a.26.26 0 0 0-.267-.255.26.26 0 0 0-.267.255c0 .14.12.255.267.255a.26.26 0 0 0 .267-.255M30.722 42.55a.265.265 0 0 0-.27-.258c-.15 0-.271.116-.271.258s.121.258.27.258.27-.116.27-.258M29.256 42.952a.27.27 0 0 0-.277-.264.27.27 0 0 0-.277.264.27.27 0 0 0 .277.264.27.27 0 0 0 .277-.264M27.761 43.255a.274.274 0 0 0-.28-.268c-.155 0-.28.12-.28.268s.125.267.28.267c.154 0 .28-.12.28-.267M26.246 43.458c0-.15-.127-.271-.283-.271a.277.277 0 0 0-.284.27c0 .15.127.271.284.271s.283-.12.283-.27M24.72 43.56c0-.15-.127-.27-.284-.27a.277.277 0 0 0-.284.27c0 .15.127.27.284.27a.277.277 0 0 0 .284-.27M23.187 43.56c0-.15-.127-.27-.284-.27a.28.28 0 0 0-.284.27c0 .15.128.27.284.27a.28.28 0 0 0 .284-.27M21.663 43.458a.28.28 0 0 0-.287-.274.28.28 0 0 0-.288.274c0 .15.129.273.288.273a.28.28 0 0 0 .287-.273M20.15 43.255a.284.284 0 0 0-.291-.277c-.16 0-.29.124-.29.276 0 .154.13.278.29.278s.29-.124.29-.277M18.658 42.952a.29.29 0 0 0-.298-.284.29.29 0 0 0-.297.284c0 .156.133.284.297.284a.29.29 0 0 0 .298-.284M17.2 42.55a.304.304 0 0 0-.312-.297.304.304 0 0 0-.31.297c0 .164.138.296.31.296a.304.304 0 0 0 .311-.296M15.767 42.051a.31.31 0 0 0-.319-.303.31.31 0 0 0-.317.303.31.31 0 0 0 .317.303.31.31 0 0 0 .319-.303M14.378 41.458a.32.32 0 0 0-.328-.312.32.32 0 0 0-.328.312.32.32 0 0 0 .328.313.32.32 0 0 0 .328-.313M13.034 40.775a.33.33 0 0 0-.338-.323.33.33 0 0 0-.338.323.33.33 0 0 0 .338.322.33.33 0 0 0 .338-.322M11.76 40.002a.354.354 0 0 0-.362-.345c-.2 0-.362.155-.362.345s.162.345.362.345.362-.155.362-.346M10.534 39.145a.366.366 0 0 0-.376-.357.366.366 0 0 0-.375.357c0 .198.168.357.375.357.208 0 .376-.16.376-.357M9.377 38.208a.383.383 0 0 0-.392-.373.383.383 0 0 0-.392.373c0 .206.176.373.392.373a.384.384 0 0 0 .392-.373M7.883 37.582a.397.397 0 0 0 .406-.386.397.397 0 0 0-.406-.387.397.397 0 0 0-.405.387c0 .212.182.386.405.386M6.858 36.508c.23 0 .416-.177.416-.396a.406.406 0 0 0-.416-.395.406.406 0 0 0-.416.395c0 .22.187.396.416.396M5.914 34.548a.426.426 0 0 0-.435.416c0 .229.195.414.435.414.241 0 .437-.185.437-.414a.427.427 0 0 0-.437-.416M5.059 33.33a.436.436 0 0 0-.447.425c0 .234.2.424.447.424.246 0 .446-.19.446-.424 0-.235-.2-.425-.446-.425M4.293 32.934a.45.45 0 0 0 .463-.441.45.45 0 0 0-.463-.441.453.453 0 0 0-.464.44c0 .244.207.442.464.442M3.621 31.633a.46.46 0 0 0 .473-.45c0-.25-.212-.45-.473-.45a.46.46 0 0 0-.474.45c0 .248.213.45.474.45M3.047 30.291a.47.47 0 0 0 .483-.46.47.47 0 0 0-.483-.46.47.47 0 0 0-.484.46c0 .254.217.46.484.46M2.574 28.918a.485.485 0 0 0 .497-.474.485.485 0 0 0-.497-.473.485.485 0 0 0-.497.473c0 .262.222.474.497.474M2.204 27.51a.49.49 0 0 0 .503-.48.49.49 0 0 0-.503-.48.49.49 0 0 0-.504.48c0 .265.226.48.504.48M1.938 26.084c.284 0 .513-.22.513-.489 0-.27-.23-.49-.513-.49a.5.5 0 0 0-.514.49c0 .27.23.489.514.489M1.777 24.637c.286 0 .517-.22.517-.492a.505.505 0 0 0-.517-.492.505.505 0 0 0-.517.492c0 .272.231.492.517.492M1.724 23.18c.286 0 .517-.22.517-.492a.505.505 0 0 0-.517-.492.505.505 0 0 0-.517.492c0 .272.232.492.517.492M1.26 21.231c0 .272.231.493.517.493s.517-.221.517-.493a.506.506 0 0 0-.517-.492.505.505 0 0 0-.517.492M1.414 19.782c0 .276.235.499.524.499s.524-.223.524-.5a.51.51 0 0 0-.524-.498.51.51 0 0 0-.524.499M1.677 18.346c0 .278.236.502.527.502a.515.515 0 0 0 .528-.502.516.516 0 0 0-.528-.502.515.515 0 0 0-.527.502M2.04 16.931c0 .281.239.508.533.508a.52.52 0 0 0 .535-.508.52.52 0 0 0-.535-.508.52.52 0 0 0-.534.508M2.51 15.545c0 .283.24.512.538.512.297 0 .537-.229.537-.512a.525.525 0 0 0-.537-.511.525.525 0 0 0-.537.511M3.077 14.194c0 .286.243.517.544.517s.544-.231.544-.517a.53.53 0 0 0-.544-.518c-.3 0-.544.231-.544.518M3.741 12.883c0 .29.247.525.552.525a.54.54 0 0 0 .55-.525.54.54 0 0 0-.55-.524.54.54 0 0 0-.552.524M4.484 11.621c0 .302.258.547.575.547a.56.56 0 0 0 .575-.547.56.56 0 0 0-.575-.546.56.56 0 0 0-.575.546M5.34 10.413c0 .302.257.547.574.547a.56.56 0 0 0 .575-.547.56.56 0 0 0-.575-.548.56.56 0 0 0-.574.548"/><path fill="#fff" d="M6.858 8.701c-.326 0-.591.252-.591.563 0 .312.265.564.591.564.327 0 .592-.252.592-.564 0-.31-.265-.563-.592-.563M7.883 7.608c-.332 0-.602.256-.602.573s.27.572.602.572.602-.256.602-.572c0-.317-.27-.573-.602-.573M8.984 6.582c-.34 0-.615.262-.615.586s.276.585.615.585c.34 0 .616-.262.616-.585 0-.324-.276-.586-.616-.586M10.159 5.642c-.342 0-.619.264-.619.59 0 .324.277.588.619.588s.618-.264.618-.589-.277-.589-.618-.589M11.398 4.78c-.345 0-.625.265-.625.594s.28.596.625.596c.346 0 .626-.267.626-.596s-.28-.595-.626-.595M12.697 3.994c-.353 0-.64.272-.64.608s.287.608.64.608c.352 0 .638-.272.638-.608s-.286-.608-.639-.608M14.049 3.303c-.357 0-.646.275-.646.614 0 .34.29.615.646.615s.646-.275.646-.615-.29-.614-.646-.614M15.449 2.7c-.363 0-.656.28-.656.624 0 .345.293.625.656.625.362 0 .656-.28.656-.625 0-.344-.294-.624-.656-.624M16.888 2.199c-.364 0-.659.28-.659.627s.295.628.66.628c.364 0 .659-.281.659-.628 0-.346-.295-.627-.66-.627M18.36 1.784c-.371 0-.672.287-.672.64s.301.64.672.64.673-.286.673-.64c0-.353-.301-.64-.673-.64M20.535 2.121c0-.355-.302-.643-.676-.643s-.676.288-.676.643.302.644.676.644c.373 0 .676-.288.676-.644M41.424 11.092c.394 0 .713-.304.713-.679s-.32-.68-.713-.68c-.394 0-.713.305-.713.68s.319.679.713.679M46.773 24.145l.011.01.01-.01-.01-.01zM46.606 25.596l.027.026.026-.026-.026-.026zM46.38 26.976l-.06.058.06.058.061-.058zM46.028 28.368l-.088.084.088.084.088-.084zM45.58 29.756l-.096.09.095.09.095-.09zM45.034 31.106a.106.106 0 0 0-.108.102c0 .058.048.104.108.104s.108-.047.108-.104a.106.106 0 0 0-.108-.102M44.396 32.41a.126.126 0 0 0-.128.124c0 .067.057.122.128.122.07 0 .129-.055.129-.122a.126.126 0 0 0-.129-.123M43.667 33.657a.16.16 0 0 0-.166.158c0 .087.074.158.166.158.091 0 .165-.07.165-.158a.16.16 0 0 0-.165-.158M42.85 34.887a.166.166 0 0 0-.168.162c0 .088.075.161.169.161a.165.165 0 0 0 .169-.161.165.165 0 0 0-.17-.162M41.95 36.048a.185.185 0 0 0-.19.18c0 .1.086.18.19.18s.189-.08.189-.18-.085-.18-.19-.18M40.97 37.158c-.11 0-.2.085-.2.19s.09.19.2.19.2-.085.2-.19-.09-.19-.2-.19M39.913 38.201a.21.21 0 0 0-.213.203c0 .112.095.203.213.203s.213-.09.213-.203a.21.21 0 0 0-.213-.203M38.787 39.182a.215.215 0 0 0-.22.21c0 .115.099.209.22.209s.22-.094.22-.21a.215.215 0 0 0-.22-.21M37.594 40.087a.224.224 0 0 0-.23.218c0 .121.103.22.23.22s.23-.099.23-.22a.225.225 0 0 0-.23-.218M36.34 40.914a.234.234 0 0 0-.24.229c0 .126.107.229.24.229.132 0 .24-.103.24-.23a.234.234 0 0 0-.24-.228M35.031 41.66a.245.245 0 0 0-.25.24c0 .131.111.238.25.238.138 0 .25-.107.25-.239a.245.245 0 0 0-.25-.238M33.671 42.324a.255.255 0 0 0-.26.248c0 .137.117.248.26.248s.26-.111.26-.248a.255.255 0 0 0-.26-.248M32.269 42.903a.26.26 0 0 0-.267.254c0 .14.12.255.267.255a.26.26 0 0 0 .267-.255c0-.14-.12-.254-.267-.254M30.828 43.396c-.15 0-.27.116-.27.258s.12.258.27.258.27-.116.27-.258a.264.264 0 0 0-.27-.258M29.356 43.797a.27.27 0 0 0-.274.26c0 .145.123.262.274.262a.27.27 0 0 0 .273-.262.27.27 0 0 0-.273-.26M27.86 44.101a.274.274 0 0 0-.28.267c0 .148.125.268.28.268s.28-.12.28-.268a.274.274 0 0 0-.28-.267M26.345 44.314a.28.28 0 0 0-.284.271c0 .15.127.271.284.271a.28.28 0 0 0 .283-.27c0-.15-.127-.272-.283-.272M24.818 44.435a.277.277 0 0 0-.284.27c0 .15.127.27.284.27a.277.277 0 0 0 .284-.27c0-.15-.127-.27-.284-.27M23.287 44.458a.28.28 0 0 0-.284.271c0 .15.127.271.284.271s.284-.12.284-.27-.127-.272-.285-.272M21.757 44.383a.28.28 0 0 0-.287.274c0 .151.129.274.287.274a.28.28 0 0 0 .287-.274.28.28 0 0 0-.287-.274M20.235 44.212c-.16 0-.29.123-.29.277 0 .153.13.277.29.277s.29-.124.29-.277a.284.284 0 0 0-.29-.277M18.73 43.949c-.162 0-.291.123-.291.276s.13.277.29.277.29-.123.29-.277a.284.284 0 0 0-.29-.276M17.243 43.583a.29.29 0 0 0-.298.284.29.29 0 0 0 .298.283.29.29 0 0 0 .297-.283.29.29 0 0 0-.297-.284M15.787 43.123a.3.3 0 0 0-.308.293.3.3 0 0 0 .308.294.3.3 0 0 0 .308-.294.3.3 0 0 0-.308-.293M14.364 42.563a.32.32 0 0 0-.328.313.32.32 0 0 0 .328.312.32.32 0 0 0 .328-.312.32.32 0 0 0-.328-.313M12.983 41.924a.33.33 0 0 0-.338.322.33.33 0 0 0 .338.322.33.33 0 0 0 .337-.322.33.33 0 0 0-.338-.322M11.648 41.2a.34.34 0 0 0-.348.331.34.34 0 0 0 .348.332.34.34 0 0 0 .348-.332.34.34 0 0 0-.348-.332M10.365 40.38a.363.363 0 0 0-.372.354c0 .196.167.354.372.354a.363.363 0 0 0 .372-.354.363.363 0 0 0-.372-.353M9.142 39.498a.37.37 0 0 0-.38.36c0 .2.17.36.38.36a.37.37 0 0 0 .378-.36c0-.199-.17-.36-.378-.36M7.98 38.536a.38.38 0 0 0-.388.37c0 .205.174.37.389.37a.38.38 0 0 0 .388-.37.38.38 0 0 0-.388-.37M6.888 37.499a.396.396 0 0 0-.406.386c0 .213.182.386.406.386a.396.396 0 0 0 .406-.386.396.396 0 0 0-.406-.386M5.87 36.38a.426.426 0 0 0-.436.416c0 .229.195.415.436.415.24 0 .436-.186.436-.415a.425.425 0 0 0-.436-.415M4.929 35.23a.425.425 0 0 0-.436.415c0 .23.195.415.436.415.24 0 .436-.185.436-.415a.426.426 0 0 0-.436-.415M4.07 34.004a.446.446 0 0 0-.457.435c0 .24.205.434.457.434a.446.446 0 0 0 .456-.434.446.446 0 0 0-.456-.435M3.76 33.18a.45.45 0 0 0-.462-.44.453.453 0 0 0-.464.44c0 .244.207.441.464.441a.45.45 0 0 0 .463-.44M3.09 31.877a.465.465 0 0 0-.477-.454.466.466 0 0 0-.477.454c0 .25.213.453.477.453a.466.466 0 0 0 .477-.453M2.5 30.532a.47.47 0 0 0-.48-.457.47.47 0 0 0-.48.457c0 .252.215.456.48.456a.47.47 0 0 0 .48-.456M2.013 29.153a.48.48 0 0 0-.49-.467c-.271 0-.49.21-.49.467s.219.466.49.466c.27 0 .49-.209.49-.466M1.63 27.746a.495.495 0 0 0-.508-.482.495.495 0 0 0-.507.482c0 .266.227.483.507.483s.507-.217.507-.483M1.332 26.317a.5.5 0 0 0-.511-.486.5.5 0 0 0-.51.486c0 .268.228.486.51.486a.5.5 0 0 0 .51-.486M1.132 24.872c0-.27-.23-.49-.514-.49a.5.5 0 0 0-.514.49c0 .27.23.489.514.489a.5.5 0 0 0 .514-.49M.517 23.91c.286 0 .518-.22.518-.493a.505.505 0 0 0-.518-.492.505.505 0 0 0-.517.492c0 .272.232.493.517.493M.517 22.451c.286 0 .518-.22.518-.492a.505.505 0 0 0-.518-.492.505.505 0 0 0-.517.492c0 .272.232.492.517.492M.618 21c.288 0 .521-.222.521-.495a.51.51 0 0 0-.52-.495.51.51 0 0 0-.521.495c0 .273.233.495.52.495M.82 19.555c.288 0 .52-.222.52-.495a.51.51 0 0 0-.52-.496.51.51 0 0 0-.52.496c0 .273.233.495.52.495M1.123 18.129c.289 0 .524-.223.524-.498a.51.51 0 0 0-.524-.5.51.51 0 0 0-.524.5c0 .275.234.498.524.498M1.523 16.731a.52.52 0 0 0 .535-.507.52.52 0 0 0-.535-.509.52.52 0 0 0-.534.509c0 .28.24.507.534.507M2.02 15.356c.298 0 .539-.229.539-.511a.525.525 0 0 0-.538-.512.525.525 0 0 0-.538.511c0 .283.241.512.538.512M2.613 14.022a.535.535 0 0 0 .548-.522.535.535 0 0 0-.548-.521.535.535 0 0 0-.548.521c0 .288.246.521.548.521M3.297 12.727a.545.545 0 0 0 .558-.53c0-.294-.25-.531-.558-.531a.544.544 0 0 0-.558.53c0 .294.25.531.558.531M4.07 11.479a.555.555 0 0 0 .567-.541.554.554 0 0 0-.568-.54.555.555 0 0 0-.568.54c0 .298.254.54.568.54M4.928 10.277a.56.56 0 0 0 .575-.547.56.56 0 0 0-.575-.547.56.56 0 0 0-.574.547c0 .302.256.547.574.547"/><path fill="#fff" d="M5.87 9.137c.323 0 .585-.25.585-.556a.57.57 0 0 0-.585-.557.57.57 0 0 0-.585.557c0 .307.262.556.585.556M6.888 8.058c.329 0 .595-.254.595-.566 0-.313-.266-.567-.595-.567s-.595.254-.595.567.267.566.595.566M7.98 7.048c.337 0 .61-.259.61-.579s-.273-.579-.61-.579-.608.26-.608.58.272.578.609.578M9.142 6.104c.339 0 .614-.262.614-.586s-.275-.585-.614-.585c-.34 0-.616.262-.616.585 0 .324.276.586.616.586M10.366 5.237c.345 0 .625-.267.625-.595 0-.329-.28-.595-.625-.595-.346 0-.626.266-.626.595s.28.595.626.595M11.648 4.446c.35 0 .632-.269.632-.601s-.282-.602-.632-.602c-.349 0-.632.27-.632.602s.283.601.632.601M12.983 3.744c.356 0 .645-.274.645-.614s-.289-.615-.645-.615-.646.275-.646.615.289.614.646.614M14.364 3.118c.359 0 .649-.277.649-.618s-.29-.618-.649-.618c-.358 0-.65.277-.65.618s.292.618.65.618M15.787 2.59c.366 0 .662-.282.662-.63 0-.35-.296-.631-.662-.631s-.663.282-.663.63.297.63.663.63M17.244 2.143c.368 0 .666-.284.666-.634s-.298-.634-.666-.634c-.367 0-.666.284-.666.634s.299.634.666.634M18.729 1.791c.371 0 .672-.286.672-.64s-.301-.64-.672-.64-.673.286-.673.64.3.64.673.64M20.235 1.53c.373 0 .676-.287.676-.643 0-.355-.303-.643-.676-.643s-.676.288-.676.643.302.644.676.644M21.46 1.292l-.085-.017c-.373 0-.676.288-.676.644 0 .263.168.488.405.587l-.109-.02c-.373 0-.676.288-.676.643s.303.643.676.643.676-.288.676-.643a.64.64 0 0 0-.405-.588l.11.02c.373 0 .675-.287.675-.642a.64.64 0 0 0-.38-.573l.085.016c.373 0 .676-.288.676-.643s-.302-.643-.676-.643c-.373 0-.676.288-.676.643 0 .253.157.468.38.573M22.912 1.172l-.008-.002c-.375 0-.68.29-.68.647 0 .229.133.42.323.536l-.025-.005c-.375 0-.68.29-.68.647 0 .237.142.436.343.549l-.045-.009c-.375 0-.68.29-.68.647 0 .25.155.462.374.569l-.075-.014c-.374 0-.676.288-.676.643 0 .265.168.492.408.59l-.112-.021c-.373 0-.676.288-.676.643s.303.643.676.643.676-.288.676-.643a.64.64 0 0 0-.408-.59l.112.022c.373 0 .676-.289.676-.644 0-.249-.154-.46-.372-.567l.077.016c.375 0 .68-.29.68-.647a.63.63 0 0 0-.343-.55l.045.01c.375 0 .68-.29.68-.647a.63.63 0 0 0-.322-.536l.024.004c.376 0 .68-.289.68-.646a.63.63 0 0 0-.304-.525l.007.002c.376 0 .68-.29.68-.647S23.663 0 23.287 0c-.375 0-.679.29-.679.647a.63.63 0 0 0 .304.525M24.41 1.175c-.362.013-.653.293-.653.641 0 .212.113.39.278.508-.367.01-.662.292-.662.643 0 .214.117.395.286.513-.37.006-.669.291-.669.644 0 .218.12.401.294.518-.374.002-.676.29-.676.647a.63.63 0 0 0 .31.528l-.014-.002c-.375 0-.68.289-.68.646 0 .237.142.436.342.548l-.044-.008c-.374 0-.676.288-.676.643 0 .251.155.463.375.57l-.08-.016c-.373 0-.676.288-.676.644 0 .355.303.643.676.643s.676-.288.676-.643a.64.64 0 0 0-.376-.57l.081.016c.373 0 .676-.288.676-.644a.63.63 0 0 0-.339-.545l.045.009c.375 0 .68-.29.68-.647a.63.63 0 0 0-.31-.529l.013.003c.376 0 .68-.29.68-.646a.63.63 0 0 0-.294-.519c.374-.001.677-.29.677-.646a.63.63 0 0 0-.285-.512c.37-.007.668-.291.668-.645a.63.63 0 0 0-.278-.507c.366-.01.66-.293.66-.644a.63.63 0 0 0-.271-.503c.362-.014.654-.294.654-.643 0-.357-.304-.646-.68-.646-.375 0-.679.29-.679.646 0 .21.111.386.272.505M25.915 1.28c-.351.025-.631.297-.631.638 0 .2.102.373.253.492-.354.023-.634.296-.634.638 0 .202.103.376.256.494-.355.021-.639.296-.639.64 0 .204.106.378.262.496-.357.02-.644.296-.644.64 0 .208.109.383.268.502-.36.016-.65.294-.65.64 0 .21.111.388.274.507-.364.011-.657.292-.657.642 0 .214.116.394.283.512-.369.007-.666.291-.666.644 0 .218.12.402.295.519-.375 0-.678.29-.678.646a.63.63 0 0 0 .329.54l-.032-.005c-.374 0-.677.288-.677.643s.303.643.677.643c.373 0 .676-.288.676-.643a.63.63 0 0 0-.327-.537l.034.006c.375 0 .679-.29.679-.646a.63.63 0 0 0-.295-.52c.374 0 .678-.29.678-.646a.63.63 0 0 0-.284-.512c.37-.007.667-.291.667-.644a.63.63 0 0 0-.275-.506c.365-.011.658-.292.658-.642a.63.63 0 0 0-.268-.501c.36-.016.65-.294.65-.642a.62.62 0 0 0-.262-.497c.358-.019.644-.294.644-.64a.63.63 0 0 0-.257-.495c.356-.02.64-.295.64-.638 0-.201-.103-.374-.254-.492.354-.023.635-.296.635-.638 0-.2-.1-.371-.25-.49.352-.025.631-.297.631-.637 0-.358-.304-.647-.68-.647-.375 0-.679.29-.679.647 0 .199.1.371.25.49M27.406 1.485c-.341.037-.61.302-.61.636 0 .192.092.36.231.48-.34.035-.61.301-.61.635a.63.63 0 0 0 .236.483c-.341.034-.612.3-.612.634 0 .195.095.365.24.483-.346.03-.62.298-.62.635 0 .195.095.364.238.483-.347.03-.622.3-.622.638 0 .196.096.366.24.485-.346.031-.62.3-.62.638 0 .2.1.37.247.49-.348.027-.625.298-.625.637 0 .201.102.374.254.492-.354.023-.636.296-.636.638 0 .205.106.378.26.497-.357.02-.642.295-.642.64 0 .357.305.646.68.646s.679-.29.679-.647a.63.63 0 0 0-.26-.496c.357-.02.642-.295.642-.64 0-.2-.102-.373-.254-.492.354-.023.636-.296.636-.638a.63.63 0 0 0-.245-.488c.35-.027.63-.298.63-.639a.63.63 0 0 0-.24-.485c.346-.031.62-.3.62-.638a.63.63 0 0 0-.241-.486c.345-.03.618-.298.618-.635a.63.63 0 0 0-.24-.483c.346-.03.62-.299.62-.635a.63.63 0 0 0-.233-.48c.344-.032.616-.3.616-.637a.63.63 0 0 0-.23-.479c.34-.036.61-.301.61-.636 0-.192-.09-.36-.23-.478.341-.037.61-.302.61-.635 0-.36-.307-.65-.684-.65s-.683.29-.683.65c0 .191.09.359.23.477M28.888 1.792c-.332.044-.593.304-.593.633a.63.63 0 0 0 .22.472c-.334.041-.597.304-.597.634a.63.63 0 0 0 .22.473c-.335.041-.598.303-.598.634 0 .188.087.354.222.473-.337.04-.6.303-.6.634a.63.63 0 0 0 .223.474c-.337.04-.6.303-.6.634 0 .188.087.355.222.474-.336.04-.6.303-.6.634 0 .19.087.356.223.475-.337.04-.602.302-.602.634 0 .19.089.356.225.475-.338.04-.604.303-.604.635 0 .19.09.358.227.476-.339.039-.606.303-.606.636 0 .358.306.65.684.65.377 0 .683-.292.683-.65 0-.19-.09-.358-.227-.477.339-.038.606-.302.606-.635a.63.63 0 0 0-.226-.475c.338-.04.604-.303.604-.635a.63.63 0 0 0-.224-.475c.337-.04.602-.303.602-.634a.63.63 0 0 0-.223-.475c.337-.04.601-.302.601-.633a.63.63 0 0 0-.222-.474c.336-.04.6-.303.6-.634a.63.63 0 0 0-.222-.474c.336-.04.6-.302.6-.633a.63.63 0 0 0-.22-.474c.334-.04.598-.302.598-.633a.63.63 0 0 0-.221-.473c.335-.041.598-.303.598-.633a.63.63 0 0 0-.216-.47c.335-.043.597-.305.597-.637 0-.36-.308-.652-.686-.652-.38 0-.686.292-.686.652 0 .188.085.355.218.474M30.354 2.191c-.332.047-.59.307-.59.635 0 .185.082.35.213.469-.331.046-.59.306-.59.634 0 .185.083.35.213.47-.331.046-.59.306-.59.634 0 .185.083.35.213.469-.331.046-.59.306-.59.634 0 .185.083.35.213.47-.33.046-.589.306-.589.634 0 .185.083.35.213.469-.331.046-.59.306-.59.634 0 .185.083.35.213.469-.33.047-.589.307-.589.634 0 .185.082.351.212.47-.33.047-.589.306-.589.634 0 .185.082.35.212.469-.33.047-.589.307-.589.634 0 .361.308.654.686.654.38 0 .687-.293.687-.654a.63.63 0 0 0-.212-.469c.33-.046.588-.306.588-.634a.63.63 0 0 0-.212-.47c.331-.046.59-.305.59-.634a.63.63 0 0 0-.213-.468c.33-.047.59-.307.59-.635a.64.64 0 0 0-.213-.469c.33-.046.589-.306.589-.634a.63.63 0 0 0-.212-.47c.33-.046.589-.306.589-.634a.63.63 0 0 0-.213-.469c.331-.046.59-.307.59-.634a.63.63 0 0 0-.213-.47c.331-.046.59-.306.59-.634a.63.63 0 0 0-.213-.469c.33-.047.589-.306.589-.634a.63.63 0 0 0-.212-.469c.33-.047.589-.307.589-.634 0-.362-.307-.654-.687-.654-.379 0-.686.292-.686.654 0 .185.083.35.213.468M31.798 2.69c-.333.045-.593.306-.593.635 0 .186.084.352.215.471-.333.045-.593.306-.593.635 0 .186.084.353.216.472-.334.044-.594.305-.594.635 0 .186.084.352.216.471-.333.045-.595.306-.595.636 0 .187.085.352.218.471-.335.045-.596.306-.596.636 0 .187.085.354.217.473-.334.043-.596.305-.596.635 0 .188.086.354.219.473-.335.043-.598.305-.598.637 0 .186.085.351.216.47-.336.044-.598.308-.598.64 0 .188.085.355.219.474-.334.044-.596.306-.596.636 0 .361.307.653.686.653s.686-.292.686-.652a.63.63 0 0 0-.216-.472c.336-.044.6-.307.6-.64a.64.64 0 0 0-.218-.474c.333-.045.594-.306.594-.635a.63.63 0 0 0-.218-.474c.335-.043.597-.305.597-.636a.63.63 0 0 0-.218-.472c.335-.044.597-.305.597-.636a.63.63 0 0 0-.217-.472c.334-.044.595-.306.595-.635a.63.63 0 0 0-.216-.472c.333-.044.595-.305.595-.635a.63.63 0 0 0-.216-.472c.333-.044.593-.305.593-.635a.63.63 0 0 0-.215-.471c.333-.045.594-.306.594-.635a.63.63 0 0 0-.216-.47c.333-.046.593-.307.593-.636 0-.36-.307-.653-.686-.653s-.686.293-.686.653c0 .186.083.352.215.47M33.195 3.276c-.337.046-.6.309-.6.641 0 .188.084.354.215.474-.335.047-.596.31-.596.64 0 .188.084.356.216.476-.336.045-.599.308-.599.64a.64.64 0 0 0 .218.476c-.337.045-.6.309-.6.642 0 .19.085.357.219.477-.339.043-.604.309-.604.643 0 .19.087.358.222.478-.34.042-.608.307-.608.643 0 .191.088.36.225.48-.343.04-.612.308-.612.645 0 .19.088.36.225.48-.346.039-.619.308-.619.648 0 .193.09.364.23.485-.348.037-.622.307-.622.648 0 .366.312.663.696.663.385 0 .697-.297.697-.663a.64.64 0 0 0-.23-.484c.349-.037.622-.308.622-.649a.64.64 0 0 0-.228-.484c.345-.039.614-.306.614-.644a.64.64 0 0 0-.224-.48c.343-.04.612-.308.612-.645a.64.64 0 0 0-.221-.478c.34-.042.607-.308.607-.643a.64.64 0 0 0-.22-.478c.34-.043.604-.308.604-.642a.64.64 0 0 0-.217-.475c.337-.045.6-.309.6-.642a.64.64 0 0 0-.215-.475c.336-.045.598-.309.598-.641a.64.64 0 0 0-.214-.474c.335-.046.596-.309.596-.64a.64.64 0 0 0-.217-.476c.334-.045.594-.307.594-.638 0-.362-.308-.656-.69-.656-.38 0-.689.294-.689.656 0 .187.084.353.215.472M34.559 3.955c-.343.041-.613.31-.613.647 0 .19.087.36.224.481-.343.04-.613.309-.613.646 0 .194.09.364.23.486-.346.037-.618.306-.618.645a.64.64 0 0 0 .231.484c-.35.035-.628.307-.628.65 0 .194.091.364.23.485-.351.035-.629.309-.629.653 0 .197.095.37.238.492-.354.031-.634.306-.634.65 0 .2.096.373.242.494-.362.026-.65.306-.65.656 0 .202.1.377.25.5-.367.02-.66.303-.66.657 0 .207.105.384.26.506-.376.012-.678.301-.678.661 0 .368.314.666.7.666.387 0 .7-.298.7-.666a.64.64 0 0 0-.259-.505c.375-.013.677-.302.677-.662 0-.202-.1-.377-.248-.499.366-.02.658-.304.658-.658 0-.2-.098-.374-.244-.496.359-.026.645-.304.645-.653a.64.64 0 0 0-.235-.49c.355-.03.638-.306.638-.653a.65.65 0 0 0-.233-.489c.35-.035.625-.307.625-.65a.64.64 0 0 0-.233-.487c.348-.035.623-.305.623-.646a.64.64 0 0 0-.227-.482c.348-.037.622-.308.622-.649 0-.19-.088-.36-.223-.48.343-.042.612-.31.612-.647a.64.64 0 0 0-.224-.482c.341-.041.608-.308.608-.644 0-.364-.31-.659-.692-.659-.383 0-.694.295-.694.66 0 .19.087.358.222.478"/><path fill="#fff" d="M35.877 4.72c-.355.033-.635.308-.635.654 0 .197.094.37.236.491-.355.032-.637.308-.637.654 0 .2.096.373.242.495-.36.027-.646.306-.646.656 0 .201.098.376.247.498-.366.022-.657.304-.657.658 0 .204.102.38.255.502-.372.017-.67.303-.67.66 0 .209.106.386.264.51-.38.007-.686.299-.686.662 0 .21.11.39.27.512-.388 0-.703.3-.703.67 0 .222.121.41.298.532l-.038-.008c-.389 0-.703.3-.703.67 0 .24.14.441.34.559l-.096-.018c-.389 0-.703.3-.703.669s.314.669.703.669.703-.3.703-.67c0-.24-.14-.44-.34-.558l.096.018c.388 0 .703-.3.703-.67a.65.65 0 0 0-.298-.532l.038.008c.388 0 .703-.3.703-.67a.65.65 0 0 0-.272-.515c.386 0 .7-.299.7-.666a.64.64 0 0 0-.264-.508c.38-.008.685-.3.685-.663a.64.64 0 0 0-.255-.503c.372-.016.67-.303.67-.66 0-.202-.099-.376-.248-.499.366-.022.657-.304.657-.657 0-.2-.096-.372-.242-.495.36-.027.646-.306.646-.656a.64.64 0 0 0-.236-.49c.356-.032.638-.308.638-.655a.65.65 0 0 0-.236-.49c.352-.034.63-.307.63-.651 0-.366-.311-.663-.696-.663s-.696.297-.696.663c0 .196.092.366.233.488"/><path fill="#fff" d="M37.142 5.57c-.37.02-.665.305-.665.662 0 .204.103.38.254.503-.373.017-.672.304-.672.664 0 .207.106.385.262.508-.38.01-.686.302-.686.666 0 .21.11.39.27.513-.388.002-.701.3-.701.67 0 .22.12.407.294.529l-.033-.006c-.388 0-.703.3-.703.67 0 .233.135.43.327.55l-.078-.015c-.388 0-.702.3-.702.669 0 .248.148.455.358.57l-.125-.023c-.39 0-.706.301-.706.672 0 .264.163.486.395.597-.059-.015-.116-.035-.18-.035-.391 0-.71.303-.71.675 0 .374.319.676.71.676.393 0 .71-.302.71-.676a.67.67 0 0 0-.396-.598c.058.015.115.034.177.034.39 0 .707-.302.707-.673a.66.66 0 0 0-.36-.573l.122.023c.39 0 .704-.3.704-.67a.65.65 0 0 0-.327-.55l.077.015c.389 0 .703-.3.703-.669a.65.65 0 0 0-.294-.53l.033.006c.388 0 .703-.3.703-.669a.65.65 0 0 0-.27-.514c.388 0 .702-.3.702-.668a.65.65 0 0 0-.26-.509c.379-.01.684-.302.684-.665a.65.65 0 0 0-.253-.505c.372-.016.67-.304.67-.662 0-.204-.1-.38-.25-.503.367-.02.66-.303.66-.658 0-.368-.313-.666-.7-.666s-.699.298-.699.666c0 .202.099.376.248.498"/><path fill="#fff" d="M38.084 5.985c0 .211.109.391.27.514-.388 0-.703.3-.703.67 0 .22.12.406.292.528l-.03-.006c-.387 0-.702.3-.702.669 0 .23.13.425.317.545l-.064-.013c-.389 0-.704.3-.704.67 0 .24.14.442.342.56l-.1-.02c-.39 0-.707.302-.707.673 0 .25.15.461.364.576l-.135-.026c-.392 0-.71.303-.71.676a.67.67 0 0 0 .404.604c-.062-.017-.123-.037-.19-.037-.392 0-.71.302-.71.676 0 .373.318.675.71.675s.71-.302.71-.675a.67.67 0 0 0-.404-.604c.062.017.122.037.19.037.392 0 .71-.303.71-.676a.66.66 0 0 0-.367-.58l.134.027c.39 0 .707-.302.707-.673a.66.66 0 0 0-.343-.563l.099.019c.388 0 .703-.3.703-.67a.65.65 0 0 0-.318-.544l.065.012c.389 0 .703-.3.703-.67a.65.65 0 0 0-.292-.527l.03.005c.388 0 .703-.299.703-.669 0-.21-.11-.392-.27-.514.387 0 .703-.3.703-.669s-.316-.67-.704-.67c-.389 0-.703.3-.703.67"/><path fill="#fff" d="M39.21 6.972c0 .239.14.439.337.557l-.09-.018c-.39 0-.704.3-.704.67 0 .248.148.455.358.57l-.124-.023c-.39 0-.707.301-.707.672 0 .26.16.48.387.591-.054-.012-.106-.031-.164-.031-.39 0-.706.3-.706.672a.67.67 0 0 0 .419.611.7.7 0 0 0-.214-.04c-.392 0-.71.302-.71.675s.318.676.71.676.71-.303.71-.676a.68.68 0 0 0-.42-.614.7.7 0 0 0 .21.04c.392 0 .708-.3.708-.672 0-.26-.16-.479-.387-.59.054.011.106.03.164.03.39 0 .706-.3.706-.672a.66.66 0 0 0-.36-.574l.123.024c.388 0 .703-.3.703-.67a.65.65 0 0 0-.336-.556l.09.017c.389 0 .704-.3.704-.67 0-.369-.315-.668-.703-.668s-.703.3-.703.669"/><path fill="#fff" d="M40.263 8.028c0 .264.165.488.398.598-.058-.015-.116-.034-.18-.034-.39 0-.707.3-.707.672 0 .371.317.672.707.672s.707-.301.707-.672a.67.67 0 0 0-.398-.598c.059.015.116.034.18.034.39 0 .706-.301.706-.672s-.316-.672-.706-.672-.707.3-.707.672"/><path fill="#fff" d="M41.24 9.148c0 .374.318.676.71.676s.71-.302.71-.676c0-.373-.318-.676-.71-.676s-.71.303-.71.676M42.13 10.328c0 .378.323.685.72.685.398 0 .72-.307.72-.685s-.322-.686-.72-.686-.72.307-.72.686"/><path fill="#fff" d="M42.965 11.456a.7.7 0 0 0-.684-.52.7.7 0 0 0-.712.644.7.7 0 0 0-.693-.57c-.395 0-.717.305-.717.682s.322.682.717.682c.38 0 .685-.284.708-.64a.7.7 0 0 0 .697.572.7.7 0 0 0 .697-.58c.08.298.35.523.689.523.4 0 .723-.308.723-.688s-.324-.689-.723-.689a.704.704 0 0 0-.702.584"/><path fill="#fff" d="M43.713 12.608a.73.73 0 0 0-.666-.416.71.71 0 0 0-.685.495.73.73 0 0 0-.679-.45.71.71 0 0 0-.7.55.71.71 0 0 0-.68-.487.703.703 0 0 0-.711.628.7.7 0 0 0-.69-.553c-.395 0-.717.305-.717.682s.322.682.717.682c.374 0 .67-.275.704-.622.066.317.345.56.697.56a.704.704 0 0 0 .693-.544c.092.284.36.493.687.493.33 0 .598-.212.689-.499.104.261.364.448.675.448a.72.72 0 0 0 .677-.456c.112.248.37.422.673.422.404 0 .733-.313.733-.698 0-.386-.329-.698-.733-.698a.725.725 0 0 0-.684.463"/><path fill="#fff" d="M44.367 13.884a.73.73 0 0 0-.65-.388.74.74 0 0 0-.676.427.73.73 0 0 0-.65-.394.73.73 0 0 0-.678.446.73.73 0 0 0-.663-.41.72.72 0 0 0-.683.477.73.73 0 0 0-.672-.43.71.71 0 0 0-.694.536.71.71 0 0 0-.679-.48.703.703 0 0 0-.706.607.7.7 0 0 0-.689-.538c-.397 0-.72.307-.72.685 0 .38.323.685.72.685a.7.7 0 0 0 .703-.603.706.706 0 0 0 .692.542c.341 0 .615-.23.69-.534.095.278.36.483.683.483.32 0 .584-.2.68-.473a.73.73 0 0 0 .675.433c.31 0 .573-.186.678-.446a.73.73 0 0 0 .662.41.73.73 0 0 0 .673-.424.73.73 0 0 0 .654.397c.299 0 .553-.171.668-.414.12.228.363.388.65.388.404 0 .733-.312.733-.698s-.329-.698-.734-.698a.73.73 0 0 0-.667.414"/><path fill="#fff" d="M44.928 15.218a.73.73 0 0 0-.637-.37.73.73 0 0 0-.655.397.73.73 0 0 0-.64-.377.73.73 0 0 0-.66.406.73.73 0 0 0-.644-.385c-.297 0-.551.17-.665.413a.73.73 0 0 0-.65-.39.74.74 0 0 0-.676.425.73.73 0 0 0-.653-.394.73.73 0 0 0-.68.447.73.73 0 0 0-.665-.41.72.72 0 0 0-.693.511.71.71 0 0 0-.67-.45.7.7 0 0 0-.7.594.7.7 0 0 0-.689-.532c-.397 0-.72.307-.72.685s.323.686.72.686a.7.7 0 0 0 .701-.594.7.7 0 0 0 .687.532.71.71 0 0 0 .68-.497.73.73 0 0 0 .684.462.73.73 0 0 0 .681-.448c.116.24.368.41.664.41a.74.74 0 0 0 .675-.426c.12.232.364.395.653.395a.73.73 0 0 0 .669-.416c.12.227.36.387.647.387a.73.73 0 0 0 .659-.406.73.73 0 0 0 .645.385c.29 0 .534-.163.652-.395.122.223.36.38.643.38.286 0 .526-.159.648-.385.124.22.36.373.64.373.407 0 .737-.314.737-.7 0-.388-.33-.702-.737-.702-.288 0-.53.16-.651.389"/><path fill="#fff" d="M45.392 16.58a.737.737 0 0 0-1.267.017.733.733 0 0 0-1.272.02.732.732 0 0 0-1.279.023.73.73 0 0 0-1.285.023.73.73 0 0 0-.64-.377.73.73 0 0 0-.654.4.73.73 0 0 0-.646-.384c-.297 0-.55.17-.666.412a.73.73 0 0 0-.648-.387.74.74 0 0 0-.676.428.73.73 0 0 0-.655-.396.725.725 0 0 0-.684.467.73.73 0 0 0-.667-.419c-.401 0-.727.31-.727.692s.326.692.727.692a.72.72 0 0 0 .678-.459.74.74 0 0 0 .673.423.74.74 0 0 0 .677-.427.73.73 0 0 0 .654.395c.297 0 .55-.17.666-.411a.73.73 0 0 0 .648.387.73.73 0 0 0 .66-.403c.12.223.358.38.64.38a.73.73 0 0 0 .652-.393c.122.22.358.377.64.377a.73.73 0 0 0 .642-.383.73.73 0 0 0 .639.373.73.73 0 0 0 .639-.374.734.734 0 0 0 1.27 0 .737.737 0 0 0 1.266 0c.13.21.358.356.631.356.41 0 .744-.317.744-.708s-.333-.708-.744-.708a.74.74 0 0 0-.636.364"/><path fill="#fff" d="M45.746 17.952a.75.75 0 0 0-.61-.32.75.75 0 0 0-.627.345.74.74 0 0 0-.62-.338.74.74 0 0 0-.63.35.74.74 0 0 0-.62-.343.74.74 0 0 0-.624.346.75.75 0 0 0-.631-.35c-.278 0-.51.15-.641.362a.734.734 0 0 0-1.258.026.733.733 0 0 0-1.27.02.731.731 0 0 0-1.273.016.738.738 0 0 0-1.294.018.74.74 0 0 0-.642-.372c-.41 0-.74.316-.74.705s.33.705.74.705a.74.74 0 0 0 .654-.391.74.74 0 0 0 1.292-.012.73.73 0 0 0 1.27-.009.734.734 0 0 0 1.27.002c.128.211.358.36.632.36.27 0 .494-.145.624-.35a.75.75 0 0 0 .636.355.75.75 0 0 0 .635-.354c.132.2.354.34.62.34.269 0 .493-.144.624-.348a.74.74 0 0 0 .626.346c.267 0 .49-.142.623-.342.133.2.356.341.624.341a.75.75 0 0 0 .611-.323.77.77 0 0 0 .634.326c.417 0 .757-.323.757-.72 0-.398-.34-.721-.757-.721-.267 0-.5.132-.636.33"/><path fill="#fff" d="M46.016 19.359a.77.77 0 0 0-.614-.301.77.77 0 0 0-.617.302.77.77 0 0 0-.615-.301.77.77 0 0 0-.63.318.75.75 0 0 0-.604-.31.75.75 0 0 0-.617.33.75.75 0 0 0-.618-.329c-.266 0-.489.14-.623.338a.74.74 0 0 0-.614-.329.74.74 0 0 0-.621.339.74.74 0 0 0-.62-.337c-.267 0-.49.141-.622.342a.74.74 0 0 0-.62-.339.74.74 0 0 0-.628.348.74.74 0 0 0-.62-.34.74.74 0 0 0-.612.328.77.77 0 0 0-.642-.34c-.42 0-.761.325-.761.725s.34.724.76.724c.274 0 .512-.14.646-.345a.74.74 0 0 0 .608.324.74.74 0 0 0 .624-.346.74.74 0 0 0 .624.345c.268 0 .491-.141.623-.342.133.199.355.338.62.338.267 0 .49-.14.622-.339a.74.74 0 0 0 .619.337.74.74 0 0 0 .615-.331.75.75 0 0 0 .622.335.75.75 0 0 0 .619-.33.75.75 0 0 0 .616.329.75.75 0 0 0 .605-.311c.138.19.368.316.63.316a.77.77 0 0 0 .615-.303.77.77 0 0 0 .615.302.77.77 0 0 0 .616-.302c.139.181.361.3.615.3.42 0 .761-.324.761-.724s-.341-.723-.76-.723a.77.77 0 0 0-.617.302"/><path fill="#fff" d="M46.784 20.498c-.25 0-.47.115-.611.291a.78.78 0 0 0-.611-.291.78.78 0 0 0-.611.291.78.78 0 0 0-.612-.291.78.78 0 0 0-.613.294.78.78 0 0 0-.61-.29.78.78 0 0 0-.616.298.77.77 0 0 0-.607-.292.77.77 0 0 0-.611.297.77.77 0 0 0-.613-.296.77.77 0 0 0-.608.292.78.78 0 0 0-.616-.299.78.78 0 0 0-.613.295.78.78 0 0 0-.612-.294.78.78 0 0 0-.614.295.78.78 0 0 0-.613-.295c-.255 0-.479.12-.618.301a.77.77 0 0 0-.61-.294c-.42 0-.76.324-.76.724s.34.724.76.724a.77.77 0 0 0 .61-.295c.14.182.364.3.618.3a.78.78 0 0 0 .614-.295c.14.178.36.295.613.295a.78.78 0 0 0 .613-.294c.14.177.36.294.612.294a.78.78 0 0 0 .617-.3.77.77 0 0 0 .607.293.77.77 0 0 0 .613-.297.77.77 0 0 0 .611.297.77.77 0 0 0 .607-.292c.14.18.363.298.616.298.25 0 .47-.115.61-.29a.78.78 0 0 0 .613.293.78.78 0 0 0 .612-.291c.14.176.36.29.61.29a.78.78 0 0 0 .612-.29c.14.175.36.29.61.29.427 0 .771-.328.771-.733s-.344-.733-.77-.733"/><path fill="#fff" d="M47.41 22.689c0 3.138-2.673 5.682-5.97 5.682-3.298 0-5.972-2.544-5.972-5.682s2.673-5.683 5.971-5.683 5.972 2.544 5.972 5.683"/></svg>